<svg version="1.1" xmlns="http://www.w3.org/2000/svg" viewBox="0 0 498.3201554357154 215.0025767211879" width="498.3201554357154" height="215.0025767211879">
  <!-- svg-source:excalidraw -->
  
  <defs>
    <style>
      @font-face {
        font-family: "Virgil";
        src: url("https://excalidraw.com/Virgil.woff2");
      }
      @font-face {
        font-family: "Cascadia";
        src: url("https://excalidraw.com/Cascadia.woff2");
      }
    </style>
  </defs>
  <g stroke-linecap="round" transform="translate(10 10) rotate(0 68 18.5)"><path d="M1.15 -0.86 C45.31 -0.24, 88.68 1.81, 135.3 1.8 M-0.4 -0.31 C41.31 0.05, 83.75 -0.78, 135.81 -0.4 M136.73 1.4 C137.17 10.66, 133.9 22.74, 135.25 35.7 M136.33 0.1 C136.77 7.74, 136.04 16.87, 135.99 37.36 M135.78 35.63 C98.24 38.48, 62.8 39.03, -1.92 35.4 M135.18 36.19 C101.41 36.48, 69.23 36.86, 0.76 37.12 M-0.99 37.41 C0.55 26.15, 0.27 13.93, -1.48 -0.73 M-0.89 37.38 C0.55 22.04, -0.69 9.2, 0.07 -0.56" stroke="#000000" stroke-width="1" fill="none"></path></g><g transform="translate(21 16) rotate(0 53.5 12.5)"><text x="0" y="18" font-family="Virgil, Segoe UI Emoji" font-size="20px" fill="#000000" text-anchor="start" style="white-space: pre;" direction="ltr">aggregator</text></g><g transform="translate(88 104) rotate(0 34 12.5)"><text x="0" y="18" font-family="Virgil, Segoe UI Emoji" font-size="20px" fill="#000000" text-anchor="start" style="white-space: pre;" direction="ltr">module1</text></g><g stroke-linecap="round" transform="translate(75 97.5) rotate(0 48 18.5)"><path d="M-0.65 -0.32 C25.33 -1.19, 47.92 -1.91, 97.82 -1.35 M-0.33 0.55 C32.86 -0.13, 65.82 1.53, 96.25 -0.61 M96.28 0.47 C94.26 6.28, 94.02 15.91, 95.75 36.16 M95.28 0.53 C95.58 7.71, 96.42 14.27, 95.98 36.07 M95.37 36.12 C75.38 35.95, 56.45 38.17, -1.47 35.57 M96.96 37.31 C76.3 36.52, 54.97 36.85, -0.63 36.51 M1.35 38.69 C1.32 26.57, 0.78 15.95, 1.91 -1.27 M0.43 37.34 C0.19 22.53, 0.26 7.88, 0.61 0.79" stroke="#000000" stroke-width="1" fill="none"></path></g><g stroke-linecap="round"><g transform="translate(31 49) rotate(0 -2.0892274685203915 30.94223290667871)"><path d="M-0.07 0.19 C-0.67 10.34, -3.69 51.13, -4.11 61.41 M-1.56 -0.76 C-1.76 9.51, -1.72 51.99, -1.98 62.64" stroke="#000000" stroke-width="1" fill="none"></path></g></g><g stroke-linecap="round"><g transform="translate(32 111) rotate(0 21.35458250760564 -0.3022907205535148)"><path d="M-0.37 0.06 C6.35 0.01, 33.98 0.82, 40.93 0.65 M1.64 -0.95 C8.66 -1.44, 36.04 -1.27, 43.07 -1.14" stroke="#000000" stroke-width="1" fill="none"></path></g></g><g stroke-linecap="round"><g transform="translate(94.82198693754776 51.625193075421976) rotate(0 1.9863542179613205 5.594790595001385)"><path d="M0.04 -0.15 C-1.07 1.99, -8.19 11.07, -6.42 12.42 C-4.65 13.76, 9.74 9.88, 10.67 7.93 C11.6 5.98, 0.95 2.08, -0.84 0.71 M-1.39 -1.28 C-2.16 0.59, -6.22 9.7, -4.25 10.89 C-2.29 12.08, 9.86 7.91, 10.4 5.84 C10.93 3.78, 0.96 -0.5, -1.04 -1.48" stroke="#d9480f" stroke-width="1" fill="none"></path></g></g><g stroke-linecap="round"><g transform="translate(97.89891001447086 62.907244357473246) rotate(0 4.601877597337364 15.073766308030827)"><path d="M-0.78 0.91 C0.72 6.01, 8.37 25.08, 9.99 29.8 M1.01 0.35 C2.31 5.14, 8.16 22.83, 9.3 27.84" stroke="#d9480f" stroke-width="1" fill="none"></path></g></g><g transform="translate(89.03444115000173 174.5025767211879) rotate(0 38.5 12.5)"><text x="0" y="18" font-family="Virgil, Segoe UI Emoji" font-size="20px" fill="#000000" text-anchor="start" style="white-space: pre;" direction="ltr">module2</text></g><g stroke-linecap="round" transform="translate(76.03444115000173 168.0025767211879) rotate(0 48 18.5)"><path d="M-1.21 -0.79 C39.56 -1, 76.39 1.01, 95.29 1.49 M-0.01 0.82 C31.36 -1.78, 63.23 -0.25, 95.6 -0.12 M96.03 -1.41 C96.19 11.28, 95 24.93, 95.45 35.13 M96.41 0.73 C95.62 14.25, 95.27 29.01, 95.38 37.7 M95.48 38.76 C62.05 36.22, 27.03 34.52, -0.69 37.37 M95.09 36.85 C61.7 36.08, 28.2 37.02, 0.66 37.18 M-1.87 35.71 C1.29 27.59, -0.16 19.42, 1.64 -1.39 M-0.49 37.41 C-0.22 27.96, 0.54 16.8, -0.43 -0.68" stroke="#000000" stroke-width="1" fill="none"></path></g><g stroke-linecap="round"><g transform="translate(29.74872686428762 116.93114814975928) rotate(0 -1.3891437946306837 30.860636485675343)"><path d="M-0.58 -0.32 C-1.3 9.87, -3.63 51.56, -4.1 61.82 M1.32 -1.54 C0.94 8.79, -1.02 52.65, -1.96 63.26" stroke="#000000" stroke-width="1" fill="none"></path></g></g><g stroke-linecap="round"><g transform="translate(30.74872686428762 178.93114814975928) rotate(0 20.747361201792955 -0.027408692165892035)"><path d="M-0.32 -1.1 C6.54 -1.06, 34.9 -0.58, 41.82 -0.36 M1.71 0.94 C8.34 1.2, 33.78 0.87, 40.77 0.99" stroke="#000000" stroke-width="1" fill="none"></path></g></g><g stroke-linecap="round"><g transform="translate(261.1589832745441 148.2608184794296) rotate(70.66029930166118 2.294822460974615 5.815199691684882)"><path d="M-0.49 -0.89 C-1.24 1.2, -7.1 10.77, -5.53 12.22 C-3.97 13.67, 8.05 9.84, 8.9 7.81 C9.74 5.78, 0.97 1.31, -0.46 0.04 M1.45 1.26 C0.62 3.05, -8.21 9.86, -6.56 10.59 C-4.91 11.33, 10.33 7.24, 11.35 5.67 C12.37 4.09, 1.6 2, -0.46 1.16" stroke="#d9480f" stroke-width="1" fill="none"></path></g></g><g stroke-linecap="round"><g transform="translate(175.6695211851171 179.35176182909606) rotate(358.93365671426665 38.393219817251406 -11.170045184871839)"><path d="M-0.89 -0.15 C12.11 -3.77, 64.67 -18.58, 77.67 -22.19 M0.85 -1.27 C13.79 -4.72, 64.6 -17.85, 77.22 -21.1" stroke="#d9480f" stroke-width="1" fill="none"></path></g></g><g stroke-linecap="round" transform="translate(266.17729829285884 38.594220926040066) rotate(0 111.07142857142827 75.02560646900247)"><path d="M114.29 0.75 C128.01 -0.15, 143.79 2.32, 157.16 6.21 C170.53 10.09, 184.77 16.7, 194.49 24.08 C204.22 31.45, 210.98 41.02, 215.5 50.45 C220.02 59.88, 222.49 70.76, 221.63 80.66 C220.78 90.55, 217.22 101.03, 210.36 109.81 C203.51 118.59, 192.05 127.04, 180.51 133.34 C168.96 139.64, 154.88 144.78, 141.11 147.61 C127.33 150.44, 112.16 151.47, 97.86 150.31 C83.56 149.15, 68.14 145.83, 55.3 140.64 C42.46 135.46, 29.57 127.39, 20.8 119.2 C12.03 111.01, 5.72 101.15, 2.67 91.5 C-0.38 81.85, -0.03 70.94, 2.49 61.31 C5 51.69, 9.99 41.92, 17.77 33.73 C25.55 25.54, 37.13 17.55, 49.17 12.19 C61.22 6.83, 77.11 3.53, 90.04 1.58 C102.97 -0.36, 118.51 0.17, 126.76 0.51 C135.01 0.85, 139.74 2.41, 139.53 3.64 M109 0.98 C122.66 -0.43, 137.08 3.13, 150.67 6.6 C164.26 10.07, 179.88 15.02, 190.56 21.79 C201.23 28.56, 209.56 37.9, 214.72 47.22 C219.87 56.53, 221.8 68.12, 221.49 77.69 C221.17 87.25, 218.86 95.8, 212.82 104.6 C206.78 113.41, 196.16 123.84, 185.24 130.51 C174.32 137.18, 160.91 141.5, 147.3 144.64 C133.69 147.78, 118.22 149.91, 103.58 149.35 C88.93 148.78, 72.44 145.78, 59.45 141.25 C46.46 136.72, 34.75 129.44, 25.63 122.18 C16.52 114.91, 8.66 106.98, 4.77 97.67 C0.87 88.37, 0.81 76.14, 2.25 66.35 C3.69 56.55, 6.43 47.43, 13.39 38.91 C20.36 30.38, 32.33 21.15, 44.05 15.2 C55.77 9.26, 72.9 5.54, 83.7 3.23 C94.51 0.93, 104.75 1.83, 108.9 1.36 C113.04 0.88, 108.66 -0.66, 108.57 0.39" stroke="#aaddaa" stroke-width="1" fill="none"></path></g><g transform="translate(313.9589694518885 59.88640421444944) rotate(0 67.48113207547152 14.66981132075469)"><text x="0" y="20.339622641509354" font-family="Virgil, Segoe UI Emoji" font-size="23.47169811320748px" fill="#aaddaa" text-anchor="start" style="white-space: pre;" direction="ltr">Maven Repo</text></g><g transform="translate(314.03444115000207 115.9311481497594) rotate(0 63 10)"><text x="0" y="14" font-family="Virgil, Segoe UI Emoji" font-size="16px" fill="#000000" text-anchor="start" style="white-space: pre;" direction="ltr">external-project</text></g><g stroke-linecap="round" transform="translate(301.03444115000207 109.4311481497594) rotate(0 75.85714285714278 18.5)"><path d="M-1.69 -1.46 C39.45 1.59, 76.41 -1.29, 150.74 1.75 M-0.94 0.16 C45.48 1.74, 90.66 1.61, 151.44 -0.07 M151.39 1.61 C151.5 14.17, 150.98 27.45, 149.94 36.25 M152.07 0.22 C151.31 8.21, 151.31 15.2, 151.59 37.28 M150.97 37.38 C120.68 34.32, 88.36 37.42, 0.83 36.65 M152.2 36.72 C92.38 36.25, 32.9 35.41, -0.36 37.51 M-0.78 36.11 C-0.29 31.26, 0.19 19.84, 0.25 -1.25 M-0.62 37.05 C0.42 25.73, -0.47 15.79, -0.71 -0.21" stroke="#000000" stroke-width="1" fill="none"></path></g></svg>