<svg enable-background="new 0 0 792 1135.9" viewBox="0 0 792 1135.9" xmlns="http://www.w3.org/2000/svg"><path d="m487.4 224.4s22.2 223.1-23.5 212.7c-27.6-6.3 8.8.1-69.6-41.2-64.6-34-129.8-110.9-146.5-141-10.1-18.2-8.5-87.6 48.5-127.4s127.3-65.3 201.3-25.8z" fill="#d4410d"/><path d="m471.5 172.3-54.6 207.7 108.9 56.4s37.7-8.4 36.4-35.4c-1.3-26.9-13.7-18.4 12.9-61.9 26-42.7 17.9-78 13.4-122.4-3.9-38.4-28.3-72.7-30.9-96.9-2.7-24.2-29.6-76.7-86.1-76z" fill="#d4410d"/><path d="m212.9 520.4c6.2-40.9 39.1-58.7 61.9-63 24.6-4.6 51.7-4.7 73.5-17.1 21.7-12.4 21.6-78.3 21.6-78.3h47 46.9s-3.5 62.1 18.3 74.5 56.1 14.7 76.8 20.9 55.7 22.1 61.9 63c5 32.8 9.8 104.5 9.8 104.5l-213.9 2.9-207.7 4.4s-1.1-79.1 3.9-111.8z" fill="#f2b181"/><path d="m468 412.5c-25.3-4.7-74.1-20.3-97.9-38.1 0-1.9 0-3.5 0-5.1 0-.1 0-.1 0-.1 0-.7 0-1.3 0-1.9 0-.1 0-.3 0-.4 0-.5 0-1 0-1.4 0-.1 0-.2 0-.3 0-.4 0-.8 0-1.1 0-.1 0-.2 0-.2 0-.3 0-.6 0-.9 0 0 0-.1 0-.2 0-.2 0-.4 0-.5 0-.2 0-.3 0-.3h47 46.9c-.1-.1-1.7 28.3 4 50.5z" fill="#eb9850"/><path d="m283.2 206.8s-20.1-31.2 3-78.3c24.8-50.7 59.9-84.7 128.3-84.7 68.3 0 107.8 34 132.7 84.7 23.1 47.1 3.4 78.3 3.4 78.3 31.1-6.2 25.3 27.8 15.5 43.1-8 12.7-8.2 14.1-13.1 28.1-6.9 20.2-23 6.2-23 6.2-9.3 25.9-15.9 32-53.1 66.3-32.4 29.8-43.7 29.5-60.1 29.5s-27.4.4-60.1-29.5c-37.3-34.1-43.8-40.4-53.1-66.3 0 0-16.1 14-23-6.2-4.9-14-5-15.4-13.1-28.1-9.6-15.4-15.4-49.3 15.7-43.1z" fill="#f2b181"/><path d="m212.9 520.4c6.2-40.9 37.1-58.7 61.9-63 13.7-2.4 32.9-4.7 50-10.9 7.6-2.7 29-13.7 29-13.7l23.6 34.4h78.7l23.7-34.4s21.5 11 29 13.7c17.2 6.2 36.7 6.9 50 10.9 20.7 6.2 55.7 22.1 61.9 63 5 32.8 45.8 223.2 45.8 223.2l-85.2 27.4-22.3-138.1s-10.4 81.7 9.4 186.9 41.3 123.4 14.6 131.6c-26.6 8.2-259.8 29.5-291.1 24.7-31.3-4.9-18.1-41.5-11.7-100s-18.8-266-18.8-266l-60.4 43.6s6.9-100.6 11.9-133.3z" fill="#f7f6f5"/><path d="m365.3 117.9s-1.3 22.6-21 42.3c-19.7 19.8-36 28.3-32.3 71.5s19.7 58 6.2 80.2c-13.6 22.2-24 28.4-16.3 48.1 7.7 19.8 5.1 27.2-3.5 40.7-8.5 13.6 0 32.1 0 32.1s-15.9-18.5-11-37-19.8-25.9-18.5-50.6c1.2-24.7 17.3-53 1.2-83.9-10.2-19.6-36.3-73.1-24.7-112.3 6.6-22.2 17.5-44.2 32.1-61.2 8.2-9.6 28.8-48 87-44z" fill="#e6511c"/><path d="m478 431.7c13.2 24.4 8.5 51.3-11.4 61.3-19.9 10.1-47.7-.4-63.7-23.4z" fill="#fff"/><path d="m358.9 423.8c-15 29.5-14.1 59.9 2.6 69.2 16.7 9.4 43.1-5.7 60.5-33.9z" fill="#fff"/><path d="m358.9 103.3s-9.3 37.4 43.7 73.2c0 0-7.9-20.1-10.4-39.2 0 0-7 23.2 42.7 34.9 0 0-9.3-3-9.3-15 0 0 77 5.5 90 40.6 13 35.2 17.9 54.5-5.2 79.5s-5.6 47.2.9 77.7c6.4 30.6-2.4 38.6-10.2 50-11.4 16.6 2.1 37.6 2.1 37.6s-12.3-17.3 10.9-32.4c9.7-6.3 24.9-15.4 19.3-46.9s.9-57.4 12.9-68.5c12.1-11.1 41.7-29.6 32.4-71.2-9.3-41.7-9.3-50-4.6-68.5 4.6-18.5-27.9-62-42.3-78.5-32.4-37.1-119-62.8-167.5-32.9z" fill="#e6511c"/><path d="m524.8 960.4 22.7-505.1-22.4-8-23.1 515.3z" fill="#4189c6"/><path d="m342 975.7 25.2-1.5-58-523.1-22.9 4.2z" fill="#4189c6"/><path d="m375.2 310.7c-2.5-1.4-1 .8-.6 1.3 3.4 3.6 19.8 16.6 43.2 16.2 24.1-.4 34.9-9.9 37.8-13 .4-.4.2-1.1-.4-1.3-4.4-1.1-19.9-4.6-32.8-4.6-6.5 0-13.3 2.9-21.8 4.1-6.8.9-15.6 2.7-25.4-2.7z" fill="#ea1818"/><path d="m365.3 203.9c12.8 0 23.2 10.4 23.2 23.2s-10.4 23.2-23.2 23.2-23.2-10.4-23.2-23.2 10.4-23.2 23.2-23.2z" fill="#fff"/><path d="m374.6 226.9c0 5.4-4.4 9.9-9.9 9.9-4 0-7.5-2.4-9-5.9.6.4 1.3.6 2 .6 2.3 0 4.1-1.8 4.1-4.1s-1.8-4.1-4.1-4.1c-.9 0-1.8.3-2.4.8 1.2-4 5-7 9.4-7 5.5-.1 9.9 4.3 9.9 9.8z" fill="#1c4911"/><path d="m470.3 203.9c12.8 0 23.2 10.4 23.2 23.2s-10.4 23.2-23.2 23.2-23.2-10.4-23.2-23.2 10.4-23.2 23.2-23.2z" fill="#fff"/><path d="m479.6 226.9c0 5.4-4.4 9.9-9.9 9.9-4 0-7.5-2.4-9-5.9.6.4 1.3.6 2 .6 2.3 0 4.1-1.8 4.1-4.1s-1.8-4.1-4.1-4.1c-.9 0-1.8.3-2.4.8 1.2-4 5-7 9.4-7 5.5-.1 9.9 4.3 9.9 9.8z" fill="#1c4911"/><path d="m373.2 84s28.6-7.8 44.6-9.1 35.1-2 35.1-2-11.8-4.3-35.8-1.5-43.9 12.6-43.9 12.6z" fill="#d4410d"/><path d="m378.3 100.2s26.3-4.8 57.6 3.4c31.3 8.1 40 33.3 40 33.3s-11.7-17.6-39.9-26.8c-28.1-9.2-57.7-9.9-57.7-9.9z" fill="#d4410d"/><path d="m364.9 174.8c-24.7.5-36.3 6.7-39.6 12.5-4.1 7.3 6.9 4 16.8.1 9.8-3.9 26.3-6.6 36.4-2.6 10 3.9 15.8 6.8 15.8 1.7-2.7-5.1-14.4-11.7-29.4-11.7z" fill="#e6511c"/><path d="m435 186.5c0 5.2 5.8 2.3 15.8-1.7 10.1-4 26.6-1.3 36.4 2.6s20.9 7.2 16.8-.1c-3.3-5.9-14.9-12-39.6-12.5-14.9 0-26.7 6.6-29.4 11.7z" fill="#e6511c"/><path d="m418.9 436.7c-.8-.1-1.5-.2-2.1-.3-.5-.1-1-.2-1.3-.4s-.6-.4-.8-.6-.3-.5-.4-.9c-.1-.3-.1-.6 0-.9.1-.2.3-.5.5-.7s.5-.4.8-.6.6-.4.9-.6c0 0 .1-.1.3-.2s.4-.3.7-.6c.3-.2.6-.5 1-.7.4-.3.7-.5 1.1-.8s.7-.5 1-.7.6-.4.8-.5c.1-.1.2-.1.4-.2h.4c.1 0 .2.1.3.2s.2.2.2.3c.1.1.1.2.2.3 0 .1.1.2.1.3v.1c.1.2 0 .4-.1.6-.1.1-.2.3-.4.4l-6.5 3.9 6.3.7c.1 0 .2 0 .4.1s.3.1.4.2.3.2.4.4c.1.1.2.3.3.5 0 .2 0 .4-.1.6s-.3.3-.6.4-.5.1-.9.1c-.3 0-.7-.1-1-.1-.4-.1-.7-.1-1.1-.2-.5-.1-.9-.1-1.2-.1z" fill="#333"/><path d="m427.7 439.5c-.2-.8-.2-1.6-.1-2.5s.4-1.8.7-2.6c.4-.9.9-1.7 1.5-2.4.6-.8 1.4-1.4 2.3-1.9-.6-.3-1.2-.6-1.7-.9s-1-.7-1.5-1.1c-.4-.4-.8-.8-1.1-1.2s-.5-.9-.6-1.3c-.1-.6-.2-1.2-.2-1.8s.1-1.1.2-1.6.3-1 .5-1.4.5-.8.8-1.2c.3-.3.6-.6 1-.9.4-.2.7-.4 1.1-.5.5-.1 1.1-.1 1.6 0 .6.2 1.1.5 1.6 1s1 1.2 1.5 2.1c.4.9.8 2 1.1 3.3.2 1 .4 1.9.5 2.7.1.9.2 1.7.3 2.5.4.1.8.3 1.2.4s.8.2 1.3.4c.1 0 .2.1.3.1s.3.1.4.1.2.1.3.2l.2.2v.2c0 .1-.1.1-.1.2-.1.1-.1.1-.2.2s-.1.1-.1.1c-.1.1-.2.1-.4.2-.3.1-.7.1-1.2.1s-1-.1-1.6-.2c0 1.1-.1 2.2-.2 3.2s-.4 1.9-.6 2.7c-.3.8-.6 1.5-.9 2.2-.4.6-.7 1.2-1.1 1.7s-.8.8-1.3 1.1c-.4.3-.9.5-1.3.6-.5.1-.9.1-1.4 0-.4-.1-.9-.3-1.2-.6-.4-.3-.7-.7-1-1.2-.2-.9-.4-1.5-.6-2.2zm2.4 0c.1.6.4 1 .7 1.3s.6.3 1 .2.8-.4 1.2-.8c.4-.5.8-1.1 1.1-1.9s.6-1.8.8-3 .3-2.6.2-4.2l-.4-.1c-.6.3-1.1.6-1.6 1s-.9.9-1.3 1.4-.7 1-1 1.6-.5 1.1-.6 1.7c-.2.5-.2 1.1-.3 1.6.1.4.1.8.2 1.2zm-.7-15.3c.1.5.3.9.6 1.3s.7.8 1.2 1.2 1 .7 1.6 1 1.3.6 2 .9c-.1-.8-.2-1.7-.4-2.6s-.4-1.9-.6-2.9c-.2-.7-.3-1.3-.5-1.7-.2-.5-.4-.8-.6-1.1s-.4-.4-.7-.5c-.2-.1-.5-.1-.7 0s-.4.2-.6.3c-.2.2-.4.4-.5.6-.2.2-.3.5-.4.8s-.2.6-.3.9-.1.6-.1.9c-.1.3 0 .6 0 .9z" fill="#333"/><path d="m453.5 424.1v2.1c0 .7.1 1.2.2 1.7.1.4.3.7.5.9s.5.2.9.1c.1 0 .3-.1.5-.3.2-.1.4-.3.6-.6.2-.2.5-.5.7-.9.3-.4.5-.8.8-1.3 0 0 .1.1.2.2s.2.3.3.5.3.5.6.8c-.3.6-.7 1.1-1 1.5-.4.5-.7.9-1.1 1.2s-.7.6-1.1.8-.7.4-1 .4c-.4.1-.7.1-1.1 0-.3-.1-.7-.2-1-.4s-.6-.5-.8-.8c-.2-.4-.4-.8-.5-1.3 0-.2-.1-.4-.1-.7s0-.6-.1-.9c0-.3 0-.7 0-1.1s0-.8 0-1.3c-.8.3-1.5.5-2.2.8s-1.4.5-2.1.7c0 .5-.1 1.1-.1 1.6s-.1 1-.2 1.4-.1.9-.1 1.2c0 .4-.1.7-.1 1-.1.7-.3 1.2-.5 1.5s-.4.5-.6.6c-.1 0-.3 0-.4 0s-.3-.1-.4-.1c-.1-.1-.2-.1-.3-.3-.1-.1-.2-.2-.2-.4 0-.1 0-.2 0-.3 0-1 .1-1.9.2-2.8s.2-1.8.3-2.6c-.3.1-.6.1-.9.1s-.6 0-.9-.1-.5-.2-.8-.4c-.2-.2-.5-.4-.7-.7 0-.1-.1-.2-.1-.3s-.1-.2-.1-.2c-.1-.3 0-.4.2-.5.1 0 .2 0 .4.1s.4.2.7.5c.3-.1.5-.2.8-.2.3-.1.6-.1.9-.2l.8-.2c.1-.6.2-1.2.2-1.7.1-.6.1-1.1.2-1.6 0-.3 0-.7 0-1s-.1-.6-.1-.9c-.1-.2-.1-.4-.2-.6s-.2-.3-.3-.4-.3-.2-.4-.2c-.2 0-.4 0-.6 0s-.4.1-.6.2-.5.3-.7.5c-.3.2-.5.4-.8.7s-.6.6-.9 1c-.1.1-.2.3-.3.3-.1.1-.2.1-.3.1 0 0-.1-.1-.2-.2s-.1-.3-.2-.6-.1-.6 0-.9.2-.6.4-.9.4-.6.7-.8c.3-.3.6-.5.9-.7s.6-.4.9-.5.6-.3.9-.3c.4-.1.8-.1 1.2-.1s.8.1 1.1.3.6.4.9.8.5.8.6 1.4c.1.3.1.6.1 1v1.3 1.5c0 .5-.1 1.1-.1 1.7.6-.2 1.3-.4 2-.6s1.5-.4 2.2-.7c.1-1 .2-2.1.3-3.3.1-1.1.3-2.2.4-3.4.1-.4.2-.7.3-.9.2-.3.4-.4.7-.5h.4c.1 0 .2 0 .3.1s.2.1.3.2.1.2.2.4c0 .1.1.3.1.5v.6c0 .4-.1.8-.2 1.3-.1.4-.1.9-.2 1.4s-.1 1-.1 1.5-.1 1-.1 1.5c.4-.1.7-.2 1-.3s.5-.2.6-.2.1 0 .2-.1h.2c.2 0 .3-.1.4 0 .1 0 .2 0 .3.1.1 0 .1.1.2.2 0 .1.1.2.1.3v.3c0 .1-.1.2-.2.2-.1.1-.1.1-.2.2-.1 0-.2.1-.2.1-.2.1-.3.1-.3.1-.1 0-.1 0-.1.1 0 0 0 0-.1 0 0 0 0 0-.1 0 0 0-.1 0-.2.1-.1 0-.2.1-.4.1-.2.1-.4.1-.6.2-.3.1-.5.2-.7.3z" fill="#333"/><path d="m466.7 425.2c-.3.2-.6.4-1 .6-.3.2-.6.4-.9.7-.3.2-.6.4-.9.6s-.6.3-.8.3c-.3.1-.5.1-.7 0s-.3-.2-.4-.4c0-.2-.1-.4 0-.5 0-.2.1-.3.1-.5.1-.1.1-.3.2-.4s.1-.2.2-.2l5.5-3.6-6.8-.3c-.2 0-.4-.1-.6-.1-.1-.1-.3-.2-.3-.5 0 0 0 0 0-.1s0-.2 0-.3 0-.2 0-.3 0-.2.1-.4c0-.1.1-.2.2-.3s.2-.2.4-.2h.4c.2 0 .5 0 .8.1.3 0 .7.1 1.1.1.4.1.8.1 1.2.2s.7.1 1.1.2c.3 0 .6.1.8.1s.3 0 .3.1c.4.1.7.1 1.1.1.3 0 .6.1.9.2s.5.2.7.3c.2.2.3.4.4.7.1.4.1.7.1 1s-.2.6-.4.9-.6.6-1 1c-.5.1-1.1.5-1.8.9z" fill="#333"/><path d="m432.1 484.9s-88.1-49.1-95.1-17.5-15.1 55.7 8.2 59.7c23.3 4.1 86.9-42.2 86.9-42.2z" fill="#3373aa"/><path d="m416.9 477.6c24.8-13.4 73.9-36.4 79.9-13 8.2 31.5 17.1 55.3-6 60.2-16.2 3.5-53.2-17.3-73.8-29.9-.3-15.3.1-2.2-.1-17.3z" fill="#4189c6"/><path d="m532.2 968.6h-34.7c-.6 0-1.1-.5-1.1-1.1v-49.1c0-.6.5-1.1 1.1-1.1h34.7c.6 0 1.1.5 1.1 1.1v49.1c0 .6-.5 1.1-1.1 1.1z" fill="#ccc"/><path d="m373.6 979.7-34.4 4.7c-.6.1-1.2-.4-1.3-1l-6.6-48.7c-.1-.6.4-1.2 1-1.3l34.4-4.7c.6-.1 1.2.4 1.3 1l6.6 48.7c0 .7-.4 1.3-1 1.3z" fill="#ccc"/><path d="m538.1 526.2c5.3 8.7 5.1 17.9 2.6 27.4-5.1-1.8-1.1-6.2-3.1-10.1-4.2 5.1-9.9 7.9-15.9 12.9 5.6.5 8.3-2.2 11.5-3.5 3.7-1.5 3.8-1.4 4.6 2.8-2.7 2.2-5.2 4.9-8.6 6-1.6.6-3.4.6-5.6 1.7 2.9-1.1 5.4-1.3 7.7-2.1.6 0 1.2.2 1.7.6.9 2.7 1.7 5.4 2.6 8.1.8 1.1 0 1.7-.8 2.2-4.7 5.6-8.4 11.9-12.7 17.9 4.3-1.7 6.4-6.1 10.4-8.1.6-.1 1.3 0 1.8.3 1.2 2.4-.2 4.1-1.4 5.8 1.4-.5 1.3-2.7 2.8-3.3 1.1.2 1.8.6 1.2 1.8-.7 5.9-5.2 11.5-1.5 17.8-.6 3.8-4.3 8 1.3 11.1.5 5.3-3.5 9.5-3.8 14.6.5 1.2.8 2.4-.5 3.4-3.7 2.2-3.9 6.9-7 9.6-.4 1.1-2.7 2.4.4 3.1 2.7.4 4.3-3.2 7.2-1.9.2.6.2 1.2-.2 1.7-.9 3.3-1.5 5.1 2.2 8.5 4.3 4 5.1 12.3 4.1 18.8-1.7 10.2-1.1 19.7 2.3 29.5 2.5 7.1.8 14.2-5.6 21.2-.2-3.7-.4-6-.5-8.8-2.7 2.1-1.6 6.2-5.1 7.8-.2-3.8-.4-7.5-.5-11.2-1-1.3-2.8-1.7-3.7-3.1-1.6-6.1-5.6-10.9-9-16.1-7.3-11.3-10.4-22.9-2.2-35.1 1.5-2.3.3-3.2-1-4.5-2.2-2.3-4-5.5-2.1-8 3.7-5 .6-8.7-1.2-12.8-.2-.6-.2-1.3 0-1.9.5-.4 1.2-.5 1.8-.4 1.9.6 3.1 2.4 5 3 .8.3 1.9.6 2.2-.5.2-.9-.7-1.5-1.3-2-2.3-2.6-6-3.3-8.5-5.7-3.3-3.5-1.2-8.3-3-12.1-4-4.9-4.6-10.5-3.9-16.5 5.5.6 3.9 5.9 5.8 8.9 1.3 1.9 2.7 3.7 5.1 4.3-2.1-1.3-4.9-2-4-5.5 3.3-1.4 5.9 1.6 9 1.4.1.9 0-.6.7 0 .5.5.9 0 .4-.3-2.7-1.5-5.2-3.3-8-4.8-2.9-2.4-6-4.7-7.8-8.2 4.1-7 3.6-13.4-.8-20.5-3.5-5.6-2.5-12.4-1.6-18.8.3-2 .7-3.8-1.4-5.5-9.9-7.8-11.4-18.2-8.6-29.7 1-3.9.7-6.6-2.1-9.8-6.8-7.6-8-16.9-5.1-26.4 1.7-5.5.9-9.2-3.3-13.8-9.5-10.1-10.3-23.1-8-36.1.7-3.9.3-6.4-2.2-9.2-3.7-4.1-6.4-8.9-8.2-14.2-2.8-8.3-.4-13.8 7.9-16.8 9.8-3.5 19.5-1.8 28.8 2 5.5 2.2 10.4 7.3 15.8 7.6 5 .3 9.3-5.8 14.8-7.7 9.2-3.2 18.3-4.1 27.5-.3 5.9 2.4 8.7 6.4 8.6 13.2-.2 15.1-2.4 29.2-13.9 40.3-2.1 2-1.1 4.2-1.2 6.4.7 1.1 0 1.7-.8 2.2-5.2 2.5-5.9 9.2-11 11.9-5.8 3.8-12 6.9-17.4 10.4 4-.9 7.4-5.8 12.8-3.7-2.7 7.9-10.1 7.5-15 9.7 7.7-1.5 15.1-6 22.3-10.9 2-1.3 5-6 8-5.2 1.8 5.2-4 9.9-6.7 12.9-2.3 2.5-5.2 4.2-8.3 5.6-4.3.4-8.1 2.8-11.1 3.4 3.4-1.2 8-2.8 12.7-4 2-1 3.8-2.6 6.2-2.6 1 .3 1.8.8 1.3 2.1 3.6 6.9 5.3 14.1 4 21.9-2.3.7-2.4-2-3.8-2.6-5.7 2.4-8.9 8.6-15.3 9.9 1.8-.2 3.8-2.2 5.1-.3 1.4 2.1-1 3.1-2.6 3.8s-3.2 1.3-4.1 1.8c3.9-1.1 7.7-3.9 11.7-6.4 3.9-2.4 4.9-.4 4.3 3.4-1.5 2.2-3.2 4.2-5.9 5.2-3 0-5.7 1.1-8.4 2.2-.9.3.1 1.2-.3.4 0-.1.1-.3.5-.3 2.5-.6 4.8-2.8 7.7-1.3.9 1.5.2 3.2 1.2 4.1z" fill="#d4410d"/><g fill="#e6511c"><path d="m536.8 555.1c1.2-2.5.1-2.7-1.8-1.7-3.4 1.8-6.7 3.8-10.2 5.5-1.4.7-3.4.9-4.2-.9-.7-1.6-.7-3.4 1.4-4.6 5.6-3.4 11.7-6.2 15.1-12.4.2-.4 1.5-.8 1.7-.6 1.2 1.1 1.8 2.6 1.9 4.2.2 3-2.7 6 0 9-.3 2.3-1.1 4.3-3.8 4.6-1.1-1-.9-2-.1-3.1z"/><path d="m507.9 605.9c-3.5-2.2-1.5-7.6-5.4-9.6-.3-1.6-.2-3 1.2-4 4.3.4 5.1 5.1 8.3 6.9.6 2.4 2.7 3.2 4.5 4.4 1.4.8 3.4 1.5 2.4 3.9-4 1.3-6.5-3.2-10.3-2.7.1.4-.1.9-.7 1.1z"/><path d="m536.8 520.8c2-1.5 4-3 6-4.4 1-4.5-1.2-9.6 2.5-13.6.8 1.4 1.6 2.8 2.5 4.2.4 5.7-2.6 9.9-6 13.9-1.4 1.7-3.8 2.6-3.6 5.4-1.3-.6-1.3-1.9-1.4-3.1-.8-.8-.8-1.6 0-2.4z"/><path d="m536.6 615.7c-1.1-.3-2.1-.9-3.2-.8-1.2.1-5.5.9-8.1 2.5-2.9 1.8 4.8-5.5 5.7-6.7 1.5-1.9 2.8-4.1 4.2-6.1 2 3.5 2.1 7.2 1.4 11.1z"/><path d="m536.9 586.8c-.4-.4-.8-.9-1.2-1.3-1.4-.5-.6-2.1-1.4-2.9-.5 0-.9.1-1.4.1-.9-3.9.7-7.6 1.3-11.3.4-.5.9-.9 1.3-1.4 2.6 5.5 3.8 11 1.4 16.8z"/><path d="m510.7 630.8c-.1.6-.2 1.2-.3 1.7-4.9-5.8-3.7-12.9-3.9-19.7 2.4 3.6 1.3 8.5 4.4 11.8-.5 2.1 1.8 4.1-.2 6.2z"/><path d="m549.2 454.8c.5-.5 1-1.1 1.5-1.6 2.6 5.4 3 11 1 16.7-.6.4-1.2.4-1.7-.1-.9-1-1.4-2.2-1.5-3.6.7-3.7-.6-7.7.7-11.4z"/><path d="m550.5 469.9h1.2c-1.4 5.7-3.4 11.1-7.9 15.2-.5-.5-1-1-1.5-1.5 1.5-5.3 4.9-9.5 8.2-13.7z"/><path d="m536.8 555.1c0 1 .1 2 .1 3.1-.8 1.8-1.9 3.3-4 3.8-.5 0-1.1 0-1.6 0-1.5.9-2.7 1.1-2.6-1.3 2.7-1.8 5.4-3.7 8.1-5.6z"/><path d="m532.8 646.1c-.1-.5-.1-.9-.2-1.4-2.6-3.6-2.6-7.4-1-11.4.4-1 .8-2 1.2-3 2.7 5.3 2.7 10.5 0 15.8z"/><path d="m525.9 708.9c1.8.4 4.3-.1 3.7 3.1-1.1.9-1.4 2.8-3.3 3.1-1.1-1.9-.5-4.1-.4-6.2z"/><path d="m497 457.4c6.1 4.4 13.2 6.9 19.6 10.7-14.5-2.4-27.3-8.2-37.6-19-3.5-4.5-4.7-9.5-3-14.9 1.1-5.6.3-4.9 2.5-1.7 3.1 4.5 7.4 8.8 10.2 12.6 2 1.4-4.4 3.4.3 4.7 2.7 2.6 6.4 4 8 7.6z"/><path d="m518.7 663.5c.4-1.3.3-3.1 1.9-3.2 1.6-.2 1.2 1.6 1.4 2.6.6 2.9.9 5.8 1.4 8.8 2-.5.3-2.8 2.1-3.8 1.1 8.8-2.2 16.9-2.5 26.4-6.8-10.2-14.6-18.9-6.8-30.9.8.9 1.2 1.9 1.2 3.1.3-1.2.5-2.2 1.3-3z"/><path d="m549.2 454.8c1.8 4.5 2.7 8.9-1 12.9-.1.3-.2.5-.3.8-7.7 10.1-18.7 13.7-30.3 16.4 5.1-4.4 12.5-5.2 16.7-10.9.2-1.4 1.1-2.6 2.3-3.1 2.5-1.1 4-2.3 1.6-4.9 3.1-2.9 5.7-6.1 7.8-9.9.7-1.4 1.1-3.3 3.2-1.3z"/><path d="m545.1 415.9c2.9-2.5 5.3-5.3 7.5-8.5 1-1.4 4.2-5.7 4.7-8.2 1.7-8.6 1.3 7.5 1.4 9.7.1 1.9.9 3.8-.3 5.6-1.2 2.2-1.7 4.9-4.5 5.8-6.9 8-19.1 14.2-29.1 14.3 4.8-2.6 8.9-4.9 13-7.1 1.7-3.7 5.5-5.2 8.2-7.8 2.2-1.8-2.7-2-.9-3.8z"/><path d="m545.2 502.9c-.2 4.2-.2 8.5-2 12.4-.2.4-.8.4-.9-.1-.2-1.4-.2-3.1-2.9-.7-4.2 3.7-9.4 5.4-15.6 7.4-.5.2-.9-.5-.5-.8 3-2.3 6.2-3.2 9-5.7.4-.4 0-1-.5-.8-2.5 1.1-4.6 2-7 3-.4.2-.8-.3-.6-.7 1.4-2.6 3.7-3.3 5.6-4.4 4.6-2.6 10.1-4.9 11.8-10.1 1.9-5.7 1.4-4.9 3.5.3.1 0 .1.1.1.2z"/><path d="m488.7 493.2c-.2-.1-.5-.2-.5-.4-1-4.2-4.8-9.6-.4-12.2 2.1-1.2 5.8 5.6 9.1 8.4 1.3 4.8 8 4.5 9.1 9.6 2.2 2.9 6.3 2.5 10.1 6.2-9.9-2.6-17.6-5.5-24.2-11.1-.7-.6-1.9-4.8-3.4-.4z"/><path d="m488.8 450.7c-2.7-.2-4.4-1.6-5.3-4.4 1.9-.3 4.4 2.3 5.2-1.2 10.3 5.9 21.1 11 31.2 18.7-8.2-1.2-14.6-5.3-21.5-7.8-3.8-.7-6.7-3.1-9.6-5.3z"/><path d="m513.6 542.5c1.1.6 2.2 1.3 5 2.9-9.4-.2-14.5-5.9-20.8-8.4-1.1.4-1.6-.3-2.1-1.1-2.1-4.2-3.9-8.5-.9-13.6 3.2 3.4 6.1 6.5 9 9.6.5 1.2.1 2.7 1.3 3.6 2.7 2.5 6.4 3.7 8.5 7z"/><path d="m534.2 571.4c2.5 4.1.2 7.7-1.3 11.3-2.3 3.7-5.7 6.5-9.1 9.3-.7.6-1.6 1.7-2.8.8 1.6-1.7-2.2-2.1-.8-3.9 4.5-5.9 9.6-11.3 12.4-18.4.5.3 1 .6 1.6.9z"/><path d="m506.5 570.2c-2.6-3.6-3.9-9.1-2.1-13.6 11.6 20 17.5 17.6 19.9 20-6.8-.6-11.2-4.6-16.6-6.4-.4.7-.8.7-1.2 0z"/><path d="m476.3 434.2c-.8 5.3.9 10.1 2.7 14.9 3.5 9.4 10.3 15.5 19.2 19.6.6 1.4-.1 2.1-1.3 2.6-14.6-4.5-25.4-23.9-20.6-37.1z"/><path d="m538.2 465.9c1.1 2.9 3 1.6 5.9-.4-2.3 5.7-7 5.9-9.8 8.4-5.6.7-9.9 5.3-16.4 5.6 6.1-6.4 13.4-9.7 20.3-13.6z"/><path d="m545.1 415.9c.5.4 1.1.9 1.6 1.3 1.2.8 3.3-1.4 3.6.5.3 2-1.8 2.5-3.6 2.6-3.3 2.2-6.4 4.9-10.5 5.8-4.9 1.8-9.5 4.6-15.9 5.5 8.7-6.1 16.4-11.5 24.8-15.7z"/><path d="m553.1 419.4c1.1-2 1.6-4.5 4.2-5.5-.1 10.1-4.4 17.6-13.7 22.1-1.6.2-3.7 2-4.1-1.4 5.8-2.7 10.7-6.5 13.9-12.2.7-1.1 1.7-2.2-.3-3z"/><path d="m531.6 633.3c1.6 3.7.7 7.6 1 11.4-2.5 0-3.2 5.3-6.8 2.4-.2-1.7-1-3-2.3-4 3.2-2.9 3.8-7.8 8.1-9.8z"/><path d="m531.1 698.3c-3.2-7.1-4.1-14 2.3-21.2 1.8 6.5-1.5 11.6-.9 16.9-1.2 1.2.3 3.3-1.4 4.3z"/><path d="m547.9 468.4c0-.3.1-.6.3-.8 1.9-.4 2 1 2.3 2.2-2.5 4.7-4.4 9.8-8.2 13.7-1.8 1-3.5 2-5.3 3-1.5.4-3.1 1.1-2.9-1.6 6.1-4.1 12.9-7.8 13.8-16.5z"/><path d="m506.1 498.6c-2.7-3.5-9.8-2.8-9.1-9.5 5 2.5 10.2 4.5 14.8 8.6-1.9 1.8-4 .2-5.7.9z"/><path d="m503.4 535.8c-4.8-1.7.2-2.6.3-3.9 5.6 2.7 11.3 5.4 16.2 9.8-2 1.7-3.4-.6-5-.4-4.3-.8-7.7-3.7-11.5-5.5z"/><path d="m495.6 535.8c.7.4 1.4.8 2.1 1.1 2.3 5.6 8.1 7.7 12.4 11.6-6.4.5-11.9-4.4-14.5-12.7z"/><path d="m518.9 629.4c1.7 1.2 4.9 2.2 3.2 4.9-1.6 2.6-4.5 1.6-6.7.2-1.3-.8-2.3-2.1-3.4-3.2-1-2.6.8-2.6 2.4-2.5 1.5 0 2.8 1.5 4.5.6z"/><path d="m488.8 492.9c5.8 6.5 7.8 9.2 13.6 11.4.1 2.6-1.2 2.2-2.8 1.4-5.4-2.6-9.9-6.9-11.4-12.9-.1-3.3.6.1.6.1z"/><path d="m518.9 607.4c-.8-2.2-2.8-2.4-4.6-3.2-2.1-.9-3.9-2.3-2.3-5 4 2.3 8.5 3.9 12.2 7.9-2.2 0-3.7.2-5.3.3z"/><path d="m477.4 402.7c-3.2-5-2.7-28.7-2.3-27.2 1.7 5.3 3.7 9.3 4.2 10.3 2.7 4.6 6.7 8 10.6 11.4.7 1.1 0 2.1-.3 3.1.5 2.9 2 2.3 4.6 6.3 7.3 5.4 15.9 8.3 23.6 12.9-13.1-2.5-25.3-7.1-35.6-15.8-.9-.8-1.5-3.4-3.5-1.1-.4.7-.8.7-1.3.1z"/><path d="m488.7 400.3c.4-1 .9-2 1.3-3.1 9.4 4.4 18.4 9.6 27.8 16.6-9.4-1.3-16.2-5.9-23.6-8.9-2.1-1.2-5.2-1.3-5.5-4.6z"/><path d="m477.4 402.7c.4 0 .8-.1 1.2-.1 4.7 7 10.7 12.6 18.2 16.7 1.1 1.6 1.1 2.6-1.3 2.5-9.1-3.4-15-9.8-18.1-19.1z"/><path d="m495.6 421.9c1-.5 1.3-1.4 1.3-2.5 5.4 1.2 10.5 3.4 15.3 6.5-5.6-1.3-11.1-2.7-16.6-4z"/><path d="m518.9 629.4c-.9 2.3-2.2 2.4-4 .9-1.3-1.1-2.4-.8-2.9.9-.4-.3-.8-.4-1.3-.5.4-2-2.5-4.1.1-6.1 2.9 1.3 5.7 2.6 8.1 4.8z"/><path d="m539.5 434.7c1 1.6 2.6 1.1 4.1 1.3-4.9 1.4-9.9 2.8-14.8 4.2-.2-.5-.4-1-.6-1.5 3.8-1.3 7.5-2.7 11.3-4z"/><path d="m534 485c.6 1.3 1.8 1.3 2.9 1.6-5.1 1.4-10.1 2.8-15.2 4.2 3.8-3.1 7.9-4.9 12.3-5.8z"/><path d="m531.1 698.3c.3-1.5-.2-3.2 1.4-4.3.6 4.7 4.9 7.2 6.7 11.3-3-2.2-6.9-3-8.1-7z"/><path d="m523.5 643.1c1.1-.1 2.7-.6 3-.1 1 1.4.9 3-.7 4.1-1.4.2-2.9 2.3-4.3.3-1.3-2.1.8-3.1 2-4.3z"/><path d="m518.7 663.5v9.1c-3.4-2.9-2.1-6.2-2.5-9.3 1-1.3 1.7.2 2.5.2z"/><path d="m536.8 520.8v2.4c-3.7.8-7.4 1.7-11.1 2.5 3.3-2.7 6.8-4.8 11.1-4.9z"/><path d="m499.6 505.7c1.1-.1 2.3-.1 2.8-1.4 3 .7 6.1 1.3 9.3 4-4.7-.3-8.5-.9-12.1-2.6z"/><path d="m503.4 535.8c4.3.8 8 2.9 11.5 5.4-.4.4-.8.8-1.2 1.2-4.1-1.3-7.4-3.6-10.3-6.6z"/><path d="m496.9 471.3c.4-.9.9-1.8 1.3-2.6 2.7 1 5.4 1.9 8.1 2.9.3 1.2.1 1.8-1.3 1.3-2.7-.5-5.4-1-8.1-1.6z"/><path d="m534.2 582.6c.5 1 1 1.9 1.4 2.9-1.1 2.9-2.6 5.5-7.1 7.1 2.4-4 5.5-6.3 5.7-10z"/><path d="m507.9 605.9c.3-.4.5-.9.8-1.3 2.2 2.7 5.2 4.2 9.4 6.8-5.7 0-8.2-2.3-10.2-5.5z"/><path d="m488.8 450.7c3.6 1 6.5 3.3 9.6 5.4-.5.4-.9.9-1.4 1.3-3-2-6.5-3.2-8.2-6.7z"/><path d="m506.5 570.2c.4 0 .8 0 1.2-.1 1.8 2.3 3.7 4.6 5.7 7.1-3.5-1-6-3-6.9-7z"/><path d="m505 472.9 1.3-1.3c2.5.9 5 1.7 9.1 3.2-5 .9-7.8-.3-10.4-1.9z"/><path d="m528.7 560.7c.5 1.3 1.6 1.1 2.6 1.3-2.8 2.2-6.5 1.2-10.8 3.6 2.8-4 5.9-3.7 8.2-4.9z"/><path d="m485.7 412.8c1.8 1.5 3.7 3.1 5.5 4.6 0 .6.1 1.1.1 1.7-2.4-1.7-5.1-3-7-5.1-1.6-1.7.5-1.2 1.4-1.2z"/><path d="m581.5 273.2s-6.7 28.9-13.1 43.6c-6.5 14.7-14.9 31.9-14.9 31.9s9.4-8.4 18.3-30.8c8.8-22.5 9.7-44.7 9.7-44.7z"/></g><path d="m262.7 616.1c-1.7 7.4 4.6 2.4 4.6 2.4l-13.3 184.4s-64.7-9.3-72-72.7c18-87.4 28.3-199.2 28.3-199.2s32.9-6.4 52.4 85.1z" fill="#f7f6f5"/><path d="m255.8 834.7s53.1-13.4 70.8-3.6 47.6 25.7 48.1 42.5-22.3 64.3-46.5 62.5-88.9-47.9-88.9-47.9z" fill="#f2b181"/><path d="m295 873.4c10.3-3.1 26.4-30.9 21.5-39.3-24.5 3.9-61.9-107-57.5-100 4.7 7.4-21.6-48.5-70-23.2-23.2 28 9.7 124.8 45.7 167.9 6.8 8.1 19.6 9.1 24.2 7.4 6.6-2.5 25.6-9.6 36.1-12.8z" fill="#f7f6f5"/><path d="m226.2 875.5s14.7-35.7 22.7-45.7 40.7-30.6 40.7-30.6l30.9 33.8s-18.6 41.6-26.6 49.9-36.6 23.3-36.6 23.3z" fill="#fff"/><path d="m576.7 826.7s-54.2-14.1-71.6-3.8c-17.5 10.2-47 26.7-46.8 44.3s25.1 67.1 49.4 65.3 87.8-49.9 87.8-49.9z" fill="#f2b181"/><path d="m536.9 857.7c-8.4-4.4-12.2-16.4-6.5-22.8.9-.8 73.9-111.9 69-106.6-5.3 5.6 26.6-24.2 64.5 5.4 15.5 27.8-37.2 107.4-75.5 138.4-7.2 5.8-18.5 4.6-22.2 2.4-5.4-3.2-20.7-12.4-29.3-16.8z" fill="#f7f6f5"/><path d="m610.7 876.3s-11.8-36.7-19-47.3-38.1-33.7-38.1-33.7l-37.6 27.2s15.3 42.9 22.6 51.8 34.7 26.1 34.7 26.1z" fill="#fff"/></svg>