<?xml version="1.0" encoding="utf-8"?>
<!-- Generator: Adobe Illustrator 19.1.0, SVG Export Plug-In . SVG Version: 6.00 Build 0)  -->
<svg version="1.1" id="Layer_1" xmlns="http://www.w3.org/2000/svg" xmlns:xlink="http://www.w3.org/1999/xlink" x="0px" y="0px"
	 width="72px" height="57.6px" viewBox="-363 252.2 72 57.6" style="enable-background:new -363 252.2 72 57.6;"
	 xml:space="preserve">
<style type="text/css">
	.st0{fill:#E57000;}
</style>
<g>
	<path class="st0" d="M-334.3,260.6c-0.6-4.7-4.6-8.4-9.5-8.4c-4.9,0-8.9,3.7-9.5,8.4h-9.7v2.4h9.7c0.6,4.7,4.6,8.4,9.5,8.4
		c4.9,0,8.9-3.7,9.5-8.4h43.3v-2.4H-334.3z M-343.8,264.2c-1.3,0-2.4-1.1-2.4-2.4c0-1.3,1.1-2.4,2.4-2.4c1.3,0,2.4,1.1,2.4,2.4
		C-341.4,263.1-342.5,264.2-343.8,264.2z"/>
	<path class="st0" d="M-310.2,271.4c-4.9,0-8.9,3.7-9.5,8.4H-363v2.4h43.3c0.6,4.7,4.6,8.4,9.5,8.4c4.9,0,8.9-3.7,9.5-8.4h9.7v-2.4
		h-9.7C-301.3,275.1-305.3,271.4-310.2,271.4z M-310.2,283.4c-1.3,0-2.4-1.1-2.4-2.4s1.1-2.4,2.4-2.4c1.3,0,2.4,1.1,2.4,2.4
		S-308.9,283.4-310.2,283.4z"/>
	<path class="st0" d="M-343.8,290.6c-4.9,0-8.9,3.7-9.5,8.4h-9.7v2.4h9.7c0.6,4.7,4.6,8.4,9.5,8.4c4.9,0,8.9-3.7,9.5-8.4h43.3V299
		h-43.3C-334.9,294.3-338.9,290.6-343.8,290.6z M-343.8,302.6c-1.3,0-2.4-1.1-2.4-2.4c0-1.3,1.1-2.4,2.4-2.4c1.3,0,2.4,1.1,2.4,2.4
		C-341.4,301.5-342.5,302.6-343.8,302.6z"/>
</g>
</svg>
