<?xml version="1.0" encoding="utf-8"?>
<!-- Generator: Adobe Illustrator 19.1.0, SVG Export Plug-In . SVG Version: 6.00 Build 0)  -->
<svg version="1.1" id="Layer_1" xmlns="http://www.w3.org/2000/svg" xmlns:xlink="http://www.w3.org/1999/xlink" x="0px" y="0px"
	 width="81px" height="59px" viewBox="0 0 81 59" style="enable-background:new 0 0 81 59;" xml:space="preserve">
<style type="text/css">
	.st0{fill:#7D86A3;}
</style>
<g>
	<path class="st0" d="M65,59v-0.1C64.3,59,63.7,59,63,59H65z"/>
	<path class="st0" d="M16,59h2c-0.7,0-1.3,0-2-0.1V59z"/>
	<path class="st0" d="M0,30v11c0,9.3,7,16.9,16,17.9V12.1C7,13.1,0,20.7,0,30z"/>
	<path class="st0" d="M65,12.1v46.8c9-1,16-8.6,16-17.9V30C81,20.7,74,13.1,65,12.1z"/>
	<path class="st0" d="M54,12V0h-2.4h-1.1h-19h-0.6H27v12h-7v47h41V12H54z M31,4h19v8H31V4z M55,38H43v12h-5V38H26v-5h12V21h5v12h12
		V38z"/>
</g>
</svg>
