<?xml version="1.0" encoding="utf-8"?>
<!-- Generator: Adobe Illustrator 19.1.0, SVG Export Plug-In . SVG Version: 6.00 Build 0)  -->
<svg version="1.1" id="Layer_1" xmlns="http://www.w3.org/2000/svg" xmlns:xlink="http://www.w3.org/1999/xlink" x="0px" y="0px"
	 width="110px" height="110px" viewBox="-406.3 226 110 110" style="enable-background:new -406.3 226 110 110;"
	 xml:space="preserve">
<style type="text/css">
	.st0{fill:#E9F4D1;}
	.st1{fill:#ABD155;}
</style>
<circle class="st0" cx="-350.9" cy="281.2" r="52.2"/>
<g>
	<polygon class="st1" points="-359.2,291.2 -372.1,278.2 -377.6,283.8 -359.2,302.3 -324.9,268.1 -330.5,262.5 	"/>
	<path class="st1" d="M-351.3,226c-30.4,0-55,24.6-55,55s24.6,55,55,55c30.4,0,55-24.6,55-55S-320.9,226-351.3,226z M-351.3,332.1
		c-28.2,0-51.1-22.9-51.1-51.1s22.9-51.1,51.1-51.1s51.1,22.9,51.1,51.1S-323.1,332.1-351.3,332.1z"/>
</g>
</svg>
