<?xml version="1.0" encoding="utf-8"?>
<!-- Generator: Adobe Illustrator 19.1.0, SVG Export Plug-In . SVG Version: 6.00 Build 0)  -->
<svg version="1.1" id="Layer_1" xmlns="http://www.w3.org/2000/svg" xmlns:xlink="http://www.w3.org/1999/xlink" x="0px" y="0px"
	 width="110px" height="110px" viewBox="-405 226 110 110" style="enable-background:new -405 226 110 110;" xml:space="preserve">
<style type="text/css">
	.st0{fill:#F9D7BF;}
	.st1{fill:#E57000;}
</style>
<circle class="st0" cx="-350" cy="281.1" r="52.2"/>
<g>
	<polygon class="st1" points="-333.1,258.6 -350,275.4 -366.9,258.6 -372.4,264.1 -355.6,281 -372.4,297.9 -366.9,303.4 -350,286.6 
		-333.1,303.4 -327.6,297.9 -344.4,281 -327.6,264.1 	"/>
	<path class="st1" d="M-350,226c-30.4,0-55,24.6-55,55s24.6,55,55,55c30.4,0,55-24.6,55-55S-319.6,226-350,226z M-350,332.1
		c-28.2,0-51.1-22.9-51.1-51.1s22.9-51.1,51.1-51.1s51.1,22.9,51.1,51.1S-321.8,332.1-350,332.1z"/>
</g>
</svg>
