<?xml version="1.0" encoding="utf-8"?>
<!-- Generator: Adobe Illustrator 22.0.0, SVG Export Plug-In . SVG Version: 6.00 Build 0)  -->
<svg version="1.1" id="Calque_1" xmlns="http://www.w3.org/2000/svg" xmlns:xlink="http://www.w3.org/1999/xlink" x="0px" y="0px"
	 viewBox="0 0 792 1135.9" style="enable-background:new 0 0 792 1135.9;" xml:space="preserve">
<style type="text/css">
	.st0{fill:#EAC6AD;}
	.st1{fill:#FFFFFF;}
	.st2{fill:#F1F1F1;}
	.st3{fill:#F2C2A0;}
	.st4{fill:#3D4251;}
	.st5{fill:#4189C6;}
	.st6{fill:#333333;}
	.st7{fill:#A3634D;}
	.st8{fill:#B27362;}
	.st9{fill:#3373AA;}
	.st10{fill:#474B56;}
	.st11{fill:#CCCCCC;}
	.st12{fill:#E6E6E6;}
	.st13{fill:#666666;}
</style>
<path id="sleeve_19_" class="st0" d="M647.1,432.5c0,0,51.7,519.9,75.8,573.3c3,67-55.3,19-55.3,19l-43.1-151.5
	c0,0-50.5-195.2-51-208.9C573.1,650.7,647.1,432.5,647.1,432.5z"/>
<path id="sleeve_25_" class="st1" d="M44.1,768.7c0,0,112.3-241.2,106.6-279.7c-5.8-38.5-0.7-54.5,12.3-61.6
	c13.1-7,150.4,13.1,150.4,13.1s37.9,25.4,35.4,36.2c-2.5,10.8,8.2,318.5-10,356.7c-18.2,38.2-26.2,181.6-23.6,178.7L206,981.6
	c0,0,33.6-221.7,23.5-264.1c-10.1-42.4-18.5-68.1-18.5-68.1L94.1,794.9L44.1,768.7z"/>
<path id="sleeve_24_" class="st2" d="M183.1,678.5c3.6-13.2-34.5-224.7-34.5-224.7s-2.8,92.6-42.5,169.3c-0.1,0.3-51,77.3-50.7,77.4
	c10.1,2.1,79.2,43.9,79.2,43.9"/>
<g id="jacket_4_">
	<path id="shoulders_5_" class="st1" d="M619.9,509.2c0,0,1.3-34.4-24.2-56.6c-25.5-22.2-87.8-48.5-178.5-47.1
		c-90.7,1.4,35.3,101.7,35.3,101.7L619.9,509.2z"/>
	<path id="shoulders_4_" class="st1" d="M218.4,509.2c0,0-1.3-34.4,24.2-56.6c25.5-22.2,87.8-48.6,178.6-47.2
		s-35.3,101.8-35.3,101.8s-56.7,0.7-104.1,1.3C247.7,508.8,218.4,509.2,218.4,509.2z"/>
</g>
<path id="shoulders_3_" class="st1" d="M419.2,415.6c110.9,0,200.8,42.8,200.8,95.6s-89.9,95.6-200.8,95.6S218.4,564,218.4,511.2
	S308.3,415.6,419.2,415.6z"/>
<path id="ear_3_" class="st3" d="M306.7,223.1c0,0-11.4-4.6-20.1,0.8c-8.7,5.4-11.9,29.1-4.5,39.5c7.4,10.4,15,22.9,23,23.9
	c8,1,17.2-1.6,17.2-1.6L319,254L306.7,223.1z"/>
<path id="ear_1_" class="st3" d="M525.9,223.1c0,0,11.5-4.6,20.1,0.8c8.7,5.4,11.9,29.1,4.5,39.4c-7.4,10.3-15,22.8-23,23.8
	s-17.2-1.6-17.2-1.6l3.3-31.6L525.9,223.1z"/>
<path id="shirt_1_" class="st1" d="M340.6,445.8l63,33h55.1l7.4-55.8l6.1-10.8c0,0,136.9,9.4,158.4,8.7c6.6,1.4,35,12.1,28.6,40
	c-6.8,30.1-71.1,316.8-71.1,316.8l19.1,170c0,0,25.3,31.6,10.1,38.6c-15.2,7.1-174.8,32-225,30.5c-50.1-1.5-205.8,1.7-211-18.9
	s34.5-130.4,34.5-130.4l77.4-378.7L340.6,445.8z"/>
<path id="sleeve_7_" class="st2" d="M576.3,700.7c0-13.7,84.4-248.2,84.4-248.2s40.7,424.2,56.8,459c0.1,0.3-0.1,0.6-0.4,0.6
	c-10.3-0.7-84.9,27.5-84.9,27.5"/>
<path id="sleeve_23_" class="st4" d="M543.3,411.6c12.9,0.4,25.5,2.8,69.2,5.2c0,0-0.9,77.4-13.1,161.2
	c-11.3,78.2-8.7,155.9-8.7,196c0,40.1,43.7,193.2,45.3,207.5c1.6,14.3-134.1,36-159.3,37.4c-51.1-1.4-65.3-142.8-69.6-256.2
	c-7.4-75.8-13.3-72.4-0.8-115.3"/>
<path id="earring_1_" class="st5" d="M535,279.3c4.1,0,7.4,3.3,7.4,7.4c0,4.1-3.3,7.4-7.4,7.4s-7.4-3.3-7.4-7.4
	C527.6,282.6,530.9,279.3,535,279.3z"/>
<path id="neck_1_" class="st3" d="M471.3,367.1H360.9v83.2l55.3,25l55.1-25V367.1z"/>
<path id="face_1_" class="st3" d="M411,64.6c69.7-1.1,109.2,34.3,125.6,86.6c20.2,64.3-9.4,137.5-33.7,179
	c-9.9,17-18.8,33.6-34.5,44.7c-10.6,7.5-25.5,12.1-40.6,14.8c-19.1,3.4-45.2-4-55.8-10.3c-37.9-22.4-67.7-95.9-78.8-146.5
	c-5-22.8-4-55.3,2.1-75.9c11.9-40.5,34.3-69,71.8-83.7c9.2-3.6,19.7-5.4,30.4-7.4C401.9,65.4,406.5,65,411,64.6z"/>
<path id="eye_11_" class="st1" d="M365.2,209.1c12.8,0,23.2,10.4,23.2,23.2s-10.4,23.2-23.2,23.2c-12.8,0-23.2-10.4-23.2-23.2
	S352.4,209.1,365.2,209.1z"/>
<path id="pupill_11_" class="st6" d="M374.4,232.1c0,5.4-4.4,9.9-9.9,9.9c-4,0-7.5-2.4-9-5.9c0.6,0.3,1.3,0.5,2,0.5
	c2.3,0,4.1-1.8,4.1-4.1c0-2.3-1.8-4.1-4.1-4.1c-0.9,0-1.7,0.3-2.4,0.8c1.2-4,5-7,9.4-7C370,222.2,374.4,226.6,374.4,232.1z"/>
<path id="eye_10_" class="st1" d="M470.1,209.1c12.8,0,23.2,10.4,23.2,23.2s-10.4,23.2-23.2,23.2s-23.2-10.4-23.2-23.2
	S457.2,209.1,470.1,209.1z"/>
<path id="pupill_10_" class="st6" d="M479.3,232.1c0,5.4-4.4,9.9-9.9,9.9c-4,0-7.5-2.4-9-5.9c0.6,0.3,1.3,0.5,2,0.5
	c2.3,0,4.1-1.8,4.1-4.1c0-2.3-1.8-4.1-4.1-4.1c-0.9,0-1.7,0.3-2.4,0.8c1.2-4,5-7,9.4-7C474.9,222.2,479.3,226.6,479.3,232.1z"/>
<path id="glasses_5_" class="st5" d="M406,232.9h25v10.3h-25V232.9z"/>
<path id="glasses_4_" class="st5" d="M398.7,200.9h-66.5c-4.5,0-8.2,3.7-8.2,8.2V260c0,4.5,3.7,8.2,8.2,8.2h66.5
	c4.5,0,8.2-3.7,8.2-8.2v-50.9C406.9,204.6,403.2,200.9,398.7,200.9z M396.9,252.9c0,3.4-2.8,6.1-6.2,6.1h-50.3
	c-3.4,0-6.2-2.7-6.2-6.1v-37.7c0-3.4,2.8-6.1,6.2-6.1h50.3c3.4,0,6.2,2.7,6.2,6.1V252.9z"/>
<path id="glasses_3_" class="st5" d="M502.5,200.9H436c-4.5,0-8.2,3.7-8.2,8.2V260c0,4.5,3.7,8.2,8.2,8.2h66.5
	c4.5,0,8.2-3.7,8.2-8.2v-50.9C510.7,204.6,507,200.9,502.5,200.9z M500.8,252.9c0,3.4-2.8,6.1-6.2,6.1h-50.3c-3.4,0-6.2-2.7-6.2-6.1
	v-37.7c0-3.4,2.8-6.1,6.2-6.1h50.3c3.4,0,6.2,2.7,6.2,6.1V252.9z"/>
<path id="eyebrows_11_" class="st7" d="M367,170.3c-24.7,0.5-39,8.6-39,16.9c0,8.4,13.1,6,23,2.1c9.8-3.9,22.8-3.6,28.3,0.4
	c5.5,4,17.1,5.2,17.6-3.3C397.4,177.9,375.4,170.1,367,170.3z"/>
<path id="eyebrows_10_" class="st7" d="M467.6,170.1c24.7,0.5,39,8.5,39,16.8c0,8.3-13.1,6-23,2.1c-9.8-3.9-22.9-3.6-28.3,0.4
	s-17.2,5.1-17.7-3.3C437.2,177.7,459.2,169.9,467.6,170.1z"/>
<path id="collar_3_" class="st1" d="M346,377.5l74.4,97.3l-45.7,12.6l-50.8-62.9c0,0,0.1-18.3,4.1-26.9
	C332.1,388.9,346,377.5,346,377.5z"/>
<path id="collar_2_" class="st1" d="M488.9,390.6l-76.7,85.7l44.7,11.1l49.7-55.5c0,0-0.1-16.1-4-23.7
	C498.6,400.6,488.9,390.6,488.9,390.6z"/>
<path id="beard_2_" class="st7" d="M529.5,272.5c-7.7,22.3-12.4,57.2-21.1,76.9c-7,22.8-26,77.3-41.6,88.4
	c-10.6,7.5-25.5,12.1-40.6,14.8c-19.1,3.4-54.7-0.7-65.3-6.9c-27.2-16-39.1-124.5-54-165.9c0-2.8,0.1-5.5,0.7-7.8
	c0.4-0.1,0.8-0.3,1.2-0.4c6.1-2.3,12.3,4.2,15.6,6.6c11.9,8.8,20.5,20,31.2,30c-2.2-8.2,4.4-26.4,12.7-19.3
	c3.8,2.7,0.5,12.2,1.6,17.2c18.1,12.2,20-9.9,28.7-14.4c5.9-1.1,11.4,3.9,17.2,4.9c9.5,1.7,14-4.9,22.2-5.3
	c8.2,4.7,8.2,20.1,22.6,17.2c3.6-0.7,5.2-0.5,6.6-3.3c2.7-5.2-1.7-13.5,1.2-16.8c2.9-3.4,3.3-0.5,4.9-0.8c6,2.8,11.4,11.2,8.2,20.1
	c3.4-3.7,6.8-7.4,10.3-11.1c10.4-10.5,19.9-18.8,34.1-25.9c0.8,0.1,1.6,0.3,2.5,0.4C528.8,271.6,529.1,272,529.5,272.5z"/>
<path id="mounth_4_" class="st3" d="M385.9,322.8c0,0,8.3,14.5,31.6,14c23.3-0.5,31.2-14,31.2-14s-15.2-4.9-27.5-4.9
	c-5.3,0-10.7,2.9-17.7,4.1C396.6,323.2,385.9,322.8,385.9,322.8z"/>
<path id="hears_1_" class="st7" d="M290.7,214.8c0,0,6.1-17,6.6-23.8c0.4-6.8,5.2-46.9,19.7-66.9c9.4-14.4,23-17.4,36.5-14.4
	c13.5,3,29.1,11.2,45.2,9c16-2.1,56.7-22.6,73.5-14.8c16.7,7.8,44.9,21.4,48,47.2c3.1,25.8,21.3,66.5,21.3,66.5s9.4-65.8,9.4-83.3
	s-45.7-69.1-55-79.2s-39.5-36.6-57.5-35.7c-18,0.9-42.2,15.5-51.7,16.4s-15.8-3.6-26.3-1.6c-10.5,1.9-21.6,1.4-53.4,34.5
	c-31.8,33.1-28.5,82.7-26.3,110.4S290.7,214.8,290.7,214.8z"/>
<path class="st8" d="M377.3,107.3c0,0-7.8-11.7,2.1-33.3c9.9-21.5,10.3-31.6,10.3-31.6S384,56.4,376.5,74S377.3,107.3,377.3,107.3z"
	/>
<path class="st8" d="M406,110.6c0,0,22.2-25.6,36.5-36.9s32-24.2,32-24.2s-13.9,3.4-34.9,21.3C418.8,88.7,406,110.6,406,110.6z"/>
<path class="st8" d="M390.9,106.9c0,0-0.5-23.8,11.1-50.1c11.6-26.3,34.9-30.4,34.9-30.4s-17.1,7.8-29.1,31.2
	S390.9,106.9,390.9,106.9z"/>
<g id="tie_18_">
	<path id="tie_20_" class="st9" d="M433.2,485.4c0,0-92.3-40.2-96.2-8.1c-3.9,32.1-9.5,56.8,14,58.5
		C374.6,537.6,433.2,485.4,433.2,485.4z"/>
	<path id="tie_19_" class="st5" d="M417.4,479.6c23.4-15.7,69.9-43.4,78.2-20.7c11.2,30.5,22.4,53.3-0.1,60.5
		c-15.8,5-54.6-12-76.2-22.5C417.5,481.6,419.1,494.6,417.4,479.6z"/>
</g>
<path id="sleeve_22_" class="st4" d="M278.3,431c-23-2.1-30.1-4-81.1-5.7c0,0,3.4,78.5,11.7,153.4c7,63.2,8.7,100.1,19.4,167.5
	c5.4,58.5-57.7,215.4-57.7,249.6c0,14.4,69.8,23.2,189.2,28.4c33.3,0,52.4-87,60.6-188.1c-0.5-92.5-0.9-180.2-8.2-192.5"/>
<path id="sleeve_21_" class="st0" d="M55.5,700.5c0,0,160.9-149.3,188.8-200.9c51.4-43,48.7,32.4,48.7,32.4l-94.3,126.1
	c0,0-77,101.6-87.6,110.3C100.4,777.2,55.5,700.5,55.5,700.5z"/>
<path id="sleeve_20_" class="st2" d="M152.4,578.1c0,0-170.1,176.1-117.2,228.4c52.9,52.3,85.2-9.8,85.2-9.8l97.9-162.5
	c0,0-13.9-6.8-28.1-20.5C176.1,599.9,152.4,578.1,152.4,578.1z"/>
<path id="handle_10_" class="st1" d="M133.4,585.7l-38.5,46.5c0,0,11.2,29.8,40.1,54.6c28.9,24.8,56.7,20.2,56.7,20.2l44.3-72
	l-68-52.8C157.2,573.8,141.9,575.3,133.4,585.7z"/>
<g>
	<path class="st10" d="M401.2,818.3c0,6.1,4.9,11,11,11c6.1,0,11-4.9,11-11s-4.9-11-11-11C406.1,807.3,401.2,812.3,401.2,818.3z"/>
</g>
<g>
	<path class="st10" d="M397.7,707.1c0,6.1,4.9,11,11,11c6.1,0,11-4.9,11-11s-4.9-11-11-11C402.7,696.1,397.7,701,397.7,707.1z"/>
</g>
<g>
	<path class="st1" d="M295.9,378.5c7.5,46.7,15.1,93.2,22.7,139.4c19.2,1.7,38.6,1.7,57.8,0c7.6-46.2,15.2-92.7,22.7-139.4
		C364.9,383.9,330.1,383.9,295.9,378.5z"/>
	<path class="st11" d="M383.9,475.1c3.7-22.6,7.4-45.2,11-67.9c-31.4,5-63.4,5-94.8,0c3.7,22.7,7.3,45.4,11,67.9
		C335.3,478.1,359.7,478.1,383.9,475.1z"/>
	<path class="st11" d="M407.7,374.7c0-3.7-27.1-6.7-60.4-6.7s-60.4,3-60.4,6.7c0,2,0,4.8,0,6.8c0,3.7,27.1,6.7,60.4,6.7
		s60.4-3,60.4-6.7C407.7,379.5,407.7,376.7,407.7,374.7z"/>
	<ellipse class="st12" cx="347.3" cy="374.7" rx="60.4" ry="6.7"/>
	<path class="st11" d="M398.4,363.5c-0.1-3.1-23-5.7-51.2-5.7c-28.2,0-51.1,2.5-51.2,5.7c0,1.7-1.2,8.7-1.2,10.4
		c0,3.2,23.4,5.8,52.3,5.8c28.9,0,52.3-2.6,52.3-5.8C399.6,372.1,398.5,365.2,398.4,363.5z"/>
	<path class="st12" d="M398.4,363.5c0.1,3.1-22.8,5.7-51.2,5.7c-28.3,0-51.2-2.6-51.2-5.7c0.1-3.1,23-5.7,51.2-5.7
		C375.4,357.8,398.3,360.3,398.4,363.5z"/>
	<path class="st11" d="M389.7,355.1c-0.5-2.1-19.5-3.8-42.4-3.8c-22.9,0-41.9,1.7-42.4,3.8c-0.3,1.2-4.2,6.5-4.2,7.8
		c0,2.3,20.8,4.2,46.6,4.2c25.7,0,46.6-1.9,46.6-4.2C393.8,361.6,390,356.2,389.7,355.1z"/>
	<path class="st12" d="M389.7,355.1c0.5,2.2-18.4,4-42.4,4c-24,0-42.9-1.8-42.4-4c0.5-2.1,19.5-3.8,42.4-3.8
		C370.2,351.3,389.1,352.9,389.7,355.1z"/>
	<ellipse class="st13" cx="378.5" cy="354.8" rx="6.8" ry="1"/>
</g>
<path id="hand_11_" class="st3" d="M244.5,542.1c-7.2-15.4-6-119.1,12.7-127c18.7-7.9,46.5-20.6,58.9-20c12.3,0.6,21.4,0.1,27.7,6.5
	c6.3,6.5,22.1,26.9,20,38.9c-2.1,11.9-38.2,21.1-46.2,29.6c-8,8.5-12,41.8-17.3,49.2c-5.3,7.4-19.4,40.1-38.1,35.4
	C243.5,550.1,251.7,557.5,244.5,542.1z"/>
<g>
	<g>
		<path class="st6" d="M217,595c-1.1,0.7-2,1.3-2.7,1.7c-0.8,0.4-1.4,0.7-2,0.9c-0.6,0.1-1.1,0.2-1.5,0c-0.4-0.1-0.9-0.3-1.4-0.7
			c-0.4-0.3-0.7-0.7-0.8-1.1c-0.1-0.4-0.1-0.8-0.1-1.3c0.1-0.4,0.2-0.9,0.3-1.4c0.2-0.5,0.3-1,0.4-1.6c0,0,0-0.2,0.1-0.6
			c0.1-0.4,0.2-0.8,0.3-1.4c0.1-0.6,0.3-1.2,0.5-1.9c0.2-0.7,0.3-1.4,0.5-2.1c0.2-0.7,0.3-1.3,0.5-1.9c0.2-0.6,0.3-1,0.4-1.4
			c0.1-0.2,0.2-0.4,0.3-0.6c0.2-0.2,0.3-0.3,0.5-0.4c0.2-0.1,0.4-0.1,0.6-0.1c0.2,0,0.4,0,0.6,0.1c0.2,0.1,0.4,0.1,0.5,0.2
			c0.2,0.1,0.3,0.2,0.4,0.2c0.1,0.1,0.1,0.1,0.2,0.1c0.3,0.2,0.5,0.5,0.5,0.7c0,0.3,0,0.6-0.1,0.9l-3.8,11.3l8.2-5.4
			c0.1-0.1,0.3-0.2,0.6-0.3c0.2-0.1,0.5-0.1,0.8-0.2c0.3,0,0.6,0,0.9,0c0.3,0,0.6,0.2,0.8,0.4c0.3,0.2,0.4,0.5,0.4,0.8
			c0,0.3-0.1,0.7-0.4,1c-0.2,0.3-0.6,0.6-1,0.9c-0.4,0.3-0.9,0.6-1.4,0.9c-0.5,0.3-1,0.6-1.5,0.9C217.9,594.3,217.4,594.6,217,595z"
			/>
		<path class="st6" d="M230.4,589.5c-1-0.8-1.9-1.7-2.7-2.9c-0.8-1.2-1.4-2.5-1.8-3.9c-0.4-1.4-0.6-2.9-0.6-4.5
			c0-1.6,0.3-3.1,0.8-4.6c-1,0.3-2,0.4-3,0.6c-1,0.1-1.9,0.2-2.8,0.1c-0.9,0-1.8-0.2-2.5-0.4c-0.8-0.2-1.5-0.5-2.1-1
			c-0.8-0.6-1.4-1.2-2-1.9c-0.6-0.7-1-1.4-1.4-2.1c-0.4-0.7-0.6-1.5-0.8-2.3c-0.2-0.8-0.3-1.5-0.2-2.2c0-0.7,0.1-1.4,0.3-2
			c0.2-0.6,0.5-1.2,0.9-1.7c0.5-0.7,1.2-1.2,2-1.6c0.8-0.4,1.8-0.5,2.9-0.4c1.1,0.1,2.4,0.4,3.8,1c1.4,0.6,3,1.5,4.7,2.8
			c1.2,0.9,2.4,1.8,3.4,2.7c1,0.9,2,1.8,2.9,2.7c0.6-0.2,1.3-0.5,1.9-0.8c0.6-0.3,1.3-0.5,1.9-0.8c0.1-0.1,0.3-0.1,0.5-0.2
			s0.4-0.2,0.6-0.2c0.2-0.1,0.4-0.1,0.5-0.1c0.2,0,0.3,0,0.4,0c0.1,0.1,0.1,0.1,0.1,0.3c0,0.1,0,0.2,0,0.4c0,0.1,0,0.3,0,0.4
			c0,0.1,0,0.2,0,0.3c0,0.2-0.1,0.4-0.3,0.6c-0.3,0.4-0.8,0.9-1.4,1.3c-0.6,0.5-1.3,0.9-2.1,1.4c1.1,1.4,2.1,2.7,2.9,4.1
			c0.8,1.3,1.5,2.6,2,3.8c0.5,1.2,0.9,2.4,1.1,3.5c0.2,1.1,0.3,2.2,0.3,3.1c0,1-0.1,1.8-0.4,2.6c-0.2,0.8-0.6,1.5-1,2
			c-0.4,0.6-1,1.1-1.6,1.4c-0.6,0.3-1.3,0.5-2.1,0.5c-0.8,0-1.6-0.1-2.4-0.4C232.3,590.7,231.3,590.2,230.4,589.5z M233.3,587.1
			c0.8,0.6,1.5,0.9,2.1,0.9c0.6,0,1.1-0.2,1.5-0.7c0.4-0.5,0.6-1.2,0.6-2.2c0-1-0.2-2.1-0.6-3.4c-0.4-1.3-1.2-2.8-2.1-4.4
			c-1-1.6-2.3-3.4-3.9-5.2l-0.6,0.2c-0.4,0.9-0.7,1.8-0.9,2.8c-0.1,1-0.2,2-0.1,2.9c0.1,1,0.2,1.9,0.5,2.9c0.3,0.9,0.6,1.8,0.9,2.6
			c0.4,0.8,0.8,1.5,1.2,2.2C232.3,586.3,232.8,586.8,233.3,587.1z M217.2,569.5c0.6,0.5,1.3,0.8,2.1,0.9c0.8,0.2,1.7,0.3,2.6,0.2
			c0.9,0,1.9-0.2,3-0.4c1.1-0.2,2.2-0.5,3.3-0.9c-1-0.9-2-1.8-3.1-2.8c-1.1-0.9-2.3-1.9-3.6-2.9c-0.9-0.7-1.7-1.2-2.4-1.5
			c-0.7-0.3-1.3-0.6-1.8-0.7c-0.5-0.1-1-0.1-1.3,0.1c-0.4,0.1-0.7,0.3-0.9,0.6c-0.2,0.3-0.4,0.6-0.4,1c-0.1,0.4-0.1,0.8-0.1,1.3
			s0.1,0.9,0.3,1.4c0.1,0.5,0.3,0.9,0.5,1.4c0.2,0.4,0.5,0.9,0.8,1.3C216.5,568.9,216.8,569.2,217.2,569.5z"/>
		<path class="st6" d="M245.8,545.1c0.7,1,1.4,1.8,2.1,2.6c0.7,0.8,1.3,1.4,1.9,1.8c0.5,0.4,1,0.6,1.4,0.6c0.5,0,0.9-0.2,1.2-0.7
			c0.1-0.2,0.3-0.5,0.3-0.8c0.1-0.3,0.1-0.8,0.2-1.3c0-0.5,0-1.1-0.1-1.8c-0.1-0.7-0.1-1.5-0.3-2.4c0.1,0,0.2,0,0.4,0.1
			c0.2,0,0.5,0.1,0.8,0.2c0.4,0.1,0.9,0.3,1.5,0.4c0.2,1,0.3,2,0.3,2.9c0,0.9,0,1.7-0.1,2.5c-0.1,0.8-0.3,1.5-0.5,2.1
			c-0.2,0.6-0.5,1.1-0.8,1.5c-0.4,0.5-0.8,0.8-1.3,1.1c-0.5,0.3-1,0.4-1.6,0.5c-0.6,0-1.2,0-1.8-0.2c-0.6-0.2-1.3-0.5-1.9-1
			c-0.2-0.2-0.5-0.4-0.8-0.7c-0.3-0.3-0.6-0.6-1-1c-0.4-0.4-0.7-0.9-1.1-1.4c-0.4-0.5-0.8-1-1.3-1.6c-0.6,1.1-1.3,2.1-1.9,3.1
			s-1.2,2-1.8,3c0.5,0.7,0.9,1.4,1.4,2c0.5,0.7,0.9,1.3,1.3,1.9c0.4,0.6,0.7,1.1,1.1,1.6c0.3,0.5,0.6,0.9,0.8,1.3
			c0.5,1,0.8,1.7,0.9,2.3c0.1,0.6,0,1-0.2,1.3c-0.1,0.2-0.3,0.3-0.5,0.5c-0.2,0.1-0.4,0.2-0.6,0.3c-0.2,0.1-0.4,0.1-0.6,0
			c-0.2,0-0.4-0.1-0.6-0.3c-0.1-0.1-0.2-0.2-0.3-0.3c-0.9-1.2-1.8-2.4-2.6-3.5c-0.8-1.2-1.6-2.3-2.3-3.5c-0.3,0.4-0.6,0.8-1,1.1
			c-0.3,0.3-0.7,0.6-1.1,0.8c-0.4,0.2-0.8,0.3-1.3,0.4c-0.5,0-1,0-1.5-0.2c-0.2-0.1-0.3-0.1-0.4-0.2c-0.1-0.1-0.2-0.1-0.3-0.2
			c-0.3-0.2-0.4-0.5-0.2-0.7c0.1-0.1,0.3-0.2,0.6-0.3c0.3-0.1,0.7-0.1,1.2-0.1c0.2-0.4,0.5-0.7,0.8-1.1c0.3-0.4,0.5-0.7,0.8-1.2
			l0.8-1.1c-0.5-0.8-1-1.6-1.5-2.3c-0.5-0.7-0.9-1.4-1.4-2.1c-0.3-0.4-0.6-0.8-1-1.2c-0.3-0.4-0.7-0.7-1.1-1
			c-0.3-0.2-0.6-0.4-0.9-0.5c-0.3-0.1-0.6-0.2-0.8-0.2c-0.3,0-0.5,0-0.8,0.2c-0.2,0.1-0.5,0.3-0.7,0.6c-0.2,0.2-0.3,0.5-0.5,0.9
			c-0.1,0.4-0.3,0.8-0.4,1.3c-0.1,0.5-0.2,1-0.2,1.7c0,0.6,0,1.3,0,2.1c0,0.3,0,0.5-0.1,0.7c0,0.2-0.1,0.3-0.2,0.5
			c0,0.1-0.2,0-0.4-0.1c-0.2-0.1-0.5-0.3-0.8-0.5c-0.4-0.3-0.7-0.7-0.9-1.1c-0.2-0.4-0.4-0.9-0.4-1.5c-0.1-0.5-0.1-1.1,0-1.7
			c0.1-0.6,0.2-1.2,0.3-1.7c0.1-0.6,0.3-1.1,0.6-1.6c0.2-0.5,0.5-0.9,0.7-1.3c0.4-0.5,0.8-1,1.3-1.4c0.5-0.4,1.1-0.6,1.6-0.8
			c0.6-0.1,1.2-0.1,1.9,0.1c0.7,0.2,1.4,0.5,2.1,1.1c0.3,0.3,0.7,0.6,1.2,1c0.4,0.4,0.9,1,1.4,1.5c0.5,0.6,1,1.2,1.5,1.9
			c0.5,0.7,1,1.4,1.6,2.1c0.5-0.8,1.1-1.7,1.8-2.7c0.7-1,1.4-2,2-3c-1-1.3-2-2.7-3-4.2c-1-1.5-2-2.9-2.9-4.4c-0.3-0.5-0.5-1-0.5-1.5
			c0-0.5,0.1-0.9,0.4-1.3c0.1-0.2,0.3-0.3,0.4-0.4c0.2-0.1,0.3-0.2,0.5-0.2c0.2,0,0.4,0,0.6,0c0.2,0,0.4,0.1,0.6,0.3
			c0.2,0.1,0.4,0.3,0.6,0.5c0.2,0.2,0.4,0.4,0.6,0.7c0.3,0.5,0.7,1.1,1.1,1.7c0.4,0.6,0.8,1.2,1.2,1.8c0.4,0.6,0.8,1.2,1.3,1.9
			c0.4,0.6,0.9,1.3,1.3,1.9c0.3-0.5,0.6-0.9,0.8-1.3c0.2-0.4,0.4-0.7,0.5-0.8c0.1-0.1,0.1-0.2,0.2-0.2c0-0.1,0.1-0.1,0.1-0.2
			c0.2-0.2,0.3-0.4,0.5-0.5c0.1-0.1,0.3-0.2,0.4-0.2c0.1,0,0.3,0,0.4,0.1c0.1,0.1,0.3,0.1,0.4,0.2c0.2,0.1,0.3,0.3,0.3,0.4
			c0.1,0.1,0.1,0.3,0.1,0.4c0,0.1,0,0.3-0.1,0.4c-0.1,0.1-0.1,0.3-0.2,0.4c-0.1,0.2-0.2,0.4-0.3,0.5c-0.1,0.1-0.1,0.2-0.1,0.2
			c0,0,0,0.1,0,0.1c0,0,0,0-0.1,0.1c0,0-0.1,0.1-0.2,0.3c-0.1,0.1-0.2,0.3-0.3,0.6c-0.2,0.3-0.3,0.6-0.5,0.9
			C246.2,544.6,246,544.8,245.8,545.1z"/>
		<path class="st6" d="M262.8,533.2c-0.2,0.6-0.4,1.1-0.5,1.7c-0.2,0.6-0.3,1.2-0.5,1.7c-0.2,0.6-0.3,1.1-0.5,1.6
			c-0.2,0.5-0.4,0.9-0.6,1.2c-0.3,0.4-0.6,0.6-0.9,0.7c-0.3,0.1-0.6,0-0.9-0.2c-0.2-0.2-0.4-0.4-0.6-0.6c-0.1-0.2-0.3-0.4-0.3-0.7
			c-0.1-0.2-0.1-0.4-0.1-0.6c0-0.2,0-0.4,0-0.5l3-9.9l-8.5,6.4c-0.3,0.2-0.6,0.3-0.8,0.4c-0.3,0.1-0.5,0-0.8-0.2c0,0-0.1,0-0.1-0.1
			c-0.1-0.1-0.2-0.2-0.3-0.3c-0.1-0.1-0.2-0.3-0.3-0.4c-0.1-0.2-0.2-0.3-0.3-0.5c-0.1-0.2-0.1-0.4-0.1-0.6c0-0.2,0.1-0.4,0.3-0.6
			c0.1-0.2,0.3-0.3,0.4-0.4c0.3-0.2,0.6-0.4,1-0.7c0.4-0.3,0.9-0.6,1.4-0.9c0.5-0.3,1-0.6,1.5-1c0.5-0.3,1-0.6,1.4-0.9
			c0.4-0.3,0.8-0.5,1.1-0.6s0.4-0.3,0.4-0.3c0.5-0.3,1-0.6,1.4-0.9c0.4-0.3,0.9-0.5,1.3-0.7c0.4-0.2,0.8-0.3,1.2-0.3
			c0.4,0,0.8,0.1,1.2,0.5c0.5,0.3,0.8,0.7,1.1,1.1c0.2,0.4,0.4,0.9,0.4,1.5c0,0.6,0,1.3-0.2,2.1C263.5,531,263.2,532,262.8,533.2z"
			/>
	</g>
</g>
<path id="hand" class="st3" d="M720.3,998.2c0,0,36.3,42.5,34.7,62.7c-1.5,20.1-3.5,53.9-19.3,61.4s-71.2,6.8-80.2-15.9
	c-9-22.7,6.4-100.7,6.4-100.7L720.3,998.2z"/>
<path id="handle_9_" class="st1" d="M717.4,906.7l-5.7-50.8c0,0-24.4-10.6-55.9-7.4c-31.6,3.2-44.9,22.9-44.9,22.9l17.7,69.3
	l71-10.7C710.8,928.2,718.7,918,717.4,906.7z"/>
</svg>
