<?xml version="1.0" encoding="utf-8"?>
<!-- Generator: Adobe Illustrator 22.0.0, SVG Export Plug-In . SVG Version: 6.00 Build 0)  -->
<svg version="1.1" id="Calque_1" xmlns="http://www.w3.org/2000/svg" xmlns:xlink="http://www.w3.org/1999/xlink" x="0px" y="0px"
	 viewBox="0 0 792 1135.9" style="enable-background:new 0 0 792 1135.9;" xml:space="preserve">
<style type="text/css">
	.st0{fill:#D4410D;}
	.st1{fill:#F2B181;}
	.st2{fill:#EB9850;}
	.st3{fill:#F7F6F5;}
	.st4{fill:#E6511C;}
	.st5{fill:#FFFFFF;}
	.st6{fill:#4189C6;}
	.st7{fill:#EA1818;}
	.st8{fill:#1C4911;}
	.st9{fill:#333333;}
	.st10{fill:#3373AA;}
	.st11{fill:#CCCCCC;}
</style>
<g>
	<g>
		<path class="st0" d="M487.4,224.4c0,0,22.2,223.1-23.5,212.7c-27.6-6.3,8.8,0.1-69.6-41.2c-64.6-34-129.8-110.9-146.5-141
			c-10.1-18.2-8.5-87.6,48.5-127.4c57-39.8,127.3-65.3,201.3-25.8L487.4,224.4z"/>
	</g>
	<g>
		<path class="st0" d="M471.5,172.3L416.9,380l108.9,56.4c0,0,37.7-8.4,36.4-35.4c-1.3-26.9-13.7-18.4,12.9-61.9
			c26-42.7,17.9-78,13.4-122.4c-3.9-38.4-28.3-72.7-30.9-96.9c-2.7-24.2-29.6-76.7-86.1-76V172.3z"/>
	</g>
	<g>
		<path class="st1" d="M212.9,520.4c6.2-40.9,39.1-58.7,61.9-63c24.6-4.6,51.7-4.7,73.5-17.1c21.7-12.4,21.6-78.3,21.6-78.3h47h46.9
			c0,0-3.5,62.1,18.3,74.5c21.8,12.4,56.1,14.7,76.8,20.9c20.7,6.2,55.7,22.1,61.9,63c5,32.8,9.8,104.5,9.8,104.5l-213.9,2.9
			L209,632.2C209,632.2,207.9,553.1,212.9,520.4z"/>
	</g>
	<g>
		<path class="st2" d="M468,412.5C468,412.5,468,412.5,468,412.5c-25.3-4.7-74.1-20.3-97.9-38.1c0-1.9,0-3.5,0-5.1
			c0-0.1,0-0.1,0-0.1c0-0.7,0-1.3,0-1.9c0-0.1,0-0.3,0-0.4c0-0.5,0-1,0-1.4c0-0.1,0-0.2,0-0.3c0-0.4,0-0.8,0-1.1c0-0.1,0-0.2,0-0.2
			c0-0.3,0-0.6,0-0.9c0,0,0-0.1,0-0.2c0-0.2,0-0.4,0-0.5c0-0.2,0-0.3,0-0.3h47h46.9C463.9,361.9,462.3,390.3,468,412.5z"/>
	</g>
	<g>
		<path class="st1" d="M283.2,206.8c0,0-20.1-31.2,3-78.3c24.8-50.7,59.9-84.7,128.3-84.7c68.3,0,107.8,34,132.7,84.7
			c23.1,47.1,3.4,78.3,3.4,78.3c31.1-6.2,25.3,27.8,15.5,43.1c-8,12.7-8.2,14.1-13.1,28.1c-6.9,20.2-23,6.2-23,6.2
			c-9.3,25.9-15.9,32-53.1,66.3c-32.4,29.8-43.7,29.5-60.1,29.5c-16.4,0-27.4,0.4-60.1-29.5c-37.3-34.1-43.8-40.4-53.1-66.3
			c0,0-16.1,14-23-6.2c-4.9-14-5-15.4-13.1-28.1C257.9,234.5,252.1,200.6,283.2,206.8z"/>
	</g>
	<g>
		<path class="st3" d="M212.9,520.4c6.2-40.9,37.1-58.7,61.9-63c13.7-2.4,32.9-4.7,50-10.9c7.6-2.7,29-13.7,29-13.7l23.6,34.4h78.7
			l23.7-34.4c0,0,21.5,11,29,13.7c17.2,6.2,36.7,6.9,50,10.9c20.7,6.2,55.7,22.1,61.9,63c5,32.8,45.8,223.2,45.8,223.2l-85.2,27.4
			L559,632.9c0,0-10.4,81.7,9.4,186.9s41.3,123.4,14.6,131.6c-26.6,8.2-259.8,29.5-291.1,24.7c-31.3-4.9-18.1-41.5-11.7-100
			c6.4-58.5-18.8-266-18.8-266L201,653.7C201,653.7,207.9,553.1,212.9,520.4z"/>
	</g>
	<g>
		<path class="st4" d="M365.3,117.9c0,0-1.3,22.6-21,42.3c-19.7,19.8-36,28.3-32.3,71.5c3.7,43.2,19.7,58,6.2,80.2
			c-13.6,22.2-24,28.4-16.3,48.1c7.7,19.8,5.1,27.2-3.5,40.7c-8.5,13.6,0,32.1,0,32.1s-15.9-18.5-11-37
			c4.9-18.5-19.8-25.9-18.5-50.6c1.2-24.7,17.3-53,1.2-83.9c-10.2-19.6-36.3-73.1-24.7-112.3c6.6-22.2,17.5-44.2,32.1-61.2
			c8.2-9.6,28.8-48,87-44L365.3,117.9z"/>
	</g>
	<g>
		<path class="st5" d="M478,431.7c13.2,24.4,8.5,51.3-11.4,61.3c-19.9,10.1-47.7-0.4-63.7-23.4L478,431.7z"/>
	</g>
	<g>
		<path class="st5" d="M358.9,423.8c-15,29.5-14.1,59.9,2.6,69.2c16.7,9.4,43.1-5.7,60.5-33.9L358.9,423.8z"/>
	</g>
	<g>
		<path class="st4" d="M358.9,103.3c0,0-9.3,37.4,43.7,73.2c0,0-7.9-20.1-10.4-39.2c0,0-7,23.2,42.7,34.9c0,0-9.3-3-9.3-15
			c0,0,77,5.5,90,40.6c13,35.2,17.9,54.5-5.2,79.5c-23.1,25-5.6,47.2,0.9,77.7c6.4,30.6-2.4,38.6-10.2,50
			c-11.4,16.6,2.1,37.6,2.1,37.6s-12.3-17.3,10.9-32.4c9.7-6.3,24.9-15.4,19.3-46.9c-5.6-31.5,0.9-57.4,12.9-68.5
			c12.1-11.1,41.7-29.6,32.4-71.2c-9.3-41.7-9.3-50-4.6-68.5c4.6-18.5-27.9-62-42.3-78.5c-32.4-37.1-119-62.8-167.5-32.9
			L358.9,103.3z"/>
	</g>
	<g>
		<polygon class="st6" points="524.8,960.4 547.5,455.3 525.1,447.3 502,962.6 		"/>
	</g>
	<g>
		<polygon class="st6" points="342,975.7 367.2,974.2 309.2,451.1 286.3,455.3 		"/>
	</g>
	<path id="mounth_1_" class="st7" d="M375.2,310.7c-2.5-1.4-1,0.8-0.6,1.3c3.4,3.6,19.8,16.6,43.2,16.2c24.1-0.4,34.9-9.9,37.8-13
		c0.4-0.4,0.2-1.1-0.4-1.3c-4.4-1.1-19.9-4.6-32.8-4.6c-6.5,0-13.3,2.9-21.8,4.1C393.8,314.3,385,316.1,375.2,310.7z"/>
	<path id="eye_5_" class="st5" d="M365.3,203.9c12.8,0,23.2,10.4,23.2,23.2s-10.4,23.2-23.2,23.2s-23.2-10.4-23.2-23.2
		S352.5,203.9,365.3,203.9z"/>
	<path id="pupill_5_" class="st8" d="M374.6,226.9c0,5.4-4.4,9.9-9.9,9.9c-4,0-7.5-2.4-9-5.9c0.6,0.4,1.3,0.6,2,0.6
		c2.3,0,4.1-1.8,4.1-4.1s-1.8-4.1-4.1-4.1c-0.9,0-1.8,0.3-2.4,0.8c1.2-4,5-7,9.4-7C370.2,217,374.6,221.4,374.6,226.9z"/>
	<path id="eye_4_" class="st5" d="M470.3,203.9c12.8,0,23.2,10.4,23.2,23.2s-10.4,23.2-23.2,23.2s-23.2-10.4-23.2-23.2
		S457.5,203.9,470.3,203.9z"/>
	<path id="pupill_4_" class="st8" d="M479.6,226.9c0,5.4-4.4,9.9-9.9,9.9c-4,0-7.5-2.4-9-5.9c0.6,0.4,1.3,0.6,2,0.6
		c2.3,0,4.1-1.8,4.1-4.1s-1.8-4.1-4.1-4.1c-0.9,0-1.8,0.3-2.4,0.8c1.2-4,5-7,9.4-7C475.2,217,479.6,221.4,479.6,226.9z"/>
	<path class="st0" d="M373.2,84c0,0,28.6-7.8,44.6-9.1c16-1.3,35.1-2,35.1-2s-11.8-4.3-35.8-1.5C393.1,74.2,373.2,84,373.2,84z"/>
	<path class="st0" d="M378.3,100.2c0,0,26.3-4.8,57.6,3.4c31.3,8.1,40,33.3,40,33.3s-11.7-17.6-39.9-26.8
		C407.9,100.9,378.3,100.2,378.3,100.2z"/>
	<path id="eyebrows_5_" class="st4" d="M364.9,174.8c-24.7,0.5-36.3,6.7-39.6,12.5c-4.1,7.3,6.9,4,16.8,0.1
		c9.8-3.9,26.3-6.6,36.4-2.6c10,3.9,15.8,6.8,15.8,1.7C391.6,181.4,379.9,174.8,364.9,174.8z"/>
	<path id="eyebrows_4_" class="st4" d="M435,186.5c0,5.2,5.8,2.3,15.8-1.7c10.1-4,26.6-1.3,36.4,2.6c9.8,3.9,20.9,7.2,16.8-0.1
		c-3.3-5.9-14.9-12-39.6-12.5C449.5,174.8,437.7,181.4,435,186.5z"/>
	<g>
		<g>
			<path class="st9" d="M418.9,436.7c-0.8-0.1-1.5-0.2-2.1-0.3c-0.5-0.1-1-0.2-1.3-0.4c-0.3-0.2-0.6-0.4-0.8-0.6
				c-0.2-0.2-0.3-0.5-0.4-0.9c-0.1-0.3-0.1-0.6,0-0.9c0.1-0.2,0.3-0.5,0.5-0.7c0.2-0.2,0.5-0.4,0.8-0.6c0.3-0.2,0.6-0.4,0.9-0.6
				c0,0,0.1-0.1,0.3-0.2c0.2-0.1,0.4-0.3,0.7-0.6c0.3-0.2,0.6-0.5,1-0.7c0.4-0.3,0.7-0.5,1.1-0.8c0.4-0.3,0.7-0.5,1-0.7
				c0.3-0.2,0.6-0.4,0.8-0.5c0.1-0.1,0.2-0.1,0.4-0.2c0.2,0,0.3,0,0.4,0c0.1,0,0.2,0.1,0.3,0.2c0.1,0.1,0.2,0.2,0.2,0.3
				c0.1,0.1,0.1,0.2,0.2,0.3c0,0.1,0.1,0.2,0.1,0.3c0,0.1,0,0.1,0,0.1c0.1,0.2,0,0.4-0.1,0.6c-0.1,0.1-0.2,0.3-0.4,0.4l-6.5,3.9
				l6.3,0.7c0.1,0,0.2,0,0.4,0.1c0.2,0.1,0.3,0.1,0.4,0.2c0.1,0.1,0.3,0.2,0.4,0.4c0.1,0.1,0.2,0.3,0.3,0.5c0,0.2,0,0.4-0.1,0.6
				c-0.1,0.2-0.3,0.3-0.6,0.4c-0.3,0.1-0.5,0.1-0.9,0.1c-0.3,0-0.7-0.1-1-0.1c-0.4-0.1-0.7-0.1-1.1-0.2
				C419.6,436.7,419.2,436.7,418.9,436.7z"/>
			<path class="st9" d="M427.7,439.5c-0.2-0.8-0.2-1.6-0.1-2.5c0.1-0.9,0.4-1.8,0.7-2.6c0.4-0.9,0.9-1.7,1.5-2.4
				c0.6-0.8,1.4-1.4,2.3-1.9c-0.6-0.3-1.2-0.6-1.7-0.9c-0.5-0.3-1-0.7-1.5-1.1c-0.4-0.4-0.8-0.8-1.1-1.2c-0.3-0.4-0.5-0.9-0.6-1.3
				c-0.1-0.6-0.2-1.2-0.2-1.8c0-0.6,0.1-1.1,0.2-1.6c0.1-0.5,0.3-1,0.5-1.4c0.2-0.4,0.5-0.8,0.8-1.2c0.3-0.3,0.6-0.6,1-0.9
				c0.4-0.2,0.7-0.4,1.1-0.5c0.5-0.1,1.1-0.1,1.6,0c0.6,0.2,1.1,0.5,1.6,1c0.5,0.5,1,1.2,1.5,2.1c0.4,0.9,0.8,2,1.1,3.3
				c0.2,1,0.4,1.9,0.5,2.7c0.1,0.9,0.2,1.7,0.3,2.5c0.4,0.1,0.8,0.3,1.2,0.4c0.4,0.1,0.8,0.2,1.3,0.4c0.1,0,0.2,0.1,0.3,0.1
				s0.3,0.1,0.4,0.1c0.1,0,0.2,0.1,0.3,0.2c0.1,0.1,0.1,0.1,0.2,0.2c0,0.1,0,0.1,0,0.2c0,0.1-0.1,0.1-0.1,0.2
				c-0.1,0.1-0.1,0.1-0.2,0.2c-0.1,0.1-0.1,0.1-0.1,0.1c-0.1,0.1-0.2,0.1-0.4,0.2c-0.3,0.1-0.7,0.1-1.2,0.1c-0.5,0-1-0.1-1.6-0.2
				c0,1.1-0.1,2.2-0.2,3.2c-0.1,1-0.4,1.9-0.6,2.7c-0.3,0.8-0.6,1.5-0.9,2.2c-0.4,0.6-0.7,1.2-1.1,1.7c-0.4,0.5-0.8,0.8-1.3,1.1
				c-0.4,0.3-0.9,0.5-1.3,0.6c-0.5,0.1-0.9,0.1-1.4,0c-0.4-0.1-0.9-0.3-1.2-0.6c-0.4-0.3-0.7-0.7-1-1.2
				C428.1,440.8,427.9,440.2,427.7,439.5z M430.1,439.5c0.1,0.6,0.4,1,0.7,1.3c0.3,0.3,0.6,0.3,1,0.2c0.4-0.1,0.8-0.4,1.2-0.8
				c0.4-0.5,0.8-1.1,1.1-1.9s0.6-1.8,0.8-3c0.2-1.2,0.3-2.6,0.2-4.2l-0.4-0.1c-0.6,0.3-1.1,0.6-1.6,1c-0.5,0.4-0.9,0.9-1.3,1.4
				c-0.4,0.5-0.7,1-1,1.6c-0.3,0.6-0.5,1.1-0.6,1.7c-0.2,0.5-0.2,1.1-0.3,1.6C430,438.7,430,439.1,430.1,439.5z M429.4,424.2
				c0.1,0.5,0.3,0.9,0.6,1.3c0.3,0.4,0.7,0.8,1.2,1.2c0.5,0.4,1,0.7,1.6,1c0.6,0.3,1.3,0.6,2,0.9c-0.1-0.8-0.2-1.7-0.4-2.6
				c-0.2-0.9-0.4-1.9-0.6-2.9c-0.2-0.7-0.3-1.3-0.5-1.7c-0.2-0.5-0.4-0.8-0.6-1.1c-0.2-0.3-0.4-0.4-0.7-0.5c-0.2-0.1-0.5-0.1-0.7,0
				c-0.2,0.1-0.4,0.2-0.6,0.3c-0.2,0.2-0.4,0.4-0.5,0.6c-0.2,0.2-0.3,0.5-0.4,0.8c-0.1,0.3-0.2,0.6-0.3,0.9
				c-0.1,0.3-0.1,0.6-0.1,0.9C429.3,423.6,429.4,423.9,429.4,424.2z"/>
			<path class="st9" d="M453.5,424.1c0,0.8,0,1.5,0,2.1c0,0.7,0.1,1.2,0.2,1.7c0.1,0.4,0.3,0.7,0.5,0.9c0.2,0.2,0.5,0.2,0.9,0.1
				c0.1,0,0.3-0.1,0.5-0.3c0.2-0.1,0.4-0.3,0.6-0.6c0.2-0.2,0.5-0.5,0.7-0.9c0.3-0.4,0.5-0.8,0.8-1.3c0,0,0.1,0.1,0.2,0.2
				c0.1,0.1,0.2,0.3,0.3,0.5c0.1,0.2,0.3,0.5,0.6,0.8c-0.3,0.6-0.7,1.1-1,1.5c-0.4,0.5-0.7,0.9-1.1,1.2c-0.4,0.3-0.7,0.6-1.1,0.8
				c-0.4,0.2-0.7,0.4-1,0.4c-0.4,0.1-0.7,0.1-1.1,0c-0.3-0.1-0.7-0.2-1-0.4c-0.3-0.2-0.6-0.5-0.8-0.8c-0.2-0.4-0.4-0.8-0.5-1.3
				c0-0.2-0.1-0.4-0.1-0.7c0-0.3,0-0.6-0.1-0.9c0-0.3,0-0.7,0-1.1c0-0.4,0-0.8,0-1.3c-0.8,0.3-1.5,0.5-2.2,0.8s-1.4,0.5-2.1,0.7
				c0,0.5-0.1,1.1-0.1,1.6c0,0.5-0.1,1-0.2,1.4c-0.1,0.4-0.1,0.9-0.1,1.2c0,0.4-0.1,0.7-0.1,1c-0.1,0.7-0.3,1.2-0.5,1.5
				c-0.2,0.3-0.4,0.5-0.6,0.6c-0.1,0-0.3,0-0.4,0c-0.1,0-0.3-0.1-0.4-0.1c-0.1-0.1-0.2-0.1-0.3-0.3c-0.1-0.1-0.2-0.2-0.2-0.4
				c0-0.1,0-0.2,0-0.3c0-1,0.1-1.9,0.2-2.8c0.1-0.9,0.2-1.8,0.3-2.6c-0.3,0.1-0.6,0.1-0.9,0.1c-0.3,0-0.6,0-0.9-0.1
				c-0.3-0.1-0.5-0.2-0.8-0.4c-0.2-0.2-0.5-0.4-0.7-0.7c0-0.1-0.1-0.2-0.1-0.3c0-0.1-0.1-0.2-0.1-0.2c-0.1-0.3,0-0.4,0.2-0.5
				c0.1,0,0.2,0,0.4,0.1c0.2,0.1,0.4,0.2,0.7,0.5c0.3-0.1,0.5-0.2,0.8-0.2c0.3-0.1,0.6-0.1,0.9-0.2l0.8-0.2c0.1-0.6,0.2-1.2,0.2-1.7
				c0.1-0.6,0.1-1.1,0.2-1.6c0-0.3,0-0.7,0-1c0-0.3-0.1-0.6-0.1-0.9c-0.1-0.2-0.1-0.4-0.2-0.6c-0.1-0.2-0.2-0.3-0.3-0.4
				c-0.1-0.1-0.3-0.2-0.4-0.2c-0.2,0-0.4,0-0.6,0c-0.2,0-0.4,0.1-0.6,0.2c-0.2,0.1-0.5,0.3-0.7,0.5c-0.3,0.2-0.5,0.4-0.8,0.7
				c-0.3,0.3-0.6,0.6-0.9,1c-0.1,0.1-0.2,0.3-0.3,0.3c-0.1,0.1-0.2,0.1-0.3,0.1c0,0-0.1-0.1-0.2-0.2c-0.1-0.1-0.1-0.3-0.2-0.6
				c-0.1-0.3-0.1-0.6,0-0.9c0.1-0.3,0.2-0.6,0.4-0.9c0.2-0.3,0.4-0.6,0.7-0.8c0.3-0.3,0.6-0.5,0.9-0.7c0.3-0.2,0.6-0.4,0.9-0.5
				c0.3-0.1,0.6-0.3,0.9-0.3c0.4-0.1,0.8-0.1,1.2-0.1c0.4,0,0.8,0.1,1.1,0.3c0.3,0.2,0.6,0.4,0.9,0.8c0.3,0.4,0.5,0.8,0.6,1.4
				c0.1,0.3,0.1,0.6,0.1,1c0,0.4,0,0.8,0,1.3c0,0.5,0,1,0,1.5c0,0.5-0.1,1.1-0.1,1.7c0.6-0.2,1.3-0.4,2-0.6c0.7-0.2,1.5-0.4,2.2-0.7
				c0.1-1,0.2-2.1,0.3-3.3c0.1-1.1,0.3-2.2,0.4-3.4c0.1-0.4,0.2-0.7,0.3-0.9c0.2-0.3,0.4-0.4,0.7-0.5c0.1,0,0.2,0,0.4,0
				c0.1,0,0.2,0,0.3,0.1c0.1,0.1,0.2,0.1,0.3,0.2c0.1,0.1,0.1,0.2,0.2,0.4c0,0.1,0.1,0.3,0.1,0.5c0,0.2,0,0.4,0,0.6
				c0,0.4-0.1,0.8-0.2,1.3c-0.1,0.4-0.1,0.9-0.2,1.4c-0.1,0.5-0.1,1-0.1,1.5c0,0.5-0.1,1-0.1,1.5c0.4-0.1,0.7-0.2,1-0.3
				c0.3-0.1,0.5-0.2,0.6-0.2c0.1,0,0.1,0,0.2-0.1c0.1,0,0.1,0,0.2,0c0.2,0,0.3-0.1,0.4,0c0.1,0,0.2,0,0.3,0.1c0.1,0,0.1,0.1,0.2,0.2
				c0,0.1,0.1,0.2,0.1,0.3c0,0.1,0,0.2,0,0.3c0,0.1-0.1,0.2-0.2,0.2c-0.1,0.1-0.1,0.1-0.2,0.2c-0.1,0-0.2,0.1-0.2,0.1
				c-0.2,0.1-0.3,0.1-0.3,0.1c-0.1,0-0.1,0-0.1,0.1c0,0,0,0-0.1,0c0,0,0,0-0.1,0c0,0-0.1,0-0.2,0.1c-0.1,0-0.2,0.1-0.4,0.1
				c-0.2,0.1-0.4,0.1-0.6,0.2C453.9,423.9,453.7,424,453.5,424.1z"/>
			<path class="st9" d="M466.7,425.2c-0.3,0.2-0.6,0.4-1,0.6c-0.3,0.2-0.6,0.4-0.9,0.7c-0.3,0.2-0.6,0.4-0.9,0.6
				c-0.3,0.2-0.6,0.3-0.8,0.3c-0.3,0.1-0.5,0.1-0.7,0c-0.2-0.1-0.3-0.2-0.4-0.4c0-0.2-0.1-0.4,0-0.5c0-0.2,0.1-0.3,0.1-0.5
				c0.1-0.1,0.1-0.3,0.2-0.4c0.1-0.1,0.1-0.2,0.2-0.2l5.5-3.6l-6.8-0.3c-0.2,0-0.4-0.1-0.6-0.1c-0.1-0.1-0.3-0.2-0.3-0.5
				c0,0,0,0,0-0.1c0-0.1,0-0.2,0-0.3c0-0.1,0-0.2,0-0.3c0-0.1,0-0.2,0.1-0.4c0-0.1,0.1-0.2,0.2-0.3c0.1-0.1,0.2-0.2,0.4-0.2
				c0.1,0,0.3,0,0.4,0c0.2,0,0.5,0,0.8,0.1c0.3,0,0.7,0.1,1.1,0.1c0.4,0.1,0.8,0.1,1.2,0.2c0.4,0.1,0.7,0.1,1.1,0.2
				c0.3,0,0.6,0.1,0.8,0.1c0.2,0,0.3,0,0.3,0.1c0.4,0.1,0.7,0.1,1.1,0.1c0.3,0,0.6,0.1,0.9,0.2c0.3,0.1,0.5,0.2,0.7,0.3
				c0.2,0.2,0.3,0.4,0.4,0.7c0.1,0.4,0.1,0.7,0.1,1c0,0.3-0.2,0.6-0.4,0.9c-0.2,0.3-0.6,0.6-1,1C468,424.4,467.4,424.8,466.7,425.2z
				"/>
		</g>
	</g>
	<g id="tie_6_">
		<path id="tie_8_" class="st10" d="M432.1,484.9c0,0-88.1-49.1-95.1-17.5c-7,31.6-15.1,55.7,8.2,59.7
			C368.5,531.2,432.1,484.9,432.1,484.9z"/>
		<path id="tie_7_" class="st6" d="M416.9,477.6c24.8-13.4,73.9-36.4,79.9-13c8.2,31.5,17.1,55.3-6,60.2
			c-16.2,3.5-53.2-17.3-73.8-29.9C416.7,479.6,417.1,492.7,416.9,477.6z"/>
	</g>
	<path class="st11" d="M532.2,968.6h-34.7c-0.6,0-1.1-0.5-1.1-1.1l0-49.1c0-0.6,0.5-1.1,1.1-1.1h34.7c0.6,0,1.1,0.5,1.1,1.1l0,49.1
		C533.3,968.1,532.8,968.6,532.2,968.6z"/>
	<path class="st11" d="M373.6,979.7l-34.4,4.7c-0.6,0.1-1.2-0.4-1.3-1l-6.6-48.7c-0.1-0.6,0.4-1.2,1-1.3l34.4-4.7
		c0.6-0.1,1.2,0.4,1.3,1l6.6,48.7C374.6,979.1,374.2,979.7,373.6,979.7z"/>
	<g>
		<path class="st0" d="M538.1,526.2c5.3,8.7,5.1,17.9,2.6,27.4c-5.1-1.8-1.1-6.2-3.1-10.1c-4.2,5.1-9.9,7.9-15.9,12.9
			c5.6,0.5,8.3-2.2,11.5-3.5c3.7-1.5,3.8-1.4,4.6,2.8c-2.7,2.2-5.2,4.9-8.6,6c-1.6,0.6-3.4,0.6-5.6,1.7c2.9-1.1,5.4-1.3,7.7-2.1
			c0.6,0,1.2,0.2,1.7,0.6c0.9,2.7,1.7,5.4,2.6,8.1c0.8,1.1,0,1.7-0.8,2.2c-4.7,5.6-8.4,11.9-12.7,17.9c4.3-1.7,6.4-6.1,10.4-8.1
			c0.6-0.1,1.3,0,1.8,0.3c1.2,2.4-0.2,4.1-1.4,5.8c1.4-0.5,1.3-2.7,2.8-3.3c1.1,0.2,1.8,0.6,1.2,1.8c-0.7,5.9-5.2,11.5-1.5,17.8
			c-0.6,3.8-4.3,8,1.3,11.1c0.5,5.3-3.5,9.5-3.8,14.6c0.5,1.2,0.8,2.4-0.5,3.4c-3.7,2.2-3.9,6.9-7,9.6c-0.4,1.1-2.7,2.4,0.4,3.1
			c2.7,0.4,4.3-3.2,7.2-1.9c0.2,0.6,0.2,1.2-0.2,1.7c-0.9,3.3-1.5,5.1,2.2,8.5c4.3,4,5.1,12.3,4.1,18.8c-1.7,10.2-1.1,19.7,2.3,29.5
			c2.5,7.1,0.8,14.2-5.6,21.2c-0.2-3.7-0.4-6-0.5-8.8c-2.7,2.1-1.6,6.2-5.1,7.8c-0.2-3.8-0.4-7.5-0.5-11.2c-1-1.3-2.8-1.7-3.7-3.1
			c-1.6-6.1-5.6-10.9-9-16.1c-7.3-11.3-10.4-22.9-2.2-35.1c1.5-2.3,0.3-3.2-1-4.5c-2.2-2.3-4-5.5-2.1-8c3.7-5,0.6-8.7-1.2-12.8
			c-0.2-0.6-0.2-1.3,0-1.9c0.5-0.4,1.2-0.5,1.8-0.4c1.9,0.6,3.1,2.4,5,3c0.8,0.3,1.9,0.6,2.2-0.5c0.2-0.9-0.7-1.5-1.3-2
			c-2.3-2.6-6-3.3-8.5-5.7c-3.3-3.5-1.2-8.3-3-12.1c-4-4.9-4.6-10.5-3.9-16.5c5.5,0.6,3.9,5.9,5.8,8.9c1.3,1.9,2.7,3.7,5.1,4.3
			c-2.1-1.3-4.9-2-4-5.5c3.3-1.4,5.9,1.6,9,1.4c0.1,0.9,0-0.6,0.7,0c0.5,0.5,0.9,0,0.4-0.3c-2.7-1.5-5.2-3.3-8-4.8
			c-2.9-2.4-6-4.7-7.8-8.2c4.1-7,3.6-13.4-0.8-20.5c-3.5-5.6-2.5-12.4-1.6-18.8c0.3-2,0.7-3.8-1.4-5.5c-9.9-7.8-11.4-18.2-8.6-29.7
			c1-3.9,0.7-6.6-2.1-9.8c-6.8-7.6-8-16.9-5.1-26.4c1.7-5.5,0.9-9.2-3.3-13.8c-9.5-10.1-10.3-23.1-8-36.1c0.7-3.9,0.3-6.4-2.2-9.2
			c-3.7-4.1-6.4-8.9-8.2-14.2c-2.8-8.3-0.4-13.8,7.9-16.8c9.8-3.5,19.5-1.8,28.8,2c5.5,2.2,10.4,7.3,15.8,7.6
			c5,0.3,9.3-5.8,14.8-7.7c9.2-3.2,18.3-4.1,27.5-0.3c5.9,2.4,8.7,6.4,8.6,13.2c-0.2,15.1-2.4,29.2-13.9,40.3
			c-2.1,2-1.1,4.2-1.2,6.4c0.7,1.1,0,1.7-0.8,2.2c-5.2,2.5-5.9,9.2-11,11.9c-5.8,3.8-12,6.9-17.4,10.4c4-0.9,7.4-5.8,12.8-3.7
			c-2.7,7.9-10.1,7.5-15,9.7c7.7-1.5,15.1-6,22.3-10.9c2-1.3,5-6,8-5.2c1.8,5.2-4,9.9-6.7,12.9c-2.3,2.5-5.2,4.2-8.3,5.6
			c-4.3,0.4-8.1,2.8-11.1,3.4c3.4-1.2,8-2.8,12.7-4c2-1,3.8-2.6,6.2-2.6c1,0.3,1.8,0.8,1.3,2.1c3.6,6.9,5.3,14.1,4,21.9
			c-2.3,0.7-2.4-2-3.8-2.6c-5.7,2.4-8.9,8.6-15.3,9.9c1.8-0.2,3.8-2.2,5.1-0.3c1.4,2.1-1,3.1-2.6,3.8c-1.6,0.7-3.2,1.3-4.1,1.8
			c3.9-1.1,7.7-3.9,11.7-6.4c3.9-2.4,4.9-0.4,4.3,3.4c-1.5,2.2-3.2,4.2-5.9,5.2c-3,0-5.7,1.1-8.4,2.2c-0.9,0.3,0.1,1.2-0.3,0.4
			c0-0.1,0.1-0.3,0.5-0.3c2.5-0.6,4.8-2.8,7.7-1.3C537.8,523.6,537.1,525.3,538.1,526.2z"/>
		<path class="st4" d="M536.8,555.1c1.2-2.5,0.1-2.7-1.8-1.7c-3.4,1.8-6.7,3.8-10.2,5.5c-1.4,0.7-3.4,0.9-4.2-0.9
			c-0.7-1.6-0.7-3.4,1.4-4.6c5.6-3.4,11.7-6.2,15.1-12.4c0.2-0.4,1.5-0.8,1.7-0.6c1.2,1.1,1.8,2.6,1.9,4.2c0.2,3-2.7,6,0,9
			c-0.3,2.3-1.1,4.3-3.8,4.6C535.8,557.2,536,556.2,536.8,555.1z"/>
		<path class="st4" d="M507.9,605.9c-3.5-2.2-1.5-7.6-5.4-9.6c-0.3-1.6-0.2-3,1.2-4c4.3,0.4,5.1,5.1,8.3,6.9
			c0.6,2.4,2.7,3.2,4.5,4.4c1.4,0.8,3.4,1.5,2.4,3.9c-4,1.3-6.5-3.2-10.3-2.7C508.7,605.2,508.5,605.7,507.9,605.9z"/>
		<path class="st4" d="M536.8,520.8c2-1.5,4-3,6-4.4c1-4.5-1.2-9.6,2.5-13.6c0.8,1.4,1.6,2.8,2.5,4.2c0.4,5.7-2.6,9.9-6,13.9
			c-1.4,1.7-3.8,2.6-3.6,5.4c-1.3-0.6-1.3-1.9-1.4-3.1C536,522.4,536,521.6,536.8,520.8z"/>
		<path class="st4" d="M536.6,615.7c-1.1-0.3-2.1-0.9-3.2-0.8c-1.2,0.1-5.5,0.9-8.1,2.5c-2.9,1.8,4.8-5.5,5.7-6.7
			c1.5-1.9,2.8-4.1,4.2-6.1C537.2,608.1,537.3,611.8,536.6,615.7z"/>
		<path class="st4" d="M536.9,586.8c-0.4-0.4-0.8-0.9-1.2-1.3c-1.4-0.5-0.6-2.1-1.4-2.9c-0.5,0-0.9,0.1-1.4,0.1
			c-0.9-3.9,0.7-7.6,1.3-11.3c0.4-0.5,0.9-0.9,1.3-1.4C538.1,575.5,539.3,581,536.9,586.8z"/>
		<path class="st4" d="M510.7,630.8c-0.1,0.6-0.2,1.2-0.3,1.7c-4.9-5.8-3.7-12.9-3.9-19.7c2.4,3.6,1.3,8.5,4.4,11.8
			C510.4,626.7,512.7,628.7,510.7,630.8z"/>
		<path class="st4" d="M549.2,454.8c0.5-0.5,1-1.1,1.5-1.6c2.6,5.4,3,11,1,16.7c-0.6,0.4-1.2,0.4-1.7-0.1c-0.9-1-1.4-2.2-1.5-3.6
			C549.2,462.5,547.9,458.5,549.2,454.8z"/>
		<path class="st4" d="M550.5,469.9c0.4,0,0.8,0,1.2,0c-1.4,5.7-3.4,11.1-7.9,15.2c-0.5-0.5-1-1-1.5-1.5
			C543.8,478.3,547.2,474.1,550.5,469.9z"/>
		<path class="st4" d="M536.8,555.1c0,1,0.1,2,0.1,3.1c-0.8,1.8-1.9,3.3-4,3.8c-0.5,0-1.1,0-1.6,0c-1.5,0.9-2.7,1.1-2.6-1.3
			C531.4,558.9,534.1,557,536.8,555.1z"/>
		<path class="st4" d="M532.8,646.1c-0.1-0.5-0.1-0.9-0.2-1.4c-2.6-3.6-2.6-7.4-1-11.4c0.4-1,0.8-2,1.2-3
			C535.5,635.6,535.5,640.8,532.8,646.1z"/>
		<path class="st4" d="M525.9,708.9c1.8,0.4,4.3-0.1,3.7,3.1c-1.1,0.9-1.4,2.8-3.3,3.1C525.2,713.2,525.8,711,525.9,708.9z"/>
		<path class="st4" d="M497,457.4c6.1,4.4,13.2,6.9,19.6,10.7c-14.5-2.4-27.3-8.2-37.6-19c-3.5-4.5-4.7-9.5-3-14.9
			c1.1-5.6,0.3-4.9,2.5-1.7c3.1,4.5,7.4,8.8,10.2,12.6c2,1.4-4.4,3.4,0.3,4.7C491.7,452.4,495.4,453.8,497,457.4z"/>
		<path class="st4" d="M518.7,663.5c0.4-1.3,0.3-3.1,1.9-3.2c1.6-0.2,1.2,1.6,1.4,2.6c0.6,2.9,0.9,5.8,1.4,8.8
			c2-0.5,0.3-2.8,2.1-3.8c1.1,8.8-2.2,16.9-2.5,26.4c-6.8-10.2-14.6-18.9-6.8-30.9c0.8,0.9,1.2,1.9,1.2,3.1
			C517.7,665.3,517.9,664.3,518.7,663.5z"/>
		<path class="st4" d="M549.2,454.8c1.8,4.5,2.7,8.9-1,12.9c-0.1,0.3-0.2,0.5-0.3,0.8c-7.7,10.1-18.7,13.7-30.3,16.4
			c5.1-4.4,12.5-5.2,16.7-10.9c0.2-1.4,1.1-2.6,2.3-3.1c2.5-1.1,4-2.3,1.6-4.9c3.1-2.9,5.7-6.1,7.8-9.9
			C546.7,454.7,547.1,452.8,549.2,454.8z"/>
		<path class="st4" d="M545.1,415.9c2.9-2.5,5.3-5.3,7.5-8.5c1-1.4,4.2-5.7,4.7-8.2c1.7-8.6,1.3,7.5,1.4,9.7
			c0.1,1.9,0.9,3.8-0.3,5.6c-1.2,2.2-1.7,4.9-4.5,5.8c-6.9,8-19.1,14.2-29.1,14.3c4.8-2.6,8.9-4.9,13-7.1c1.7-3.7,5.5-5.2,8.2-7.8
			C548.2,417.9,543.3,417.7,545.1,415.9z"/>
		<path class="st4" d="M545.2,502.9c-0.2,4.2-0.2,8.5-2,12.4c-0.2,0.4-0.8,0.4-0.9-0.1c-0.2-1.4-0.2-3.1-2.9-0.7
			c-4.2,3.7-9.4,5.4-15.6,7.4c-0.5,0.2-0.9-0.5-0.5-0.8c3-2.3,6.2-3.2,9-5.7c0.4-0.4,0-1-0.5-0.8c-2.5,1.1-4.6,2-7,3
			c-0.4,0.2-0.8-0.3-0.6-0.7c1.4-2.6,3.7-3.3,5.6-4.4c4.6-2.6,10.1-4.9,11.8-10.1c1.9-5.7,1.4-4.9,3.5,0.3
			C545.2,502.7,545.2,502.8,545.2,502.9z"/>
		<path class="st4" d="M488.7,493.2c-0.2-0.1-0.5-0.2-0.5-0.4c-1-4.2-4.8-9.6-0.4-12.2c2.1-1.2,5.8,5.6,9.1,8.4
			c1.3,4.8,8,4.5,9.1,9.6c2.2,2.9,6.3,2.5,10.1,6.2c-9.9-2.6-17.6-5.5-24.2-11.1c-0.7-0.6-1.9-4.8-3.4-0.4L488.7,493.2z"/>
		<path class="st4" d="M488.8,450.7c-2.7-0.2-4.4-1.6-5.3-4.4c1.9-0.3,4.4,2.3,5.2-1.2c10.3,5.9,21.1,11,31.2,18.7
			c-8.2-1.2-14.6-5.3-21.5-7.8C494.6,455.3,491.7,452.9,488.8,450.7z"/>
		<path class="st4" d="M513.6,542.5c1.1,0.6,2.2,1.3,5,2.9c-9.4-0.2-14.5-5.9-20.8-8.4c-1.1,0.4-1.6-0.3-2.1-1.1
			c-2.1-4.2-3.9-8.5-0.9-13.6c3.2,3.4,6.1,6.5,9,9.6c0.5,1.2,0.1,2.7,1.3,3.6C507.8,538,511.5,539.2,513.6,542.5z"/>
		<path class="st4" d="M534.2,571.4c2.5,4.1,0.2,7.7-1.3,11.3c-2.3,3.7-5.7,6.5-9.1,9.3c-0.7,0.6-1.6,1.7-2.8,0.8
			c1.6-1.7-2.2-2.1-0.8-3.9c4.5-5.9,9.6-11.3,12.4-18.4C533.1,570.8,533.6,571.1,534.2,571.4z"/>
		<path class="st4" d="M506.5,570.2c-2.6-3.6-3.9-9.1-2.1-13.6c11.6,20,17.5,17.6,19.9,20c-6.8-0.6-11.2-4.6-16.6-6.4
			C507.3,570.9,506.9,570.9,506.5,570.2z"/>
		<path class="st4" d="M476.3,434.2c-0.8,5.3,0.9,10.1,2.7,14.9c3.5,9.4,10.3,15.5,19.2,19.6c0.6,1.4-0.1,2.1-1.3,2.6
			C482.3,466.8,471.5,447.4,476.3,434.2z"/>
		<path class="st4" d="M538.2,465.9c1.1,2.9,3,1.6,5.9-0.4c-2.3,5.7-7,5.9-9.8,8.4c-5.6,0.7-9.9,5.3-16.4,5.6
			C524,473.1,531.3,469.8,538.2,465.9z"/>
		<path class="st4" d="M545.1,415.9c0.5,0.4,1.1,0.9,1.6,1.3c1.2,0.8,3.3-1.4,3.6,0.5c0.3,2-1.8,2.5-3.6,2.6
			c-3.3,2.2-6.4,4.9-10.5,5.8c-4.9,1.8-9.5,4.6-15.9,5.5C529,425.5,536.7,420.1,545.1,415.9z"/>
		<path class="st4" d="M553.1,419.4c1.1-2,1.6-4.5,4.2-5.5c-0.1,10.1-4.4,17.6-13.7,22.1c-1.6,0.2-3.7,2-4.1-1.4
			c5.8-2.7,10.7-6.5,13.9-12.2C554.1,421.3,555.1,420.2,553.1,419.4z"/>
		<path class="st4" d="M531.6,633.3c1.6,3.7,0.7,7.6,1,11.4c-2.5,0-3.2,5.3-6.8,2.4c-0.2-1.7-1-3-2.3-4
			C526.7,640.2,527.3,635.3,531.6,633.3z"/>
		<path class="st4" d="M531.1,698.3c-3.2-7.1-4.1-14,2.3-21.2c1.8,6.5-1.5,11.6-0.9,16.9C531.3,695.2,532.8,697.3,531.1,698.3z"/>
		<path class="st4" d="M547.9,468.4c0-0.3,0.1-0.6,0.3-0.8c1.9-0.4,2,1,2.3,2.2c-2.5,4.7-4.4,9.8-8.2,13.7c-1.8,1-3.5,2-5.3,3
			c-1.5,0.4-3.1,1.1-2.9-1.6C540.2,480.8,547,477.1,547.9,468.4z"/>
		<path class="st4" d="M506.1,498.6c-2.7-3.5-9.8-2.8-9.1-9.5c5,2.5,10.2,4.5,14.8,8.6C509.9,499.5,507.8,497.9,506.1,498.6z"/>
		<path class="st4" d="M503.4,535.8c-4.8-1.7,0.2-2.6,0.3-3.9c5.6,2.7,11.3,5.4,16.2,9.8c-2,1.7-3.4-0.6-5-0.4
			C510.6,540.5,507.2,537.6,503.4,535.8z"/>
		<path class="st4" d="M495.6,535.8c0.7,0.4,1.4,0.8,2.1,1.1c2.3,5.6,8.1,7.7,12.4,11.6C503.7,549,498.2,544.1,495.6,535.8z"/>
		<path class="st4" d="M518.9,629.4c1.7,1.2,4.9,2.2,3.2,4.9c-1.6,2.6-4.5,1.6-6.7,0.2c-1.3-0.8-2.3-2.1-3.4-3.2
			c-1-2.6,0.8-2.6,2.4-2.5C515.9,628.8,517.2,630.3,518.9,629.4z"/>
		<path class="st4" d="M488.8,492.9c5.8,6.5,7.8,9.2,13.6,11.4c0.1,2.6-1.2,2.2-2.8,1.4c-5.4-2.6-9.9-6.9-11.4-12.9
			C488.1,489.5,488.8,492.9,488.8,492.9z"/>
		<path class="st4" d="M518.9,607.4c-0.8-2.2-2.8-2.4-4.6-3.2c-2.1-0.9-3.9-2.3-2.3-5c4,2.3,8.5,3.9,12.2,7.9
			C522,607.1,520.5,607.3,518.9,607.4z"/>
		<g>
			<path class="st4" d="M477.4,402.7c-3.2-5-2.7-28.7-2.3-27.2c1.7,5.3,3.7,9.3,4.2,10.3c2.7,4.6,6.7,8,10.6,11.4
				c0.7,1.1,0,2.1-0.3,3.1c0.5,2.9,2,2.3,4.6,6.3c7.3,5.4,15.9,8.3,23.6,12.9c-13.1-2.5-25.3-7.1-35.6-15.8
				c-0.9-0.8-1.5-3.4-3.5-1.1C478.3,403.3,477.9,403.3,477.4,402.7z"/>
			<path class="st4" d="M488.7,400.3c0.4-1,0.9-2,1.3-3.1c9.4,4.4,18.4,9.6,27.8,16.6c-9.4-1.3-16.2-5.9-23.6-8.9
				C492.1,403.7,489,403.6,488.7,400.3z"/>
			<path class="st4" d="M477.4,402.7c0.4,0,0.8-0.1,1.2-0.1c4.7,7,10.7,12.6,18.2,16.7c1.1,1.6,1.1,2.6-1.3,2.5
				C486.4,418.4,480.5,412,477.4,402.7z"/>
			<path class="st4" d="M495.6,421.9c1-0.5,1.3-1.4,1.3-2.5c5.4,1.2,10.5,3.4,15.3,6.5C506.6,424.6,501.1,423.2,495.6,421.9z"/>
		</g>
		<path class="st4" d="M518.9,629.4c-0.9,2.3-2.2,2.4-4,0.9c-1.3-1.1-2.4-0.8-2.9,0.9c-0.4-0.3-0.8-0.4-1.3-0.5
			c0.4-2-2.5-4.1,0.1-6.1C513.7,625.9,516.5,627.2,518.9,629.4z"/>
		<path class="st4" d="M539.5,434.7c1,1.6,2.6,1.1,4.1,1.3c-4.9,1.4-9.9,2.8-14.8,4.2c-0.2-0.5-0.4-1-0.6-1.5
			C532,437.4,535.7,436,539.5,434.7z"/>
		<path class="st4" d="M534,485c0.6,1.3,1.8,1.3,2.9,1.6c-5.1,1.4-10.1,2.8-15.2,4.2C525.5,487.7,529.6,485.9,534,485z"/>
		<path class="st4" d="M531.1,698.3c0.3-1.5-0.2-3.2,1.4-4.3c0.6,4.7,4.9,7.2,6.7,11.3C536.2,703.1,532.3,702.3,531.1,698.3z"/>
		<path class="st4" d="M523.5,643.1c1.1-0.1,2.7-0.6,3-0.1c1,1.4,0.9,3-0.7,4.1c-1.4,0.2-2.9,2.3-4.3,0.3
			C520.2,645.3,522.3,644.3,523.5,643.1z"/>
		<path class="st4" d="M518.7,663.5c0,3,0,6.1,0,9.1c-3.4-2.9-2.1-6.2-2.5-9.3C517.2,662,517.9,663.5,518.7,663.5z"/>
		<path class="st4" d="M536.8,520.8c0,0.8,0,1.6,0,2.4c-3.7,0.8-7.4,1.7-11.1,2.5C529,523,532.5,520.9,536.8,520.8z"/>
		<path class="st4" d="M499.6,505.7c1.1-0.1,2.3-0.1,2.8-1.4c3,0.7,6.1,1.3,9.3,4C507,508,503.2,507.4,499.6,505.7z"/>
		<path class="st4" d="M503.4,535.8c4.3,0.8,8,2.9,11.5,5.4c-0.4,0.4-0.8,0.8-1.2,1.2C509.6,541.1,506.3,538.8,503.4,535.8z"/>
		<path class="st4" d="M496.9,471.3c0.4-0.9,0.9-1.8,1.3-2.6c2.7,1,5.4,1.9,8.1,2.9c0.3,1.2,0.1,1.8-1.3,1.3
			C502.3,472.4,499.6,471.9,496.9,471.3z"/>
		<path class="st4" d="M534.2,582.6c0.5,1,1,1.9,1.4,2.9c-1.1,2.9-2.6,5.5-7.1,7.1C530.9,588.6,534,586.3,534.2,582.6z"/>
		<path class="st4" d="M507.9,605.9c0.3-0.4,0.5-0.9,0.8-1.3c2.2,2.7,5.2,4.2,9.4,6.8C512.4,611.4,509.9,609.1,507.9,605.9z"/>
		<path class="st4" d="M488.8,450.7c3.6,1,6.5,3.3,9.6,5.4c-0.5,0.4-0.9,0.9-1.4,1.3C494,455.4,490.5,454.2,488.8,450.7z"/>
		<path class="st4" d="M506.5,570.2c0.4,0,0.8,0,1.2-0.1c1.8,2.3,3.7,4.6,5.7,7.1C509.9,576.2,507.4,574.2,506.5,570.2z"/>
		<path class="st4" d="M505,472.9c0.4-0.4,0.9-0.9,1.3-1.3c2.5,0.9,5,1.7,9.1,3.2C510.4,475.7,507.6,474.5,505,472.9z"/>
		<path class="st4" d="M528.7,560.7c0.5,1.3,1.6,1.1,2.6,1.3c-2.8,2.2-6.5,1.2-10.8,3.6C523.3,561.6,526.4,561.9,528.7,560.7z"/>
		<path class="st4" d="M485.7,412.8c1.8,1.5,3.7,3.1,5.5,4.6c0,0.6,0.1,1.1,0.1,1.7c-2.4-1.7-5.1-3-7-5.1
			C482.7,412.3,484.8,412.8,485.7,412.8z"/>
	</g>
	<path class="st4" d="M581.5,273.2c0,0-6.7,28.9-13.1,43.6c-6.5,14.7-14.9,31.9-14.9,31.9s9.4-8.4,18.3-30.8
		C580.6,295.4,581.5,273.2,581.5,273.2z"/>
	<path id="sleeve_32_" class="st3" d="M262.7,616.1c-1.7,7.4,4.6,2.4,4.6,2.4L254,802.9c0,0-64.7-9.3-72-72.7
		c18-87.4,28.3-199.2,28.3-199.2S243.2,524.6,262.7,616.1z"/>
	<path id="hand_5_" class="st1" d="M255.8,834.7c0,0,53.1-13.4,70.8-3.6c17.7,9.8,47.6,25.7,48.1,42.5c0.5,16.8-22.3,64.3-46.5,62.5
		c-24.2-1.8-88.9-47.9-88.9-47.9L255.8,834.7z"/>
	<g id="jacket_5_">
		<path id="sleeve_31_" class="st3" d="M295,873.4c10.3-3.1,26.4-30.9,21.5-39.3c-24.5,3.9-61.9-107-57.5-100
			c4.7,7.4-21.6-48.5-70-23.2c-23.2,28,9.7,124.8,45.7,167.9c6.8,8.1,19.6,9.1,24.2,7.4C265.5,883.7,284.5,876.6,295,873.4z"/>
		<path id="handle_11_" class="st5" d="M226.2,875.5c0,0,14.7-35.7,22.7-45.7c8-10,40.7-30.6,40.7-30.6l30.9,33.8
			c0,0-18.6,41.6-26.6,49.9c-8,8.3-36.6,23.3-36.6,23.3L226.2,875.5z"/>
	</g>
	<path id="hand_1_" class="st1" d="M576.7,826.7c0,0-54.2-14.1-71.6-3.8c-17.5,10.2-47,26.7-46.8,44.3c0.2,17.6,25.1,67.1,49.4,65.3
		c24.3-1.8,87.8-49.9,87.8-49.9L576.7,826.7z"/>
	<g id="jacket_1_">
		<path id="sleeve_6_" class="st3" d="M536.9,857.7c-8.4-4.4-12.2-16.4-6.5-22.8c0.9-0.8,73.9-111.9,69-106.6
			c-5.3,5.6,26.6-24.2,64.5,5.4c15.5,27.8-37.2,107.4-75.5,138.4c-7.2,5.8-18.5,4.6-22.2,2.4C560.8,871.3,545.5,862.1,536.9,857.7z"
			/>
		<path id="handle_4_" class="st5" d="M610.7,876.3c0,0-11.8-36.7-19-47.3c-7.2-10.6-38.1-33.7-38.1-33.7L516,822.5
			c0,0,15.3,42.9,22.6,51.8c7.3,8.9,34.7,26.1,34.7,26.1L610.7,876.3z"/>
	</g>
</g>
</svg>
