<?xml version="1.0" encoding="utf-8"?>
<!--
  Licensed to the Apache Software Foundation (ASF) under one or more
  contributor license agreements.  See the NOTICE file distributed with
  this work for additional information regarding copyright ownership.
  The ASF licenses this file to You under the Apache License, Version 2.0
  (the "License"); you may not use this file except in compliance with
  the License.  You may obtain a copy of the License at

      http://www.apache.org/licenses/LICENSE-2.0

  Unless required by applicable law or agreed to in writing, software
  distributed under the License is distributed on an "AS IS" BASIS,
  WITHOUT WARRANTIES OR CONDITIONS OF ANY KIND, either express or implied.
  See the License for the specific language governing permissions and
  limitations under the License.
-->
<!-- Generator: Adobe Illustrator 19.0.0, SVG Export Plug-In . SVG Version: 6.00 Build 0)  -->
<!DOCTYPE svg PUBLIC "-//W3C//DTD SVG 1.1//EN" "http://www.w3.org/Graphics/SVG/1.1/DTD/svg11.dtd">
<svg version="1.1" id="Apache_Logo_Horizontal" xmlns="http://www.w3.org/2000/svg" xmlns:xlink="http://www.w3.org/1999/xlink"
	 x="0px" y="0px" viewBox="0 0 9835 1713.9" enable-background="new 0 0 9835 1713.9" xml:space="preserve">
<path fill="#6D6E71" d="M1069.6,296.4v92.2h-11.8v-92.2h-33.7V285h79.4v11.4H1069.6z"/>
<path fill="#6D6E71" d="M1234.8,388.5V343h-62.4v45.6h-11.8V285h11.8v46.8h62.4V285h11.8v103.6H1234.8z"/>
<path fill="#6D6E71" d="M1329.2,296.4v34h52.2v11.4h-52.2v35.5h60.4v11.3h-72.2V285h70.3v11.4H1329.2z"/>
<path fill="#D22128" d="M933.7,1098.5l247.5-591.6h47.5l247.5,591.6h-62.5l-76.7-185h-265.8l-75.8,185H933.7z M1205.4,575.2
	l-121.7,292.5h240L1205.4,575.2z"/>
<path fill="#D22128" d="M1540.1,1098.5V506.9h245c101.7,0,175,94.2,175,185.8c0,96.7-68.3,187.5-170,187.5h-192.5v218.3H1540.1z
	 M1597.6,828.5h189.1c70,0,115-64.2,115-135.8c0-74.2-55-134.2-120-134.2h-184.1V828.5z"/>
<path fill="#D22128" d="M1927.7,1098.5l247.5-591.6h47.5l247.5,591.6h-62.5l-76.7-185h-265.8l-75.8,185H1927.7z M2199.3,575.2
	l-121.7,292.5h240L2199.3,575.2z"/>
<path fill="#D22128" d="M2750.1,503.6c105,0,181.6,53.3,218.3,129.2l-46.7,28.3c-37.5-78.3-110.8-105-175-105
	c-141.7,0-219.1,126.7-219.1,245.8c0,130.8,95.8,249.1,221.6,249.1c66.7,0,145-33.3,182.5-110l48.3,25
	c-38.3,88.3-143.3,137.5-234.1,137.5c-162.5,0-276.6-155-276.6-305C2469.3,656,2571.7,503.6,2750.1,503.6z"/>
<path fill="#D22128" d="M3528,506.9v591.6h-58.3V821.9h-350.8v276.6h-57.5V506.9h57.5v263.3h350.8V506.9H3528z"/>
<path fill="#D22128" d="M4059.1,1046.8v51.7h-397.5V506.9h390v51.7h-332.5v213.3h290V821h-290v225.8H4059.1z"/>
<linearGradient id="SVGID_1_" gradientUnits="userSpaceOnUse" x1="-4229.6655" y1="-4143.6401" x2="-3987.5886" y2="-3860.573" gradientTransform="matrix(0.4226 -0.9063 0.9063 0.4226 6189.0356 -1936.8361)">
	<stop  offset="0" style="stop-color:#F69923"/>
	<stop  offset="0.3123" style="stop-color:#F79A23"/>
	<stop  offset="0.8383" style="stop-color:#E97826"/>
</linearGradient>
<path fill="url(#SVGID_1_)" d="M729.5,8.1C702.6,24,657.9,68.9,604.6,134l49,92.5c34.4-49.2,69.3-93.4,104.5-131.2
	c2.7-3,4.1-4.4,4.1-4.4c-1.4,1.5-2.7,3-4.1,4.4c-11.4,12.6-46,52.9-98.2,133.1c50.2-2.5,127.5-12.8,190.4-23.5
	c18.7-105-18.4-153-18.4-153S784.8-24.6,729.5,8.1z"/>
<path fill="none" d="M646.5,535.5c0.4-0.1,0.7-0.1,1.1-0.2l-7.1,0.8c-0.4,0.2-0.8,0.4-1.2,0.6C641.7,536.3,644.1,535.9,646.5,535.5z
	"/>
<path fill="none" d="M596.5,701.1c-4,0.9-8.1,1.6-12.3,2.2C588.4,702.7,592.5,702,596.5,701.1z"/>
<path fill="none" d="M256.7,1072.7c0.5-1.4,1-2.8,1.6-4.1c10.8-28.5,21.5-56.1,32-83.1c11.9-30.2,23.6-59.5,35.2-87.9
	c12.2-29.9,24.3-58.8,36.1-86.8c12.5-29.3,24.7-57.5,36.8-84.7c9.8-22.1,19.5-43.5,29-64.2c3.2-6.9,6.3-13.7,9.5-20.5
	c6.2-13.4,12.4-26.6,18.5-39.4c5.6-11.9,11.2-23.5,16.8-34.9c1.8-3.8,3.7-7.6,5.5-11.3c0.3-0.6,0.6-1.2,0.9-1.8l-6,0.7l-4.8-9.4
	c-0.5,0.9-0.9,1.8-1.4,2.7c-8.6,17.1-17.1,34.3-25.6,51.7c-4.9,10-9.7,20.1-14.6,30.3c-13.4,28.1-26.5,56.5-39.5,85
	c-13.1,28.8-25.9,57.8-38.5,86.9c-12.4,28.5-24.5,57.1-36.3,85.5c-11.8,28.4-23.4,56.8-34.7,84.9c-11.8,29.4-23.3,58.5-34.4,87.3
	c-2.5,6.5-5,13-7.5,19.4c-8.9,23.2-17.6,46.2-26.1,68.8l7.5,14.9l6.7-0.7c0.2-0.7,0.5-1.4,0.7-2
	C235.2,1129.9,246,1100.9,256.7,1072.7z"/>
<path fill="none" d="M581.2,703.8L581.2,703.8C581.2,703.8,581.2,703.8,581.2,703.8C581.2,703.8,581.2,703.8,581.2,703.8z"/>
<path fill="#BE202E" d="M564.9,784.6c-6.3,1.1-12.7,2.2-19.3,3.4c0,0-0.1,0-0.1,0.1c3.3-0.5,6.6-1,9.9-1.6
	C558.6,785.9,561.8,785.3,564.9,784.6z"/>
<path opacity="0.35" fill="#BE202E" d="M564.9,784.6c-6.3,1.1-12.7,2.2-19.3,3.4c0,0-0.1,0-0.1,0.1c3.3-0.5,6.6-1,9.9-1.6
	C558.6,785.9,561.8,785.3,564.9,784.6z"/>
<path fill="#BE202E" d="M581.3,703.7C581.3,703.8,581.3,703.8,581.3,703.7c-0.1,0-0.1,0.1-0.1,0.1c1-0.1,2.1-0.3,3.1-0.5
	c4.2-0.6,8.3-1.3,12.3-2.2C591.6,702,586.5,702.9,581.3,703.7L581.3,703.7L581.3,703.7z"/>
<path opacity="0.35" fill="#BE202E" d="M581.3,703.7C581.3,703.8,581.3,703.8,581.3,703.7c-0.1,0-0.1,0.1-0.1,0.1
	c1-0.1,2.1-0.3,3.1-0.5c4.2-0.6,8.3-1.3,12.3-2.2C591.6,702,586.5,702.9,581.3,703.7L581.3,703.7L581.3,703.7z"/>
<linearGradient id="SVGID_2_" gradientUnits="userSpaceOnUse" x1="-6021.2769" y1="-4174.8843" x2="-4294.1865" y2="-4174.8843" gradientTransform="matrix(0.4226 -0.9063 0.9063 0.4226 6189.0356 -1936.8361)">
	<stop  offset="0.3233" style="stop-color:#9E2064"/>
	<stop  offset="0.6302" style="stop-color:#C92037"/>
	<stop  offset="0.7514" style="stop-color:#CD2335"/>
	<stop  offset="1" style="stop-color:#E97826"/>
</linearGradient>
<path fill="url(#SVGID_2_)" d="M509.2,465.4c14.9-27.8,30-55,45.2-81.5c15.8-27.5,31.8-54.2,48-79.9c1-1.5,1.9-3.1,2.9-4.6
	c16-25.3,32.1-49.6,48.4-72.9l-49-92.5c-3.7,4.5-7.4,9.1-11.1,13.7c-14.1,17.6-28.8,36.5-43.8,56.6c-17,22.6-34.4,46.8-52.1,72.2
	c-16.3,23.4-32.9,48-49.5,73.4c-14.1,21.6-28.3,43.9-42.4,66.7c-0.5,0.8-1,1.7-1.6,2.6l63.7,125.9
	C481.4,518.1,495.2,491.5,509.2,465.4z"/>
<linearGradient id="SVGID_3_" gradientUnits="userSpaceOnUse" x1="-5812.7939" y1="-4001.6594" x2="-4783.6157" y2="-4001.6594" gradientTransform="matrix(0.4226 -0.9063 0.9063 0.4226 6189.0356 -1936.8361)">
	<stop  offset="0" style="stop-color:#282662"/>
	<stop  offset="9.548390e-02" style="stop-color:#662E8D"/>
	<stop  offset="0.7882" style="stop-color:#9F2064"/>
	<stop  offset="0.9487" style="stop-color:#CD2032"/>
</linearGradient>
<path fill="url(#SVGID_3_)" d="M218.8,1174.8c-8.4,23.2-16.9,46.8-25.4,70.9c-0.1,0.4-0.2,0.7-0.4,1.1c-1.2,3.4-2.4,6.8-3.6,10.2
	c-5.7,16.3-10.7,30.9-22.1,64.2c18.8,8.6,33.9,31.1,48.1,56.7c-1.5-26.5-12.5-51.4-33.3-70.7c92.6,4.2,172.4-19.2,213.6-86.9
	c3.7-6,7.1-12.4,10.1-19.1c-18.8,23.8-42,33.8-85.7,31.4c-0.1,0-0.2,0.1-0.3,0.1c0.1,0,0.2-0.1,0.3-0.1
	c64.4-28.8,96.7-56.5,125.3-102.3c6.8-10.9,13.3-22.7,20.1-35.9c-56.3,57.8-121.6,74.3-190.3,61.8l-51.6,5.7
	C222,1166.1,220.4,1170.4,218.8,1174.8z"/>
<linearGradient id="SVGID_4_" gradientUnits="userSpaceOnUse" x1="-5924.2744" y1="-4190.9775" x2="-4197.1841" y2="-4190.9775" gradientTransform="matrix(0.4226 -0.9063 0.9063 0.4226 6189.0356 -1936.8361)">
	<stop  offset="0.3233" style="stop-color:#9E2064"/>
	<stop  offset="0.6302" style="stop-color:#C92037"/>
	<stop  offset="0.7514" style="stop-color:#CD2335"/>
	<stop  offset="1" style="stop-color:#E97826"/>
</linearGradient>
<path fill="url(#SVGID_4_)" d="M242.9,1059.3c11.1-28.8,22.6-57.9,34.4-87.3c11.3-28.1,22.9-56.5,34.7-84.9
	c11.8-28.5,24-57,36.3-85.5c12.6-29,25.4-58,38.5-86.9c12.9-28.5,26.1-56.9,39.5-85c4.8-10.1,9.7-20.2,14.6-30.3
	c8.4-17.4,17-34.6,25.6-51.7c0.5-0.9,0.9-1.8,1.4-2.7l-63.7-125.9c-1,1.7-2.1,3.4-3.1,5.1c-14.9,24.3-29.6,49.1-44.1,74.4
	c-14.7,25.6-29.1,51.7-43.1,78.1c-11.9,22.3-23.5,44.8-34.7,67.5c-2.3,4.6-4.5,9.2-6.7,13.7c-13.9,28.6-26.4,56.2-37.8,82.8
	c-12.9,30.1-24.2,58.8-34.1,86.1c-6.5,17.9-12.5,35.2-17.9,51.9c-4.5,14.2-8.7,28.4-12.7,42.6c-9.5,33.4-17.7,66.7-24.5,99.8
	l64,126.4c8.5-22.6,17.1-45.6,26.1-68.8C237.9,1072.3,240.4,1065.8,242.9,1059.3z"/>
<linearGradient id="SVGID_5_" gradientUnits="userSpaceOnUse" x1="-5798.3159" y1="-4167.6108" x2="-4890.6782" y2="-4167.6108" gradientTransform="matrix(0.4226 -0.9063 0.9063 0.4226 6189.0356 -1936.8361)">
	<stop  offset="0" style="stop-color:#282662"/>
	<stop  offset="9.548390e-02" style="stop-color:#662E8D"/>
	<stop  offset="0.7882" style="stop-color:#9F2064"/>
	<stop  offset="0.9487" style="stop-color:#CD2032"/>
</linearGradient>
<path fill="url(#SVGID_5_)" d="M144.4,1025.6c-8,40.5-13.8,80.8-16.6,120.8c-0.1,1.4-0.2,2.8-0.3,4.2c-20-32-73.5-63.3-73.4-63
	c38.3,55.5,67.4,110.7,71.7,164.8c-20.5,4.2-48.6-1.9-81.1-13.8c33.9,31.1,59.3,39.7,69.2,42c-31.1,1.9-63.5,23.3-96.1,47.9
	c47.7-19.5,86.3-27.2,113.9-20.9c-43.8,124-87.7,260.9-131.6,406.2c13.5-4,21.5-13,26-25.3c7.8-26.3,59.8-199,141.2-425.9
	c2.3-6.5,4.6-12.9,7-19.5c0.7-1.8,1.3-3.6,2-5.4c8.6-23.8,17.5-48.1,26.7-72.9c2.1-5.6,4.2-11.3,6.3-17c0-0.1,0.1-0.2,0.1-0.3
	l-64-126.4C145,1022.6,144.7,1024.1,144.4,1025.6z"/>
<linearGradient id="SVGID_6_" gradientUnits="userSpaceOnUse" x1="-5924.2744" y1="-4012.23" x2="-4197.1841" y2="-4012.23" gradientTransform="matrix(0.4226 -0.9063 0.9063 0.4226 6189.0356 -1936.8361)">
	<stop  offset="0.3233" style="stop-color:#9E2064"/>
	<stop  offset="0.6302" style="stop-color:#C92037"/>
	<stop  offset="0.7514" style="stop-color:#CD2335"/>
	<stop  offset="1" style="stop-color:#E97826"/>
</linearGradient>
<path fill="url(#SVGID_6_)" d="M477.7,555.7c-1.8,3.7-3.7,7.5-5.5,11.3c-5.5,11.4-11.1,23-16.8,34.9c-6.1,12.8-12.3,26-18.5,39.4
	c-3.1,6.8-6.3,13.6-9.5,20.5c-9.5,20.7-19.2,42.1-29,64.2c-12.1,27.2-24.3,55.4-36.8,84.7c-11.9,27.9-23.9,56.8-36.1,86.8
	c-11.6,28.4-23.3,57.7-35.2,87.9c-10.6,27-21.3,54.6-32,83.1c-0.5,1.4-1,2.8-1.6,4.1c-10.7,28.3-21.5,57.3-32.4,87
	c-0.2,0.7-0.5,1.4-0.7,2l51.6-5.7c-1-0.2-2-0.3-3.1-0.5c61.6-7.7,143.6-53.7,196.5-110.6c24.4-26.2,46.5-57.1,67-93.3
	c15.2-26.9,29.6-56.8,43.2-89.8c11.9-28.9,23.3-60.1,34.4-94c-14.2,7.5-30.4,12.9-48.3,16.7c-3.1,0.7-6.3,1.3-9.6,1.9
	c-3.2,0.6-6.5,1.1-9.9,1.6l0,0l0,0c0,0,0.1,0,0.1-0.1c57.5-22.1,93.7-64.8,120.1-117.1c-15.1,10.3-39.7,23.8-69.2,30.3
	c-4,0.9-8.1,1.6-12.3,2.2c-1,0.1-2.1,0.3-3.1,0.5l0,0l0,0c0,0,0.1,0,0.1,0c0,0,0,0,0.1,0l0,0c19.9-8.3,36.8-17.7,51.4-28.7
	c3.1-2.4,6.2-4.8,9.1-7.3c4.5-3.8,8.7-7.9,12.7-12.2c2.6-2.7,5.1-5.5,7.5-8.4c5.7-6.8,11.1-14.2,16.1-22.1c1.5-2.4,3-4.9,4.5-7.5
	c1.9-3.7,3.7-7.3,5.5-10.8c8-16.1,14.5-30.5,19.6-43.2c2.6-6.3,4.8-12.2,6.7-17.6c0.8-2.2,1.5-4.3,2.2-6.3c2-6.1,3.7-11.5,5-16.2
	c2-7.1,3.1-12.7,3.8-16.8l0,0l0,0c-1.9,1.5-4.2,3.1-6.7,4.6c-17.3,10.4-47.1,19.8-71.1,24.2l47.3-5.2l-47.3,5.2
	c-0.4,0.1-0.7,0.1-1.1,0.2c-2.4,0.4-4.8,0.8-7.2,1.2c0.4-0.2,0.8-0.4,1.2-0.6l-161.9,17.7C478.3,554.5,478,555.1,477.7,555.7z"/>
<linearGradient id="SVGID_7_" gradientUnits="userSpaceOnUse" x1="-6031.4116" y1="-4021.106" x2="-4304.3213" y2="-4021.106" gradientTransform="matrix(0.4226 -0.9063 0.9063 0.4226 6189.0356 -1936.8361)">
	<stop  offset="0.3233" style="stop-color:#9E2064"/>
	<stop  offset="0.6302" style="stop-color:#C92037"/>
	<stop  offset="0.7514" style="stop-color:#CD2335"/>
	<stop  offset="1" style="stop-color:#E97826"/>
</linearGradient>
<path fill="url(#SVGID_7_)" d="M660,228.4c-14.4,22.1-30.1,47.2-47.1,75.6c-0.9,1.5-1.8,3-2.7,4.5c-14.6,24.6-30.1,51.6-46.4,81.2
	c-14.1,25.5-28.8,52.9-44,82.4c-13.3,25.7-27,52.9-41.1,81.7l161.9-17.7c47.2-21.7,68.3-41.3,88.7-69.7c5.4-7.8,10.9-16,16.3-24.5
	c16.6-26,32.9-54.6,47.5-83c14.1-27.4,26.5-54.7,36-79.2c6.1-15.6,10.9-30.1,14.3-42.8c2.9-11.2,5.3-21.9,7.1-32.1
	C787.5,215.6,710.2,225.9,660,228.4z"/>
<path fill="#BE202E" d="M555.4,786.4c-3.2,0.6-6.5,1.1-9.9,1.6l0,0C548.8,787.5,552.1,787,555.4,786.4z"/>
<path opacity="0.35" fill="#BE202E" d="M555.4,786.4c-3.2,0.6-6.5,1.1-9.9,1.6l0,0C548.8,787.5,552.1,787,555.4,786.4z"/>
<linearGradient id="SVGID_8_" gradientUnits="userSpaceOnUse" x1="-5924.2744" y1="-3959.0669" x2="-4197.1841" y2="-3959.0669" gradientTransform="matrix(0.4226 -0.9063 0.9063 0.4226 6189.0356 -1936.8361)">
	<stop  offset="0.3233" style="stop-color:#9E2064"/>
	<stop  offset="0.6302" style="stop-color:#C92037"/>
	<stop  offset="0.7514" style="stop-color:#CD2335"/>
	<stop  offset="1" style="stop-color:#E97826"/>
</linearGradient>
<path fill="url(#SVGID_8_)" d="M555.4,786.4c-3.2,0.6-6.5,1.1-9.9,1.6l0,0C548.8,787.5,552.1,787,555.4,786.4z"/>
<path fill="#BE202E" d="M581.2,703.8c1-0.1,2.1-0.3,3.1-0.5C583.2,703.5,582.2,703.7,581.2,703.8L581.2,703.8z"/>
<path opacity="0.35" fill="#BE202E" d="M581.2,703.8c1-0.1,2.1-0.3,3.1-0.5C583.2,703.5,582.2,703.7,581.2,703.8L581.2,703.8z"/>
<linearGradient id="SVGID_9_" gradientUnits="userSpaceOnUse" x1="-5924.2744" y1="-3965.1499" x2="-4197.1841" y2="-3965.1499" gradientTransform="matrix(0.4226 -0.9063 0.9063 0.4226 6189.0356 -1936.8361)">
	<stop  offset="0.3233" style="stop-color:#9E2064"/>
	<stop  offset="0.6302" style="stop-color:#C92037"/>
	<stop  offset="0.7514" style="stop-color:#CD2335"/>
	<stop  offset="1" style="stop-color:#E97826"/>
</linearGradient>
<path fill="url(#SVGID_9_)" d="M581.2,703.8c1-0.1,2.1-0.3,3.1-0.5C583.2,703.5,582.2,703.7,581.2,703.8L581.2,703.8z"/>
<path fill="#BE202E" d="M581.3,703.8C581.3,703.8,581.3,703.8,581.3,703.8L581.3,703.8L581.3,703.8L581.3,703.8
	C581.3,703.8,581.3,703.8,581.3,703.8z"/>
<path opacity="0.35" fill="#BE202E" d="M581.3,703.8C581.3,703.8,581.3,703.8,581.3,703.8L581.3,703.8L581.3,703.8L581.3,703.8
	C581.3,703.8,581.3,703.8,581.3,703.8z"/>
<linearGradient id="SVGID_10_" gradientUnits="userSpaceOnUse" x1="-4954.02" y1="-3966.3701" x2="-4572.2764" y2="-3966.3701" gradientTransform="matrix(0.4226 -0.9063 0.9063 0.4226 6189.0356 -1936.8361)">
	<stop  offset="0.3233" style="stop-color:#9E2064"/>
	<stop  offset="0.6302" style="stop-color:#C92037"/>
	<stop  offset="0.7514" style="stop-color:#CD2335"/>
	<stop  offset="1" style="stop-color:#E97826"/>
</linearGradient>
<path fill="url(#SVGID_10_)" d="M581.3,703.8C581.3,703.8,581.3,703.8,581.3,703.8L581.3,703.8L581.3,703.8L581.3,703.8
	C581.3,703.8,581.3,703.8,581.3,703.8z"/>
<path fill="#6D6E71" d="M4552.4,508.2c12,3.6,22.6,8.4,31.5,14.5l-10.5,23c-9.2-6.1-19-10.6-29.4-13.6c-10.4-3-20.3-4.5-29.7-4.5
	c-13.8,0-24.9,2.5-33.2,7.5c-8.3,5-12.4,12-12.4,21.1c0,7.8,2.3,14.2,6.9,19.3c4.6,5.1,10.3,9,17.3,11.9c6.9,2.8,16.4,6.1,28.5,9.8
	c14.6,4.7,26.4,9.1,35.3,13.1c8.9,4.1,16.5,10.1,22.9,18.1c6.3,8,9.5,18.5,9.5,31.5c0,11.9-3.2,22.2-9.6,31.1
	c-6.4,8.9-15.5,15.7-27.3,20.6c-11.8,4.9-25.3,7.3-40.6,7.3c-15.3,0-30.2-3-44.7-8.9c-14.4-5.9-26.8-13.9-37.2-23.8l10.9-22
	c9.8,9.6,21,17,33.8,22.3c12.8,5.3,25.3,7.9,37.4,7.9c15.5,0,27.8-3,36.8-9c9-6,13.4-14.1,13.4-24.3c0-8-2.3-14.5-7-19.7
	c-4.7-5.2-10.5-9.2-17.4-12.1c-6.9-2.9-16.4-6.1-28.5-9.7c-14.4-4.3-26.2-8.4-35.2-12.4c-9-4-16.6-9.9-22.9-17.8
	c-6.2-7.9-9.3-18.2-9.3-31.1c0-11.1,3.1-20.8,9.2-29.1c6.1-8.4,14.8-14.8,26.1-19.4c11.3-4.6,24.2-6.9,38.9-6.9
	C4528.2,502.8,4540.3,504.6,4552.4,508.2z"/>
<path fill="#6D6E71" d="M4870.3,517.6c17.1,9.6,30.7,22.6,40.7,39.1c10,16.4,15,34.5,15,54.2c0,19.8-5,38-15,54.5
	c-10,16.5-23.6,29.6-40.7,39.3c-17.1,9.7-35.9,14.5-56.2,14.5c-20.6,0-39.5-4.8-56.6-14.5c-17.1-9.7-30.7-22.8-40.7-39.3
	c-10-16.5-15-34.7-15-54.5c0-19.8,5-38,15-54.5c10-16.5,23.6-29.5,40.7-39c17.1-9.5,36-14.3,56.6-14.3
	C4834.4,503.1,4853.2,507.9,4870.3,517.6z M4770.5,537.8c-13.4,7.6-24,17.8-32,30.6c-8,12.9-12,27-12,42.4c0,15.5,4,29.8,12,42.7
	c8,13,18.6,23.2,32,30.7c13.3,7.5,27.9,11.3,43.6,11.3c15.7,0,30.2-3.8,43.4-11.3c13.2-7.5,23.7-17.8,31.6-30.7
	c7.9-12.9,11.8-27.2,11.8-42.7s-3.9-29.7-11.8-42.5c-7.9-12.8-18.4-23-31.7-30.6c-13.3-7.6-27.7-11.4-43.3-11.4
	C4798.4,526.4,4783.8,530.2,4770.5,537.8z"/>
<path fill="#6D6E71" d="M5080.3,527.3v75.3h100.1v23.6h-100.1V718h-24.5V503.7h136.1v23.6H5080.3z"/>
<path fill="#6D6E71" d="M5390.7,527.3V718h-24.5V527.3h-69.6v-23.6h164.2v23.6H5390.7z"/>
<path fill="#6D6E71" d="M5777.5,718l-57.8-180.5L5661.1,718h-25l-71.7-214.3h26.3l58.9,185.9l58.1-185.6l24.5-0.3l58.7,185.9
	l58.1-185.9h25.4L5802.6,718H5777.5z"/>
<path fill="#6D6E71" d="M5996.7,663.9l-23.9,54.1h-26l96.1-214.3h25.4l95.8,214.3h-26.6l-23.9-54.1H5996.7z M6054.9,531.7
	l-47.7,108.6h96.1L6054.9,531.7z"/>
<path fill="#6D6E71" d="M6377,649.7c-6.1,0.4-10.9,0.6-14.3,0.6h-56.9V718h-24.5V503.7h81.4c26.7,0,47.4,6.3,62.2,18.8
	c14.8,12.6,22.2,30.3,22.2,53.2c0,17.5-4.1,32.2-12.4,44c-8.3,11.8-20.1,20.3-35.6,25.5l50.1,72.8h-27.8L6377,649.7z M6407.7,614
	c10.5-8.6,15.8-21.1,15.8-37.7c0-16.1-5.3-28.3-15.8-36.6c-10.5-8.3-25.5-12.4-45.1-12.4h-56.9v99.5h56.9
	C6382.2,626.9,6397.2,622.6,6407.7,614z"/>
<path fill="#6D6E71" d="M6608.2,527.3v70.4h108v23.6h-108v73.4h124.9V718h-149.4V503.7H6729v23.6H6608.2z"/>
<path fill="#6D6E71" d="M7074.8,527.3v75.3h100.1v23.6h-100.1V718h-24.5V503.7h136.1v23.6H7074.8z"/>
<path fill="#6D6E71" d="M7457.7,517.6c17.1,9.6,30.7,22.6,40.7,39.1c10,16.4,15,34.5,15,54.2c0,19.8-5,38-15,54.5
	c-10,16.5-23.6,29.6-40.7,39.3c-17.1,9.7-35.9,14.5-56.2,14.5c-20.6,0-39.5-4.8-56.6-14.5c-17.1-9.7-30.7-22.8-40.7-39.3
	c-10-16.5-15-34.7-15-54.5c0-19.8,5-38,15-54.5c10-16.5,23.6-29.5,40.7-39c17.1-9.5,36-14.3,56.6-14.3
	C7421.8,503.1,7440.5,507.9,7457.7,517.6z M7357.9,537.8c-13.4,7.6-24,17.8-32,30.6c-8,12.9-12,27-12,42.4c0,15.5,4,29.8,12,42.7
	c8,13,18.6,23.2,32,30.7c13.3,7.5,27.9,11.3,43.6,11.3c15.7,0,30.2-3.8,43.4-11.3c13.2-7.5,23.7-17.8,31.6-30.7
	c7.9-12.9,11.8-27.2,11.8-42.7s-3.9-29.7-11.8-42.5c-7.9-12.8-18.4-23-31.7-30.6c-13.3-7.6-27.7-11.4-43.3-11.4
	C7385.7,526.4,7371.2,530.2,7357.9,537.8z"/>
<path fill="#6D6E71" d="M7794.8,695.5c-15.9,15.8-37.9,23.7-65.9,23.7c-28.2,0-50.3-7.9-66.3-23.7c-16-15.8-24-37.7-24-65.7V503.7
	h24.5v126.1c0,20.6,5.9,36.7,17.6,48.3c11.8,11.6,27.8,17.4,48.1,17.4c20.4,0,36.4-5.7,48-17.3c11.6-11.5,17.3-27.7,17.3-48.5V503.7
	h24.5v126.1C7818.7,657.8,7810.7,679.7,7794.8,695.5z"/>
<path fill="#6D6E71" d="M8115.1,718l-128.5-172v172h-24.5V503.7h25.4L8116,676V503.7h24.2V718H8115.1z"/>
<path fill="#6D6E71" d="M8429.3,517.9c16.7,9.4,29.9,22.3,39.6,38.6c9.7,16.3,14.6,34.4,14.6,54.5s-4.9,38.2-14.6,54.5
	c-9.7,16.3-23,29.2-40,38.6c-16.9,9.4-35.8,14-56.5,14h-85.8V503.7h86.7C8394,503.7,8412.6,508.4,8429.3,517.9z M8311.2,694.7h62.5
	c15.7,0,30.1-3.6,43-10.8c12.9-7.2,23.2-17.2,30.7-30c7.5-12.7,11.3-27,11.3-42.7c0-15.7-3.8-30-11.5-42.7
	c-7.7-12.7-18-22.7-31.1-30.1c-13.1-7.4-27.5-11.1-43.3-11.1h-61.6V694.7z"/>
<path fill="#6D6E71" d="M8622.8,663.9l-23.9,54.1h-26l96.1-214.3h25.4l95.8,214.3h-26.6l-23.9-54.1H8622.8z M8681,531.7l-47.7,108.6
	h96.1L8681,531.7z"/>
<path fill="#6D6E71" d="M8950.8,527.3V718h-24.5V527.3h-69.6v-23.6h164.2v23.6H8950.8z"/>
<path fill="#6D6E71" d="M9138.9,718V503.7h24.5V718H9138.9z"/>
<path fill="#6D6E71" d="M9462.2,517.6c17.1,9.6,30.7,22.6,40.7,39.1c10,16.4,15,34.5,15,54.2c0,19.8-5,38-15,54.5
	c-10,16.5-23.6,29.6-40.7,39.3c-17.1,9.7-35.9,14.5-56.2,14.5c-20.6,0-39.5-4.8-56.6-14.5c-17.1-9.7-30.7-22.8-40.7-39.3
	c-10-16.5-15-34.7-15-54.5c0-19.8,5-38,15-54.5c10-16.5,23.6-29.5,40.7-39c17.1-9.5,36-14.3,56.6-14.3
	C9426.4,503.1,9445.1,507.9,9462.2,517.6z M9362.4,537.8c-13.4,7.6-24,17.8-32,30.6c-8,12.9-12,27-12,42.4c0,15.5,4,29.8,12,42.7
	c8,13,18.6,23.2,32,30.7c13.3,7.5,27.9,11.3,43.6,11.3c15.7,0,30.2-3.8,43.4-11.3c13.2-7.5,23.7-17.8,31.6-30.7
	c7.9-12.9,11.8-27.2,11.8-42.7s-3.9-29.7-11.8-42.5c-7.9-12.8-18.4-23-31.7-30.6c-13.3-7.6-27.7-11.4-43.3-11.4
	C9390.3,526.4,9375.8,530.2,9362.4,537.8z"/>
<path fill="#6D6E71" d="M9800.8,718l-128.5-172v172h-24.5V503.7h25.4L9801.7,676V503.7h24.2V718H9800.8z"/>
<path fill="#6D6E71" d="M4204.9,500.9c9,9,13.5,19.9,13.5,32.6c0,12.7-4.5,23.6-13.5,32.7c-9,9.1-20,13.7-32.8,13.7
	c-12.9,0-23.8-4.5-32.7-13.5c-8.9-9-13.4-19.9-13.4-32.6c0-12.7,4.5-23.6,13.5-32.7c9-9.1,19.9-13.7,32.7-13.7
	C4185,487.4,4195.9,491.9,4204.9,500.9z M4201,562.4c7.9-8,11.8-17.6,11.8-28.8c0-11.2-3.9-20.7-11.7-28.6
	c-7.8-7.9-17.4-11.9-28.7-11.9c-11.3,0-20.9,4-28.8,11.9c-7.8,8-11.8,17.6-11.8,28.8c0,11.2,3.9,20.8,11.6,28.7
	c7.8,7.9,17.3,11.9,28.6,11.9S4193.1,570.4,4201,562.4z M4194.5,524.7c0,8.3-3.6,13.5-10.9,15.6l13.3,18h-10.7l-12-16.7h-11v16.7
	h-8.7v-50h18.8c7.6,0,13,1.3,16.3,3.9C4192.9,514.8,4194.5,519,4194.5,524.7z M4183.4,531.7c1.7-1.4,2.6-3.8,2.6-7.1
	c0-3.3-0.9-5.6-2.7-6.8c-1.8-1.3-4.9-1.9-9.5-1.9h-10.6v18h10.4C4178.4,533.9,4181.6,533.2,4183.4,531.7z"/>
<path fill="#6D6E71" d="M4540.6,918.2c21.1,0,37.7,6.1,49.6,18.4c11.9,12.3,17.9,29.2,17.9,50.8V1097h-26.3V994.4
	c0-15.7-4.4-28-13.3-36.8s-21.2-13.2-36.9-13.2c-18.7,0.2-33.3,6.3-44,18.2c-10.7,11.9-16,27.5-16,46.9v87.4h-26.3V846.6h26.3V959
	C4483.1,932.2,4506.2,918.6,4540.6,918.2z"/>
<path fill="#6D6E71" d="M4823.7,1063.6l7.4,21.3c-12.8,8.8-26.2,13.3-40.2,13.5c-13.7,0-24.7-4.2-32.9-12.7
	c-8.2-8.4-12.3-21.1-12.3-38V946.2h-25.6v-21.3h25.6V878h26v46.9l56.3-0.3v21.6h-56.3v96.8c0,19.8,7.9,29.7,23.6,29.7
	C4804.6,1072.7,4814,1069.6,4823.7,1063.6z"/>
<path fill="#6D6E71" d="M5027.8,1063.6l7.4,21.3c-12.8,8.8-26.2,13.3-40.2,13.5c-13.7,0-24.7-4.2-32.9-12.7
	c-8.2-8.4-12.3-21.1-12.3-38V946.2h-25.6v-21.3h25.6V878h26v46.9l56.3-0.3v21.6h-56.3v96.8c0,19.8,7.9,29.7,23.6,29.7
	C5008.7,1072.7,5018.1,1069.6,5027.8,1063.6z"/>
<path fill="#6D6E71" d="M5244.1,918.2c25.2,0,45.7,8.4,61.6,25.3c15.9,16.9,23.8,38.6,23.8,65.1c0,26.3-7.8,47.8-23.5,64.5
	c-15.6,16.6-36,25-61.2,25c-32.2,0-55.2-13-69.2-39.1v103.6h-26.3V919.2h26.3v38.4C5189.5,931.3,5212.4,918.2,5244.1,918.2z
	 M5239.4,1074c18.4,0,33.6-6.2,45.5-18.6c11.9-12.3,17.9-28.2,17.9-47.6c0-19.1-6-34.9-17.9-47.4c-11.9-12.5-27.1-18.7-45.5-18.7
	c-18.7,0-34,6.2-45.9,18.6c-11.9,12.4-17.9,28.2-17.9,47.6c0,19.3,6,35.2,17.9,47.6C5205.4,1067.8,5220.7,1074,5239.4,1074z"/>
<path fill="#6D6E71" d="M5449.9,964.4c4.5,0,8.3,1.7,11.5,5.1c3.2,3.4,4.7,7.5,4.7,12.5s-1.6,9.1-4.7,12.5c-3.2,3.4-7,5.1-11.5,5.1
	c-4.7,0-8.7-1.7-11.8-5.1c-3.2-3.4-4.7-7.5-4.7-12.5s1.6-9.1,4.7-12.5C5441.2,966.1,5445.2,964.4,5449.9,964.4z M5449.9,1064.6
	c4.5,0,8.3,1.7,11.5,5c3.2,3.4,4.7,7.5,4.7,12.5c0,4.9-1.6,9.1-4.7,12.5c-3.2,3.4-7,5.1-11.5,5.1c-4.7,0-8.7-1.7-11.8-5.1
	c-3.2-3.4-4.7-7.5-4.7-12.5c0-4.9,1.6-9.1,4.7-12.5C5441.2,1066.3,5445.2,1064.6,5449.9,1064.6z"/>
<path fill="#6D6E71" d="M5574.1,1138.1h-22.9l105.3-317.8h23.3L5574.1,1138.1z"/>
<path fill="#6D6E71" d="M5753.6,1138.1h-22.9l105.3-317.8h23.3L5753.6,1138.1z"/>
<path fill="#6D6E71" d="M6140.5,1097h-27.3l-52.3-144.4l-52,144.4h-27.3l-66.5-177.8h27.7l52.6,150.5l51.6-150.5h27.7l52.3,150.5
	l52-150.5h27.3L6140.5,1097z"/>
<path fill="#6D6E71" d="M6504.6,1097h-27.3L6425,952.6l-52,144.4h-27.3l-66.5-177.8h27.7l52.6,150.5l51.6-150.5h27.7l52.3,150.5
	l52-150.5h27.3L6504.6,1097z"/>
<path fill="#6D6E71" d="M6868.6,1097h-27.3L6789,952.6l-52,144.4h-27.3l-66.5-177.8h27.7l52.6,150.5l51.6-150.5h27.7l52.3,150.5
	l52-150.5h27.3L6868.6,1097z"/>
<path fill="#6D6E71" d="M7034.6,1064.6c4.5,0,8.3,1.7,11.5,5c3.2,3.4,4.7,7.5,4.7,12.5c0,4.9-1.6,9.1-4.7,12.5
	c-3.2,3.4-7,5.1-11.5,5.1c-4.7,0-8.7-1.7-11.8-5.1c-3.2-3.4-4.7-7.5-4.7-12.5c0-4.9,1.6-9.1,4.7-12.5
	C7026,1066.3,7029.9,1064.6,7034.6,1064.6z"/>
<path fill="#6D6E71" d="M7283,1097v-27.3c-14.2,19.1-35.9,28.7-65.1,28.7c-18,0-32.6-5.1-43.7-15.4c-11.1-10.2-16.7-23.2-16.7-39
	c0-15.5,5.8-27.8,17.5-37c11.7-9.1,28-13.8,48.9-14h58.4v-10.5c0-13.3-4.1-23.5-12.1-30.7c-8.1-7.2-19.9-10.8-35.4-10.8
	c-18,0-36.8,6.7-56.4,20.2l-11.1-19.2c12.6-8.3,24.2-14.4,34.9-18.2s23.2-5.7,37.6-5.7c21.8,0,38.6,5.4,50.4,16.2
	c11.8,10.8,17.8,25.9,18.1,45.2l0.3,117.4H7283z M7222.9,1075.4c15.1,0,27.9-3.5,38.6-10.6c10.7-7.1,17.7-16.8,21.1-29.2v-21.3
	h-55.3c-30.1,0-45.2,9.6-45.2,28.7c0,9.9,3.7,17.8,11.1,23.6C7200.6,1072.5,7210.5,1075.4,7222.9,1075.4z"/>
<path fill="#6D6E71" d="M7536.3,918.2c25.2,0,45.7,8.4,61.6,25.3c15.9,16.9,23.8,38.6,23.8,65.1c0,26.3-7.8,47.8-23.5,64.5
	c-15.6,16.6-36,25-61.2,25c-32.2,0-55.2-13-69.2-39.1v103.6h-26.3V919.2h26.3v38.4C7481.8,931.3,7504.6,918.2,7536.3,918.2z
	 M7531.6,1074c18.4,0,33.6-6.2,45.5-18.6c11.9-12.3,17.9-28.2,17.9-47.6c0-19.1-6-34.9-17.9-47.4c-11.9-12.5-27.1-18.7-45.5-18.7
	c-18.7,0-34,6.2-45.9,18.6c-11.9,12.4-17.9,28.2-17.9,47.6c0,19.3,6,35.2,17.9,47.6C7497.6,1067.8,7512.9,1074,7531.6,1074z"/>
<path fill="#6D6E71" d="M7850.8,1097v-27.3c-14.2,19.1-35.9,28.7-65.1,28.7c-18,0-32.6-5.1-43.7-15.4c-11.1-10.2-16.7-23.2-16.7-39
	c0-15.5,5.8-27.8,17.5-37c11.7-9.1,28-13.8,48.9-14h58.4v-10.5c0-13.3-4.1-23.5-12.1-30.7c-8.1-7.2-19.9-10.8-35.4-10.8
	c-18,0-36.8,6.7-56.4,20.2l-11.1-19.2c12.6-8.3,24.2-14.4,34.9-18.2c10.7-3.8,23.2-5.7,37.6-5.7c21.8,0,38.6,5.4,50.4,16.2
	c11.8,10.8,17.8,25.9,18.1,45.2l0.3,117.4H7850.8z M7790.7,1075.4c15.1,0,27.9-3.5,38.6-10.6c10.7-7.1,17.7-16.8,21.1-29.2v-21.3
	h-55.3c-30.2,0-45.2,9.6-45.2,28.7c0,9.9,3.7,17.8,11.1,23.6C7768.5,1072.5,7778.4,1075.4,7790.7,1075.4z"/>
<path fill="#6D6E71" d="M8077.8,918.5c28.6-0.2,51.4,8.5,68.5,26.3l-14.5,18.6c-14.4-13.7-32.1-20.6-53-20.6
	c-18.4,0-33.6,6.1-45.4,18.2c-11.8,12.1-17.7,27.9-17.7,47.2s5.9,35.2,17.7,47.4c11.8,12.3,26.9,18.4,45.4,18.4
	c23.8,0,42.2-7.6,55-22.9l15.2,16.2c-16.9,20.5-40.6,30.7-71.2,30.7c-25.9,0-47-8.3-63.4-25c-16.4-16.6-24.6-38.2-24.6-64.8
	c0-26.3,8.3-47.9,24.8-64.6C8031.1,926.9,8052.2,918.5,8077.8,918.5z"/>
<path fill="#6D6E71" d="M8366.7,918.2c21.1,0,37.7,6.1,49.6,18.4c11.9,12.3,17.9,29.2,17.9,50.8V1097h-26.3V994.4
	c0-15.7-4.4-28-13.3-36.8s-21.2-13.2-36.9-13.2c-18.7,0.2-33.3,6.3-44,18.2c-10.7,11.9-16,27.5-16,46.9v87.4h-26.3V846.6h26.3V959
	C8309.2,932.2,8332.2,918.6,8366.7,918.2z"/>
<path fill="#6D6E71" d="M8635.6,918.5c28.1-0.2,49.3,8.7,63.6,26.6c14.3,18,20.8,42.4,19.4,73.2h-145.1c2.2,17.3,9.2,31.1,20.9,41.3
	c11.7,10.2,26.2,15.4,43.5,15.4c22.5,0,40.8-7.4,55-22.3l14.5,15.5c-17.8,19.8-41.6,29.7-71.5,29.7c-26.1,0-47.4-8.3-63.8-25
	c-16.4-16.6-24.6-38.2-24.6-64.8s8.2-48.1,24.6-64.8C8588.5,926.8,8609.7,918.5,8635.6,918.5z M8573.5,996.8H8695
	c-0.9-17.1-6.7-30.7-17.4-40.7c-10.7-10-24.7-15-42-15c-16.9,0-30.9,5.1-42.2,15.2C8582.1,966.4,8575.5,979.9,8573.5,996.8z"/>
<path fill="#6D6E71" d="M8838,1064.6c4.5,0,8.3,1.7,11.5,5c3.1,3.4,4.7,7.5,4.7,12.5c0,4.9-1.6,9.1-4.7,12.5
	c-3.2,3.4-7,5.1-11.5,5.1c-4.7,0-8.7-1.7-11.8-5.1c-3.2-3.4-4.7-7.5-4.7-12.5c0-4.9,1.6-9.1,4.7-12.5
	C8829.3,1066.3,8833.3,1064.6,8838,1064.6z"/>
<path fill="#6D6E71" d="M8983.4,943.5c16.9-16.6,38.5-25,64.8-25c26.3,0,47.9,8.3,64.8,25c16.9,16.6,25.3,38.1,25.3,64.5
	c0,26.5-8.5,48.2-25.3,64.9c-16.9,16.8-38.5,25.1-64.8,25.1c-26.3,0-47.9-8.4-64.8-25.1c-16.9-16.8-25.3-38.4-25.3-64.9
	C8958.1,981.6,8966.5,960.1,8983.4,943.5z M9094.1,960.8c-11.9-12.3-27.2-18.4-45.9-18.4c-18.7,0-34,6.1-45.9,18.4
	c-11.9,12.3-17.9,28.1-17.9,47.4c0,19.6,6,35.5,17.9,47.7c11.9,12.3,27.2,18.4,45.9,18.4c18.7,0,34-6.1,45.9-18.4
	c11.9-12.3,17.9-28.2,17.9-47.7C9111.9,988.9,9106,973.1,9094.1,960.8z"/>
<path fill="#6D6E71" d="M9283.3,919.2v39.5c12.2-26.5,33.4-40,63.8-40.5v26.7c-18.4-0.2-33.3,4.9-44.5,15.3
	c-11.3,10.5-17.6,24.6-19.2,42.3v94.5H9257V919.2H9283.3z"/>
<path fill="#6D6E71" d="M9610,919.2v159.2c0,25.9-8.2,46.5-24.5,61.7c-16.3,15.3-38,22.9-64.9,22.9c-26.3-0.2-50.6-8.8-72.9-25.7
	l12.1-20.2c17.8,14.8,37.7,22.4,59.7,22.6c19.4,0,34.9-5.5,46.6-16.5c11.7-11,17.5-25.7,17.5-44.2v-27c-13,24.7-34.9,37.1-65.4,37.1
	c-23.9,0-43.3-8-58.4-24c-15.1-16-22.6-36.7-22.6-62.1c0-24.7,7.4-45,22.3-60.9c14.8-15.9,34.2-23.9,58-24.1
	c30.6,0,52.6,12.4,66.1,37.1v-36.1H9610z M9479.2,1049.2c11.4,11.8,25.9,17.7,43.7,17.7s32.3-5.9,43.7-17.7c11.3-11.8,17-26.8,17-45
	c0-18.4-5.7-33.6-17-45.4c-11.4-11.8-25.9-17.7-43.7-17.7s-32.3,5.9-43.7,17.7c-11.3,11.8-17.1,26.9-17.4,45.4
	C9462.1,1022.4,9467.9,1037.4,9479.2,1049.2z"/>
<path fill="#6D6E71" d="M9729.4,1138.1h-22.9l105.3-317.8h23.3L9729.4,1138.1z"/>
</svg>
