<svg enable-background="new 0 0 792 1135.9" viewBox="0 0 792 1135.9" xmlns="http://www.w3.org/2000/svg"><path d="m647.1 432.5s51.7 519.9 75.8 573.3c3 67-55.3 19-55.3 19l-43.1-151.5s-50.5-195.2-51-208.9c-.4-13.7 73.6-231.9 73.6-231.9z" fill="#eac6ad"/><path d="m44.1 768.7s112.3-241.2 106.6-279.7c-5.8-38.5-.7-54.5 12.3-61.6 13.1-7 150.4 13.1 150.4 13.1s37.9 25.4 35.4 36.2 8.2 318.5-10 356.7-26.2 181.6-23.6 178.7l-109.2-30.5s33.6-221.7 23.5-264.1-18.5-68.1-18.5-68.1l-116.9 145.5z" fill="#fff"/><path d="m183.1 678.5c3.6-13.2-34.5-224.7-34.5-224.7s-2.8 92.6-42.5 169.3c-.1.3-51 77.3-50.7 77.4 10.1 2.1 79.2 43.9 79.2 43.9" fill="#f1f1f1"/><path d="m619.9 509.2s1.3-34.4-24.2-56.6-87.8-48.5-178.5-47.1 35.3 101.7 35.3 101.7z" fill="#fff"/><path d="m218.4 509.2s-1.3-34.4 24.2-56.6 87.8-48.6 178.6-47.2-35.3 101.8-35.3 101.8-56.7.7-104.1 1.3c-34.1.3-63.4.7-63.4.7z" fill="#fff"/><path d="m419.2 415.6c110.9 0 200.8 42.8 200.8 95.6s-89.9 95.6-200.8 95.6-200.8-42.8-200.8-95.6 89.9-95.6 200.8-95.6z" fill="#fff"/><path d="m306.7 223.1s-11.4-4.6-20.1.8-11.9 29.1-4.5 39.5 15 22.9 23 23.9 17.2-1.6 17.2-1.6l-3.3-31.7z" fill="#f2c2a0"/><path d="m525.9 223.1s11.5-4.6 20.1.8c8.7 5.4 11.9 29.1 4.5 39.4s-15 22.8-23 23.8-17.2-1.6-17.2-1.6l3.3-31.6z" fill="#f2c2a0"/><path d="m340.6 445.8 63 33h55.1l7.4-55.8 6.1-10.8s136.9 9.4 158.4 8.7c6.6 1.4 35 12.1 28.6 40-6.8 30.1-71.1 316.8-71.1 316.8l19.1 170s25.3 31.6 10.1 38.6c-15.2 7.1-174.8 32-225 30.5-50.1-1.5-205.8 1.7-211-18.9s34.5-130.4 34.5-130.4l77.4-378.7z" fill="#fff"/><path d="m576.3 700.7c0-13.7 84.4-248.2 84.4-248.2s40.7 424.2 56.8 459c.1.3-.1.6-.4.6-10.3-.7-84.9 27.5-84.9 27.5" fill="#f1f1f1"/><path d="m543.3 411.6c12.9.4 25.5 2.8 69.2 5.2 0 0-.9 77.4-13.1 161.2-11.3 78.2-8.7 155.9-8.7 196s43.7 193.2 45.3 207.5-134.1 36-159.3 37.4c-51.1-1.4-65.3-142.8-69.6-256.2-7.4-75.8-13.3-72.4-.8-115.3" fill="#3d4251"/><path d="m535 279.3c4.1 0 7.4 3.3 7.4 7.4s-3.3 7.4-7.4 7.4-7.4-3.3-7.4-7.4 3.3-7.4 7.4-7.4z" fill="#4189c6"/><path d="m471.3 367.1h-110.4v83.2l55.3 25 55.1-25z" fill="#f2c2a0"/><path d="m411 64.6c69.7-1.1 109.2 34.3 125.6 86.6 20.2 64.3-9.4 137.5-33.7 179-9.9 17-18.8 33.6-34.5 44.7-10.6 7.5-25.5 12.1-40.6 14.8-19.1 3.4-45.2-4-55.8-10.3-37.9-22.4-67.7-95.9-78.8-146.5-5-22.8-4-55.3 2.1-75.9 11.9-40.5 34.3-69 71.8-83.7 9.2-3.6 19.7-5.4 30.4-7.4 4.4-.5 9-.9 13.5-1.3z" fill="#f2c2a0"/><path d="m365.2 209.1c12.8 0 23.2 10.4 23.2 23.2s-10.4 23.2-23.2 23.2-23.2-10.4-23.2-23.2 10.4-23.2 23.2-23.2z" fill="#fff"/><path d="m374.4 232.1c0 5.4-4.4 9.9-9.9 9.9-4 0-7.5-2.4-9-5.9.6.3 1.3.5 2 .5 2.3 0 4.1-1.8 4.1-4.1s-1.8-4.1-4.1-4.1c-.9 0-1.7.3-2.4.8 1.2-4 5-7 9.4-7 5.5 0 9.9 4.4 9.9 9.9z" fill="#333"/><path d="m470.1 209.1c12.8 0 23.2 10.4 23.2 23.2s-10.4 23.2-23.2 23.2-23.2-10.4-23.2-23.2 10.3-23.2 23.2-23.2z" fill="#fff"/><path d="m479.3 232.1c0 5.4-4.4 9.9-9.9 9.9-4 0-7.5-2.4-9-5.9.6.3 1.3.5 2 .5 2.3 0 4.1-1.8 4.1-4.1s-1.8-4.1-4.1-4.1c-.9 0-1.7.3-2.4.8 1.2-4 5-7 9.4-7 5.5 0 9.9 4.4 9.9 9.9z" fill="#333"/><path d="m406 232.9h25v10.3h-25z" fill="#4189c6"/><path d="m398.7 200.9h-66.5c-4.5 0-8.2 3.7-8.2 8.2v50.9c0 4.5 3.7 8.2 8.2 8.2h66.5c4.5 0 8.2-3.7 8.2-8.2v-50.9c0-4.5-3.7-8.2-8.2-8.2zm-1.8 52c0 3.4-2.8 6.1-6.2 6.1h-50.3c-3.4 0-6.2-2.7-6.2-6.1v-37.7c0-3.4 2.8-6.1 6.2-6.1h50.3c3.4 0 6.2 2.7 6.2 6.1z" fill="#4189c6"/><path d="m502.5 200.9h-66.5c-4.5 0-8.2 3.7-8.2 8.2v50.9c0 4.5 3.7 8.2 8.2 8.2h66.5c4.5 0 8.2-3.7 8.2-8.2v-50.9c0-4.5-3.7-8.2-8.2-8.2zm-1.7 52c0 3.4-2.8 6.1-6.2 6.1h-50.3c-3.4 0-6.2-2.7-6.2-6.1v-37.7c0-3.4 2.8-6.1 6.2-6.1h50.3c3.4 0 6.2 2.7 6.2 6.1z" fill="#4189c6"/><path d="m367 170.3c-24.7.5-39 8.6-39 16.9 0 8.4 13.1 6 23 2.1 9.8-3.9 22.8-3.6 28.3.4s17.1 5.2 17.6-3.3-21.5-16.3-29.9-16.1z" fill="#a3634d"/><path d="m467.6 170.1c24.7.5 39 8.5 39 16.8s-13.1 6-23 2.1c-9.8-3.9-22.9-3.6-28.3.4s-17.2 5.1-17.7-3.3c-.4-8.4 21.6-16.2 30-16z" fill="#a3634d"/><path d="m346 377.5 74.4 97.3-45.7 12.6-50.8-62.9s.1-18.3 4.1-26.9c4.1-8.7 18-20.1 18-20.1z" fill="#fff"/><path d="m488.9 390.6-76.7 85.7 44.7 11.1 49.7-55.5s-.1-16.1-4-23.7c-4-7.6-13.7-17.6-13.7-17.6z" fill="#fff"/><path d="m529.5 272.5c-7.7 22.3-12.4 57.2-21.1 76.9-7 22.8-26 77.3-41.6 88.4-10.6 7.5-25.5 12.1-40.6 14.8-19.1 3.4-54.7-.7-65.3-6.9-27.2-16-39.1-124.5-54-165.9 0-2.8.1-5.5.7-7.8.4-.1.8-.3 1.2-.4 6.1-2.3 12.3 4.2 15.6 6.6 11.9 8.8 20.5 20 31.2 30-2.2-8.2 4.4-26.4 12.7-19.3 3.8 2.7.5 12.2 1.6 17.2 18.1 12.2 20-9.9 28.7-14.4 5.9-1.1 11.4 3.9 17.2 4.9 9.5 1.7 14-4.9 22.2-5.3 8.2 4.7 8.2 20.1 22.6 17.2 3.6-.7 5.2-.5 6.6-3.3 2.7-5.2-1.7-13.5 1.2-16.8 2.9-3.4 3.3-.5 4.9-.8 6 2.8 11.4 11.2 8.2 20.1 3.4-3.7 6.8-7.4 10.3-11.1 10.4-10.5 19.9-18.8 34.1-25.9.8.1 1.6.3 2.5.4.4.5.7.9 1.1 1.4z" fill="#a3634d"/><path d="m385.9 322.8s8.3 14.5 31.6 14 31.2-14 31.2-14-15.2-4.9-27.5-4.9c-5.3 0-10.7 2.9-17.7 4.1-6.9 1.2-17.6.8-17.6.8z" fill="#f2c2a0"/><path d="m290.7 214.8s6.1-17 6.6-23.8c.4-6.8 5.2-46.9 19.7-66.9 9.4-14.4 23-17.4 36.5-14.4s29.1 11.2 45.2 9c16-2.1 56.7-22.6 73.5-14.8 16.7 7.8 44.9 21.4 48 47.2s21.3 66.5 21.3 66.5 9.4-65.8 9.4-83.3-45.7-69.1-55-79.2-39.5-36.6-57.5-35.7-42.2 15.5-51.7 16.4-15.8-3.6-26.3-1.6c-10.5 1.9-21.6 1.4-53.4 34.5s-28.5 82.7-26.3 110.4 10 35.7 10 35.7z" fill="#a3634d"/><path d="m377.3 107.3s-7.8-11.7 2.1-33.3c9.9-21.5 10.3-31.6 10.3-31.6s-5.7 14-13.2 31.6.8 33.3.8 33.3z" fill="#b27362"/><path d="m406 110.6s22.2-25.6 36.5-36.9 32-24.2 32-24.2-13.9 3.4-34.9 21.3c-20.8 17.9-33.6 39.8-33.6 39.8z" fill="#b27362"/><path d="m390.9 106.9s-.5-23.8 11.1-50.1 34.9-30.4 34.9-30.4-17.1 7.8-29.1 31.2-16.9 49.3-16.9 49.3z" fill="#b27362"/><path d="m433.2 485.4s-92.3-40.2-96.2-8.1-9.5 56.8 14 58.5c23.6 1.8 82.2-50.4 82.2-50.4z" fill="#3373aa"/><path d="m417.4 479.6c23.4-15.7 69.9-43.4 78.2-20.7 11.2 30.5 22.4 53.3-.1 60.5-15.8 5-54.6-12-76.2-22.5-1.8-15.3-.2-2.3-1.9-17.3z" fill="#4189c6"/><path d="m278.3 431c-23-2.1-30.1-4-81.1-5.7 0 0 3.4 78.5 11.7 153.4 7 63.2 8.7 100.1 19.4 167.5 5.4 58.5-57.7 215.4-57.7 249.6 0 14.4 69.8 23.2 189.2 28.4 33.3 0 52.4-87 60.6-188.1-.5-92.5-.9-180.2-8.2-192.5" fill="#3d4251"/><path d="m55.5 700.5s160.9-149.3 188.8-200.9c51.4-43 48.7 32.4 48.7 32.4l-94.3 126.1s-77 101.6-87.6 110.3c-10.7 8.8-55.6-67.9-55.6-67.9z" fill="#eac6ad"/><path d="m152.4 578.1s-170.1 176.1-117.2 228.4 85.2-9.8 85.2-9.8l97.9-162.5s-13.9-6.8-28.1-20.5c-14.1-13.8-37.8-35.6-37.8-35.6z" fill="#f1f1f1"/><path d="m133.4 585.7-38.5 46.5s11.2 29.8 40.1 54.6 56.7 20.2 56.7 20.2l44.3-72-68-52.8c-10.8-8.4-26.1-6.9-34.6 3.5z" fill="#fff"/><path d="m401.2 818.3c0 6.1 4.9 11 11 11s11-4.9 11-11-4.9-11-11-11-11 5-11 11z" fill="#474b56"/><path d="m397.7 707.1c0 6.1 4.9 11 11 11s11-4.9 11-11-4.9-11-11-11c-6 0-11 4.9-11 11z" fill="#474b56"/><path d="m295.9 378.5c7.5 46.7 15.1 93.2 22.7 139.4 19.2 1.7 38.6 1.7 57.8 0 7.6-46.2 15.2-92.7 22.7-139.4-34.2 5.4-69 5.4-103.2 0z" fill="#fff"/><path d="m383.9 475.1c3.7-22.6 7.4-45.2 11-67.9-31.4 5-63.4 5-94.8 0 3.7 22.7 7.3 45.4 11 67.9 24.2 3 48.6 3 72.8 0z" fill="#ccc"/><path d="m407.7 374.7c0-3.7-27.1-6.7-60.4-6.7s-60.4 3-60.4 6.7v6.8c0 3.7 27.1 6.7 60.4 6.7s60.4-3 60.4-6.7c0-2 0-4.8 0-6.8z" fill="#ccc"/><ellipse cx="347.3" cy="374.7" fill="#e6e6e6" rx="60.4" ry="6.7"/><path d="m398.4 363.5c-.1-3.1-23-5.7-51.2-5.7s-51.1 2.5-51.2 5.7c0 1.7-1.2 8.7-1.2 10.4 0 3.2 23.4 5.8 52.3 5.8s52.3-2.6 52.3-5.8c.2-1.8-.9-8.7-1-10.4z" fill="#ccc"/><path d="m398.4 363.5c.1 3.1-22.8 5.7-51.2 5.7-28.3 0-51.2-2.6-51.2-5.7.1-3.1 23-5.7 51.2-5.7s51.1 2.5 51.2 5.7z" fill="#e6e6e6"/><path d="m389.7 355.1c-.5-2.1-19.5-3.8-42.4-3.8s-41.9 1.7-42.4 3.8c-.3 1.2-4.2 6.5-4.2 7.8 0 2.3 20.8 4.2 46.6 4.2 25.7 0 46.6-1.9 46.6-4.2-.1-1.3-3.9-6.7-4.2-7.8z" fill="#ccc"/><path d="m389.7 355.1c.5 2.2-18.4 4-42.4 4s-42.9-1.8-42.4-4c.5-2.1 19.5-3.8 42.4-3.8s41.8 1.6 42.4 3.8z" fill="#e6e6e6"/><ellipse cx="378.5" cy="354.8" fill="#666" rx="6.8" ry="1"/><path d="m244.5 542.1c-7.2-15.4-6-119.1 12.7-127s46.5-20.6 58.9-20c12.3.6 21.4.1 27.7 6.5 6.3 6.5 22.1 26.9 20 38.9-2.1 11.9-38.2 21.1-46.2 29.6s-12 41.8-17.3 49.2-19.4 40.1-38.1 35.4c-18.7-4.6-10.5 2.8-17.7-12.6z" fill="#f2c2a0"/><g fill="#333"><path d="m217 595c-1.1.7-2 1.3-2.7 1.7-.8.4-1.4.7-2 .9-.6.1-1.1.2-1.5 0-.4-.1-.9-.3-1.4-.7-.4-.3-.7-.7-.8-1.1s-.1-.8-.1-1.3c.1-.4.2-.9.3-1.4.2-.5.3-1 .4-1.6 0 0 0-.2.1-.6s.2-.8.3-1.4.3-1.2.5-1.9.3-1.4.5-2.1.3-1.3.5-1.9.3-1 .4-1.4c.1-.2.2-.4.3-.6.2-.2.3-.3.5-.4s.4-.1.6-.1.4 0 .6.1.4.1.5.2c.2.1.3.2.4.2.1.1.1.1.2.1.3.2.5.5.5.7 0 .3 0 .6-.1.9l-3.8 11.3 8.2-5.4c.1-.1.3-.2.6-.3.2-.1.5-.1.8-.2h.9c.3 0 .6.2.8.4.3.2.4.5.4.8s-.1.7-.4 1c-.2.3-.6.6-1 .9s-.9.6-1.4.9-1 .6-1.5.9c-.7.7-1.2 1-1.6 1.4z"/><path d="m230.4 589.5c-1-.8-1.9-1.7-2.7-2.9s-1.4-2.5-1.8-3.9-.6-2.9-.6-4.5.3-3.1.8-4.6c-1 .3-2 .4-3 .6-1 .1-1.9.2-2.8.1-.9 0-1.8-.2-2.5-.4-.8-.2-1.5-.5-2.1-1-.8-.6-1.4-1.2-2-1.9s-1-1.4-1.4-2.1-.6-1.5-.8-2.3-.3-1.5-.2-2.2c0-.7.1-1.4.3-2s.5-1.2.9-1.7c.5-.7 1.2-1.2 2-1.6s1.8-.5 2.9-.4 2.4.4 3.8 1 3 1.5 4.7 2.8c1.2.9 2.4 1.8 3.4 2.7s2 1.8 2.9 2.7c.6-.2 1.3-.5 1.9-.8s1.3-.5 1.9-.8c.1-.1.3-.1.5-.2s.4-.2.6-.2c.2-.1.4-.1.5-.1h.4c.1.1.1.1.1.3v.4.4.3c0 .2-.1.4-.3.6-.3.4-.8.9-1.4 1.3-.6.5-1.3.9-2.1 1.4 1.1 1.4 2.1 2.7 2.9 4.1.8 1.3 1.5 2.6 2 3.8s.9 2.4 1.1 3.5.3 2.2.3 3.1c0 1-.1 1.8-.4 2.6-.2.8-.6 1.5-1 2-.4.6-1 1.1-1.6 1.4s-1.3.5-2.1.5-1.6-.1-2.4-.4c-.8-.4-1.8-.9-2.7-1.6zm2.9-2.4c.8.6 1.5.9 2.1.9s1.1-.2 1.5-.7.6-1.2.6-2.2-.2-2.1-.6-3.4-1.2-2.8-2.1-4.4c-1-1.6-2.3-3.4-3.9-5.2l-.6.2c-.4.9-.7 1.8-.9 2.8-.1 1-.2 2-.1 2.9.1 1 .2 1.9.5 2.9.3.9.6 1.8.9 2.6.4.8.8 1.5 1.2 2.2.4.6.9 1.1 1.4 1.4zm-16.1-17.6c.6.5 1.3.8 2.1.9.8.2 1.7.3 2.6.2.9 0 1.9-.2 3-.4s2.2-.5 3.3-.9c-1-.9-2-1.8-3.1-2.8-1.1-.9-2.3-1.9-3.6-2.9-.9-.7-1.7-1.2-2.4-1.5s-1.3-.6-1.8-.7-1-.1-1.3.1c-.4.1-.7.3-.9.6s-.4.6-.4 1c-.1.4-.1.8-.1 1.3s.1.9.3 1.4c.1.5.3.9.5 1.4.2.4.5.9.8 1.3s.6.7 1 1z"/><path d="m245.8 545.1c.7 1 1.4 1.8 2.1 2.6s1.3 1.4 1.9 1.8c.5.4 1 .6 1.4.6.5 0 .9-.2 1.2-.7.1-.2.3-.5.3-.8.1-.3.1-.8.2-1.3 0-.5 0-1.1-.1-1.8s-.1-1.5-.3-2.4c.1 0 .2 0 .4.1.2 0 .5.1.8.2.4.1.9.3 1.5.4.2 1 .3 2 .3 2.9s0 1.7-.1 2.5-.3 1.5-.5 2.1-.5 1.1-.8 1.5c-.4.5-.8.8-1.3 1.1s-1 .4-1.6.5c-.6 0-1.2 0-1.8-.2s-1.3-.5-1.9-1c-.2-.2-.5-.4-.8-.7s-.6-.6-1-1-.7-.9-1.1-1.4-.8-1-1.3-1.6c-.6 1.1-1.3 2.1-1.9 3.1s-1.2 2-1.8 3c.5.7.9 1.4 1.4 2 .5.7.9 1.3 1.3 1.9s.7 1.1 1.1 1.6c.3.5.6.9.8 1.3.5 1 .8 1.7.9 2.3s0 1-.2 1.3c-.1.2-.3.3-.5.5-.2.1-.4.2-.6.3s-.4.1-.6 0c-.2 0-.4-.1-.6-.3-.1-.1-.2-.2-.3-.3-.9-1.2-1.8-2.4-2.6-3.5-.8-1.2-1.6-2.3-2.3-3.5-.3.4-.6.8-1 1.1-.3.3-.7.6-1.1.8s-.8.3-1.3.4c-.5 0-1 0-1.5-.2-.2-.1-.3-.1-.4-.2s-.2-.1-.3-.2c-.3-.2-.4-.5-.2-.7.1-.1.3-.2.6-.3s.7-.1 1.2-.1c.2-.4.5-.7.8-1.1s.5-.7.8-1.2l.8-1.1c-.5-.8-1-1.6-1.5-2.3s-.9-1.4-1.4-2.1c-.3-.4-.6-.8-1-1.2-.3-.4-.7-.7-1.1-1-.3-.2-.6-.4-.9-.5s-.6-.2-.8-.2c-.3 0-.5 0-.8.2-.2.1-.5.3-.7.6-.2.2-.3.5-.5.9-.1.4-.3.8-.4 1.3s-.2 1-.2 1.7v2.1c0 .3 0 .5-.1.7 0 .2-.1.3-.2.5 0 .1-.2 0-.4-.1s-.5-.3-.8-.5c-.4-.3-.7-.7-.9-1.1s-.4-.9-.4-1.5c-.1-.5-.1-1.1 0-1.7s.2-1.2.3-1.7c.1-.6.3-1.1.6-1.6.2-.5.5-.9.7-1.3.4-.5.8-1 1.3-1.4s1.1-.6 1.6-.8c.6-.1 1.2-.1 1.9.1s1.4.5 2.1 1.1c.3.3.7.6 1.2 1 .4.4.9 1 1.4 1.5.5.6 1 1.2 1.5 1.9s1 1.4 1.6 2.1c.5-.8 1.1-1.7 1.8-2.7s1.4-2 2-3c-1-1.3-2-2.7-3-4.2s-2-2.9-2.9-4.4c-.3-.5-.5-1-.5-1.5s.1-.9.4-1.3c.1-.2.3-.3.4-.4.2-.1.3-.2.5-.2h.6c.2 0 .4.1.6.3.2.1.4.3.6.5s.4.4.6.7c.3.5.7 1.1 1.1 1.7s.8 1.2 1.2 1.8.8 1.2 1.3 1.9c.4.6.9 1.3 1.3 1.9.3-.5.6-.9.8-1.3s.4-.7.5-.8.1-.2.2-.2c0-.1.1-.1.1-.2.2-.2.3-.4.5-.5.1-.1.3-.2.4-.2s.3 0 .4.1.3.1.4.2c.2.1.3.3.3.4.1.1.1.3.1.4s0 .3-.1.4-.1.3-.2.4c-.1.2-.2.4-.3.5s-.1.2-.1.2v.1s0 0-.1.1c0 0-.1.1-.2.3-.1.1-.2.3-.3.6-.2.3-.3.6-.5.9.4 0 .2.2 0 .5z"/><path d="m262.8 533.2c-.2.6-.4 1.1-.5 1.7-.2.6-.3 1.2-.5 1.7-.2.6-.3 1.1-.5 1.6s-.4.9-.6 1.2c-.3.4-.6.6-.9.7s-.6 0-.9-.2c-.2-.2-.4-.4-.6-.6-.1-.2-.3-.4-.3-.7-.1-.2-.1-.4-.1-.6s0-.4 0-.5l3-9.9-8.5 6.4c-.3.2-.6.3-.8.4-.3.1-.5 0-.8-.2 0 0-.1 0-.1-.1-.1-.1-.2-.2-.3-.3s-.2-.3-.3-.4c-.1-.2-.2-.3-.3-.5s-.1-.4-.1-.6.1-.4.3-.6c.1-.2.3-.3.4-.4.3-.2.6-.4 1-.7s.9-.6 1.4-.9 1-.6 1.5-1c.5-.3 1-.6 1.4-.9s.8-.5 1.1-.6.4-.3.4-.3c.5-.3 1-.6 1.4-.9s.9-.5 1.3-.7.8-.3 1.2-.3.8.1 1.2.5c.5.3.8.7 1.1 1.1.2.4.4.9.4 1.5s0 1.3-.2 2.1c-.1.8-.4 1.8-.8 3z"/></g><path d="m720.3 998.2s36.3 42.5 34.7 62.7c-1.5 20.1-3.5 53.9-19.3 61.4s-71.2 6.8-80.2-15.9 6.4-100.7 6.4-100.7z" fill="#f2c2a0"/><path d="m717.4 906.7-5.7-50.8s-24.4-10.6-55.9-7.4c-31.6 3.2-44.9 22.9-44.9 22.9l17.7 69.3 71-10.7c11.2-1.8 19.1-12 17.8-23.3z" fill="#fff"/></svg>