<svg enable-background="new 0 0 792 1135.9" viewBox="0 0 792 1135.9" xmlns="http://www.w3.org/2000/svg" xmlns:xlink="http://www.w3.org/1999/xlink"><clipPath id="a"><path d="m218.1 566.3h368.4v119.1h-368.4z" transform="matrix(.9975 -.0707811 .0707811 .9975 -43.287 30.0417)"/></clipPath><linearGradient id="b"><stop offset="0" stop-color="#a8aaaa"/><stop offset=".06716418" stop-color="#a1a3a3"/><stop offset=".08773019" stop-color="#a8aaaa"/><stop offset=".1178" stop-color="#bcbdbd"/><stop offset=".1535" stop-color="#dcdcdc"/><stop offset=".1766" stop-color="#f4f4f4"/><stop offset=".1785" stop-color="#eff0f0"/><stop offset=".1907" stop-color="#d7d7d7"/><stop offset=".2045" stop-color="#c3c4c4"/><stop offset=".2203" stop-color="#b5b6b6"/><stop offset=".2401" stop-color="#adaeae"/><stop offset=".2761" stop-color="#abacac"/><stop offset=".2957" stop-color="#9a9b9b"/><stop offset=".3202" stop-color="#8f9090"/><stop offset=".3546" stop-color="#888989"/><stop offset=".4502" stop-color="#868787"/><stop offset=".4883" stop-color="#8e8f8f"/><stop offset=".5924" stop-color="#9d9f9f"/><stop offset=".7107" stop-color="#a6a8a8"/><stop offset=".8731" stop-color="#a9abab"/><stop offset=".9627" stop-color="#dcdcdc"/></linearGradient><linearGradient id="c" gradientTransform="matrix(.7554 .6553 .6553 -.7554 -576.0345 2048.7961)" gradientUnits="userSpaceOnUse" x1="-188.9606" x2="-59.2798" xlink:href="#b" y1="1678.3533" y2="1603.4819"/><linearGradient id="d" gradientTransform="matrix(.7554 .6553 .6553 -.7554 -576.0345 2048.7961)" gradientUnits="userSpaceOnUse" x1="-192.1841" x2="-26.456" xlink:href="#b" y1="1696.2814" y2="1600.5984"/><linearGradient id="e" gradientTransform="matrix(.7554 .6553 .6553 -.7554 -576.0345 2048.7961)" gradientUnits="userSpaceOnUse" x1="-180.3568" x2="-42.2597" xlink:href="#b" y1="1695.8671" y2="1616.1365"/><linearGradient id="f" gradientTransform="matrix(.7554 .6553 .6553 -.7554 -576.0345 2048.7961)" gradientUnits="userSpaceOnUse" x1="-163.5929" x2="-66.7436" xlink:href="#b" y1="1682.6437" y2="1626.7278"/><linearGradient id="g" gradientTransform="matrix(.7554 .6553 .6553 -.7554 -576.0345 2048.7961)" gradientUnits="userSpaceOnUse" x1="-173.0439" x2="-37.0958" xlink:href="#b" y1="1698.9542" y2="1620.4646"/><linearGradient id="h" gradientTransform="matrix(.7554 .6553 .6553 -.7554 -576.0345 2048.7961)" gradientUnits="userSpaceOnUse" x1="-192.1338" x2="-12.7169" xlink:href="#b" y1="1720.593" y2="1617.0066"/><linearGradient id="i" gradientTransform="matrix(.7554 .6553 .6553 -.7554 -576.0345 2048.7961)" gradientUnits="userSpaceOnUse" x1="-182.9737" x2="-16.82" xlink:href="#b" y1="1715.4465" y2="1619.5176"/><linearGradient id="j" gradientTransform="matrix(.7554 .6553 .6553 -.7554 -576.0345 2048.7961)" gradientUnits="userSpaceOnUse" x1="-165.1052" x2="-31.8849" xlink:href="#b" y1="1710.3193" y2="1633.4045"/><path d="m417.8 361.5c-2 1.3-4 35-5.5 69.5-1.5-34.6-3.5-68.2-5.5-69.5-4.2-2.8-142.6 4.1-142.6 4.1v134.9s56.9 6.5 148.1 5.8c91.2.7 148.1-5.8 148.1-5.8v-134.8s-138.4-6.9-142.6-4.2z" fill="#0d0905"/><path d="m603.3 547.2c-5.5-36.5-43.2-50.6-61.7-56.1s-49.1-7.6-68.5-18.6c-19.4-11.1-16.3-66.4-16.3-66.4h-41.8-41.9s3.1 55.4-16.3 66.4c-19.4 11.1-50 13.1-68.5 18.6s-49.6 19.7-55.2 56.1c-4.4 29.2-17.6 113.7-17.6 113.7h199.4 199.4c.1.1-6.5-84.5-11-113.7z" fill="#fca65b"/><path d="m369.6 451.1c22.5-4.2 66-18.1 87.2-33.9 0-1.7 0-3.2 0-4.5v-.1c0-.6 0-1.1 0-1.7 0-.1 0-.2 0-.3 0-.4 0-.8.1-1.3 0-.1 0-.2 0-.3 0-.4 0-.7 0-1 0-.1 0-.2 0-.2 0-.3 0-.5 0-.8v-.1c0-.2 0-.3 0-.5s0-.3 0-.3h-41.8-41.9c0-.1 1.4 25.2-3.6 45z" fill="#eb9449"/><path d="m534.2 267.8s17.7-75.4-2.9-117.4c-22.2-45.2-55.4-71.1-116.3-71.1s-94.1 25.8-116.3 71.1c-20.6 41.9-2.9 117.4-2.9 117.4-27.7-5.5-22.5 24.7-13.9 38.4 7.2 11.4 7.3 12.6 11.7 25.1 6.2 18 20.5 5.6 20.5 5.6 8.3 23.1 14.2 28.5 47.3 59.1 28.8 26.6 38.9 26.3 53.5 26.3s24.4.3 53.5-26.3c33.2-30.4 39-36 47.3-59.1 0 0 14.3 12.5 20.5-5.6 4.3-12.5 4.5-13.7 11.6-25.1 8.9-13.7 14.1-44-13.6-38.4z" fill="#f29b50"/><path d="m225 519s-6.4 249-25.4 299.8 71.8 9.2 71.8 9.2l17-36.3s7.9-45.5 7.8-58.4c0-12.8-71.2-214.3-71.2-214.3z" fill="#d31616"/><path d="m608.9 535.4s6.4 208.8 25.4 259.6-81.9 25.4-81.9 25.4l-18.1-42s3.3-15.9 3.3-28.7c.2-12.8 71.3-214.3 71.3-214.3z" fill="#d31616"/><path d="m220.6 575.1c-1.5-34.3-3.9-66.7 31.7-73.2 13.4-2.4 56.6-11.1 56.6-11.1l41-15.2s3.3 64 62.7 64 60.6-67.1 60.6-67.1l58.1 22.8c29 2.3 29.2 4.1 42.5 6.6 32.7 6 37.9 29.2 36.9 62.6-.5 15.3-40.9 134.5-52 225.6-14.3 116.5 17.6 180.3 1.5 197-21 21.7-145.4 20.6-145.4 20.6s-136.4-3.6-153.1-23.6c-17.1-20.6 13.6-122.8-2-225-11.6-75.9-37.7-151.8-39.1-184z" fill="#ea1818"/><path d="m387.8 353.7c-11.6-4 11 18.6 29.3 18s41.4-25.3 26.2-17.9c-5 2.4-12-14.1-21.2-8.9-6.6 3.7-3.4 5.4-9.4-.2-8.1-5.7-16.6 11.8-24.9 9z" fill="#ea1818"/><path d="m364.7 222.9c-12.5.7-30.6 11.6-33.8 20.8-3.9 11.3 10.3-6.3 20.3-10.7 8.5-7.9 24.8-4 34.5 2.2 9.6 6.1 11.6 15.2 11.6 7.2-2.6-7.8-22.5-19.5-32.6-19.5z" fill="#1c140a"/><path d="m468.5 220.5c-12.5.7-30.6 11.6-33.8 20.8-3.9 11.3 10.3-6.3 20.3-10.7 8.5-7.9 24.8-4 34.5 2.2 9.6 6.1 11.6 15.2 11.6 7.2-2.6-7.8-22.5-19.5-32.6-19.5z" fill="#1c140a"/><path d="m398.9 159.6s5.5 16.4 6.7 25.7c1.3 9.3 2.3 20.4 2.3 20.4s2.1-7-.3-20.9-8.7-25.2-8.7-25.2z" fill="#261e14"/><path d="m358.3 216.3s-1.5-15.4 4.6-33.1 21.1-21.5 21.1-21.5-10.7 5.9-17.3 21.8c-6.7 15.8-8.4 32.8-8.4 32.8z" fill="#261e14"/><path d="m450.5 202.9s-.7-13.8-8.5-28.5-21.5-16.1-21.5-16.1 10.2 3.8 18.2 16.8 11.8 27.8 11.8 27.8z" fill="#261e14"/><path d="m484.8 475.4s1.2.1 3.3.3c44 11.9 60.7 14.4 92 19.3 17.5-2.2 40.9 21.1 30.6 42.9s-41.6 218.7-41.6 254.5 1.1 183.8 2.5 196.6-91.6 32.4-104.7 18.7c-7.1-7.4 13.5-91.5 34.2-190.2 17.5-83 8.7-188.6 4.8-211.3-8.7-49.6-41.2-86.6-41.2-86.6" fill="#3d4251"/><path d="m612.7 527.9s21.2 250.4 39.5 298.8-77.8 40.3-77.8 40.3l-16.8-98.2s-5.3-42.4-5.3-54.7c-.1-12.1 60.4-186.2 60.4-186.2z" fill="#363a47"/><path d="m280.9 121.7c.1-.4-23.1 40 .2-1.2 13.1-31.2 178.2-53.9 260.2 0 23.8 25.1 39.9 101.5 23.6 109.1-5.8 2.7-25.3-25.7-55.4-46.8-8.4-5.9-33.2-23.6-98.1-23.6s-89.7 17.7-98.1 23.6c-30.1 21.1-43.4 52.1-49.3 49.3-15.9-7.5-8.9-66.7 16.9-110.4z" fill="#474b56"/><path d="m348.9 482.4s-4.2-4.3-6.3-4.1c-44 11.9-57.7 18.8-89 23.7-17.5-2.2-40.9 21.1-30.6 42.9s41.6 218.7 41.6 254.5-8.9 168.7-10.4 181.5 90.2 38.3 103.3 24.7c7.1-7.4 2.1-94-18.7-192.7-17.5-83-15.1-177-11.1-199.7 8.7-49.6 41.2-86.6 41.2-86.6" fill="#3d4251"/><path d="m221 534.9s-33.4 200.8-40.4 283.7c-2.3 41.2 95.7 21.2 95.7 21.2l-2.7-54.3s14.7-33.9 14.7-46.2-67.3-204.4-67.3-204.4z" fill="#363a47"/><path d="m404.3 268.8h25.1v10.2h-25.1z" fill="#4189c6"/><path d="m553.6 182.8c-34.2-120.3-137.8-120.3-137.8-120.3s-103.6 0-137.9 120.2c-2.9 10.1-.3 24.3-7.1 36.8-49.1 89.1 9.6 380.1 13.7 380.7 1.2-7.3 2.3-20.1 2.3-20.1l2.1 19.6c5.5.4 12.9.7 18.5.2l.2-27.7 4.6 26.6c5.2-.7 17.2-2.1 22.1-3.1l-.5-12.7 4.8 11.9c19-4.7-9.1-359.4-9.1-359.4s17.6-.8 27.6-2l3.9-16 3.7 15.1c4.4-.4 9.1-.9 13.8-1.4l7.5-38.7 5.3 37.4c7.8-.6 19.9-1.4 24.6-1.4h.1l3-22.2 4.7 22.4c10.5.5 25.2 1.9 38.3 3.3l3-37.5 4.9 38.3c12.4 1.4 32.3 2.5 32.3 2.5s-21.8 352.7-6.3 355.7l9.9-33.3-4.5 34.3c6.8 1.2 14.2 2.2 21.8 2.8l6-20.5 2.1 20.9c12.5.4 82.3-278.9 29.6-378.8-6.3-11.1-4.5-24.2-7.2-33.6z" fill="#1c140a"/><path d="m396.9 236.7h-66.6c-4.5 0-8.2 3.7-8.2 8.2v51c0 4.5 3.7 8.2 8.2 8.2h66.6c4.5 0 8.2-3.7 8.2-8.2v-51c0-4.5-3.6-8.2-8.2-8.2zm-1.7 52.1c0 3.4-2.8 6.1-6.2 6.1h-50.4c-3.4 0-6.2-2.7-6.2-6.1v-37.7c0-3.4 2.8-6.1 6.2-6.1h50.4c3.4 0 6.2 2.7 6.2 6.1z" fill="#4189c6"/><path d="m500.9 236.7h-66.6c-4.5 0-8.2 3.7-8.2 8.2v51c0 4.5 3.7 8.2 8.2 8.2h66.6c4.5 0 8.2-3.7 8.2-8.2v-51c0-4.5-3.6-8.2-8.2-8.2zm-1.7 52.1c0 3.4-2.8 6.1-6.2 6.1h-50.4c-3.4 0-6.2-2.7-6.2-6.1v-37.7c0-3.4 2.8-6.1 6.2-6.1h50.4c3.4 0 6.2 2.7 6.2 6.1z" fill="#4189c6"/><path d="m289.6 113.8c.1-.4.1-.7.2-1.1 5.5-20.3 14.6-35.1 26.4-46.7.3-.4.6-.8 1-1.2 16-17.4 21-19.7 27.7-30.6s15.4-20.8 34.7-20.1c10.2.4 10.6 3.2 28.4 2.6 19.9-.6 30-2.9 36.3 0 10.7 4.9 8.3 8 38.7 29.6 6.3 4.5 13 9.7 18.6 16.2 19.6 19 30.5 50.2 30.5 50.2 24.7 40.7 34.4 96.6 19.3 103.6-5.4 2.5-20.9-26.2-48.9-45.8-7.8-5.5-30.9-21.9-91.4-21.9-60.4 0-83.6 16.4-91.4 21.9-28 19.6-38.1 48.2-43.6 45.6-14.8-6.9-10.7-61.7 13.5-102.3z" fill="#3d4251"/><path d="m291.2 106.5c2.2-6.8 3.5-10.2 5.4-13.8 1-.4 11.5-5.4 12.6-5.8 34.9-14.4 83.8-15.5 98-15.5h4.3 4.2c13.9 0 61.7 0 109.3 24.3 2 4.3 4.3 9.3 4.3 9.3 1 2.2 1.4 3.4 2.2 5.4-3.1-8-22.5-14.2-33.1-18.6-31.7-13.1-61.2-12.4-82.7-13.6-2.4-.1-3.8 0-3.9 0h-.3-.5c-.1 0-1.5 0-3.9 0-13.1 0-58.3 1-89.9 14.1-10.7 4.4-20.5 9.9-26.6 16.1" fill="#474b56"/><path d="m471.8 470.6c15.8 23.9 13.3 52.2-6.3 64.5s-49.1 4.1-67.6-18.1z" fill="#d31616"/><path d="m349.9 475.5c-12.3 30.7-8.8 60.9 8.7 68.7 17.5 7.9 42.4-9.5 57.2-39.1z" fill="#d31616"/><path d="m427.7 529.6s-88.1-49.1-95.1-17.5-15.1 55.7 8.2 59.7 86.9-42.2 86.9-42.2z" fill="#3373aa"/><path d="m412.5 522.2c24.8-13.4 73.9-36.4 79.9-13 8.2 31.5 17.1 55.3-6 60.2-16.2 3.5-53.2-17.3-73.8-29.9-.3-15.3.1-2.2-.1-17.3z" fill="#4189c6"/><path d="m229.2 671.5 236.2 204.9c5 4.3 12.6 3.8 16.9-1.2l120-138.2c4.3-5 3.8-12.6-1.2-16.9l-236.2-205c-5-4.3-12.6-3.8-16.9 1.2l-120 138.3c-4.3 5-3.7 12.6 1.2 16.9z" fill="#e1e1e1"/><path clip-path="url(#a)" d="m230.1 672.2 236.2 204.9c5 4.3 12.6 3.8 16.9-1.2l119.9-138.3c4.3-5 3.8-12.6-1.2-16.9l-236.1-204.9c-5-4.3-12.6-3.8-16.9 1.2l-120 138.3c-4.3 5-3.7 12.6 1.2 16.9z" fill="#e6e6e6"/><path d="m462.9 875.1-232.6-201.7c-.5-.4-.5-1.2-.1-1.6l.2-.2c.4-.5 1.2-.5 1.6-.1l232.5 201.7c.5.4.5 1.2.1 1.6l-.2.2c-.3.5-1.1.5-1.5.1z" fill="#b2b1b1"/><circle cx="415.2" cy="695.8" fill="#ededed" r="22.6"/><path d="m374 673.3c.7-.8 1.5-1.4 2.5-2 1-.5 2.1-.9 3.2-1.2 1.2-.2 2.4-.3 3.6-.2 1.3.1 2.5.4 3.7.9-.1-.8-.2-1.6-.3-2.4 0-.8 0-1.6.1-2.3s.2-1.4.4-2 .5-1.2.9-1.6c.5-.6 1.1-1.1 1.6-1.5.6-.4 1.2-.7 1.8-1s1.2-.4 1.9-.5c.6-.1 1.2-.1 1.8-.1.6.1 1.1.2 1.6.4s1 .5 1.3.8c.5.4.9 1 1.1 1.7s.3 1.5.2 2.4-.5 1.9-1 3c-.6 1.1-1.4 2.3-2.5 3.6-.8.9-1.6 1.8-2.4 2.6s-1.6 1.5-2.4 2.2c.2.5.3 1 .5 1.6.2.5.4 1 .5 1.6 0 .1.1.2.1.4.1.2.1.3.2.5 0 .2.1.3.1.4s0 .2-.1.3c0 .1-.1.1-.2.1s-.2 0-.3 0-.2 0-.3 0-.2 0-.2-.1c-.1 0-.3-.1-.4-.3-.3-.3-.6-.7-1-1.2-.3-.5-.7-1.1-1-1.7-1.2.8-2.3 1.5-3.4 2.1s-2.2 1-3.2 1.4c-1 .3-2 .6-2.9.7s-1.8.1-2.5.1c-.8-.1-1.5-.2-2.1-.5-.6-.2-1.1-.5-1.6-.9s-.8-.8-1-1.4c-.2-.5-.3-1.1-.3-1.7s.2-1.3.5-1.9c.4-.9.8-1.6 1.5-2.3zm1.7 2.5c-.5.6-.8 1.1-.8 1.6s.1.9.5 1.2.9.5 1.7.6 1.7 0 2.8-.3 2.3-.8 3.7-1.5 2.8-1.6 4.4-2.9l-.1-.5c-.7-.4-1.4-.7-2.2-.9s-1.6-.3-2.3-.3c-.8 0-1.6.1-2.3.2-.8.1-1.5.3-2.2.6-.7.2-1.3.5-1.8.9-.7.5-1.1.9-1.4 1.3zm15.1-11.9c-.4.5-.7 1-.9 1.6s-.3 1.3-.3 2.1 0 1.6.1 2.4c.1.9.3 1.8.5 2.7.8-.7 1.6-1.5 2.4-2.3s1.7-1.7 2.5-2.7c.6-.7 1-1.3 1.4-1.8.3-.5.5-1 .6-1.4s.1-.8 0-1.1-.2-.5-.5-.7c-.2-.2-.5-.3-.8-.4s-.6-.1-1-.1-.7 0-1.1.1-.8.2-1.1.4c-.4.2-.7.3-1.1.6-.2 0-.5.3-.7.6z" fill="url(#c)"/><path d="m408.7 688.3c-.8.5-1.5 1-2.2 1.6-.6.5-1.2 1-1.6 1.4-.3.4-.5.8-.5 1.1 0 .4.1.7.5 1 .1.1.4.2.6.3.3.1.6.2 1 .2s.9.1 1.5.1 1.2 0 1.9-.1c0 0 0 .2-.1.3 0 .1-.1.4-.2.7s-.3.7-.4 1.2c-.8.1-1.6.1-2.3.1s-1.4-.1-2-.2-1.2-.3-1.6-.5c-.5-.2-.9-.4-1.2-.7-.4-.3-.6-.7-.8-1.1s-.3-.8-.3-1.3.1-.9.3-1.4.5-1 .9-1.5c.1-.2.3-.4.6-.6s.6-.5.9-.7c.3-.3.7-.5 1.2-.8.4-.3.9-.6 1.4-.9-.8-.6-1.6-1.1-2.4-1.7-.8-.5-1.5-1.1-2.3-1.6-.6.3-1.1.7-1.7 1s-1.1.6-1.6.9-.9.5-1.4.8c-.4.2-.8.4-1.1.6-.8.4-1.5.6-1.9.6-.5 0-.8-.1-1-.2-.1-.1-.3-.3-.3-.4-.1-.2-.2-.3-.2-.5s0-.3 0-.5.1-.3.3-.5c.1-.1.2-.2.3-.2 1-.7 2-1.3 3-1.9s2-1.1 2.9-1.6c-.3-.3-.6-.6-.8-.9s-.4-.6-.6-.9c-.1-.3-.2-.7-.2-1.1s.1-.8.2-1.2c.1-.1.1-.2.2-.3s.1-.2.2-.3c.2-.3.4-.3.6-.1.1.1.2.3.2.5s0 .6 0 1c.3.2.6.4.8.7.3.2.6.5.9.7l.8.7c.7-.4 1.3-.7 1.9-1s1.2-.7 1.8-1c.4-.2.7-.5 1-.7.3-.3.6-.5.8-.8.2-.2.4-.4.5-.7.1-.2.2-.4.2-.7 0-.2 0-.4-.1-.6s-.2-.4-.4-.6c-.2-.1-.4-.3-.7-.4s-.6-.3-1-.4-.8-.2-1.3-.3-1.1-.1-1.7-.1c-.2 0-.4 0-.6-.1s-.3-.1-.4-.2c0 0 0-.1.1-.3s.3-.4.5-.6c.3-.3.6-.5.9-.7l1.2-.3c.4 0 .9 0 1.3.1.5.1.9.2 1.4.3.4.2.8.3 1.2.5s.7.4 1 .7c.4.3.7.7 1 1.2.3.4.4.9.5 1.4s0 1-.2 1.5-.5 1.1-1 1.6c-.2.3-.5.5-.9.9-.4.3-.8.7-1.3 1-.5.4-1 .7-1.6 1.1s-1.2.8-1.8 1.1c.6.5 1.3 1 2.1 1.6s1.5 1.2 2.3 1.8c1.1-.7 2.3-1.4 3.5-2.1s2.5-1.4 3.7-2c.4-.2.8-.3 1.2-.3s.7.1 1 .4c.1.1.2.2.3.4.1.1.1.3.2.4v.4c0 .2-.1.3-.3.5-.1.1-.3.3-.4.4-.2.2-.4.3-.6.4-.4.2-.9.5-1.4.8s-1 .6-1.5.9-1.1.6-1.6.9-1.1.6-1.6 1c.4.3.7.5 1 .8.3.2.5.4.6.5.1 0 .1.1.2.1s.1.1.2.1c.2.1.3.3.4.4s.1.2.1.4 0 .2-.1.3-.1.2-.2.3-.2.2-.3.2-.2 0-.4 0c-.1 0-.2-.1-.3-.1-.1-.1-.2-.1-.3-.2-.2-.1-.3-.2-.4-.3s-.1-.1-.2-.1h-.1s0 0-.1 0c0 0-.1-.1-.2-.1-.1-.1-.2-.2-.4-.3-.2-.2-.4-.3-.7-.5-.1-.4-.3-.6-.5-.7z" fill="url(#d)"/><path d="m413.7 700.7c-.4 0-.8 0-1.3-.1s-1-.1-1.5-.3c-.5-.1-1-.3-1.5-.5s-.9-.4-1.2-.7-.5-.5-.6-.8-.2-.5-.2-.8.1-.5.2-.8.3-.5.5-.8c.3-.4.7-.7 1.2-1.1s1-.8 1.6-1.2 1.1-.8 1.7-1.2 1.1-.8 1.6-1.1c.2-.1.4-.2.6-.2s.4 0 .6.1.4.2.6.3.4.2.5.3c.2.2.4.4.4.6s-.1.3-.2.5c-.1.1-.3.3-.6.5s-.6.4-.9.6-.7.5-1.1.7c-.4.3-.8.5-1.2.8s-.7.5-1.1.8c-.3.3-.6.6-.9.8-.2.3-.4.5-.4.7-.1.2 0 .4.2.5.2.2.5.3.9.4s.8.1 1.2.1h1.3s.8 0 1.1 0zm3.8-12.1c.1-.1.3-.3.5-.4s.4-.2.7-.2.5 0 .8.1.6.3.9.5c.2.2.4.4.5.6l.3.6v.6c-.1.2-.2.4-.4.6s-.4.4-.6.5-.5.2-.7.2c-.3 0-.5 0-.8-.1s-.6-.3-.9-.5c-.5-.4-.8-.9-.8-1.3s.1-.9.5-1.2z" fill="url(#e)"/><path d="m416.3 703.5c.6.5 1.2.9 1.7 1.2.6.3 1.1.5 1.7.7.6.1 1.1.2 1.6.2s1.1 0 1.6-.1l-1.6 2c-.4.1-.8.1-1.2.1s-.9-.1-1.3-.2-.9-.3-1.3-.5-.8-.4-1.1-.7l-.1-.1c-.1-.1-.1-.2-.3-.3-.1-.2-.3-.4-.5-.7s-.6-.7-1-1.2l-.1.2c-.9 1-1.8 1.9-2.7 2.6s-1.8 1.2-2.6 1.6-1.5.5-2.2.5-1.2-.2-1.6-.5c-.3-.3-.5-.6-.6-.9s-.1-.7 0-1.1.3-.8.6-1.2.6-.8.9-1.2c.2-.2.5-.5.8-.7s.7-.5 1.1-.7.8-.4 1.3-.6c.4-.2.9-.4 1.3-.6 1-.4 2.1-.8 3.3-1.1.4-.4.9-.8 1.4-1.2s.9-.8 1.4-1.1c.5-.4 1-.7 1.5-.9.5-.3 1-.4 1.5-.5s1-.1 1.5 0 1 .4 1.4.8c.3.3.6.6.9 1 .2.4.4.7.4 1.2 0 .4 0 .8-.2 1.3-.2.4-.4.9-.9 1.4-.3.4-.7.7-1.1 1s-.9.5-1.4.6-1.1.2-1.7.1c-.6 0-1.3-.2-2-.4zm-8.7 1.8s-.1.1-.2.2-.1.3-.2.4c0 .1-.1.3-.1.4s.1.3.2.4.2.1.4 0 .3-.1.5-.3c.2-.1.4-.3.6-.5s.4-.4.6-.6.4-.4.6-.7.4-.4.5-.6c.3-.3.5-.5.7-.8.2-.2.4-.4.5-.5.1-.2.3-.3.4-.4-.3.1-.6.2-.9.4s-.6.3-1 .5c-.3.2-.6.4-.9.6s-.6.4-.8.6c-.3.2-.5.3-.6.5s-.2.3-.3.4zm8.4-3.6c.5.1 1 .2 1.4.2s.8 0 1.2-.1.8-.2 1.1-.4.7-.3 1-.6c.1-.1.3-.2.4-.4.2-.2.3-.3.4-.5s.1-.4.1-.6-.1-.4-.3-.5c-.2-.2-.4-.3-.7-.3s-.5 0-.8.1-.6.3-.9.5-.6.4-1 .7c-.3.3-.6.6-1 .9-.3.3-.7.7-.9 1z" fill="url(#f)"/><path d="m421.4 704.8h1.4s.7 0 .9-.1c.3 0 .5-.1.8-.1.3-.1.5-.1.9-.2.3-.1.8-.2 1.3-.3s1.1-.2 1.9-.4c.2 0 .3-.1.5-.1s.4 0 .5 0c.2 0 .4.1.5.1.2.1.3.2.5.3.3.2.5.5.6.6.1.2.1.4.1.5s0 .3-.1.4-.1.2-.2.3-.3.2-.6.3-.5.1-.8.2c-.3 0-.5.1-.7.1s-.4.1-.5.1c-.2.2-.3.3-.4.5s-.2.3-.3.5-.2.4-.3.6-.2.4-.3.7c-.1.2-.3.5-.5.8s-.5.6-.8 1c.3 0 .7.1 1 .2s.7.2 1 .3c.4.1.7.2 1.1.3s.8.2 1.3.2l-1.7 1.9c-.6 0-1.2-.1-1.9-.3s-1.3-.4-2-.6c-.7-.3-1.3-.6-1.9-.9s-1.2-.7-1.6-1.1c-.3-.3-.6-.6-.9-.9-.2-.3-.4-.6-.5-1-.1-.3-.1-.7-.1-1 .1-.3.2-.7.4-1-.1-.1-.2-.1-.3-.2s-.2-.1-.2-.2c-.1-.1-.2-.2-.2-.2-.1-.1-.1-.2-.1-.2 0-.1 0-.2 0-.3s.1-.2.3-.4c.1-.1.3-.2.4-.3.2-.1.3-.1.5-.1s.3 0 .5 0zm.1 2.1c.1.1.1.2.1.3v.5s.1.4.1.6c.1.2.2.4.4.6s.4.3.6.4.4.1.6 0c.2 0 .4-.1.6-.3.2-.1.3-.3.5-.5.1-.2.3-.3.4-.5s.2-.4.3-.5c.1-.2.2-.3.3-.5s.1-.3.2-.4z" fill="url(#g)"/><path d="m435 719c-.8-.2-1.6-.3-2.2-.4s-1.2-.3-1.7-.4-.9-.3-1.2-.4-.6-.3-.8-.5c-.4-.4-.7-.8-.8-1.4s-.1-1.2.2-1.9c.2-.7.6-1.4 1.1-2.2s1.1-1.6 1.9-2.5c.3-.3.6-.7 1-1.1l1.1-1.1c-.2-.2-.3-.3-.3-.4-.1-.1-.2-.2-.2-.3-.1-.1-.2-.2-.3-.4s-.4-.4-.6-.7c-.1-.1-.2-.3-.2-.4s0-.2 0-.3.1-.2.1-.3c.1-.1.1-.1.2-.2s.2-.2.4-.1c.2 0 .3.1.5.2s.4.3.6.5.4.4.6.5c.2.2.4.3.5.5.1.1.3.2.3.3.8-.6 1.7-1.2 2.5-1.7.9-.5 1.7-.9 2.5-1.2s1.5-.5 2.1-.5 1.2.1 1.5.4c.2.2.4.5.5.8s.1.6 0 1-.2.7-.4 1.1-.4.7-.7 1.1c-.2.3-.5.5-.9.8s-.7.5-1.2.7c-.4.2-.9.4-1.3.6-.5.2-1 .3-1.4.5 0 .1.1.1.2.2s.3.2.4.4c.2.1.3.3.5.5s.3.3.5.5.3.3.5.4c.1.1.3.2.4.3s.1.2.1.4-.1.3-.3.5-.4.3-.6.3-.4 0-.5-.1l-3.3-2.9c-.4.1-.7.2-1.1.2-.4.1-.7.1-1 .2-.3.3-.7.7-1 1-.1.1-.3.3-.4.4-.1.2-.3.3-.4.5-.1.1-.3.3-.4.4s-.2.3-.3.4c-.3.3-.5.6-.6.9s-.2.5-.2.7 0 .4.1.6.3.4.4.5.3.2.5.3.5.2.8.3.6.2 1 .2c.4.1.7.1 1.1.2.4 0 .7.1 1.1.1s.7 0 1.1-.1zm6.7-13.2.2-.2c.1-.1.1-.2.1-.3s0-.2 0-.3-.1-.2-.2-.3-.4-.1-.8 0-.8.3-1.3.6-1 .6-1.6 1c-.5.4-1.1.8-1.6 1.1.1.1.2.2.2.3.1.1.2.2.2.3.4-.1.9-.3 1.4-.5s.9-.4 1.4-.6c.4-.2.8-.4 1.2-.6.4-.1.6-.3.8-.5z" fill="url(#h)"/><path d="m436 723.3c-.5-.5-.9-1-1.2-1.5-.2-.5-.3-1.1-.3-1.7s.1-1.1.4-1.7c.2-.5.6-1.1 1-1.5.3-.3.6-.6 1-.9s.8-.6 1.2-.8.9-.4 1.3-.6c.5-.1.9-.2 1.4-.2s.9.1 1.4.2c.4.1.9.4 1.3.7.3.3.6.6.8.9s.3.7.3 1.1 0 .7-.1 1.1-.3.7-.6 1c-.3.4-.7.6-1.2.8s-1 .3-1.6.4c-.6 0-1.2 0-1.8-.1s-1.3-.3-1.9-.6c0 .2-.1.4-.1.6v.5c0 .1.1.2.2.4l.3.3c.3.3.8.5 1.3.7s1 .3 1.6.4c.5.1 1.1.2 1.6.2s1 0 1.4 0l.1 2.1c-1 .1-1.9.1-2.8 0-.4 0-.8-.1-1.2-.2s-.9-.2-1.3-.3-.8-.3-1.2-.5c-.6-.3-1-.6-1.3-.8zm2.3-5.1c.2.2.5.3.8.4s.7.2 1 .2c.4 0 .7 0 1-.1s.5-.2.7-.4c.2-.3.4-.5.4-.8s0-.4-.1-.5c-.2-.2-.5-.3-.7-.4-.3-.1-.5-.1-.7 0-.2 0-.5.1-.7.3-.2.1-.4.3-.7.4-.2.2-.4.3-.5.5-.2.2-.4.3-.5.4z" fill="url(#i)"/><path d="m441.4 724.8c.2-.3.5-.5.8-.8s.7-.6 1-1 .8-.7 1.2-1 .8-.6 1.2-.9.7-.5 1.1-.8c.3-.2.6-.4.8-.5s.3-.1.4-.2h.3c.1 0 .2 0 .3.1s.2.2.3.3.3.2.3.3c.1.1.1.2.1.3s-.1.2-.1.3c-.1.1-.2.3-.4.4-.2.2-.4.5-.7.8s-.5.6-.8.9l.1.1c.3-.1.7-.3 1.1-.4.4-.2.8-.3 1.2-.4s.8-.1 1.2-.1.7.2 1.1.5l.3.3c.1.1.1.3.1.4v.4c0 .1-.1.3-.2.4s-.2.2-.4.4c-.2.1-.4.3-.6.5s-.4.3-.6.5-.3.3-.4.4c-.2.2-.3.4-.4.6s-.1.3-.1.5c0 .1 0 .3.1.4s.1.2.2.3c.3.2.6.4.9.5.4.1.7.2 1.1.3s.8.1 1.3.1l-1.9 1.9c-.2 0-.5-.1-.8-.1s-.6-.1-.9-.2-.6-.2-.9-.3-.6-.3-.8-.5c-.4-.4-.7-.8-.8-1.2s-.1-.8 0-1.2.3-.8.5-1.2.5-.8.7-1.2l-.1-.1-5.2 2.9c-.3.2-.5.3-.7.4s-.4.1-.5.2c-.2 0-.3 0-.4 0s-.2-.1-.3-.2c-.2-.2-.4-.4-.4-.6-.1-.2 0-.5 0-.7.1-.2.2-.5.3-.7 0-.6.2-.9.4-1.1z" fill="url(#j)"/><path d="m638.7 781s-176.3-27.6-228.3-54.7c-66.8-6.7-22.1 54.2-22.1 54.2l149 51.6s67.8 33.9 81.5 35.1c13.7 1.3 19.9-86.2 19.9-86.2z" fill="#eb9449"/><path d="m400.5 780.8s-61.6 12.8-74.9 5.1-35.9-20.1-35.3-35.1c.7-15 21.6-58.5 40.6-58.3s86 39.7 86 39.7z" fill="#fca65b"/><path d="m620.4 877.8s21.8-31.8 25.7-44c4-12.2 3.3-50.8 3.3-50.8l-66.8-15.2s-24.6 38.4-27.1 49.6c-2.6 11.2.6 43.4.6 43.4z" fill="#d31616"/><path d="m274.6 739.1s181.5-16.3 234.3-41.9c66.9-4.8 20.6 54.8 20.6 54.8l-150.5 47.4s-85.4 26.6-99.1 27.5c-13.6.8-5.3-87.8-5.3-87.8z" fill="#eb9449"/><path d="m493.1 758.6s61.4 17.7 74.6 10.4 35.6-18.9 34.8-34.8c-.7-15.8-21.9-63.2-40.7-64.3-18.8-1-84.7 38.3-84.7 38.3z" fill="#fca65b"/><path d="m246.1 746.8s-1.7 38.5 1.4 51 24 44.9 24 44.9l64.8-22.3s.6-45.5-3.1-56.4-23.4-36.6-23.4-36.6z" fill="#d31616"/><g fill="#333"><path d="m503.4 780.3c-.7-.5-1.2-.9-1.6-1.3s-.7-.7-.9-1-.3-.6-.4-.9c0-.3 0-.6.1-1 .1-.3.3-.6.5-.7.2-.2.5-.3.7-.3.3-.1.6-.1.9-.1s.7 0 1.1-.1h.4c.2 0 .5-.1.9-.1s.8-.1 1.2-.1c.5 0 .9-.1 1.4-.1.4 0 .9-.1 1.2-.1h.9c.1 0 .3 0 .4.1.2 0 .3.1.4.2s.1.2.2.3c0 .1.1.3.1.4v.4.3s0 .1 0 .1c-.1.2-.2.4-.3.5-.2.1-.3.1-.6.1l-7.6.1 5 3.8c.1.1.2.2.3.3s.2.3.3.4c.1.2.1.3.2.5v.6c-.1.2-.2.3-.4.4s-.4.1-.7 0c-.2-.1-.5-.2-.8-.4s-.6-.4-.8-.6c-.3-.2-.6-.5-.9-.7-.6-.5-.9-.8-1.2-1z"/><path d="m509.6 787.2c.2-.8.6-1.5 1.2-2.2.5-.7 1.2-1.4 2-1.9.8-.6 1.6-1 2.6-1.3.9-.3 1.9-.5 3-.5-.4-.5-.7-1.1-1-1.7s-.5-1.1-.7-1.7-.3-1.1-.3-1.6 0-1 .1-1.5c.2-.6.4-1.1.7-1.6s.6-.9 1-1.3.8-.7 1.2-1 .9-.5 1.3-.6.9-.2 1.3-.3c.4 0 .8 0 1.2.1.5.2 1 .4 1.4.9.4.4.7 1 .9 1.7s.3 1.5.2 2.5-.3 2.1-.7 3.4c-.3.9-.6 1.8-.9 2.6s-.7 1.6-1 2.3c.3.3.6.6.9 1 .3.3.6.6.9 1 .1.1.1.2.2.2l.3.3s.2.2.2.3c.1.1.1.2.1.2 0 .1-.1.1-.1.1-.1 0-.1.1-.2.1s-.2.1-.2.1c-.1 0-.1 0-.2 0s-.2 0-.4 0c-.3-.1-.7-.3-1.1-.5-.4-.3-.8-.6-1.3-.9-.6 1-1.2 1.9-1.8 2.6-.6.8-1.3 1.5-1.9 2-.6.6-1.3 1.1-1.9 1.4-.6.4-1.2.7-1.8.9s-1.1.3-1.7.3c-.5 0-1 0-1.4-.2-.5-.1-.8-.4-1.2-.7-.3-.3-.6-.7-.8-1.1-.2-.5-.3-1-.3-1.6-.1-.4 0-1.1.2-1.8zm2.1 1.2c-.2.6-.2 1.1-.1 1.4.1.4.4.6.8.7s.9.1 1.4-.1c.6-.2 1.2-.6 1.9-1.1.7-.6 1.4-1.3 2.2-2.2s1.5-2.1 2.3-3.5l-.3-.3c-.6-.1-1.2 0-1.9.1-.6.1-1.2.3-1.8.6s-1.1.6-1.6.9c-.5.4-1 .7-1.4 1.1s-.8.8-1 1.2c-.2.5-.4.9-.5 1.2zm7.1-13.5c-.1.5-.2.9-.1 1.5.1.5.2 1.1.4 1.6.2.6.5 1.1.9 1.7s.8 1.2 1.3 1.8c.3-.8.7-1.6 1-2.5s.6-1.8.9-2.8c.2-.7.3-1.3.4-1.8s.1-.9 0-1.3c-.1-.3-.2-.6-.3-.8-.2-.2-.3-.3-.6-.4-.2-.1-.4-.1-.7 0-.3 0-.5.1-.8.2s-.5.3-.8.5-.5.4-.7.6-.4.5-.6.7c-.1.4-.2.7-.3 1z"/><path d="m539.7 786.8c-.4.6-.8 1.3-1.1 1.8-.3.6-.5 1.1-.7 1.5-.1.4-.1.7 0 1s.3.5.7.6c.1 0 .3.1.6 0 .2 0 .5-.1.8-.2s.7-.2 1.1-.4.9-.4 1.4-.7v.3.6c0 .2 0 .6.1 1-.6.3-1.1.6-1.7.8-.5.2-1.1.4-1.5.5-.5.1-.9.2-1.3.2s-.8 0-1.1-.1c-.4-.1-.7-.3-.9-.5-.3-.2-.5-.5-.6-.8s-.2-.7-.3-1.1c0-.4 0-.9.2-1.4.1-.2.1-.4.2-.6s.2-.5.4-.8.4-.6.6-1 .4-.7.7-1.1c-.8-.2-1.6-.3-2.3-.4s-1.5-.3-2.2-.4c-.3.4-.6.9-.9 1.3s-.6.8-.9 1.2-.5.7-.7 1-.4.6-.6.8c-.5.5-.9.9-1.2 1-.3.2-.6.2-.8.2-.1 0-.3-.1-.4-.2s-.2-.2-.3-.3-.1-.2-.2-.4c0-.1 0-.3 0-.4s.1-.2.1-.3c.5-.8 1-1.6 1.6-2.3.5-.7 1.1-1.4 1.6-2.1-.3-.1-.6-.2-.9-.4-.3-.1-.5-.3-.7-.5s-.4-.4-.5-.7-.2-.6-.2-1c0-.1 0-.2 0-.3s0-.2.1-.2c.1-.3.2-.4.4-.3.1 0 .2.1.3.3s.2.4.3.7c.3.1.5.1.8.2l.9.3.8.3c.4-.5.7-.9 1.1-1.4.3-.4.7-.9 1-1.3.2-.3.4-.6.5-.8.2-.3.3-.6.4-.8s.1-.4.1-.6 0-.4-.1-.5c-.1-.2-.1-.3-.3-.4-.1-.1-.3-.2-.5-.3s-.4-.1-.6-.1-.5 0-.8.1c-.3 0-.7.1-1.1.2s-.8.3-1.3.5c-.2.1-.3.1-.4.1s-.2 0-.3 0c0 0-.1-.1 0-.3 0-.2.1-.4.1-.6.1-.3.2-.6.5-.8.2-.2.5-.4.8-.6s.6-.3 1-.4.7-.2 1.1-.2h1.1c.3 0 .7.1.9.2.4.1.8.3 1.1.5s.6.5.8.8.3.7.4 1.1c0 .4 0 .9-.2 1.5-.1.3-.2.6-.4.9-.2.4-.4.7-.6 1.2-.2.4-.5.9-.8 1.3-.3.5-.6.9-.9 1.4.6.1 1.3.3 2 .5.8.2 1.5.4 2.3.6.6-.9 1.2-1.8 1.9-2.7s1.3-1.8 2-2.7c.2-.3.5-.5.8-.6s.6-.2.9-.1c.1 0 .2.1.3.2s.2.2.2.3c.1.1.1.2.1.3s0 .3 0 .4-.1.3-.2.5-.2.3-.3.5c-.2.3-.5.7-.8 1-.3.4-.6.7-.8 1.1-.3.4-.6.8-.9 1.2s-.6.8-.8 1.2c.4.1.7.2 1 .2.3.1.5.1.6.1s.1 0 .2 0h.2c.2.1.3.1.4.2s.2.1.2.2.1.2.1.3 0 .2-.1.3c0 .1-.1.2-.2.3s-.2.1-.3.1-.2 0-.3 0-.2 0-.3 0c-.2 0-.3-.1-.4-.1s-.1 0-.2 0c0 0 0 0-.1 0 0 0 0 0-.1 0 0 0-.1 0-.2 0s-.2 0-.4-.1c-.2 0-.4-.1-.6-.1-.1-.4-.3-.4-.5-.5z"/><path d="m550.5 794.5c-.4 0-.8 0-1.1.1-.4 0-.8.1-1.1.1-.4 0-.7 0-1 0s-.6 0-.9-.1-.5-.2-.6-.4-.2-.4-.1-.5c.1-.2.1-.3.2-.5.1-.1.2-.3.3-.3.1-.1.2-.2.3-.2.1-.1.2-.1.3-.1l6.6-.4-5.7-3.7c-.2-.1-.3-.3-.4-.4s-.1-.3 0-.5c0 0 0 0 0-.1s.1-.2.1-.2c.1-.1.1-.2.2-.3l.3-.3s.2-.1.3-.2h.4c.1 0 .2.1.4.2s.4.3.7.5.6.4.9.7c.3.2.6.5.9.7s.6.5.8.7c.3.2.5.4.6.5s.2.2.3.2c.3.2.6.5.8.7.3.2.5.4.7.6s.3.4.4.7c.1.2.1.5 0 .8s-.3.6-.4.9c-.2.2-.5.4-.8.6-.3.1-.8.3-1.3.3-.6-.2-1.2-.1-2.1-.1z"/></g><ellipse cx="365.00674" cy="268.59839" fill="#fff" rx="23.677713" ry="23.107164" stroke-width="1.163297"/><path d="m373.36754 271.42775c-1.1 4.10001-5.6 6.4-10.1 5.2-3.3-.89999-5.6-3.5-6.1-6.39999.4.39999.9.69999 1.5.89999 1.8.5 3.7-.5 4.2-2.1.5-1.69999-.6-3.5-2.5-4-.7-.19999-1.5-.19999-2.2.1 1.8-2.7 5.5-4.1 9.1-3.1 4.5 1 7.2 5.30001 6.1 9.4z" fill="#333"/><ellipse cx="465.42307" cy="269.16895" fill="#fff" rx="23.677713" ry="23.107164" stroke-width="1.163297"/><path d="m473.78386 271.42775c-1.1 4.1-5.6 6.4-10.1 5.2-3.3-.9-5.6-3.5-6.1-6.4.4.4.9.7 1.5.9 1.8.5 3.7-.5 4.2-2.1.5-1.7-.6-3.5-2.5-4-.7-.2-1.5-.2-2.2.1 1.8-2.7 5.5-4.1 9.1-3.1 4.5 1 7.2 5.3 6.1 9.4z" fill="#333"/></svg>