<svg xmlns="http://www.w3.org/2000/svg" width="100" height="100"><path fill-rule="evenodd" clip-rule="evenodd" fill="#C0392B" d="M6 100h88c3.313 0 6-2.687 6-6v-88c0-3.314-2.687-6-6-6h-88c-3.313 0-6 2.686-6 6v88c0 3.313 2.687 6 6 6z"/><path fill-rule="evenodd" clip-rule="evenodd" fill="#E74C3C" d="M100 30h-.025c-.253-2.802-2.606-5-5.475-5h-88.25c-3.313 0-6.25-2.686-6.25-6v-13c0-3.313 2.687-6 6-6h88c3.313 0 6 2.687 6 6.001v23.999z"/><path opacity=".15" fill-rule="evenodd" clip-rule="evenodd" d="M5 100h2v-100h-2v100z"/><path opacity=".15" fill-rule="evenodd" clip-rule="evenodd" fill="#fff" d="M7 100h2v-100h-2v100z"/><path fill-rule="evenodd" clip-rule="evenodd" fill="#fff" d="M100 10.001c0-2.762-2.238-5-5-5h-88c-1.104 0-2 .896-2 2v11c0 1.104.896 2 2 2h87c3.313 0 6 2.687 6 6v-15h-.101c.066-.323.101-.658.101-1z"/><path fill-rule="evenodd" clip-rule="evenodd" fill="#95A5A6" d="M100 15.423v-3.921s.183-4-5-4h-90v2h89c3.184 0 5.781 2.482 5.98 5.616-.107-1-.789-3.615-4.98-3.615h-90v2h89c3.184 0 5.781 2.482 5.98 5.616-.107-1.001-.789-3.616-4.98-3.616h-90v2h89c3.313 0 6 2.687 6 6v-8.08z" opacity=".2"/><path fill-rule="evenodd" clip-rule="evenodd" fill="#2980B9" d="M80 100h10v-75h-10v75z"/><path fill-rule="evenodd" clip-rule="evenodd" fill="#3498DB" d="M80 25.007h10v-25.007h-10v25.007z"/><path fill-rule="evenodd" clip-rule="evenodd" d="M82 100h2v-100h-2v100zm4-100v100h2v-100h-2z" opacity=".1"/></svg>