<svg xmlns="http://www.w3.org/2000/svg" width="100" height="100"><path fill="#EBEDED" d="M100 95c0 2.761-2.239 5-5 5h-90c-2.761 0-5-2.239-5-5v-90c0-2.761 2.239-5 5-5h90c2.761 0 5 2.239 5 5v90z"/><path fill="#D4D7DA" d="M95 97h-90c-2.761 0-5-2.239-5-5v3c0 2.761 2.239 5 5 5h90c2.761 0 5-2.239 5-5v-3c0 2.761-2.239 5-5 5z"/><path fill="#E64C3C" d="M0 31v-26c0-2.761 2.239-5 5-5h90c2.761 0 5 2.239 5 5v26h-100z"/><rect y="28" fill="#C03A2B" width="100" height="2.75"/><g enable-background="new" fill="#fff"><path d="M30.344 8.576l2.672 7.855h.032l2.528-7.855h3.536v11.424h-2.352v-8.096h-.032l-2.8 8.096h-1.936l-2.8-8.016h-.032v8.016h-2.352v-11.424h3.536zM41.384 12.944c.234-.353.533-.635.896-.849.362-.213.771-.365 1.224-.456.453-.09.909-.136 1.368-.136.416 0 .837.029 1.264.088s.816.174 1.168.344c.352.171.64.408.864.713.224.304.336.706.336 1.208v4.304c0 .373.021.73.064 1.072.042.341.117.597.224.768h-2.304l-.104-.392-.056-.408c-.363.373-.79.635-1.28.784-.491.148-.992.224-1.504.224-.395 0-.763-.048-1.104-.144-.342-.097-.64-.246-.896-.448-.256-.203-.456-.459-.6-.769-.144-.309-.216-.677-.216-1.104 0-.47.083-.856.248-1.16.166-.304.379-.547.64-.728.261-.182.56-.317.896-.408s.675-.163 1.016-.216c.341-.054.677-.097 1.008-.129.331-.031.624-.079.88-.144.256-.063.458-.157.608-.28.149-.122.218-.301.208-.536 0-.245-.04-.439-.12-.584-.08-.144-.187-.256-.32-.336-.134-.08-.288-.133-.464-.159-.176-.027-.365-.04-.568-.04-.448 0-.8.096-1.056.287-.256.192-.405.513-.448.961h-2.272c.032-.533.165-.975.4-1.327zm4.488 3.208c-.144.048-.298.088-.464.12l-.52.079-.544.08c-.171.032-.339.075-.504.128-.166.054-.31.126-.432.217s-.221.205-.296.344-.112.315-.112.528c0 .202.037.373.112.512s.176.248.304.328c.128.08.277.136.448.168.17.032.347.048.528.048.448 0 .795-.074 1.04-.224.246-.149.427-.328.544-.536.118-.208.189-.419.216-.633.026-.213.04-.384.04-.512v-.848c-.096.086-.216.153-.36.201zM52.424 11.728v1.536h.032c.106-.256.25-.493.432-.712.182-.218.39-.405.624-.56s.485-.274.752-.36c.267-.085.544-.128.832-.128.149 0 .314.026.496.08v2.112l-.384-.057-.433-.023c-.416 0-.768.069-1.056.208s-.521.328-.696.567c-.176.24-.302.521-.376.841-.074.319-.111.666-.111 1.04v3.728h-2.272v-8.272h2.16zM60.151 13.216c-.362 0-.666.083-.912.248-.245.166-.445.379-.6.64-.154.262-.264.55-.328.864-.063.315-.096.627-.096.937 0 .299.032.603.096.912.064.31.168.589.312.84s.338.456.584.616c.245.159.544.239.896.239.544 0 .963-.151 1.256-.456.294-.304.478-.712.553-1.224h2.191c-.149 1.099-.576 1.936-1.28 2.512-.703.576-1.605.864-2.703.864-.619 0-1.188-.104-1.704-.312-.518-.208-.958-.499-1.32-.872-.362-.374-.646-.819-.848-1.336-.203-.518-.305-1.086-.305-1.704 0-.641.094-1.235.28-1.784.187-.55.461-1.024.824-1.424.362-.4.805-.712 1.328-.937.522-.224 1.12-.336 1.792-.336.49 0 .962.064 1.416.192.453.128.858.322 1.216.584.357.261.647.587.872.976.224.39.352.851.384 1.384h-2.224c-.148-.949-.709-1.423-1.68-1.423zM67.655 8.576v4.304h.048c.288-.479.656-.829 1.104-1.048.447-.219.885-.328 1.312-.328.608 0 1.106.083 1.496.248.39.166.696.395.92.688.225.293.382.65.472 1.071.091.422.137.889.137 1.4v5.089h-2.272v-4.672c0-.683-.106-1.192-.319-1.528-.214-.336-.593-.504-1.137-.504-.618 0-1.066.185-1.344.552-.277.368-.416.974-.416 1.816v4.336h-2.272v-11.424h2.271z"/></g><g enable-background="new" fill="#35495E"><path d="M26.77 55.045c.49-1.579 1.226-2.959 2.208-4.14.981-1.181 2.215-2.101 3.703-2.761 1.487-.658 3.197-.988 5.129-.988 1.472 0 2.875.229 4.209.689s2.507 1.12 3.519 1.979c1.012.858 1.817 1.917 2.415 3.174.598 1.258.897 2.668.897 4.232 0 1.625-.261 3.021-.782 4.186-.522 1.166-1.212 2.201-2.07 3.105-.859.904-1.833 1.725-2.921 2.461-1.089.735-2.185 1.465-3.289 2.185-1.104.721-2.178 1.495-3.22 2.323-1.043.828-1.963 1.794-2.76 2.897h15.226v5.613h-23.644c0-1.87.268-3.496.805-4.876.536-1.38 1.265-2.614 2.185-3.703.92-1.088 2.001-2.093 3.243-3.013 1.242-.92 2.553-1.855 3.933-2.807.705-.49 1.457-.988 2.254-1.494.797-.507 1.525-1.065 2.185-1.68.659-.613 1.211-1.303 1.656-2.069.444-.767.667-1.641.667-2.622 0-1.564-.453-2.783-1.357-3.657-.905-.874-2.063-1.312-3.473-1.312-.951 0-1.756.224-2.415.667-.66.445-1.189 1.028-1.587 1.748-.399.722-.683 1.519-.851 2.393-.169.874-.253 1.74-.253 2.599h-6.256c-.062-1.84.153-3.549.644-5.129zM50.736 72.548v-5.979l13.985-18.769h5.842v19.366h4.277v5.382h-4.277v7.452h-6.21v-7.452h-13.617zm13.478-16.56l-8.325 11.178h8.464v-11.178h-.139z"/></g></svg>