<svg xmlns="http://www.w3.org/2000/svg" width="100" height="100"><path fill="#27AE60" d="M100 94c0 3.313-2.687 6-6 6h-88c-3.313 0-6-2.687-6-6v-78c0-3.313 2.687-6 6-6h88c3.313 0 6 2.687 6 6v78z"/><path fill-rule="evenodd" clip-rule="evenodd" fill="#fff" d="M82 87c0 1.104-.896 2-2 2h-60c-1.104 0-2-.896-2-2v-69c0-1.104.896-2 2-2h60c1.104 0 2 .896 2 2v69z"/><path fill-rule="evenodd" clip-rule="evenodd" fill="#BDC3C7" d="M72 20h-44c-1.657 0-3-1.343-3-3v-7c0-1.657 1.343-3 3-3h15c0-3.866 3.134-7 7-7s7 3.134 7 7h15c1.657 0 3 1.343 3 3v7c0 1.657-1.343 3-3 3zm-22-16c-1.657 0-3 1.344-3 3 0 1.657 1.343 3 3 3s3-1.343 3-3c0-1.656-1.343-3-3-3z"/><path fill-rule="evenodd" clip-rule="evenodd" fill="#A1A6A9" d="M72 20h-44c-1.656 0-3-1.343-3-3v-2c0 1.657 1.344 3 3 3h44c1.656 0 3-1.343 3-3v2c0 1.657-1.344 3-3 3z"/><path opacity=".15" fill-rule="evenodd" clip-rule="evenodd" d="M94 97h-88c-3.313 0-6-2.687-6-6v3c0 3.313 2.687 6 6 6h88c3.313 0 6-2.687 6-6v-3c0 3.313-2.687 6-6 6z"/><path fill-rule="evenodd" clip-rule="evenodd" fill="#BDC3C7" d="M41 40.999v3h31v-3h-31zm0 14.001h31v-3.001h-31v3.001zm0 10.998h31v-2.999h-31v2.999zm0 11.001h31v-3h-31v3zm-13-31h7v-7h-7v7zm0 11h7v-7h-7v7zm0 11h7v-7h-7v7zm0 11.001h7v-7.001h-7v7.001z"/><path fill-rule="evenodd" clip-rule="evenodd" fill="#27AE60" d="M41 29v3.001h31v-3.001h-31zm-5.073-1.214l-.708-.713c-.097-.098-.256-.098-.354 0l-3.728 3.703c-.098.099-.257.099-.354 0l-1.633-1.66c-.048-.049-.112-.072-.175-.073-.064 0-.13.023-.179.073l-.722.648c-.048.049-.074.11-.074.175l.011.054h-.011v.998h.011l.063.127 1.647 1.725.354.355.708.713c.097.098.256.098.354 0l4.79-4.771.067-.144h.006v-.998h-.006c.01-.076-.01-.155-.067-.212z"/><path fill-rule="evenodd" clip-rule="evenodd" fill="#A1A6A9" d="M50 4c1.305 0 2.403.837 2.816 2 .112-.313.184-.646.184-.999 0-1.657-1.344-3-3-3-1.657 0-3.001 1.343-3.001 3 0 .353.072.686.184 1 .413-1.163 1.512-2.001 2.817-2.001z"/></svg>