<svg xmlns="http://www.w3.org/2000/svg" width="112" height="111"><circle fill="#3498DA" cx="50" cy="61" r="50"/><path fill-rule="evenodd" clip-rule="evenodd" fill="#27AE60" d="M15.511 97.184c-9.55-9.108-15.511-21.945-15.511-36.182 0-27.615 22.386-50.002 50.001-50.002 14.395 0 27.359 6.091 36.482 15.826l-70.972 70.358z"/><path fill-rule="evenodd" clip-rule="evenodd" fill="#95A5A6" d="M84.489 24.816c9.55 9.108 15.511 21.945 15.511 36.182 0 13.668-5.484 26.055-14.372 35.08-14.109-14.109-9.155-9.144-36.401-36.304l35.262-34.958z"/><path fill="#F1C40F" d="M88.062 93.404l-32.574-32.572 32.418-32.417c-1.562-1.814-3.25-3.515-5.053-5.088l-70.527 70.527c1.574 1.803 3.274 3.491 5.089 5.053l32.417-32.417 32.573 32.572c2.033-1.733 3.925-3.624 5.657-5.658z"/><path opacity=".05" fill-rule="evenodd" clip-rule="evenodd" d="M104.287 36.302c-6.477 6.476-16.362 7.425-23.864 2.892l-4.205 4.205c10.024 13.692 8.892 33.002-3.48 45.374-13.668 13.668-35.829 13.668-49.497 0s-13.668-35.829 0-49.497c12.559-12.56 32.283-13.569 46.006-3.048l4.223-4.223c-4.146-7.426-3.082-16.979 3.23-23.292 7.618-7.617 19.969-7.617 27.588 0 7.616 7.618 7.616 19.97-.001 27.589zm-3.557-24.021c-5.659-5.665-14.835-5.665-20.494 0-5.659 5.664-5.659 14.849 0 20.514 5.659 5.664 14.835 5.664 20.494 0 5.66-5.665 5.66-14.85 0-20.514z"/><path fill-rule="evenodd" clip-rule="evenodd" fill="#E74C3C" d="M106.287 33.356c-6.477 6.476-16.362 7.425-23.864 2.892l-4.205 4.206c10.024 13.692 8.892 33.001-3.48 45.374-13.668 13.668-35.829 13.668-49.497 0s-13.668-35.829 0-49.497c12.559-12.56 32.283-13.569 46.006-3.048l4.223-4.222c-4.146-7.426-3.082-16.98 3.23-23.292 7.618-7.617 19.969-7.617 27.588 0 7.616 7.617 7.616 19.969-.001 27.587zm-3.557-24.02c-5.659-5.665-14.835-5.665-20.494 0-5.659 5.664-5.659 14.849 0 20.514 5.659 5.664 14.835 5.664 20.494 0 5.66-5.665 5.66-14.85 0-20.514z"/><circle fill-rule="evenodd" clip-rule="evenodd" fill="#fff" cx="50" cy="61" r="27"/><circle fill-rule="evenodd" clip-rule="evenodd" fill="#ECF0F1" cx="50.5" cy="43.75" r="2.5"/><circle fill-rule="evenodd" clip-rule="evenodd" fill="#ECF0F1" cx="50.5" cy="78.75" r="2.5"/><circle fill-rule="evenodd" clip-rule="evenodd" fill="#ECF0F1" cx="32.5" cy="60.75" r="2.5"/><circle fill-rule="evenodd" clip-rule="evenodd" fill="#ECF0F1" cx="68.5" cy="60.75" r="2.5"/><path opacity=".15" fill-rule="evenodd" clip-rule="evenodd" d="M50 34c-7.965 0-15.122 3.45-20.064 8.936 4.784-4.311 11.117-6.936 18.064-6.936 14.912 0 27 12.088 27 27 0 6.947-2.625 13.279-6.936 18.064 5.486-4.942 8.936-12.099 8.936-20.064 0-14.912-12.088-27-27-27z"/><path fill="#34495E" d="M65.141 44.533l-11.831 20.163-19.998 11.666 31.829-31.829z"/><path fill="#306DAB" d="M33.312 76.362l11.831-20.163 19.998-11.667-31.829 31.83z"/><path fill-rule="evenodd" clip-rule="evenodd" fill="#C0392B" d="M78.807 24.561l8.021 8.021c1.952 1.954 1.403 4.252-.354 6.01s-4.058 2.307-6.01.354l-8.021-8.021c-1.953-1.952-1.404-4.253.354-6.01 1.758-1.758 4.057-2.307 6.01-.354z"/></svg>