<svg xmlns="http://www.w3.org/2000/svg" width="100" height="100"><path fill="#E74C3C" d="M100 94c0 3.313-2.687 6-6 6h-88c-3.313 0-6-2.687-6-6v-88c0-3.313 2.687-6 6-6h88c3.313 0 6 2.687 6 6v88z"/><path fill-rule="evenodd" clip-rule="evenodd" fill="#C0392B" d="M68.494 10.847l-18.287-10.847h24.383l-6.096 10.847zm-34.662-10.847c-.212.913-.548 1.81-1.027 2.662l-11.746 20.908-20.616-12.228-.443-.294v-5.048c0-3.313 2.687-6 6-6h27.832zm-31.174 49.794l1.955-3.479c2.704-4.813 8.742-6.433 13.488-3.617 4.742 2.814 6.399 8.996 3.696 13.808l-11.746 20.908-10.051-5.961v-23.235l2.658 1.576zm19.509 42.704c2.703-4.812 8.741-6.432 13.487-3.617l3.432 2.033 1.956-3.479c2.703-4.812 8.741-6.434 13.487-3.617 4.742 2.816 6.4 8.996 3.697 13.809l-1.331 2.373h-35.706c-.618-2.459-.346-5.145.978-7.502zm35.321-27.807l-20.616-12.228c-4.746-2.815-6.398-8.997-3.697-13.809 2.704-4.812 8.742-6.432 13.487-3.617l3.432 2.034 1.956-3.479c2.705-4.812 8.742-6.433 13.488-3.618 4.742 2.817 6.4 8.998 3.697 13.811l-11.747 20.906zm26.821-24.95c-4.746-2.815-6.398-8.997-3.697-13.81 2.703-4.813 8.742-6.433 13.486-3.617l3.432 2.034 1.957-3.479c.158-.283.332-.554.514-.815v28.995l-15.692-9.308zm-11.008 53.843c-4.746-2.814-6.398-8.996-3.697-13.809 2.703-4.812 8.742-6.434 13.488-3.617l3.432 2.035 1.955-3.48c2.342-4.168 7.184-5.936 11.521-4.506v23.791c0 .412-.043.814-.121 1.201l-1.771 3.154c-1.077 1.014-2.514 1.647-4.108 1.647h-9.885l-10.814-6.416zm-66.208 2.957c1.474.875 2.648 2.076 3.487 3.459h-4.58c-2.843 0-5.211-1.982-5.83-4.637 2.281-.463 4.738-.117 6.923 1.178z"/><path opacity=".15" fill-rule="evenodd" clip-rule="evenodd" d="M70.116 47.232c1.354-.733 2.475-1.552 3.399-2.485 5.881-5.944 5.956-15.538.168-21.385-2.774-2.803-6.479-4.345-10.43-4.345-4.043 0-7.855 1.603-10.74 4.516-.946.957-1.772 2.124-2.511 3.539-.74-1.42-1.568-2.594-2.518-3.553-2.882-2.912-6.696-4.529-10.738-4.529-3.952 0-7.655 1.514-10.43 4.315-5.789 5.849-5.714 15.385.169 21.33.957.968 2.131 1.791 3.55 2.52-1.311.684-2.494 1.477-3.438 2.401-2.935 2.88-4.551 6.709-4.551 10.782.001 3.983 1.558 7.705 4.384 10.477 2.761 2.709 6.432 4.201 10.336 4.201 3.996 0 7.776-1.551 10.646-4.366 1.004-.985 1.857-2.229 2.586-3.606.728 1.377 1.581 2.621 2.585 3.605 2.871 2.816 6.652 4.367 10.647 4.367 3.903 0 7.575-1.492 10.337-4.201 2.825-2.771 4.382-6.492 4.383-10.477 0-4.072-1.615-7.9-4.551-10.783-.904-.891-2.033-1.658-3.283-2.323zm-38.152-18.281c2.689-2.644 7.127-2.566 9.912.171 2.926 2.875 4.149 13.854 4.128 13.877-.022.022-10.941-1.43-13.866-4.305-2.786-2.738-2.863-7.1-.174-9.743zm9.833 35.071c-2.76 2.59-7.155 2.661-9.819.161-2.663-2.5-2.587-6.627.172-9.217 2.897-2.719 13.839-3.975 13.861-3.954.021.021-1.316 10.291-4.214 13.01zm26.253.162c-2.669 2.5-7.073 2.429-9.838-.161-2.904-2.72-4.244-12.989-4.222-13.01.021-.021 10.984 1.235 13.889 3.954 2.764 2.59 2.84 6.717.171 9.217zm-.17-25.398c-2.903 2.898-13.861 4.236-13.883 4.213-.022-.022 1.317-10.963 4.22-13.861 2.764-2.759 7.167-2.835 9.835-.171 2.668 2.663 2.591 7.059-.172 9.819z"/><path fill-rule="evenodd" clip-rule="evenodd" fill="#fff" d="M100 39h-25.019c4.361-6 3.955-14.332-1.298-19.639-2.774-2.803-6.479-4.345-10.43-4.345-3.386 0-6.602 1.137-9.254 3.213v-18.229h-8v18.214c-2.651-2.079-5.869-3.226-9.253-3.226-3.952 0-7.655 1.514-10.43 4.314-5.285 5.343-5.665 13.698-1.214 19.698h-25.102v8h25.316c-2.111 2.662-3.268 5.908-3.268 9.336.001 3.983 1.558 7.705 4.384 10.477 2.761 2.709 6.432 4.201 10.336 4.201 3.373 0 6.584-1.116 9.232-3.153v32.139h8v-32.14c2.648 2.037 5.861 3.153 9.232 3.153 3.903 0 7.575-1.492 10.337-4.201 2.825-2.771 4.382-6.492 4.383-10.477 0-3.427-1.156-6.673-3.268-9.336h25.316v-7.999zm-41.783-13.862c2.764-2.759 7.167-2.835 9.835-.171 2.668 2.664 2.591 7.06-.172 9.819-2.896 2.89-13.799 4.228-13.88 4.213v-.043c.069-.728 1.415-11.02 4.217-13.818zm-26.253-.187c2.689-2.644 7.127-2.566 9.912.171 2.812 2.763 4.05 13.003 4.124 13.82v.057c-.102.011-10.948-1.44-13.862-4.305-2.786-2.738-2.863-7.1-.174-9.743zm9.833 35.071c-2.76 2.59-7.155 2.661-9.819.161-2.663-2.5-2.587-6.627.172-9.217 2.868-2.691 13.614-3.948 13.851-3.954v.108c-.132 1.096-1.476 10.342-4.204 12.902zm26.253.162c-2.669 2.5-7.073 2.429-9.838-.161-2.741-2.568-4.088-11.856-4.212-12.909v-.101c.217.003 11.001 1.26 13.879 3.954 2.764 2.59 2.84 6.717.171 9.217z"/><path opacity=".2" fill-rule="evenodd" clip-rule="evenodd" d="M94 100h-88c-3.313 0-6-2.687-6-6.001v-13.999c0 3.313 2.687 6 6 6h88c3.313 0 6-2.687 6-6v13.999c0 3.314-2.687 6.001-6 6.001z"/></svg>