<svg xmlns="http://www.w3.org/2000/svg" width="100" height="100"><path fill-rule="evenodd" clip-rule="evenodd" fill="#D35400" d="M96.015 38.988h-92.009c-1.104 0-2 .897-2 2.005v57.001c0 1.108.896 2.006 2 2.006h92.009c1.105 0 2.001-.897 2.001-2.006v-57.001c0-1.108-.896-2.005-2.001-2.005z"/><path fill-rule="evenodd" clip-rule="evenodd" fill="#ECF0F1" d="M5 15.974v82.004c0 1.117.896 2.022 2 2.022h86.001c1.104 0 1.999-.905 1.999-2.021v-95.989c0-1.117-.895-2.021-1.999-2.021l-71.997.008-16.004 15.997z"/><path opacity=".1" d="M40 72l54.997-33 .003 6.98-43.972 26.02h-11.028z"/><path fill-rule="evenodd" clip-rule="evenodd" fill="#F39C12" d="M2 97.991c0 1.11.895 2.009 2 2.009h92c1.104 0 2-.899 2-2.009v-55.991l-48 29-48-29v55.991z"/><path fill-rule="evenodd" clip-rule="evenodd" fill="#F1C40F" d="M5 15.974l16.001.01v-15.984l-16.001 15.974z"/><path fill="#F1C40F" d="M2 42l.052 54 47.948-25-48-29z"/><polygon fill="#E57E22" points="98,42 50,71 98,96"/><path opacity=".3" fill-rule="evenodd" clip-rule="evenodd" d="M98 97.991v-1.991l-48-25 47.328 28.482c.409-.367.672-.896.672-1.491z"/><path opacity=".3" fill-rule="evenodd" clip-rule="evenodd" d="M2 97.991v-1.991l48-25-47.328 28.482c-.409-.367-.672-.896-.672-1.491z"/></svg>