<svg xmlns="http://www.w3.org/2000/svg" width="100" height="100"><path fill-rule="evenodd" clip-rule="evenodd" fill="#F2F2F2" d="M75 87.425l-25 12.575-25-12.575-25 12.575v-87.424l25-12.576 25 12.576 25-12.576 25 12.576v87.424l-25-12.575z"/><path clip-rule="evenodd" stroke="#6BC9F2" stroke-width="4" stroke-miterlimit="10" d="M15 60v-28l9.988-5.006 25.012 14.006 25-12 12 4" fill="none"/><path clip-rule="evenodd" stroke="#E64C3C" stroke-width="4" stroke-miterlimit="10" d="M15 61v-8l10-5 25 13 25-11 12-5v-13" fill="none"/><path clip-rule="evenodd" stroke="#F29C1F" stroke-width="4" stroke-miterlimit="10" d="M15 61l35 18 17-8v-28l20-10" fill="none"/><path fill-rule="evenodd" clip-rule="evenodd" fill="#fff" d="M87 36.5c-1.93 0-3.5-1.57-3.5-3.5s1.57-3.5 3.5-3.5 3.5 1.57 3.5 3.5-1.57 3.5-3.5 3.5z"/><path fill="#2980BA" d="M87 31c1.103 0 2 .897 2 2s-.897 2-2 2-2-.897-2-2 .897-2 2-2m0-3c-2.761 0-5 2.239-5 5s2.239 5 5 5 5-2.239 5-5-2.239-5-5-5z"/><path fill-rule="evenodd" clip-rule="evenodd" fill="#fff" d="M15 64.5c-1.93 0-3.5-1.57-3.5-3.5s1.57-3.5 3.5-3.5 3.5 1.57 3.5 3.5-1.57 3.5-3.5 3.5z"/><path fill="#2980BA" d="M15 59c1.103 0 2 .897 2 2s-.897 2-2 2-2-.897-2-2 .897-2 2-2m0-3c-2.761 0-5 2.239-5 5s2.239 5 5 5 5-2.239 5-5-2.239-5-5-5z"/><path opacity=".15" fill-rule="evenodd" clip-rule="evenodd" fill="#2C3E50" d="M0 100l25-12.576v-87.424l-25 12.576v87.424zm50-87.424v87.424l25-12.576v-87.424l-25 12.576z"/></svg>