<svg xmlns="http://www.w3.org/2000/svg" width="100" height="100"><g><path fill="#e74c3c" d="M50 74.001v25.999h.072l-.072.002c-12.816-.008-25.662-4.828-35.417-14.584-9.771-9.772-14.591-22.58-14.583-35.418.009-12.816 4.829-25.662 14.583-35.417l18.417 18.417c-4.682 4.683-6.996 10.849-7 17-.004 6.162 2.31 12.311 7 17 4.683 4.684 10.848 6.996 17 7.001z"/><path fill-opacity=".15" enable-background="new" d="M50 92c-23.196 0-42-18.805-42-42 0-11.598 4.701-22.098 12.302-29.699l-5.719-5.718c-6.715 6.716-14.583 18.855-14.583 35.417 0 27.062 21.625 50 50 50v-8z"/><path fill-opacity=".15" fill="#fff" enable-background="new" d="M32.928 67c-4.689-4.689-7.003-10.838-7-17 .004-6.151 2.316-12.317 7-17l-5.627-5.627c-5.791 5.79-9.373 13.79-9.373 22.627 0 17.673 14.327 32 32 32v-7.999c-6.152-.005-12.316-2.317-17-7.001z"/><path fill="#EFC22D" d="M63 87l-12.986-12.991v-.009l-.008.001-.001-.001-.005.001c-3.309.011-6.009 5.826-6.009 13 0 7.181 2.709 13.001 6.022 13.001v-.022l12.987-12.98z"/><path fill="#2D3E4F" d="M58.758 82.757c-1.086 1.086-1.758 2.586-1.758 4.243 0 1.656.672 3.156 1.757 4.242l4.243-4.242-4.242-4.243z"/></g><g><path fill="#3498db" d="M50 26.001v-25.999h-.072l.072-.002c12.816.008 25.662 4.828 35.417 14.584 9.771 9.771 14.592 22.58 14.584 35.417-.009 12.817-4.829 25.663-14.584 35.418l-18.418-18.417c4.683-4.682 6.996-10.85 7-17 .004-6.162-2.312-12.31-7-17-4.683-4.683-10.849-6.996-16.999-7.001z"/><path fill-opacity=".1" enable-background="new" d="M66.999 33.002c4.688 4.689 7.004 10.838 7 17-.004 6.15-2.317 12.318-7 17l5.627 5.627c5.791-5.789 9.373-13.789 9.373-22.627 0-17.672-14.326-32-32-32v7.999c6.151.005 12.317 2.318 17 7.001z"/><path fill-opacity=".15" fill="#fff" enable-background="new" d="M50.001 8.001c23.195 0 41.999 18.805 41.999 42 0 11.599-4.701 22.099-12.302 29.699l5.72 5.718c6.715-6.716 14.582-18.855 14.582-35.417 0-27.062-21.624-50-49.999-50v8z"/><path fill="#EFC22D" d="M37 13.002l12.986 12.991v.009l.008-.001.001.001.005-.001c3.309-.011 6.008-5.826 6.008-13 0-7.18-2.709-13.001-6.022-13.001v.021l-12.986 12.981z"/><path fill="#2D3E4F" d="M41.242 17.245c1.086-1.086 1.758-2.586 1.758-4.243 0-1.656-.672-3.156-1.757-4.242l-4.243 4.242 4.242 4.243z"/></g></svg>