<svg xmlns="http://www.w3.org/2000/svg" xmlns:xlink="http://www.w3.org/1999/xlink" width="117" height="104"><path fill="#26B99A" d="M50 4c27.614 0 50 22.386 50 50 0 27.613-22.386 50-50 50s-50-22.387-50-50c0-27.614 22.386-50 50-50z"/><path fill="#fff" d="M81.309 43.339l-35.868 35.869c-.731.731-1.924.731-2.651 0l-20.286-20.498c-.362-.366-.556-1.374-.556-1.859 0-.484.194-.947.556-1.315l5.404-4.871c.366-.375.855-.555 1.338-.55.476.001.951.185 1.313.55l12.231 12.478c.728.743 1.92.743 2.651 0l27.918-27.835c.728-.737 1.92-.737 2.647 0l5.302 5.354c.732.734.732 1.942.001 2.677z"/><circle cx="84.625" cy="33" r="26" opacity=".15"/><path fill="#26B99A" d="M87.999 56.5c-15.163 0-27.499-12.337-27.499-27.5s12.336-27.5 27.499-27.5c15.164 0 27.501 12.336 27.501 27.5 0 15.163-12.337 27.5-27.501 27.5z"/><path fill="#ECF0F1" d="M87.999 3c14.337 0 26.001 11.663 26.001 26s-11.664 26-26.001 26c-14.336 0-25.999-11.664-25.999-26s11.663-26 25.999-26m0-3c-16.015 0-28.999 12.984-28.999 29 0 16.017 12.984 29 28.999 29 16.017 0 29.001-12.984 29.001-29s-12.984-29-29.001-29z"/><defs><path id="a" d="M114 29c0 14.359-11.64 26-25.998 26-14.362 0-26.002-11.641-26.002-26s11.64-26 26.002-26c14.358 0 25.998 11.64 25.998 26z"/></defs><clipPath id="b"><use xlink:href="#a" overflow="visible"/></clipPath><path clip-path="url(#b)" fill="#fff" d="M107.314 30.594l-81.091 81.092c-1.653 1.654-4.349 1.654-5.994 0l-11.987-12.097c-1.644-1.674-4.348-4.391-5.993-6.063l-27.885-29.303c-.818-.828-1.257-1.982-1.257-3.082 0-1.094.439-2.141 1.257-2.974l12.218-11.01c.827-.849 1.935-1.257 3.025-1.246 1.075.004 2.149.417 2.969 1.246l27.653 28.213c1.645 1.683 4.341 1.683 5.994 0l63.121-62.932c1.644-1.666 4.34-1.666 5.984 0l11.986 12.102c1.655 1.661 1.655 4.393 0 6.054z"/></svg>