<?xml version="1.0" encoding="utf-8"?>
<!-- Generator: Adobe Illustrator 17.1.0, SVG Export Plug-In . SVG Version: 6.00 Build 0)  -->
<!DOCTYPE svg PUBLIC "-//W3C//DTD SVG 1.1//EN" "http://www.w3.org/Graphics/SVG/1.1/DTD/svg11.dtd">
<svg version="1.1" id="Layer_1" xmlns="http://www.w3.org/2000/svg" xmlns:xlink="http://www.w3.org/1999/xlink" x="0px" y="0px"
	 viewBox="0 90 612 612" enable-background="new 0 90 612 612" xml:space="preserve">
<path fill="#C0392B" d="M582.1,702v-59.7l29.9-29.9v59.7L582.1,702z M0,119.9L29.9,90h59.7l-29.9,29.9H0z"/>
<path fill="#E74C3C" d="M29.9,90h231.4L612,440.8v231.4L29.9,90z"/>
<text transform="matrix(0.7071 0.7071 -0.7071 0.7071 8531.2275 28325.1719)" fill="#FFFFFF" font-family="'Lato-Regular'" font-size="97.0097">POPULAR</text>
<g enable-background="new    ">
	<path fill="#FFFFFF" d="M214.4,184.4l-16.7,16.7l-11.6-11.6l50-50l17.6,17.6c3.5,3.5,6.1,7,7.8,10.3c1.7,3.4,2.6,6.6,2.8,9.7
		c0.2,3.1-0.3,6-1.6,8.8c-1.2,2.8-3,5.3-5.3,7.6c-2.5,2.5-5.2,4.4-8.1,5.7c-2.9,1.3-5.9,1.8-9,1.7c-3.1-0.2-6.4-1.1-9.7-2.8
		c-3.4-1.7-6.8-4.3-10.2-7.7L214.4,184.4z M223.2,175.6l6,6c3,3,5.9,4.5,8.7,4.4s5.4-1.5,8-4c1.1-1.1,2-2.4,2.6-3.6
		c0.6-1.3,0.9-2.6,0.9-4s-0.4-2.8-1.1-4.2c-0.7-1.4-1.8-2.9-3.2-4.3l-6-6L223.2,175.6z"/>
	<path fill="#FFFFFF" d="M304.2,257.6c-3.6,3.6-7.6,6.4-12,8.2c-4.4,1.9-8.8,2.8-13.4,2.8s-9.1-0.9-13.6-2.8s-8.7-4.8-12.6-8.7
		c-3.9-3.9-6.8-8.1-8.7-12.6s-2.8-9-2.8-13.6s1-9,2.8-13.4c1.9-4.4,4.6-8.3,8.2-12c3.6-3.6,7.6-6.4,12-8.2c4.4-1.9,8.8-2.8,13.4-2.8
		s9.1,0.9,13.6,2.8c4.5,1.9,8.7,4.8,12.6,8.7s6.8,8.1,8.6,12.6c1.9,4.5,2.8,9,2.8,13.6c0,4.5-1,9-2.8,13.4
		C310.6,250,307.8,254,304.2,257.6z M292.4,245.7c2.5-2.5,4.4-5,5.7-7.6c1.3-2.6,2.1-5.2,2.3-7.8c0.2-2.6-0.2-5.1-1.3-7.6
		c-1-2.5-2.6-4.8-4.8-7c-2.2-2.2-4.6-3.9-7.1-4.9s-5-1.4-7.6-1.3c-2.6,0.2-5.2,0.9-7.8,2.3c-2.6,1.3-5.2,3.2-7.6,5.7
		c-2.5,2.5-4.4,5-5.7,7.7c-1.3,2.6-2.1,5.2-2.3,7.8s0.3,5.1,1.3,7.6s2.7,4.8,4.9,7.1c2.2,2.2,4.6,3.8,7,4.9s5,1.4,7.5,1.3
		c2.6-0.2,5.2-0.9,7.8-2.3C287.3,250.1,289.9,248.2,292.4,245.7z"/>
	<path fill="#FFFFFF" d="M313.1,283l-16.7,16.7l-11.6-11.6l50-50l17.6,17.6c3.5,3.5,6.1,7,7.8,10.3c1.7,3.4,2.6,6.6,2.8,9.7
		c0.2,3.1-0.3,6-1.6,8.8c-1.2,2.8-3,5.3-5.3,7.6c-2.5,2.5-5.2,4.4-8.1,5.7c-2.9,1.3-5.9,1.8-9,1.7c-3.1-0.2-6.4-1.1-9.7-2.8
		c-3.4-1.7-6.8-4.3-10.2-7.7L313.1,283z M321.8,274.3l6,6c3,3,5.9,4.5,8.7,4.4c2.8-0.1,5.4-1.5,8-4c1.1-1.1,2-2.4,2.6-3.6
		c0.6-1.3,0.9-2.6,0.9-4s-0.4-2.8-1.1-4.2c-0.7-1.4-1.8-2.9-3.2-4.3l-6-6L321.8,274.3z"/>
	<path fill="#FFFFFF" d="M358.5,343.5c1.6,1.6,3.2,2.7,4.9,3.4c1.7,0.7,3.5,1,5.3,0.9s3.6-0.6,5.5-1.6c1.8-0.9,3.6-2.3,5.4-4
		l29.6-29.6l11.6,11.6l-29.6,29.6c-3.1,3.1-6.4,5.4-9.9,6.9c-3.6,1.6-7.2,2.3-10.9,2.3c-3.7,0-7.4-0.8-11.1-2.4s-7.2-4.1-10.5-7.4
		s-5.8-6.8-7.4-10.5s-2.4-7.4-2.4-11.1s0.8-7.3,2.4-10.9c1.6-3.5,3.9-6.8,7-9.9l29.6-29.6l11.6,11.6L360,322.4
		c-1.8,1.8-3.1,3.6-4,5.4s-1.5,3.7-1.6,5.5s0.2,3.6,0.9,5.3C355.8,340.3,356.9,342,358.5,343.5z"/>
	<path fill="#FFFFFF" d="M399.2,384l18.5,18.5l-9.3,9.3l-30.1-30.1l50-50l11.6,11.6L399.2,384z"/>
	<path fill="#FFFFFF" d="M460.5,463.8l-9-9c-1-1-1.6-2.1-1.8-3.2c-0.2-1.1,0-2.2,0.4-3.2l5.8-11.7l-19-19l-11.7,5.8
		c-0.9,0.4-1.9,0.5-3.1,0.4s-2.2-0.7-3.2-1.7l-9.1-9.1l69.3-30.6l11.9,11.9L460.5,463.8z M447.5,412.6l13.7,13.7l9.1-18.3
		c0.6-1.2,1.2-2.5,2-4.1s1.7-3.2,2.6-5c-1.8,1-3.4,1.9-5,2.7c-1.6,0.8-3,1.5-4.2,2L447.5,412.6z"/>
	<path fill="#FFFFFF" d="M494.6,461l-18.5,18.5l-11.6-11.6l50-50l16.3,16.3c3.6,3.6,6.3,7.1,8.1,10.4s2.9,6.4,3.1,9.3
		c0.3,2.9-0.1,5.7-1.2,8.2c-1.1,2.5-2.7,4.9-4.8,7c-1.6,1.6-3.4,2.9-5.2,3.9c-1.9,1-3.9,1.7-5.9,2.1c-2.1,0.4-4.2,0.4-6.4,0.1
		s-4.4-0.9-6.7-1.9c0.4,1.2,0.6,2.4,0.7,3.6s0,2.5-0.3,3.9l-6.8,28l-10.5-10.5c-1.9-1.9-2.6-4.1-2-6.4l6.2-22.8
		c0.3-1,0.3-1.9,0.1-2.7s-0.8-1.6-1.7-2.5L494.6,461z M502.6,453l4.7,4.7c1.6,1.6,3.1,2.7,4.6,3.4c1.5,0.7,3,1.1,4.4,1.1
		s2.8-0.3,4-0.9c1.3-0.6,2.5-1.5,3.6-2.6c2.2-2.2,3.2-4.6,3-7.3s-1.8-5.5-4.8-8.5l-4.7-4.7L502.6,453z"/>
</g>
</svg>
