<svg xmlns="http://www.w3.org/2000/svg" width="100" height="100"><path fill-rule="evenodd" clip-rule="evenodd" fill="#F1C40F" d="M78.993 26h21l.007 74h-60.135v-.004l-.355.004c-21.828 0-39.521-5.73-39.521-12.801l.004-74.199h79v13z"/><rect x="40" y="13" fill="#F39C12" width="39" height="13"/><ellipse fill="#E67E22" cx="39.5" cy="13" rx="39.5" ry="13"/><ellipse opacity=".2" cx="40.334" cy="12.812" rx="16" ry="4.5"/><path fill-rule="evenodd" clip-rule="evenodd" fill="#F39C12" d="M40.668 93c-1.105 0-2 .896-2 2 0 1.105.895 2 2 2 1.104 0 1.999-.895 1.999-2 0-1.104-.895-2-1.999-2zm0-8c-1.105 0-2 .896-2 2 0 1.105.895 2 2 2 1.104 0 1.999-.895 1.999-2 0-1.104-.895-2-1.999-2zm0-8c-1.105 0-2 .896-2 2s.895 2 2 2c1.104 0 1.999-.896 1.999-2s-.895-2-1.999-2zm0-8c-1.105 0-2 .896-2 2 0 1.105.895 2 2 2 1.104 0 1.999-.895 1.999-2 0-1.104-.895-2-1.999-2zm0-16c-1.105 0-2 .896-2 2 0 1.105.895 2 2 2 1.104 0 1.999-.895 1.999-2 0-1.104-.895-2-1.999-2zm0-8c-1.105 0-2 .896-2 2 0 1.105.895 2 2 2 1.104 0 1.999-.895 1.999-2 0-1.104-.895-2-1.999-2zm0-12c1.104 0 1.999-.895 1.999-2s-.895-2-1.999-2c-1.105 0-2 .896-2 2s.894 2 2 2zm0 4c-1.105 0-2 .896-2 2s.895 2 2 2c1.104 0 1.999-.896 1.999-2s-.895-2-1.999-2zm0 24c-1.105 0-2 .896-2 2s.895 2 2 2c1.104 0 1.999-.896 1.999-2s-.895-2-1.999-2z"/></svg>