<?xml version="1.0" encoding="UTF-8"?>
<svg width="80px" height="80px" viewBox="0 0 80 80" version="1.1" xmlns="http://www.w3.org/2000/svg" xmlns:xlink="http://www.w3.org/1999/xlink">
    <!-- Generator: Sketch 43.2 (39069) - http://www.bohemiancoding.com/sketch -->
    <title>grails</title>
    <desc>Created with Sketch.</desc>
    <defs></defs>
    <g id="Page-1" stroke="none" stroke-width="1" fill="none" fill-rule="evenodd">
        <g id="grails">
            <circle id="Oval" fill="#FFFFFF" cx="42.0769231" cy="39.0769231" r="35"></circle>
            <path d="M39.9489231,0 C17.8861538,0 0,17.8836923 0,39.9476923 C0,62.0110769 17.8867692,79.8966154 39.9489231,79.8966154 C62.0129231,79.8966154 79.8984615,62.0110769 79.8984615,39.9476923 C79.8984615,17.8836923 62.0129231,0 39.9489231,0 Z M61.128,19.2553846 C60.9101538,19.088 60.6313846,18.9464615 60.2984615,18.8307692 C59.9729231,18.7156923 59.6172308,18.5987692 59.2381538,18.4849231 C58.8658462,18.3716923 58.512,18.2178462 58.1913846,18.0258462 C57.8726154,17.8381538 57.6049231,17.5833846 57.3932308,17.2744615 C57.184,16.9667692 57.0781538,16.5544615 57.0781538,16.0467692 C57.0781538,15.5544615 57.1753846,15.1163077 57.3692308,14.7495385 C57.5649231,14.3772308 57.8270769,14.0621538 58.1507692,13.8135385 C58.4763077,13.5618462 58.856,13.3710769 59.2769231,13.2449231 C59.7033846,13.1193846 60.1495385,13.0547692 60.5987692,13.0547692 C61.1230769,13.0547692 61.6350769,13.1310769 62.1206154,13.2775385 C62.5883077,13.4215385 63.0184615,13.6590769 63.3969231,13.9858462 L62.0590769,15.4498462 C61.8898462,15.2547692 61.6658462,15.1058462 61.392,15.0110769 C61.1009231,14.9076923 60.8196923,14.8566154 60.56,14.8566154 C60.4073846,14.8566154 60.2473846,14.8726154 60.0855385,14.9095385 C59.9230769,14.9458462 59.768,15.0024615 59.6227692,15.08 C59.4750769,15.1593846 59.3513846,15.2646154 59.2596923,15.3932308 C59.1649231,15.5255385 59.1169231,15.688 59.1169231,15.8732308 C59.1169231,16.1778462 59.2276923,16.4030769 59.4572308,16.5661538 C59.6713846,16.7187692 59.9452308,16.8516923 60.2732308,16.9563077 C60.5938462,17.0627692 60.944,17.1710769 61.3126154,17.2744615 C61.6769231,17.3796923 62.0215385,17.5292308 62.3390769,17.7193846 C62.6541538,17.9089231 62.9181538,18.168 63.1224615,18.4849231 C63.3292308,18.8018462 63.4326154,19.2307692 63.4326154,19.7673846 C63.4326154,20.2756923 63.3366154,20.7273846 63.1464615,21.1083077 C62.9563077,21.488 62.6972308,21.8067692 62.3735385,22.0553846 C62.0504615,22.3027692 61.6670769,22.4941538 61.2412308,22.6135385 C60.8086154,22.7366154 60.3483077,22.7975385 59.8707692,22.7975385 C59.272,22.7975385 58.7070769,22.7064615 58.1938462,22.5236923 C57.696,22.3458462 57.2276923,22.0596923 56.7950769,21.6689231 L58.1858462,20.1403077 C58.3950769,20.4049231 58.6603077,20.6147692 58.9673846,20.7630769 C59.2953846,20.9169231 59.6406154,20.9975385 59.9901538,20.9975385 C60.1630769,20.9975385 60.3372308,20.9778462 60.512,20.9378462 C60.6873846,20.8972308 60.8461538,20.8326154 60.9889231,20.7538462 C61.1329231,20.6701538 61.2486154,20.5612308 61.3384615,20.4332308 C61.4276923,20.3009231 61.4732308,20.1415385 61.4732308,19.9655385 C61.4744615,19.6609231 61.36,19.4295385 61.128,19.2553846 Z M50.1169231,13.2935385 L52.0763077,13.2935385 L52.0763077,20.7575385 L55.9021538,20.7575385 L55.9021538,22.56 L50.1175385,22.56 L50.1175385,13.2935385 L50.1169231,13.2935385 Z M45.8529231,13.2935385 L47.8110769,13.2935385 L47.8110769,22.56 L45.8529231,22.56 L45.8529231,13.2935385 Z M38.976,13.2935385 L40.6147692,13.2935385 L44.6461538,22.56 L42.432,22.56 L41.6252308,20.5729231 L37.9113846,20.5729231 L37.1304615,22.56 L34.9704615,22.56 L38.976,13.2935385 Z M26.8307692,13.2935385 L30.4043077,13.2935385 C30.8744615,13.2935385 31.3267692,13.3390769 31.7507692,13.432 C32.1686154,13.5206154 32.5409231,13.6756923 32.856,13.8867692 C33.1698462,14.0984615 33.4221538,14.3852308 33.6073846,14.7415385 C33.7926154,15.0978462 33.8861538,15.5526154 33.8861538,16.0873846 C33.8861538,16.7335385 33.7163077,17.2910769 33.3803077,17.744 C33.0584615,18.1778462 32.5858462,18.4596923 31.9766154,18.5876923 L31.8326154,18.6184615 L34.2024615,22.56 L31.8535385,22.56 L29.8947692,18.8147692 L28.7907692,18.8147692 L28.7907692,22.56 L26.8313846,22.56 L26.8313846,13.2935385 L26.8307692,13.2935385 Z M16.5335385,15.9064615 C16.7796923,15.3076923 17.1298462,14.7913846 17.5741538,14.3704615 C18.0166154,13.9495385 18.5489231,13.6227692 19.1569231,13.3944615 C19.7661538,13.1686154 20.4418462,13.0541538 21.1643077,13.0541538 C21.9058462,13.0541538 22.5975385,13.1452308 23.2221538,13.3230769 C23.824,13.4953846 24.3630769,13.7950769 24.8233846,14.2104615 L23.4412308,15.7187692 C23.1649231,15.4436923 22.8498462,15.2313846 22.5083077,15.0843077 C22.1501538,14.9304615 21.6984615,14.8566154 21.1643077,14.8566154 C20.7181538,14.8566154 20.3083077,14.9304615 19.9464615,15.0843077 C19.5827692,15.2375385 19.2676923,15.4523077 19.008,15.7249231 C18.7476923,15.9993846 18.5470769,16.328 18.408,16.7027692 C18.2695385,17.0781538 18.2018462,17.4898462 18.2018462,17.9267692 C18.2018462,18.3716923 18.2695385,18.7852308 18.408,19.1575385 C18.5470769,19.5273846 18.7489231,19.8541538 19.008,20.128 C19.2683077,20.3993846 19.5833846,20.6153846 19.9464615,20.768 C20.3076923,20.92 20.7187692,20.9963077 21.1643077,20.9963077 C21.6184615,20.9963077 22.0141538,20.9452308 22.3452308,20.8418462 C22.6566154,20.7452308 22.9126154,20.6455385 23.1058462,20.5433846 L23.1193846,20.5353846 L23.1409231,20.5150769 L23.1618462,20.4775385 L23.1618462,18.904 L21.4818462,18.904 L21.4818462,17.1052308 L25.0424615,17.1052308 L25.0424615,21.9187692 C24.4449231,22.2258462 23.8172308,22.4504615 23.1778462,22.5864615 C22.5236923,22.728 21.8449231,22.7969231 21.1643077,22.7969231 C20.4418462,22.7969231 19.7667692,22.6830769 19.1569231,22.4566154 C18.5489231,22.232 18.016,21.9021538 17.5741538,21.4812308 C17.1316923,21.0621538 16.7796923,20.5433846 16.5335385,19.9433846 C16.2861538,19.3452308 16.16,18.6670769 16.16,17.9267692 C16.16,17.1876923 16.2861538,16.5083077 16.5335385,15.9064615 Z M29.3230769,47.7033846 C28.7243077,47.9667692 27.96,48.2658462 27.6615385,48.4246154 C27.1107692,48.7181538 26.2584615,49.3606154 25.7796923,50.0978462 C25.4252308,50.6461538 25.0953846,51.3913846 24.9883077,51.88 C24.9230769,52.1876923 24.8904615,52.6381538 24.8972308,53.1673846 C24.9101538,54.4018462 25.1230769,56.0436923 25.5470769,57.1698462 C26.0295385,58.4486154 26.2923077,58.8744615 26.8486154,60.1698462 C27.0849231,60.7181538 27.3064615,61.2406154 27.4135385,61.4953846 C27.4584615,61.5963077 27.4449231,61.712 27.3846154,61.8030769 C27.2369231,62.0289231 26.9052308,62.4547692 26.3556923,62.7501538 C25.3987692,63.2670769 23.3833846,63.4535385 22.3833846,63.4603077 L22.3790769,63.4603077 C21.3809231,63.4529231 19.3655385,63.2670769 18.4073846,62.7501538 C17.8578462,62.4547692 17.5273846,62.0289231 17.3796923,61.8030769 C17.3181538,61.712 17.3064615,61.5963077 17.3495385,61.4953846 C17.4578462,61.2406154 17.68,60.7175385 17.9156923,60.1698462 C18.472,58.8744615 18.7347692,58.4486154 19.2172308,57.1698462 C19.6412308,56.0436923 19.8541538,54.4018462 19.8664615,53.1673846 C19.8726154,52.6387692 19.8412308,52.1876923 19.7741538,51.88 C19.6670769,51.3907692 19.3378462,50.6455385 18.9833846,50.0978462 C18.5058462,49.3612308 17.6516923,48.7181538 17.1021538,48.4246154 C16.6886154,48.2049231 15.3741538,47.712 14.8572308,47.4270769 C14.1987692,47.0627692 13.3403077,46.4966154 12.7643077,46.0449231 C12.1224615,45.544 10.8621538,44.3058462 10.3692308,43.6941538 C9.42461538,42.5224615 8.55446154,41.1483077 8.13353846,39.6664615 C7.60984615,37.8289231 7.62953846,37.0424615 7.56061538,36.4492308 C7.54830769,36.3489231 7.62461538,36.2584615 7.72676923,36.2529231 C8.232,36.2363077 10.0516923,36.1944615 16.408,36.1846154 C16.5335385,36.1827692 16.6455385,36.2609231 16.6904615,36.3778462 C18.4781538,41.1138462 23.1415385,45.0307692 29.2953846,47.1618462 C29.5470769,47.2473846 29.5686154,47.5963077 29.3230769,47.7033846 Z M44.9729231,61.1815385 C45.7550769,63.2584615 46.1821538,63.9470769 47.0861538,66.0529231 C47.4683077,66.9421538 47.8289231,67.792 48.0043077,68.2018462 C48.0750769,68.3686154 48.056,68.5526154 47.9575385,68.7052308 C47.7156923,69.0732308 47.1772308,69.7618462 46.2867692,70.2424615 C44.7329231,71.0824615 41.4596923,71.3864615 39.8356923,71.3926154 L39.8295385,71.3926154 C38.2055385,71.3864615 34.9335385,71.0824615 33.3790769,70.2424615 C32.4886154,69.7618462 31.9526154,69.0732308 31.7107692,68.7052308 C31.6123077,68.5526154 31.5932308,68.3686154 31.664,68.2018462 C31.8393846,67.792 32.1975385,66.9421538 32.5796923,66.0529231 C33.4843077,63.9470769 33.9113846,63.2584615 34.6941538,61.1815385 C35.3833846,59.352 35.7298462,56.6873846 35.7507692,54.6793846 C35.7593846,53.8258462 35.7083077,53.0904615 35.6006154,52.5895385 C35.4276923,51.7975385 34.8916923,50.5907692 34.3156923,49.6990769 C33.5403077,48.4984615 32.1532308,47.4596923 31.2615385,46.984 C30.5870769,46.6246154 28.4547692,45.8252308 27.6147692,45.3612308 C26.5452308,44.7723077 25.1513846,43.8504615 24.2166154,43.1193846 C23.1747692,42.3046154 21.128,40.2966154 20.3292308,39.3009231 C18.7944615,37.3969231 17.3803077,35.1655385 16.6966154,32.7612308 C15.8486154,29.7766154 15.8812308,28.5015385 15.768,27.5372308 C15.7489231,27.3704615 15.8726154,27.2246154 16.0375385,27.2184615 C17.072,27.1809231 21.4935385,27.0849231 39.8350769,27.1033846 C58.1747692,27.0849231 62.5963077,27.1809231 63.6301538,27.2184615 C63.7969231,27.2246154 63.9212308,27.3704615 63.9003077,27.5372308 C63.7870769,28.5015385 63.8196923,29.7772308 62.9723077,32.7612308 C62.2873846,35.1655385 60.8738462,37.3969231 59.3390769,39.3009231 C58.5396923,40.296 56.4941538,42.304 55.4523077,43.1193846 C54.5163077,43.8504615 53.1218462,44.7723077 52.0523077,45.3612308 C51.2135385,45.8252308 49.08,46.6246154 48.408,46.984 C47.5150769,47.4596923 46.1292308,48.4984615 45.3513846,49.6990769 C44.7766154,50.5907692 44.2406154,51.7975385 44.0689231,52.5895385 C43.9593846,53.0904615 43.9101538,53.8264615 43.9187692,54.6793846 C43.9366154,56.6873846 44.2843077,59.352 44.9729231,61.1815385 Z M69.528,43.6935385 C69.0363077,44.3052308 67.7766154,45.5433846 67.1347692,46.0443077 C66.5575385,46.496 65.6996923,47.0621538 65.04,47.4264615 C64.5230769,47.7113846 63.2092308,48.2043077 62.7969231,48.424 C62.2461538,48.7175385 61.392,49.36 60.9132308,50.0972308 C60.56,50.6455385 60.2295385,51.3907692 60.1236923,51.8793846 C60.0553846,52.1870769 60.0264615,52.6375385 60.0301538,53.1667692 C60.0430769,54.4012308 60.2572308,56.0430769 60.6806154,57.1692308 C61.1636923,58.448 61.4258462,58.8738462 61.9821538,60.1692308 C62.2178462,60.7175385 62.4387692,61.24 62.5483077,61.4947692 C62.5913846,61.5956923 62.5796923,61.7113846 62.5181538,61.8024615 C62.3692308,62.0283077 62.04,62.4541538 61.4904615,62.7495385 C60.5310769,63.2664615 58.5181538,63.4529231 57.5181538,63.4596923 L57.5144615,63.4596923 C56.5144615,63.4523077 54.4990769,63.2664615 53.5421538,62.7495385 C52.9913846,62.4541538 52.6621538,62.0283077 52.5132308,61.8024615 C52.4516923,61.7113846 52.44,61.5956923 52.4830769,61.4947692 C52.5913846,61.24 52.8123077,60.7169231 53.0492308,60.1692308 C53.6055385,58.8738462 53.8676923,58.448 54.3495385,57.1692308 C54.7735385,56.0430769 54.9876923,54.4012308 55.0012308,53.1667692 C55.0049231,52.6381538 54.9747692,52.1870769 54.9089231,51.8793846 C54.8018462,51.3901538 54.4713846,50.6449231 54.1181538,50.0972308 C53.64,49.3606154 52.7864615,48.7175385 52.2356923,48.424 C51.9378462,48.2652308 51.1710769,47.9661538 50.5747692,47.7027692 C50.3286154,47.5956923 50.3501538,47.2473846 50.6024615,47.1606154 C56.7575385,45.0295385 61.4196923,41.1126154 63.2067692,36.3766154 C63.2523077,36.2596923 63.3655385,36.1815385 63.4892308,36.1833846 C69.8461538,36.1938462 71.6658462,36.2350769 72.1704615,36.2516923 C72.2726154,36.2578462 72.3483077,36.3476923 72.3366154,36.448 C72.2695385,37.0412308 72.2873846,37.8270769 71.7643077,39.6652308 C71.3433846,41.1476923 70.4732308,42.5218462 69.528,43.6935385 Z M31.8473846,16.072 C31.8473846,16.3415385 31.7864615,16.5513846 31.6707692,16.7009231 C31.5544615,16.8498462 31.4061538,16.9587692 31.2295385,17.0283077 C31.0590769,17.0966154 30.8627692,17.1378462 30.6523077,17.1526154 C30.4430769,17.1649231 30.2443077,17.1723077 30.0609231,17.1723077 L28.7901538,17.1723077 L28.7901538,14.9347692 L30.1926154,14.9347692 C30.3778462,14.9347692 30.5710769,14.9470769 30.7686154,14.976 C30.968,15 31.1470769,15.0553846 31.3009231,15.1298462 C31.4584615,15.2098462 31.592,15.3255385 31.6916923,15.4738462 C31.7944615,15.6227692 31.8473846,15.8270769 31.8473846,16.072 Z M39.7353846,15.8221538 L40.9643077,18.9335385 L38.5187692,18.9335385 L39.7353846,15.8221538 Z" id="Shape" fill="#FEB672" fill-rule="nonzero"></path>
        </g>
    </g>
</svg>