<?xml version="1.0" encoding="UTF-8" standalone="no"?>
<!-- Generator: Adobe Illustrator 22.0.0, SVG Export Plug-In . SVG Version: 6.00 Build 0)  -->

<svg
   xmlns:dc="http://purl.org/dc/elements/1.1/"
   xmlns:cc="http://creativecommons.org/ns#"
   xmlns:rdf="http://www.w3.org/1999/02/22-rdf-syntax-ns#"
   xmlns:svg="http://www.w3.org/2000/svg"
   xmlns="http://www.w3.org/2000/svg"
   xmlns:xlink="http://www.w3.org/1999/xlink"
   xmlns:sodipodi="http://sodipodi.sourceforge.net/DTD/sodipodi-0.dtd"
   xmlns:inkscape="http://www.inkscape.org/namespaces/inkscape"
   version="1.1"
   id="Calque_1"
   x="0px"
   y="0px"
   viewBox="0 0 792 1135.9"
   style="enable-background:new 0 0 792 1135.9;"
   xml:space="preserve"
   sodipodi:docname="logo-jhipster-woman-2.svg"
   inkscape:version="0.92.2 5c3e80d, 2017-08-06"><metadata
     id="metadata484"><rdf:RDF><cc:Work
         rdf:about=""><dc:format>image/svg+xml</dc:format><dc:type
           rdf:resource="http://purl.org/dc/dcmitype/StillImage" /></cc:Work></rdf:RDF></metadata><defs
     id="defs482" /><sodipodi:namedview
     pagecolor="#ffffff"
     bordercolor="#666666"
     borderopacity="1"
     objecttolerance="10"
     gridtolerance="10"
     guidetolerance="10"
     inkscape:pageopacity="0"
     inkscape:pageshadow="2"
     inkscape:window-width="1221"
     inkscape:window-height="846"
     id="namedview480"
     showgrid="false"
     inkscape:zoom="2.35059"
     inkscape:cx="352.05006"
     inkscape:cy="805.99424"
     inkscape:window-x="685"
     inkscape:window-y="104"
     inkscape:window-maximized="0"
     inkscape:current-layer="g477" /><style
     type="text/css"
     id="style2">
	.st0{fill:#0D0905;}
	.st1{fill:#FCA65B;}
	.st2{fill:#EB9449;}
	.st3{fill:#F29B50;}
	.st4{fill:#D31616;}
	.st5{fill:#EA1818;}
	.st6{fill:#FFFFFF;}
	.st7{fill:#333333;}
	.st8{fill:#1C140A;}
	.st9{fill:#261E14;}
	.st10{fill:#3D4251;}
	.st11{fill:#363A47;}
	.st12{fill:#474B56;}
	.st13{fill:#4189C6;}
	.st14{fill:#3373AA;}
	.st15{fill:#E1E1E1;}
	.st16{clip-path:url(#SVGID_2_);fill:#E6E6E6;}
	.st17{fill:#B2B1B1;}
	.st18{fill:#EDEDED;}
	.st19{fill:url(#SVGID_3_);}
	.st20{fill:url(#SVGID_4_);}
	.st21{fill:url(#SVGID_5_);}
	.st22{fill:url(#SVGID_6_);}
	.st23{fill:url(#SVGID_7_);}
	.st24{fill:url(#SVGID_8_);}
	.st25{fill:url(#SVGID_9_);}
	.st26{fill:url(#SVGID_10_);}
</style><g
     id="g477"><g
       id="g6"><path
         class="st0"
         d="M417.8,361.5c-2,1.3-4,35-5.5,69.5c-1.5-34.6-3.5-68.2-5.5-69.5c-4.2-2.8-142.6,4.1-142.6,4.1v134.9    c0,0,56.9,6.5,148.1,5.8c91.2,0.7,148.1-5.8,148.1-5.8V365.7C560.4,365.7,422,358.8,417.8,361.5z"
         id="path4" /></g><g
       id="g10"><path
         class="st1"
         d="M603.3,547.2c-5.5-36.5-43.2-50.6-61.7-56.1s-49.1-7.6-68.5-18.6c-19.4-11.1-16.3-66.4-16.3-66.4H415h-41.9    c0,0,3.1,55.4-16.3,66.4c-19.4,11.1-50,13.1-68.5,18.6s-49.6,19.7-55.2,56.1c-4.4,29.2-17.6,113.7-17.6,113.7h199.4h199.4    C614.4,661,607.8,576.4,603.3,547.2z"
         id="path8" /></g><g
       id="g14"><path
         class="st2"
         d="M369.6,451.1L369.6,451.1c22.5-4.2,66-18.1,87.2-33.9c0-1.7,0-3.2,0-4.5v-0.1c0-0.6,0-1.1,0-1.7    c0-0.1,0-0.2,0-0.3c0-0.4,0-0.8,0.1-1.3c0-0.1,0-0.2,0-0.3c0-0.4,0-0.7,0-1c0-0.1,0-0.2,0-0.2c0-0.3,0-0.5,0-0.8v-0.1    c0-0.2,0-0.3,0-0.5s0-0.3,0-0.3h-41.8h-41.9C373.2,406,374.6,431.3,369.6,451.1z"
         id="path12" /></g><g
       id="g18"><path
         class="st3"
         d="M534.2,267.8c0,0,17.7-75.4-2.9-117.4c-22.2-45.2-55.4-71.1-116.3-71.1s-94.1,25.8-116.3,71.1    c-20.6,41.9-2.9,117.4-2.9,117.4c-27.7-5.5-22.5,24.7-13.9,38.4c7.2,11.4,7.3,12.6,11.7,25.1c6.2,18,20.5,5.6,20.5,5.6    c8.3,23.1,14.2,28.5,47.3,59.1c28.8,26.6,38.9,26.3,53.5,26.3s24.4,0.3,53.5-26.3c33.2-30.4,39-36,47.3-59.1    c0,0,14.3,12.5,20.5-5.6c4.3-12.5,4.5-13.7,11.6-25.1C556.7,292.5,561.9,262.2,534.2,267.8z"
         id="path16" /></g><path
       id="sleeve_9_"
       class="st4"
       d="M225,519c0,0-6.4,249-25.4,299.8s71.8,9.2,71.8,9.2l17-36.3c0,0,7.9-45.5,7.8-58.4   C296.2,720.5,225,519,225,519z" /><path
       id="sleeve_8_"
       class="st4"
       d="M608.9,535.4c0,0,6.4,208.8,25.4,259.6s-81.9,25.4-81.9,25.4l-18.1-42c0,0,3.3-15.9,3.3-28.7   C537.8,736.9,608.9,535.4,608.9,535.4z" /><g
       id="g24"><path
         class="st5"
         d="M220.6,575.1c-1.5-34.3-3.9-66.7,31.7-73.2c13.4-2.4,56.6-11.1,56.6-11.1l41-15.2c0,0,3.3,64,62.7,64    s60.6-67.1,60.6-67.1l58.1,22.8c29,2.3,29.2,4.1,42.5,6.6c32.7,6,37.9,29.2,36.9,62.6c-0.5,15.3-40.9,134.5-52,225.6    c-14.3,116.5,17.6,180.3,1.5,197c-21,21.7-145.4,20.6-145.4,20.6s-136.4-3.6-153.1-23.6c-17.1-20.6,13.6-122.8-2-225    C248.1,683.2,222,607.3,220.6,575.1z"
         id="path22" /></g><path
       id="mounth_2_"
       class="st5"
       d="M387.8,353.7c-11.6-4,11,18.6,29.3,18s41.4-25.3,26.2-17.9c-5,2.4-12-14.1-21.2-8.9   c-6.6,3.7-3.4,5.4-9.4-0.2C404.6,339,396.1,356.5,387.8,353.7z" /><path
       id="eyebrows_7_"
       class="st8"
       d="M364.7,222.9c-12.5,0.7-30.6,11.6-33.8,20.8c-3.9,11.3,10.3-6.3,20.3-10.7   c8.5-7.9,24.8-4,34.5,2.2c9.6,6.1,11.6,15.2,11.6,7.2C394.7,234.6,374.8,222.9,364.7,222.9z" /><path
       id="eyebrows_6_"
       class="st8"
       d="M468.5,220.5c-12.5,0.7-30.6,11.6-33.8,20.8c-3.9,11.3,10.3-6.3,20.3-10.7   c8.5-7.9,24.8-4,34.5,2.2c9.6,6.1,11.6,15.2,11.6,7.2C498.5,232.2,478.6,220.5,468.5,220.5z" /><path
       class="st9"
       d="M398.9,159.6c0,0,5.5,16.4,6.7,25.7c1.3,9.3,2.3,20.4,2.3,20.4s2.1-7-0.3-20.9   C405.2,170.9,398.9,159.6,398.9,159.6z"
       id="path33" /><path
       class="st9"
       d="M358.3,216.3c0,0-1.5-15.4,4.6-33.1s21.1-21.5,21.1-21.5s-10.7,5.9-17.3,21.8   C360,199.3,358.3,216.3,358.3,216.3z"
       id="path35" /><path
       class="st9"
       d="M450.5,202.9c0,0-0.7-13.8-8.5-28.5s-21.5-16.1-21.5-16.1s10.2,3.8,18.2,16.8S450.5,202.9,450.5,202.9z"
       id="path37" /><path
       id="sleeve_28_"
       class="st10"
       d="M484.8,475.4c0,0,1.2,0.1,3.3,0.3c44,11.9,60.7,14.4,92,19.3c17.5-2.2,40.9,21.1,30.6,42.9   s-41.6,218.7-41.6,254.5s1.1,183.8,2.5,196.6s-91.6,32.4-104.7,18.7c-7.1-7.4,13.5-91.5,34.2-190.2c17.5-83,8.7-188.6,4.8-211.3   c-8.7-49.6-41.2-86.6-41.2-86.6" /><path
       id="sleeve"
       class="st11"
       d="M612.7,527.9c0,0,21.2,250.4,39.5,298.8c18.3,48.4-77.8,40.3-77.8,40.3l-16.8-98.2   c0,0-5.3-42.4-5.3-54.7C552.2,702,612.7,527.9,612.7,527.9z" /><g
       id="g43"><path
         class="st12"
         d="M280.9,121.7c0.1-0.4-23.1,40,0.2-1.2c13.1-31.2,178.2-53.9,260.2,0c23.8,25.1,39.9,101.5,23.6,109.1    c-5.8,2.7-25.3-25.7-55.4-46.8c-8.4-5.9-33.2-23.6-98.1-23.6s-89.7,17.7-98.1,23.6c-30.1,21.1-43.4,52.1-49.3,49.3    C248.1,224.6,255.1,165.4,280.9,121.7z"
         id="path41" /></g><path
       id="sleeve_30_"
       class="st10"
       d="M348.9,482.4c0,0-4.2-4.3-6.3-4.1c-44,11.9-57.7,18.8-89,23.7c-17.5-2.2-40.9,21.1-30.6,42.9   c10.3,21.8,41.6,218.7,41.6,254.5s-8.9,168.7-10.4,181.5s90.2,38.3,103.3,24.7c7.1-7.4,2.1-94-18.7-192.7   c-17.5-83-15.1-177-11.1-199.7c8.7-49.6,41.2-86.6,41.2-86.6" /><path
       id="sleeve_29_"
       class="st11"
       d="M221,534.9c0,0-33.4,200.8-40.4,283.7c-2.3,41.2,95.7,21.2,95.7,21.2l-2.7-54.3   c0,0,14.7-33.9,14.7-46.2C288.3,727,221,534.9,221,534.9z" /><path
       id="glasses_11_"
       class="st13"
       d="M404.3,268.8h25.1V279h-25.1V268.8z" /><g
       id="g50"><path
         class="st8"
         d="M553.6,182.8C519.4,62.5,415.8,62.5,415.8,62.5s-103.6,0-137.9,120.2c-2.9,10.1-0.3,24.3-7.1,36.8    c-49.1,89.1,9.6,380.1,13.7,380.7c1.2-7.3,2.3-20.1,2.3-20.1l2.1,19.6c5.5,0.4,12.9,0.7,18.5,0.2l0.2-27.7l4.6,26.6    c5.2-0.7,17.2-2.1,22.1-3.1l-0.5-12.7l4.8,11.9c19-4.7-9.1-359.4-9.1-359.4s17.6-0.8,27.6-2l0,0l3.9-16l3.7,15.1    c4.4-0.4,9.1-0.9,13.8-1.4l7.5-38.7l5.3,37.4c7.8-0.6,19.9-1.4,24.6-1.4h0.1l3-22.2l4.7,22.4c10.5,0.5,25.2,1.9,38.3,3.3l3-37.5    l4.9,38.3c12.4,1.4,32.3,2.5,32.3,2.5S480.4,588,495.9,591l9.9-33.3l-4.5,34.3c6.8,1.2,14.2,2.2,21.8,2.8l6-20.5l2.1,20.9    c12.5,0.4,82.3-278.9,29.6-378.8C554.5,205.3,556.3,192.2,553.6,182.8z"
         id="path48" /></g><path
       id="glasses_10_"
       class="st13"
       d="M396.9,236.7h-66.6c-4.5,0-8.2,3.7-8.2,8.2v51c0,4.5,3.7,8.2,8.2,8.2h66.6   c4.5,0,8.2-3.7,8.2-8.2v-51C405.1,240.4,401.5,236.7,396.9,236.7z M395.2,288.8c0,3.4-2.8,6.1-6.2,6.1h-50.4   c-3.4,0-6.2-2.7-6.2-6.1v-37.7c0-3.4,2.8-6.1,6.2-6.1H389c3.4,0,6.2,2.7,6.2,6.1V288.8z" /><path
       id="glasses_9_"
       class="st13"
       d="M500.9,236.7h-66.6c-4.5,0-8.2,3.7-8.2,8.2v51c0,4.5,3.7,8.2,8.2,8.2h66.6   c4.5,0,8.2-3.7,8.2-8.2v-51C509.1,240.4,505.5,236.7,500.9,236.7z M499.2,288.8c0,3.4-2.8,6.1-6.2,6.1h-50.4   c-3.4,0-6.2-2.7-6.2-6.1v-37.7c0-3.4,2.8-6.1,6.2-6.1H493c3.4,0,6.2,2.7,6.2,6.1V288.8z" /><g
       id="g56"><path
         class="st10"
         d="M289.6,113.8c0.1-0.4,0.1-0.7,0.2-1.1c5.5-20.3,14.6-35.1,26.4-46.7c0.3-0.4,0.6-0.8,1-1.2    c16-17.4,21-19.7,27.7-30.6s15.4-20.8,34.7-20.1c10.2,0.4,10.6,3.2,28.4,2.6c19.9-0.6,30-2.9,36.3,0c10.7,4.9,8.3,8,38.7,29.6    c6.3,4.5,13,9.7,18.6,16.2c19.6,19,30.5,50.2,30.5,50.2c24.7,40.7,34.4,96.6,19.3,103.6c-5.4,2.5-20.9-26.2-48.9-45.8    c-7.8-5.5-30.9-21.9-91.4-21.9c-60.4,0-83.6,16.4-91.4,21.9c-28,19.6-38.1,48.2-43.6,45.6C261.3,209.2,265.4,154.4,289.6,113.8z"
         id="path54" /></g><g
       id="g62"><g
         id="g60"><path
           class="st12"
           d="M291.2,106.5c2.2-6.8,3.5-10.2,5.4-13.8c1-0.4,11.5-5.4,12.6-5.8c34.9-14.4,83.8-15.5,98-15.5     c2.2,0,3.6,0,4.3,0c0.6,0,2.1,0,4.2,0c13.9,0,61.7,0,109.3,24.3c2,4.3,4.3,9.3,4.3,9.3c1,2.2,1.4,3.4,2.2,5.4     c-3.1-8-22.5-14.2-33.1-18.6c-31.7-13.1-61.2-12.4-82.7-13.6c-2.4-0.1-3.8,0-3.9,0h-0.3H411c-0.1,0-1.5,0-3.9,0     c-13.1,0-58.3,1-89.9,14.1c-10.7,4.4-20.5,9.9-26.6,16.1"
           id="path58" /></g></g><g
       id="g66"><path
         class="st4"
         d="M471.8,470.6c15.8,23.9,13.3,52.2-6.3,64.5c-19.6,12.3-49.1,4.1-67.6-18.1L471.8,470.6z"
         id="path64" /></g><g
       id="g70"><path
         class="st4"
         d="M349.9,475.5c-12.3,30.7-8.8,60.9,8.7,68.7c17.5,7.9,42.4-9.5,57.2-39.1L349.9,475.5z"
         id="path68" /></g><g
       id="tie_12_"><path
         id="tie_14_"
         class="st14"
         d="M427.7,529.6c0,0-88.1-49.1-95.1-17.5s-15.1,55.7,8.2,59.7    C364.1,575.8,427.7,529.6,427.7,529.6z" /><path
         id="tie_13_"
         class="st13"
         d="M412.5,522.2c24.8-13.4,73.9-36.4,79.9-13c8.2,31.5,17.1,55.3-6,60.2    c-16.2,3.5-53.2-17.3-73.8-29.9C412.3,524.2,412.7,537.3,412.5,522.2z" /></g><g
       id="g457"><path
         class="st15"
         d="M229.2,671.5l236.2,204.9c5,4.3,12.6,3.8,16.9-1.2l120-138.2c4.3-5,3.8-12.6-1.2-16.9l-236.2-205    c-5-4.3-12.6-3.8-16.9,1.2L228,654.6C223.7,659.6,224.3,667.2,229.2,671.5z"
         id="path75" /><g
         id="g87"><g
           id="g85"><defs
             id="defs78"><rect
               id="SVGID_1_"
               x="218.1"
               y="566.3"
               transform="matrix(0.9975 -7.078110e-02 7.078110e-02 0.9975 -43.287 30.0417)"
               width="368.4"
               height="119.1" /></defs><clipPath
             id="SVGID_2_"><use
               xlink:href="#SVGID_1_"
               style="overflow:visible;"
               id="use80" /></clipPath><path
             class="st16"
             d="M230.1,672.2l236.2,204.9c5,4.3,12.6,3.8,16.9-1.2l119.9-138.3c4.3-5,3.8-12.6-1.2-16.9L365.8,515.8      c-5-4.3-12.6-3.8-16.9,1.2l-120,138.3C224.6,660.3,225.2,667.9,230.1,672.2z"
             clip-path="url(#SVGID_2_)"
             id="path83" /></g></g><path
         class="st17"
         d="M462.9,875.1L230.3,673.4c-0.5-0.4-0.5-1.2-0.1-1.6l0.2-0.2c0.4-0.5,1.2-0.5,1.6-0.1l232.5,201.7    c0.5,0.4,0.5,1.2,0.1,1.6l-0.2,0.2C464.1,875.5,463.3,875.5,462.9,875.1z"
         id="path89" /><circle
         class="st18"
         cx="415.2"
         cy="695.8"
         r="22.6"
         id="circle91" /><g
         id="g455"><g
           id="g453"><linearGradient
             id="SVGID_3_"
             gradientUnits="userSpaceOnUse"
             x1="-188.9606"
             y1="1678.3533"
             x2="-59.2798"
             y2="1603.4819"
             gradientTransform="matrix(0.7554 0.6553 0.6553 -0.7554 -576.0345 2048.7961)"><stop
               offset="0"
               style="stop-color:#A8AAAA"
               id="stop93" /><stop
               offset="6.716418e-02"
               style="stop-color:#A1A3A3"
               id="stop95" /><stop
               offset="8.773019e-02"
               style="stop-color:#A8AAAA"
               id="stop97" /><stop
               offset="0.1178"
               style="stop-color:#BCBDBD"
               id="stop99" /><stop
               offset="0.1535"
               style="stop-color:#DCDCDC"
               id="stop101" /><stop
               offset="0.1766"
               style="stop-color:#F4F4F4"
               id="stop103" /><stop
               offset="0.1785"
               style="stop-color:#EFF0F0"
               id="stop105" /><stop
               offset="0.1907"
               style="stop-color:#D7D7D7"
               id="stop107" /><stop
               offset="0.2045"
               style="stop-color:#C3C4C4"
               id="stop109" /><stop
               offset="0.2203"
               style="stop-color:#B5B6B6"
               id="stop111" /><stop
               offset="0.2401"
               style="stop-color:#ADAEAE"
               id="stop113" /><stop
               offset="0.2761"
               style="stop-color:#ABACAC"
               id="stop115" /><stop
               offset="0.2957"
               style="stop-color:#9A9B9B"
               id="stop117" /><stop
               offset="0.3202"
               style="stop-color:#8F9090"
               id="stop119" /><stop
               offset="0.3546"
               style="stop-color:#888989"
               id="stop121" /><stop
               offset="0.4502"
               style="stop-color:#868787"
               id="stop123" /><stop
               offset="0.4883"
               style="stop-color:#8E8F8F"
               id="stop125" /><stop
               offset="0.5924"
               style="stop-color:#9D9F9F"
               id="stop127" /><stop
               offset="0.7107"
               style="stop-color:#A6A8A8"
               id="stop129" /><stop
               offset="0.8731"
               style="stop-color:#A9ABAB"
               id="stop131" /><stop
               offset="0.9627"
               style="stop-color:#DCDCDC"
               id="stop133" /></linearGradient><path
             class="st19"
             d="M374,673.3c0.7-0.8,1.5-1.4,2.5-2c1-0.5,2.1-0.9,3.2-1.2c1.2-0.2,2.4-0.3,3.6-0.2c1.3,0.1,2.5,0.4,3.7,0.9      c-0.1-0.8-0.2-1.6-0.3-2.4c0-0.8,0-1.6,0.1-2.3s0.2-1.4,0.4-2c0.2-0.6,0.5-1.2,0.9-1.6c0.5-0.6,1.1-1.1,1.6-1.5      c0.6-0.4,1.2-0.7,1.8-1c0.6-0.3,1.2-0.4,1.9-0.5c0.6-0.1,1.2-0.1,1.8-0.1c0.6,0.1,1.1,0.2,1.6,0.4s1,0.5,1.3,0.8      c0.5,0.4,0.9,1,1.1,1.7s0.3,1.5,0.2,2.4c-0.1,0.9-0.5,1.9-1,3c-0.6,1.1-1.4,2.3-2.5,3.6c-0.8,0.9-1.6,1.8-2.4,2.6      s-1.6,1.5-2.4,2.2c0.2,0.5,0.3,1,0.5,1.6c0.2,0.5,0.4,1,0.5,1.6c0,0.1,0.1,0.2,0.1,0.4c0.1,0.2,0.1,0.3,0.2,0.5      c0,0.2,0.1,0.3,0.1,0.4c0,0.1,0,0.2-0.1,0.3c0,0.1-0.1,0.1-0.2,0.1s-0.2,0-0.3,0c-0.1,0-0.2,0-0.3,0c-0.1,0-0.2,0-0.2-0.1      c-0.1,0-0.3-0.1-0.4-0.3c-0.3-0.3-0.6-0.7-1-1.2c-0.3-0.5-0.7-1.1-1-1.7c-1.2,0.8-2.3,1.5-3.4,2.1s-2.2,1-3.2,1.4      c-1,0.3-2,0.6-2.9,0.7c-0.9,0.1-1.8,0.1-2.5,0.1c-0.8-0.1-1.5-0.2-2.1-0.5c-0.6-0.2-1.1-0.5-1.6-0.9s-0.8-0.8-1-1.4      c-0.2-0.5-0.3-1.1-0.3-1.7c0-0.6,0.2-1.3,0.5-1.9C372.9,674.7,373.3,674,374,673.3z M375.7,675.8c-0.5,0.6-0.8,1.1-0.8,1.6      s0.1,0.9,0.5,1.2s0.9,0.5,1.7,0.6c0.8,0.1,1.7,0,2.8-0.3c1.1-0.3,2.3-0.8,3.7-1.5c1.4-0.7,2.8-1.6,4.4-2.9l-0.1-0.5      c-0.7-0.4-1.4-0.7-2.2-0.9c-0.8-0.2-1.6-0.3-2.3-0.3c-0.8,0-1.6,0.1-2.3,0.2c-0.8,0.1-1.5,0.3-2.2,0.6c-0.7,0.2-1.3,0.5-1.8,0.9      C376.4,675,376,675.4,375.7,675.8z M390.8,663.9c-0.4,0.5-0.7,1-0.9,1.6c-0.2,0.6-0.3,1.3-0.3,2.1s0,1.6,0.1,2.4      c0.1,0.9,0.3,1.8,0.5,2.7c0.8-0.7,1.6-1.5,2.4-2.3s1.7-1.7,2.5-2.7c0.6-0.7,1-1.3,1.4-1.8c0.3-0.5,0.5-1,0.6-1.4s0.1-0.8,0-1.1      s-0.2-0.5-0.5-0.7c-0.2-0.2-0.5-0.3-0.8-0.4c-0.3-0.1-0.6-0.1-1-0.1s-0.7,0-1.1,0.1s-0.8,0.2-1.1,0.4c-0.4,0.2-0.7,0.3-1.1,0.6      C391.3,663.3,391,663.6,390.8,663.9z"
             id="path136" /><linearGradient
             id="SVGID_4_"
             gradientUnits="userSpaceOnUse"
             x1="-192.1841"
             y1="1696.2814"
             x2="-26.456"
             y2="1600.5984"
             gradientTransform="matrix(0.7554 0.6553 0.6553 -0.7554 -576.0345 2048.7961)"><stop
               offset="0"
               style="stop-color:#A8AAAA"
               id="stop138" /><stop
               offset="6.716418e-02"
               style="stop-color:#A1A3A3"
               id="stop140" /><stop
               offset="8.773019e-02"
               style="stop-color:#A8AAAA"
               id="stop142" /><stop
               offset="0.1178"
               style="stop-color:#BCBDBD"
               id="stop144" /><stop
               offset="0.1535"
               style="stop-color:#DCDCDC"
               id="stop146" /><stop
               offset="0.1766"
               style="stop-color:#F4F4F4"
               id="stop148" /><stop
               offset="0.1785"
               style="stop-color:#EFF0F0"
               id="stop150" /><stop
               offset="0.1907"
               style="stop-color:#D7D7D7"
               id="stop152" /><stop
               offset="0.2045"
               style="stop-color:#C3C4C4"
               id="stop154" /><stop
               offset="0.2203"
               style="stop-color:#B5B6B6"
               id="stop156" /><stop
               offset="0.2401"
               style="stop-color:#ADAEAE"
               id="stop158" /><stop
               offset="0.2761"
               style="stop-color:#ABACAC"
               id="stop160" /><stop
               offset="0.2957"
               style="stop-color:#9A9B9B"
               id="stop162" /><stop
               offset="0.3202"
               style="stop-color:#8F9090"
               id="stop164" /><stop
               offset="0.3546"
               style="stop-color:#888989"
               id="stop166" /><stop
               offset="0.4502"
               style="stop-color:#868787"
               id="stop168" /><stop
               offset="0.4883"
               style="stop-color:#8E8F8F"
               id="stop170" /><stop
               offset="0.5924"
               style="stop-color:#9D9F9F"
               id="stop172" /><stop
               offset="0.7107"
               style="stop-color:#A6A8A8"
               id="stop174" /><stop
               offset="0.8731"
               style="stop-color:#A9ABAB"
               id="stop176" /><stop
               offset="0.9627"
               style="stop-color:#DCDCDC"
               id="stop178" /></linearGradient><path
             class="st20"
             d="M408.7,688.3c-0.8,0.5-1.5,1-2.2,1.6c-0.6,0.5-1.2,1-1.6,1.4c-0.3,0.4-0.5,0.8-0.5,1.1      c0,0.4,0.1,0.7,0.5,1c0.1,0.1,0.4,0.2,0.6,0.3c0.3,0.1,0.6,0.2,1,0.2s0.9,0.1,1.5,0.1s1.2,0,1.9-0.1c0,0,0,0.2-0.1,0.3      c0,0.1-0.1,0.4-0.2,0.7s-0.3,0.7-0.4,1.2c-0.8,0.1-1.6,0.1-2.3,0.1c-0.7,0-1.4-0.1-2-0.2s-1.2-0.3-1.6-0.5      c-0.5-0.2-0.9-0.4-1.2-0.7c-0.4-0.3-0.6-0.7-0.8-1.1c-0.2-0.4-0.3-0.8-0.3-1.3s0.1-0.9,0.3-1.4c0.2-0.5,0.5-1,0.9-1.5      c0.1-0.2,0.3-0.4,0.6-0.6c0.3-0.2,0.6-0.5,0.9-0.7c0.3-0.3,0.7-0.5,1.2-0.8c0.4-0.3,0.9-0.6,1.4-0.9c-0.8-0.6-1.6-1.1-2.4-1.7      c-0.8-0.5-1.5-1.1-2.3-1.6c-0.6,0.3-1.1,0.7-1.7,1s-1.1,0.6-1.6,0.9c-0.5,0.3-0.9,0.5-1.4,0.8c-0.4,0.2-0.8,0.4-1.1,0.6      c-0.8,0.4-1.5,0.6-1.9,0.6c-0.5,0-0.8-0.1-1-0.2c-0.1-0.1-0.3-0.3-0.3-0.4c-0.1-0.2-0.2-0.3-0.2-0.5s0-0.3,0-0.5      s0.1-0.3,0.3-0.5c0.1-0.1,0.2-0.2,0.3-0.2c1-0.7,2-1.3,3-1.9s2-1.1,2.9-1.6c-0.3-0.3-0.6-0.6-0.8-0.9c-0.2-0.3-0.4-0.6-0.6-0.9      c-0.1-0.3-0.2-0.7-0.2-1.1c0-0.4,0.1-0.8,0.2-1.2c0.1-0.1,0.1-0.2,0.2-0.3s0.1-0.2,0.2-0.3c0.2-0.3,0.4-0.3,0.6-0.1      c0.1,0.1,0.2,0.3,0.2,0.5s0,0.6,0,1c0.3,0.2,0.6,0.4,0.8,0.7c0.3,0.2,0.6,0.5,0.9,0.7l0.8,0.7c0.7-0.4,1.3-0.7,1.9-1      s1.2-0.7,1.8-1c0.4-0.2,0.7-0.5,1-0.7c0.3-0.3,0.6-0.5,0.8-0.8c0.2-0.2,0.4-0.4,0.5-0.7c0.1-0.2,0.2-0.4,0.2-0.7      c0-0.2,0-0.4-0.1-0.6c-0.1-0.2-0.2-0.4-0.4-0.6c-0.2-0.1-0.4-0.3-0.7-0.4c-0.3-0.1-0.6-0.3-1-0.4c-0.4-0.1-0.8-0.2-1.3-0.3      s-1.1-0.1-1.7-0.1c-0.2,0-0.4,0-0.6-0.1s-0.3-0.1-0.4-0.2c0,0,0-0.1,0.1-0.3s0.3-0.4,0.5-0.6c0.3-0.3,0.6-0.5,0.9-0.7      c0.4-0.1,0.8-0.2,1.2-0.3c0.4,0,0.9,0,1.3,0.1c0.5,0.1,0.9,0.2,1.4,0.3c0.4,0.2,0.8,0.3,1.2,0.5c0.4,0.2,0.7,0.4,1,0.7      c0.4,0.3,0.7,0.7,1,1.2c0.3,0.4,0.4,0.9,0.5,1.4s0,1-0.2,1.5s-0.5,1.1-1,1.6c-0.2,0.3-0.5,0.5-0.9,0.9c-0.4,0.3-0.8,0.7-1.3,1      c-0.5,0.4-1,0.7-1.6,1.1s-1.2,0.8-1.8,1.1c0.6,0.5,1.3,1,2.1,1.6c0.8,0.6,1.5,1.2,2.3,1.8c1.1-0.7,2.3-1.4,3.5-2.1      c1.2-0.7,2.5-1.4,3.7-2c0.4-0.2,0.8-0.3,1.2-0.3c0.4,0,0.7,0.1,1,0.4c0.1,0.1,0.2,0.2,0.3,0.4c0.1,0.1,0.1,0.3,0.2,0.4      c0,0.1,0,0.3,0,0.4c0,0.2-0.1,0.3-0.3,0.5c-0.1,0.1-0.3,0.3-0.4,0.4c-0.2,0.2-0.4,0.3-0.6,0.4c-0.4,0.2-0.9,0.5-1.4,0.8      s-1,0.6-1.5,0.9c-0.5,0.3-1.1,0.6-1.6,0.9c-0.5,0.3-1.1,0.6-1.6,1c0.4,0.3,0.7,0.5,1,0.8c0.3,0.2,0.5,0.4,0.6,0.5      c0.1,0,0.1,0.1,0.2,0.1s0.1,0.1,0.2,0.1c0.2,0.1,0.3,0.3,0.4,0.4c0.1,0.1,0.1,0.2,0.1,0.4s0,0.2-0.1,0.3s-0.1,0.2-0.2,0.3      s-0.2,0.2-0.3,0.2c-0.1,0-0.2,0-0.4,0c-0.1,0-0.2-0.1-0.3-0.1c-0.1-0.1-0.2-0.1-0.3-0.2c-0.2-0.1-0.3-0.2-0.4-0.3      s-0.1-0.1-0.2-0.1h-0.1c0,0,0,0-0.1,0c0,0-0.1-0.1-0.2-0.1c-0.1-0.1-0.2-0.2-0.4-0.3c-0.2-0.2-0.4-0.3-0.7-0.5      C409.1,688.6,408.9,688.4,408.7,688.3z"
             id="path181" /><linearGradient
             id="SVGID_5_"
             gradientUnits="userSpaceOnUse"
             x1="-180.3568"
             y1="1695.8671"
             x2="-42.2597"
             y2="1616.1365"
             gradientTransform="matrix(0.7554 0.6553 0.6553 -0.7554 -576.0345 2048.7961)"><stop
               offset="0"
               style="stop-color:#A8AAAA"
               id="stop183" /><stop
               offset="6.716418e-02"
               style="stop-color:#A1A3A3"
               id="stop185" /><stop
               offset="8.773019e-02"
               style="stop-color:#A8AAAA"
               id="stop187" /><stop
               offset="0.1178"
               style="stop-color:#BCBDBD"
               id="stop189" /><stop
               offset="0.1535"
               style="stop-color:#DCDCDC"
               id="stop191" /><stop
               offset="0.1766"
               style="stop-color:#F4F4F4"
               id="stop193" /><stop
               offset="0.1785"
               style="stop-color:#EFF0F0"
               id="stop195" /><stop
               offset="0.1907"
               style="stop-color:#D7D7D7"
               id="stop197" /><stop
               offset="0.2045"
               style="stop-color:#C3C4C4"
               id="stop199" /><stop
               offset="0.2203"
               style="stop-color:#B5B6B6"
               id="stop201" /><stop
               offset="0.2401"
               style="stop-color:#ADAEAE"
               id="stop203" /><stop
               offset="0.2761"
               style="stop-color:#ABACAC"
               id="stop205" /><stop
               offset="0.2957"
               style="stop-color:#9A9B9B"
               id="stop207" /><stop
               offset="0.3202"
               style="stop-color:#8F9090"
               id="stop209" /><stop
               offset="0.3546"
               style="stop-color:#888989"
               id="stop211" /><stop
               offset="0.4502"
               style="stop-color:#868787"
               id="stop213" /><stop
               offset="0.4883"
               style="stop-color:#8E8F8F"
               id="stop215" /><stop
               offset="0.5924"
               style="stop-color:#9D9F9F"
               id="stop217" /><stop
               offset="0.7107"
               style="stop-color:#A6A8A8"
               id="stop219" /><stop
               offset="0.8731"
               style="stop-color:#A9ABAB"
               id="stop221" /><stop
               offset="0.9627"
               style="stop-color:#DCDCDC"
               id="stop223" /></linearGradient><path
             class="st21"
             d="M413.7,700.7c-0.4,0-0.8,0-1.3-0.1s-1-0.1-1.5-0.3c-0.5-0.1-1-0.3-1.5-0.5s-0.9-0.4-1.2-0.7      c-0.3-0.3-0.5-0.5-0.6-0.8s-0.2-0.5-0.2-0.8s0.1-0.5,0.2-0.8s0.3-0.5,0.5-0.8c0.3-0.4,0.7-0.7,1.2-1.1c0.5-0.4,1-0.8,1.6-1.2      s1.1-0.8,1.7-1.2s1.1-0.8,1.6-1.1c0.2-0.1,0.4-0.2,0.6-0.2s0.4,0,0.6,0.1s0.4,0.2,0.6,0.3s0.4,0.2,0.5,0.3      c0.2,0.2,0.4,0.4,0.4,0.6c0,0.2-0.1,0.3-0.2,0.5c-0.1,0.1-0.3,0.3-0.6,0.5c-0.3,0.2-0.6,0.4-0.9,0.6c-0.3,0.2-0.7,0.5-1.1,0.7      c-0.4,0.3-0.8,0.5-1.2,0.8c-0.4,0.3-0.7,0.5-1.1,0.8c-0.3,0.3-0.6,0.6-0.9,0.8c-0.2,0.3-0.4,0.5-0.4,0.7c-0.1,0.2,0,0.4,0.2,0.5      c0.2,0.2,0.5,0.3,0.9,0.4c0.4,0.1,0.8,0.1,1.2,0.1c0.4,0,0.9,0,1.3,0s0.8,0,1.1,0L413.7,700.7z M417.5,688.6      c0.1-0.1,0.3-0.3,0.5-0.4c0.2-0.1,0.4-0.2,0.7-0.2c0.3,0,0.5,0,0.8,0.1s0.6,0.3,0.9,0.5c0.2,0.2,0.4,0.4,0.5,0.6      c0.1,0.2,0.2,0.4,0.3,0.6c0,0.2,0,0.4,0,0.6c-0.1,0.2-0.2,0.4-0.4,0.6c-0.2,0.2-0.4,0.4-0.6,0.5s-0.5,0.2-0.7,0.2      c-0.3,0-0.5,0-0.8-0.1s-0.6-0.3-0.9-0.5c-0.5-0.4-0.8-0.9-0.8-1.3C417,689.4,417.1,688.9,417.5,688.6z"
             id="path226" /><linearGradient
             id="SVGID_6_"
             gradientUnits="userSpaceOnUse"
             x1="-163.5929"
             y1="1682.6437"
             x2="-66.7436"
             y2="1626.7278"
             gradientTransform="matrix(0.7554 0.6553 0.6553 -0.7554 -576.0345 2048.7961)"><stop
               offset="0"
               style="stop-color:#A8AAAA"
               id="stop228" /><stop
               offset="6.716418e-02"
               style="stop-color:#A1A3A3"
               id="stop230" /><stop
               offset="8.773019e-02"
               style="stop-color:#A8AAAA"
               id="stop232" /><stop
               offset="0.1178"
               style="stop-color:#BCBDBD"
               id="stop234" /><stop
               offset="0.1535"
               style="stop-color:#DCDCDC"
               id="stop236" /><stop
               offset="0.1766"
               style="stop-color:#F4F4F4"
               id="stop238" /><stop
               offset="0.1785"
               style="stop-color:#EFF0F0"
               id="stop240" /><stop
               offset="0.1907"
               style="stop-color:#D7D7D7"
               id="stop242" /><stop
               offset="0.2045"
               style="stop-color:#C3C4C4"
               id="stop244" /><stop
               offset="0.2203"
               style="stop-color:#B5B6B6"
               id="stop246" /><stop
               offset="0.2401"
               style="stop-color:#ADAEAE"
               id="stop248" /><stop
               offset="0.2761"
               style="stop-color:#ABACAC"
               id="stop250" /><stop
               offset="0.2957"
               style="stop-color:#9A9B9B"
               id="stop252" /><stop
               offset="0.3202"
               style="stop-color:#8F9090"
               id="stop254" /><stop
               offset="0.3546"
               style="stop-color:#888989"
               id="stop256" /><stop
               offset="0.4502"
               style="stop-color:#868787"
               id="stop258" /><stop
               offset="0.4883"
               style="stop-color:#8E8F8F"
               id="stop260" /><stop
               offset="0.5924"
               style="stop-color:#9D9F9F"
               id="stop262" /><stop
               offset="0.7107"
               style="stop-color:#A6A8A8"
               id="stop264" /><stop
               offset="0.8731"
               style="stop-color:#A9ABAB"
               id="stop266" /><stop
               offset="0.9627"
               style="stop-color:#DCDCDC"
               id="stop268" /></linearGradient><path
             class="st22"
             d="M416.3,703.5c0.6,0.5,1.2,0.9,1.7,1.2c0.6,0.3,1.1,0.5,1.7,0.7c0.6,0.1,1.1,0.2,1.6,0.2s1.1,0,1.6-0.1      l-1.6,2c-0.4,0.1-0.8,0.1-1.2,0.1c-0.4,0-0.9-0.1-1.3-0.2c-0.4-0.1-0.9-0.3-1.3-0.5s-0.8-0.4-1.1-0.7l-0.1-0.1      c-0.1-0.1-0.1-0.2-0.3-0.3c-0.1-0.2-0.3-0.4-0.5-0.7s-0.6-0.7-1-1.2l-0.1,0.2c-0.9,1-1.8,1.9-2.7,2.6c-0.9,0.7-1.8,1.2-2.6,1.6      s-1.5,0.5-2.2,0.5s-1.2-0.2-1.6-0.5c-0.3-0.3-0.5-0.6-0.6-0.9c-0.1-0.3-0.1-0.7,0-1.1c0.1-0.4,0.3-0.8,0.6-1.2      c0.3-0.4,0.6-0.8,0.9-1.2c0.2-0.2,0.5-0.5,0.8-0.7s0.7-0.5,1.1-0.7s0.8-0.4,1.3-0.6c0.4-0.2,0.9-0.4,1.3-0.6      c1-0.4,2.1-0.8,3.3-1.1c0.4-0.4,0.9-0.8,1.4-1.2s0.9-0.8,1.4-1.1c0.5-0.4,1-0.7,1.5-0.9c0.5-0.3,1-0.4,1.5-0.5s1-0.1,1.5,0      s1,0.4,1.4,0.8c0.3,0.3,0.6,0.6,0.9,1c0.2,0.4,0.4,0.7,0.4,1.2c0,0.4,0,0.8-0.2,1.3c-0.2,0.4-0.4,0.9-0.9,1.4      c-0.3,0.4-0.7,0.7-1.1,1s-0.9,0.5-1.4,0.6s-1.1,0.2-1.7,0.1c-0.6,0-1.3-0.2-2-0.4L416.3,703.5z M407.6,705.3      c0,0-0.1,0.1-0.2,0.2c-0.1,0.1-0.1,0.3-0.2,0.4c0,0.1-0.1,0.3-0.1,0.4c0,0.1,0.1,0.3,0.2,0.4c0.1,0.1,0.2,0.1,0.4,0      c0.2-0.1,0.3-0.1,0.5-0.3c0.2-0.1,0.4-0.3,0.6-0.5s0.4-0.4,0.6-0.6c0.2-0.2,0.4-0.4,0.6-0.7s0.4-0.4,0.5-0.6      c0.3-0.3,0.5-0.5,0.7-0.8c0.2-0.2,0.4-0.4,0.5-0.5c0.1-0.2,0.3-0.3,0.4-0.4c-0.3,0.1-0.6,0.2-0.9,0.4s-0.6,0.3-1,0.5      c-0.3,0.2-0.6,0.4-0.9,0.6c-0.3,0.2-0.6,0.4-0.8,0.6c-0.3,0.2-0.5,0.3-0.6,0.5C407.8,705.1,407.7,705.2,407.6,705.3z M416,701.7      c0.5,0.1,1,0.2,1.4,0.2s0.8,0,1.2-0.1c0.4-0.1,0.8-0.2,1.1-0.4c0.3-0.2,0.7-0.3,1-0.6c0.1-0.1,0.3-0.2,0.4-0.4      c0.2-0.2,0.3-0.3,0.4-0.5s0.1-0.4,0.1-0.6c0-0.2-0.1-0.4-0.3-0.5c-0.2-0.2-0.4-0.3-0.7-0.3c-0.3,0-0.5,0-0.8,0.1      s-0.6,0.3-0.9,0.5s-0.6,0.4-1,0.7c-0.3,0.3-0.6,0.6-1,0.9C416.6,701,416.2,701.4,416,701.7z"
             id="path271" /><linearGradient
             id="SVGID_7_"
             gradientUnits="userSpaceOnUse"
             x1="-173.0439"
             y1="1698.9542"
             x2="-37.0958"
             y2="1620.4646"
             gradientTransform="matrix(0.7554 0.6553 0.6553 -0.7554 -576.0345 2048.7961)"><stop
               offset="0"
               style="stop-color:#A8AAAA"
               id="stop273" /><stop
               offset="6.716418e-02"
               style="stop-color:#A1A3A3"
               id="stop275" /><stop
               offset="8.773019e-02"
               style="stop-color:#A8AAAA"
               id="stop277" /><stop
               offset="0.1178"
               style="stop-color:#BCBDBD"
               id="stop279" /><stop
               offset="0.1535"
               style="stop-color:#DCDCDC"
               id="stop281" /><stop
               offset="0.1766"
               style="stop-color:#F4F4F4"
               id="stop283" /><stop
               offset="0.1785"
               style="stop-color:#EFF0F0"
               id="stop285" /><stop
               offset="0.1907"
               style="stop-color:#D7D7D7"
               id="stop287" /><stop
               offset="0.2045"
               style="stop-color:#C3C4C4"
               id="stop289" /><stop
               offset="0.2203"
               style="stop-color:#B5B6B6"
               id="stop291" /><stop
               offset="0.2401"
               style="stop-color:#ADAEAE"
               id="stop293" /><stop
               offset="0.2761"
               style="stop-color:#ABACAC"
               id="stop295" /><stop
               offset="0.2957"
               style="stop-color:#9A9B9B"
               id="stop297" /><stop
               offset="0.3202"
               style="stop-color:#8F9090"
               id="stop299" /><stop
               offset="0.3546"
               style="stop-color:#888989"
               id="stop301" /><stop
               offset="0.4502"
               style="stop-color:#868787"
               id="stop303" /><stop
               offset="0.4883"
               style="stop-color:#8E8F8F"
               id="stop305" /><stop
               offset="0.5924"
               style="stop-color:#9D9F9F"
               id="stop307" /><stop
               offset="0.7107"
               style="stop-color:#A6A8A8"
               id="stop309" /><stop
               offset="0.8731"
               style="stop-color:#A9ABAB"
               id="stop311" /><stop
               offset="0.9627"
               style="stop-color:#DCDCDC"
               id="stop313" /></linearGradient><path
             class="st23"
             d="M421.4,704.8c0.6,0,1,0,1.4,0s0.7,0,0.9-0.1c0.3,0,0.5-0.1,0.8-0.1c0.3-0.1,0.5-0.1,0.9-0.2      c0.3-0.1,0.8-0.2,1.3-0.3s1.1-0.2,1.9-0.4c0.2,0,0.3-0.1,0.5-0.1s0.4,0,0.5,0c0.2,0,0.4,0.1,0.5,0.1c0.2,0.1,0.3,0.2,0.5,0.3      c0.3,0.2,0.5,0.5,0.6,0.6c0.1,0.2,0.1,0.4,0.1,0.5s0,0.3-0.1,0.4s-0.1,0.2-0.2,0.3s-0.3,0.2-0.6,0.3c-0.3,0.1-0.5,0.1-0.8,0.2      c-0.3,0-0.5,0.1-0.7,0.1s-0.4,0.1-0.5,0.1c-0.2,0.2-0.3,0.3-0.4,0.5s-0.2,0.3-0.3,0.5s-0.2,0.4-0.3,0.6      c-0.1,0.2-0.2,0.4-0.3,0.7c-0.1,0.2-0.3,0.5-0.5,0.8s-0.5,0.6-0.8,1c0.3,0,0.7,0.1,1,0.2c0.3,0.1,0.7,0.2,1,0.3      c0.4,0.1,0.7,0.2,1.1,0.3s0.8,0.2,1.3,0.2l-1.7,1.9c-0.6,0-1.2-0.1-1.9-0.3c-0.7-0.2-1.3-0.4-2-0.6c-0.7-0.3-1.3-0.6-1.9-0.9      c-0.6-0.3-1.2-0.7-1.6-1.1c-0.3-0.3-0.6-0.6-0.9-0.9c-0.2-0.3-0.4-0.6-0.5-1c-0.1-0.3-0.1-0.7-0.1-1c0.1-0.3,0.2-0.7,0.4-1      c-0.1-0.1-0.2-0.1-0.3-0.2c-0.1-0.1-0.2-0.1-0.2-0.2c-0.1-0.1-0.2-0.2-0.2-0.2c-0.1-0.1-0.1-0.2-0.1-0.2c0-0.1,0-0.2,0-0.3      s0.1-0.2,0.3-0.4c0.1-0.1,0.3-0.2,0.4-0.3c0.2-0.1,0.3-0.1,0.5-0.1s0.3,0,0.5,0C421.2,704.8,421.3,704.8,421.4,704.8z       M421.5,706.9c0.1,0.1,0.1,0.2,0.1,0.3c0,0.2,0,0.3,0,0.5s0.1,0.4,0.1,0.6c0.1,0.2,0.2,0.4,0.4,0.6c0.2,0.2,0.4,0.3,0.6,0.4      c0.2,0.1,0.4,0.1,0.6,0c0.2,0,0.4-0.1,0.6-0.3c0.2-0.1,0.3-0.3,0.5-0.5c0.1-0.2,0.3-0.3,0.4-0.5s0.2-0.4,0.3-0.5      c0.1-0.2,0.2-0.3,0.3-0.5c0.1-0.2,0.1-0.3,0.2-0.4L421.5,706.9z"
             id="path316" /><linearGradient
             id="SVGID_8_"
             gradientUnits="userSpaceOnUse"
             x1="-192.1338"
             y1="1720.593"
             x2="-12.7169"
             y2="1617.0066"
             gradientTransform="matrix(0.7554 0.6553 0.6553 -0.7554 -576.0345 2048.7961)"><stop
               offset="0"
               style="stop-color:#A8AAAA"
               id="stop318" /><stop
               offset="6.716418e-02"
               style="stop-color:#A1A3A3"
               id="stop320" /><stop
               offset="8.773019e-02"
               style="stop-color:#A8AAAA"
               id="stop322" /><stop
               offset="0.1178"
               style="stop-color:#BCBDBD"
               id="stop324" /><stop
               offset="0.1535"
               style="stop-color:#DCDCDC"
               id="stop326" /><stop
               offset="0.1766"
               style="stop-color:#F4F4F4"
               id="stop328" /><stop
               offset="0.1785"
               style="stop-color:#EFF0F0"
               id="stop330" /><stop
               offset="0.1907"
               style="stop-color:#D7D7D7"
               id="stop332" /><stop
               offset="0.2045"
               style="stop-color:#C3C4C4"
               id="stop334" /><stop
               offset="0.2203"
               style="stop-color:#B5B6B6"
               id="stop336" /><stop
               offset="0.2401"
               style="stop-color:#ADAEAE"
               id="stop338" /><stop
               offset="0.2761"
               style="stop-color:#ABACAC"
               id="stop340" /><stop
               offset="0.2957"
               style="stop-color:#9A9B9B"
               id="stop342" /><stop
               offset="0.3202"
               style="stop-color:#8F9090"
               id="stop344" /><stop
               offset="0.3546"
               style="stop-color:#888989"
               id="stop346" /><stop
               offset="0.4502"
               style="stop-color:#868787"
               id="stop348" /><stop
               offset="0.4883"
               style="stop-color:#8E8F8F"
               id="stop350" /><stop
               offset="0.5924"
               style="stop-color:#9D9F9F"
               id="stop352" /><stop
               offset="0.7107"
               style="stop-color:#A6A8A8"
               id="stop354" /><stop
               offset="0.8731"
               style="stop-color:#A9ABAB"
               id="stop356" /><stop
               offset="0.9627"
               style="stop-color:#DCDCDC"
               id="stop358" /></linearGradient><path
             class="st24"
             d="M435,719c-0.8-0.2-1.6-0.3-2.2-0.4c-0.6-0.1-1.2-0.3-1.7-0.4c-0.5-0.1-0.9-0.3-1.2-0.4      c-0.3-0.1-0.6-0.3-0.8-0.5c-0.4-0.4-0.7-0.8-0.8-1.4c-0.1-0.6-0.1-1.2,0.2-1.9c0.2-0.7,0.6-1.4,1.1-2.2s1.1-1.6,1.9-2.5      c0.3-0.3,0.6-0.7,1-1.1c0.4-0.4,0.7-0.7,1.1-1.1c-0.2-0.2-0.3-0.3-0.3-0.4c-0.1-0.1-0.2-0.2-0.2-0.3c-0.1-0.1-0.2-0.2-0.3-0.4      s-0.4-0.4-0.6-0.7c-0.1-0.1-0.2-0.3-0.2-0.4c0-0.1,0-0.2,0-0.3s0.1-0.2,0.1-0.3c0.1-0.1,0.1-0.1,0.2-0.2      c0.1-0.1,0.2-0.2,0.4-0.1c0.2,0,0.3,0.1,0.5,0.2c0.2,0.1,0.4,0.3,0.6,0.5s0.4,0.4,0.6,0.5c0.2,0.2,0.4,0.3,0.5,0.5      c0.1,0.1,0.3,0.2,0.3,0.3c0.8-0.6,1.7-1.2,2.5-1.7c0.9-0.5,1.7-0.9,2.5-1.2s1.5-0.5,2.1-0.5s1.2,0.1,1.5,0.4      c0.2,0.2,0.4,0.5,0.5,0.8s0.1,0.6,0,1s-0.2,0.7-0.4,1.1c-0.2,0.4-0.4,0.7-0.7,1.1c-0.2,0.3-0.5,0.5-0.9,0.8s-0.7,0.5-1.2,0.7      c-0.4,0.2-0.9,0.4-1.3,0.6c-0.5,0.2-1,0.3-1.4,0.5c0,0.1,0.1,0.1,0.2,0.2c0.1,0.1,0.3,0.2,0.4,0.4c0.2,0.1,0.3,0.3,0.5,0.5      s0.3,0.3,0.5,0.5s0.3,0.3,0.5,0.4c0.1,0.1,0.3,0.2,0.4,0.3s0.1,0.2,0.1,0.4s-0.1,0.3-0.3,0.5c-0.2,0.2-0.4,0.3-0.6,0.3      s-0.4,0-0.5-0.1l-3.3-2.9c-0.4,0.1-0.7,0.2-1.1,0.2c-0.4,0.1-0.7,0.1-1,0.2c-0.3,0.3-0.7,0.7-1,1c-0.1,0.1-0.3,0.3-0.4,0.4      c-0.1,0.2-0.3,0.3-0.4,0.5c-0.1,0.1-0.3,0.3-0.4,0.4c-0.1,0.1-0.2,0.3-0.3,0.4c-0.3,0.3-0.5,0.6-0.6,0.9      c-0.1,0.3-0.2,0.5-0.2,0.7s0,0.4,0.1,0.6c0.1,0.2,0.3,0.4,0.4,0.5s0.3,0.2,0.5,0.3s0.5,0.2,0.8,0.3s0.6,0.2,1,0.2      c0.4,0.1,0.7,0.1,1.1,0.2c0.4,0,0.7,0.1,1.1,0.1s0.7,0,1.1-0.1L435,719z M441.7,705.8c0.1-0.1,0.1-0.1,0.2-0.2      c0.1-0.1,0.1-0.2,0.1-0.3s0-0.2,0-0.3s-0.1-0.2-0.2-0.3s-0.4-0.1-0.8,0s-0.8,0.3-1.3,0.6s-1,0.6-1.6,1c-0.5,0.4-1.1,0.8-1.6,1.1      c0.1,0.1,0.2,0.2,0.2,0.3c0.1,0.1,0.2,0.2,0.2,0.3c0.4-0.1,0.9-0.3,1.4-0.5s0.9-0.4,1.4-0.6c0.4-0.2,0.8-0.4,1.2-0.6      C441.3,706.2,441.5,706,441.7,705.8z"
             id="path361" /><linearGradient
             id="SVGID_9_"
             gradientUnits="userSpaceOnUse"
             x1="-182.9737"
             y1="1715.4465"
             x2="-16.82"
             y2="1619.5176"
             gradientTransform="matrix(0.7554 0.6553 0.6553 -0.7554 -576.0345 2048.7961)"><stop
               offset="0"
               style="stop-color:#A8AAAA"
               id="stop363" /><stop
               offset="6.716418e-02"
               style="stop-color:#A1A3A3"
               id="stop365" /><stop
               offset="8.773019e-02"
               style="stop-color:#A8AAAA"
               id="stop367" /><stop
               offset="0.1178"
               style="stop-color:#BCBDBD"
               id="stop369" /><stop
               offset="0.1535"
               style="stop-color:#DCDCDC"
               id="stop371" /><stop
               offset="0.1766"
               style="stop-color:#F4F4F4"
               id="stop373" /><stop
               offset="0.1785"
               style="stop-color:#EFF0F0"
               id="stop375" /><stop
               offset="0.1907"
               style="stop-color:#D7D7D7"
               id="stop377" /><stop
               offset="0.2045"
               style="stop-color:#C3C4C4"
               id="stop379" /><stop
               offset="0.2203"
               style="stop-color:#B5B6B6"
               id="stop381" /><stop
               offset="0.2401"
               style="stop-color:#ADAEAE"
               id="stop383" /><stop
               offset="0.2761"
               style="stop-color:#ABACAC"
               id="stop385" /><stop
               offset="0.2957"
               style="stop-color:#9A9B9B"
               id="stop387" /><stop
               offset="0.3202"
               style="stop-color:#8F9090"
               id="stop389" /><stop
               offset="0.3546"
               style="stop-color:#888989"
               id="stop391" /><stop
               offset="0.4502"
               style="stop-color:#868787"
               id="stop393" /><stop
               offset="0.4883"
               style="stop-color:#8E8F8F"
               id="stop395" /><stop
               offset="0.5924"
               style="stop-color:#9D9F9F"
               id="stop397" /><stop
               offset="0.7107"
               style="stop-color:#A6A8A8"
               id="stop399" /><stop
               offset="0.8731"
               style="stop-color:#A9ABAB"
               id="stop401" /><stop
               offset="0.9627"
               style="stop-color:#DCDCDC"
               id="stop403" /></linearGradient><path
             class="st25"
             d="M436,723.3c-0.5-0.5-0.9-1-1.2-1.5c-0.2-0.5-0.3-1.1-0.3-1.7c0-0.6,0.1-1.1,0.4-1.7c0.2-0.5,0.6-1.1,1-1.5      c0.3-0.3,0.6-0.6,1-0.9c0.4-0.3,0.8-0.6,1.2-0.8c0.4-0.2,0.9-0.4,1.3-0.6c0.5-0.1,0.9-0.2,1.4-0.2s0.9,0.1,1.4,0.2      c0.4,0.1,0.9,0.4,1.3,0.7c0.3,0.3,0.6,0.6,0.8,0.9c0.2,0.3,0.3,0.7,0.3,1.1c0,0.4,0,0.7-0.1,1.1c-0.1,0.4-0.3,0.7-0.6,1      c-0.3,0.4-0.7,0.6-1.2,0.8s-1,0.3-1.6,0.4c-0.6,0-1.2,0-1.8-0.1c-0.6-0.1-1.3-0.3-1.9-0.6c0,0.2-0.1,0.4-0.1,0.6      c0,0.2,0,0.3,0,0.5c0,0.1,0.1,0.2,0.2,0.4c0.1,0.1,0.2,0.2,0.3,0.3c0.3,0.3,0.8,0.5,1.3,0.7s1,0.3,1.6,0.4      c0.5,0.1,1.1,0.2,1.6,0.2s1,0,1.4,0l0.1,2.1c-1,0.1-1.9,0.1-2.8,0c-0.4,0-0.8-0.1-1.2-0.2c-0.4-0.1-0.9-0.2-1.3-0.3      s-0.8-0.3-1.2-0.5C436.7,723.8,436.3,723.5,436,723.3z M438.3,718.2c0.2,0.2,0.5,0.3,0.8,0.4c0.3,0.1,0.7,0.2,1,0.2      c0.4,0,0.7,0,1-0.1s0.5-0.2,0.7-0.4c0.2-0.3,0.4-0.5,0.4-0.8s0-0.4-0.1-0.5c-0.2-0.2-0.5-0.3-0.7-0.4c-0.3-0.1-0.5-0.1-0.7,0      c-0.2,0-0.5,0.1-0.7,0.3c-0.2,0.1-0.4,0.3-0.7,0.4c-0.2,0.2-0.4,0.3-0.5,0.5C438.6,718,438.4,718.1,438.3,718.2z"
             id="path406" /><linearGradient
             id="SVGID_10_"
             gradientUnits="userSpaceOnUse"
             x1="-165.1052"
             y1="1710.3193"
             x2="-31.8849"
             y2="1633.4045"
             gradientTransform="matrix(0.7554 0.6553 0.6553 -0.7554 -576.0345 2048.7961)"><stop
               offset="0"
               style="stop-color:#A8AAAA"
               id="stop408" /><stop
               offset="6.716418e-02"
               style="stop-color:#A1A3A3"
               id="stop410" /><stop
               offset="8.773019e-02"
               style="stop-color:#A8AAAA"
               id="stop412" /><stop
               offset="0.1178"
               style="stop-color:#BCBDBD"
               id="stop414" /><stop
               offset="0.1535"
               style="stop-color:#DCDCDC"
               id="stop416" /><stop
               offset="0.1766"
               style="stop-color:#F4F4F4"
               id="stop418" /><stop
               offset="0.1785"
               style="stop-color:#EFF0F0"
               id="stop420" /><stop
               offset="0.1907"
               style="stop-color:#D7D7D7"
               id="stop422" /><stop
               offset="0.2045"
               style="stop-color:#C3C4C4"
               id="stop424" /><stop
               offset="0.2203"
               style="stop-color:#B5B6B6"
               id="stop426" /><stop
               offset="0.2401"
               style="stop-color:#ADAEAE"
               id="stop428" /><stop
               offset="0.2761"
               style="stop-color:#ABACAC"
               id="stop430" /><stop
               offset="0.2957"
               style="stop-color:#9A9B9B"
               id="stop432" /><stop
               offset="0.3202"
               style="stop-color:#8F9090"
               id="stop434" /><stop
               offset="0.3546"
               style="stop-color:#888989"
               id="stop436" /><stop
               offset="0.4502"
               style="stop-color:#868787"
               id="stop438" /><stop
               offset="0.4883"
               style="stop-color:#8E8F8F"
               id="stop440" /><stop
               offset="0.5924"
               style="stop-color:#9D9F9F"
               id="stop442" /><stop
               offset="0.7107"
               style="stop-color:#A6A8A8"
               id="stop444" /><stop
               offset="0.8731"
               style="stop-color:#A9ABAB"
               id="stop446" /><stop
               offset="0.9627"
               style="stop-color:#DCDCDC"
               id="stop448" /></linearGradient><path
             class="st26"
             d="M441.4,724.8c0.2-0.3,0.5-0.5,0.8-0.8s0.7-0.6,1-1s0.8-0.7,1.2-1c0.4-0.3,0.8-0.6,1.2-0.9      c0.4-0.3,0.7-0.5,1.1-0.8c0.3-0.2,0.6-0.4,0.8-0.5c0.2-0.1,0.3-0.1,0.4-0.2c0.1,0,0.2,0,0.3,0c0.1,0,0.2,0,0.3,0.1      c0.1,0.1,0.2,0.2,0.3,0.3c0.1,0.1,0.3,0.2,0.3,0.3c0.1,0.1,0.1,0.2,0.1,0.3s-0.1,0.2-0.1,0.3c-0.1,0.1-0.2,0.3-0.4,0.4      c-0.2,0.2-0.4,0.5-0.7,0.8c-0.3,0.3-0.5,0.6-0.8,0.9l0.1,0.1c0.3-0.1,0.7-0.3,1.1-0.4c0.4-0.2,0.8-0.3,1.2-0.4      c0.4-0.1,0.8-0.1,1.2-0.1c0.4,0,0.7,0.2,1.1,0.5c0.1,0.1,0.2,0.2,0.3,0.3c0.1,0.1,0.1,0.3,0.1,0.4c0,0.1,0,0.3,0,0.4      c0,0.1-0.1,0.3-0.2,0.4c-0.1,0.1-0.2,0.2-0.4,0.4c-0.2,0.1-0.4,0.3-0.6,0.5s-0.4,0.3-0.6,0.5s-0.3,0.3-0.4,0.4      c-0.2,0.2-0.3,0.4-0.4,0.6c-0.1,0.2-0.1,0.3-0.1,0.5c0,0.1,0,0.3,0.1,0.4c0.1,0.1,0.1,0.2,0.2,0.3c0.3,0.2,0.6,0.4,0.9,0.5      c0.4,0.1,0.7,0.2,1.1,0.3s0.8,0.1,1.3,0.1l-1.9,1.9c-0.2,0-0.5-0.1-0.8-0.1s-0.6-0.1-0.9-0.2c-0.3-0.1-0.6-0.2-0.9-0.3      s-0.6-0.3-0.8-0.5c-0.4-0.4-0.7-0.8-0.8-1.2s-0.1-0.8,0-1.2s0.3-0.8,0.5-1.2s0.5-0.8,0.7-1.2l-0.1-0.1l-5.2,2.9      c-0.3,0.2-0.5,0.3-0.7,0.4c-0.2,0.1-0.4,0.1-0.5,0.2c-0.2,0-0.3,0-0.4,0s-0.2-0.1-0.3-0.2c-0.2-0.2-0.4-0.4-0.4-0.6      c-0.1-0.2,0-0.5,0-0.7c0.1-0.2,0.2-0.5,0.3-0.7C441,725.3,441.2,725,441.4,724.8z"
             id="path451" /></g></g></g><path
       id="sleeve_16_"
       class="st2"
       d="M638.7,781c0,0-176.3-27.6-228.3-54.7c-66.8-6.7-22.1,54.2-22.1,54.2l149,51.6   c0,0,67.8,33.9,81.5,35.1C632.5,868.5,638.7,781,638.7,781z" /><path
       id="hand_6_"
       class="st1"
       d="M400.5,780.8c0,0-61.6,12.8-74.9,5.1s-35.9-20.1-35.3-35.1c0.7-15,21.6-58.5,40.6-58.3   s86,39.7,86,39.7L400.5,780.8z" /><path
       id="handle_3_"
       class="st4"
       d="M620.4,877.8c0,0,21.8-31.8,25.7-44c4-12.2,3.3-50.8,3.3-50.8l-66.8-15.2   c0,0-24.6,38.4-27.1,49.6c-2.6,11.2,0.6,43.4,0.6,43.4L620.4,877.8z" /><path
       id="sleeve_12_"
       class="st2"
       d="M274.6,739.1c0,0,181.5-16.3,234.3-41.9c66.9-4.8,20.6,54.8,20.6,54.8L379,799.4   c0,0-85.4,26.6-99.1,27.5C266.3,827.7,274.6,739.1,274.6,739.1z" /><path
       id="hand_7_"
       class="st1"
       d="M493.1,758.6c0,0,61.4,17.7,74.6,10.4s35.6-18.9,34.8-34.8c-0.7-15.8-21.9-63.2-40.7-64.3   c-18.8-1-84.7,38.3-84.7,38.3L493.1,758.6z" /><path
       id="handle_1_"
       class="st4"
       d="M246.1,746.8c0,0-1.7,38.5,1.4,51c3.1,12.5,24,44.9,24,44.9l64.8-22.3c0,0,0.6-45.5-3.1-56.4   s-23.4-36.6-23.4-36.6L246.1,746.8z" /><g
       id="g475"><g
         id="g473"><path
           class="st7"
           d="M503.4,780.3c-0.7-0.5-1.2-0.9-1.6-1.3c-0.4-0.4-0.7-0.7-0.9-1c-0.2-0.3-0.3-0.6-0.4-0.9c0-0.3,0-0.6,0.1-1     c0.1-0.3,0.3-0.6,0.5-0.7c0.2-0.2,0.5-0.3,0.7-0.3c0.3-0.1,0.6-0.1,0.9-0.1s0.7,0,1.1-0.1c0,0,0.1,0,0.4,0c0.2,0,0.5-0.1,0.9-0.1     s0.8-0.1,1.2-0.1c0.5,0,0.9-0.1,1.4-0.1c0.4,0,0.9-0.1,1.2-0.1c0.4,0,0.7,0,0.9,0c0.1,0,0.3,0,0.4,0.1c0.2,0,0.3,0.1,0.4,0.2     c0.1,0.1,0.1,0.2,0.2,0.3c0,0.1,0.1,0.3,0.1,0.4c0,0.1,0,0.3,0,0.4c0,0.1,0,0.2,0,0.3s0,0.1,0,0.1c-0.1,0.2-0.2,0.4-0.3,0.5     c-0.2,0.1-0.3,0.1-0.6,0.1l-7.6,0.1l5,3.8c0.1,0.1,0.2,0.2,0.3,0.3c0.1,0.1,0.2,0.3,0.3,0.4c0.1,0.2,0.1,0.3,0.2,0.5     c0,0.2,0,0.4,0,0.6c-0.1,0.2-0.2,0.3-0.4,0.4c-0.2,0.1-0.4,0.1-0.7,0c-0.2-0.1-0.5-0.2-0.8-0.4s-0.6-0.4-0.8-0.6     c-0.3-0.2-0.6-0.5-0.9-0.7C504,780.8,503.7,780.5,503.4,780.3z"
           id="path465" /><path
           class="st7"
           d="M509.6,787.2c0.2-0.8,0.6-1.5,1.2-2.2c0.5-0.7,1.2-1.4,2-1.9c0.8-0.6,1.6-1,2.6-1.3c0.9-0.3,1.9-0.5,3-0.5     c-0.4-0.5-0.7-1.1-1-1.7c-0.3-0.6-0.5-1.1-0.7-1.7c-0.2-0.6-0.3-1.1-0.3-1.6s0-1,0.1-1.5c0.2-0.6,0.4-1.1,0.7-1.6s0.6-0.9,1-1.3     c0.4-0.4,0.8-0.7,1.2-1s0.9-0.5,1.3-0.6c0.4-0.1,0.9-0.2,1.3-0.3c0.4,0,0.8,0,1.2,0.1c0.5,0.2,1,0.4,1.4,0.9     c0.4,0.4,0.7,1,0.9,1.7s0.3,1.5,0.2,2.5s-0.3,2.1-0.7,3.4c-0.3,0.9-0.6,1.8-0.9,2.6c-0.3,0.8-0.7,1.6-1,2.3     c0.3,0.3,0.6,0.6,0.9,1c0.3,0.3,0.6,0.6,0.9,1c0.1,0.1,0.1,0.2,0.2,0.2c0.1,0.1,0.2,0.2,0.3,0.3s0.2,0.2,0.2,0.3     c0.1,0.1,0.1,0.2,0.1,0.2c0,0.1-0.1,0.1-0.1,0.1c-0.1,0-0.1,0.1-0.2,0.1c-0.1,0-0.2,0.1-0.2,0.1c-0.1,0-0.1,0-0.2,0     c-0.1,0-0.2,0-0.4,0c-0.3-0.1-0.7-0.3-1.1-0.5c-0.4-0.3-0.8-0.6-1.3-0.9c-0.6,1-1.2,1.9-1.8,2.6c-0.6,0.8-1.3,1.5-1.9,2     c-0.6,0.6-1.3,1.1-1.9,1.4c-0.6,0.4-1.2,0.7-1.8,0.9s-1.1,0.3-1.7,0.3c-0.5,0-1,0-1.4-0.2c-0.5-0.1-0.8-0.4-1.2-0.7     c-0.3-0.3-0.6-0.7-0.8-1.1c-0.2-0.5-0.3-1-0.3-1.6C509.3,788.6,509.4,787.9,509.6,787.2z M511.7,788.4c-0.2,0.6-0.2,1.1-0.1,1.4     c0.1,0.4,0.4,0.6,0.8,0.7c0.4,0.1,0.9,0.1,1.4-0.1c0.6-0.2,1.2-0.6,1.9-1.1c0.7-0.6,1.4-1.3,2.2-2.2s1.5-2.1,2.3-3.5l-0.3-0.3     c-0.6-0.1-1.2,0-1.9,0.1c-0.6,0.1-1.2,0.3-1.8,0.6s-1.1,0.6-1.6,0.9c-0.5,0.4-1,0.7-1.4,1.1c-0.4,0.4-0.8,0.8-1,1.2     C512,787.7,511.8,788.1,511.7,788.4z M518.8,774.9c-0.1,0.5-0.2,0.9-0.1,1.5c0.1,0.5,0.2,1.1,0.4,1.6c0.2,0.6,0.5,1.1,0.9,1.7     c0.4,0.6,0.8,1.2,1.3,1.8c0.3-0.8,0.7-1.6,1-2.5s0.6-1.8,0.9-2.8c0.2-0.7,0.3-1.3,0.4-1.8c0.1-0.5,0.1-0.9,0-1.3     c-0.1-0.3-0.2-0.6-0.3-0.8c-0.2-0.2-0.3-0.3-0.6-0.4c-0.2-0.1-0.4-0.1-0.7,0c-0.3,0-0.5,0.1-0.8,0.2c-0.3,0.1-0.5,0.3-0.8,0.5     s-0.5,0.4-0.7,0.6c-0.2,0.2-0.4,0.5-0.6,0.7C519,774.3,518.9,774.6,518.8,774.9z"
           id="path467" /><path
           class="st7"
           d="M539.7,786.8c-0.4,0.6-0.8,1.3-1.1,1.8c-0.3,0.6-0.5,1.1-0.7,1.5c-0.1,0.4-0.1,0.7,0,1s0.3,0.5,0.7,0.6     c0.1,0,0.3,0.1,0.6,0c0.2,0,0.5-0.1,0.8-0.2c0.3-0.1,0.7-0.2,1.1-0.4c0.4-0.2,0.9-0.4,1.4-0.7c0,0,0,0.1,0,0.3c0,0.1,0,0.3,0,0.6     c0,0.2,0,0.6,0.1,1c-0.6,0.3-1.1,0.6-1.7,0.8c-0.5,0.2-1.1,0.4-1.5,0.5c-0.5,0.1-0.9,0.2-1.3,0.2c-0.4,0-0.8,0-1.1-0.1     c-0.4-0.1-0.7-0.3-0.9-0.5c-0.3-0.2-0.5-0.5-0.6-0.8s-0.2-0.7-0.3-1.1c0-0.4,0-0.9,0.2-1.4c0.1-0.2,0.1-0.4,0.2-0.6     c0.1-0.2,0.2-0.5,0.4-0.8s0.4-0.6,0.6-1c0.2-0.4,0.4-0.7,0.7-1.1c-0.8-0.2-1.6-0.3-2.3-0.4c-0.7-0.1-1.5-0.3-2.2-0.4     c-0.3,0.4-0.6,0.9-0.9,1.3c-0.3,0.4-0.6,0.8-0.9,1.2c-0.3,0.4-0.5,0.7-0.7,1s-0.4,0.6-0.6,0.8c-0.5,0.5-0.9,0.9-1.2,1     c-0.3,0.2-0.6,0.2-0.8,0.2c-0.1,0-0.3-0.1-0.4-0.2c-0.1-0.1-0.2-0.2-0.3-0.3s-0.1-0.2-0.2-0.4c0-0.1,0-0.3,0-0.4     c0-0.1,0.1-0.2,0.1-0.3c0.5-0.8,1-1.6,1.6-2.3c0.5-0.7,1.1-1.4,1.6-2.1c-0.3-0.1-0.6-0.2-0.9-0.4c-0.3-0.1-0.5-0.3-0.7-0.5     s-0.4-0.4-0.5-0.7s-0.2-0.6-0.2-1c0-0.1,0-0.2,0-0.3s0-0.2,0.1-0.2c0.1-0.3,0.2-0.4,0.4-0.3c0.1,0,0.2,0.1,0.3,0.3     s0.2,0.4,0.3,0.7c0.3,0.1,0.5,0.1,0.8,0.2c0.3,0.1,0.6,0.2,0.9,0.3l0.8,0.3c0.4-0.5,0.7-0.9,1.1-1.4c0.3-0.4,0.7-0.9,1-1.3     c0.2-0.3,0.4-0.6,0.5-0.8c0.2-0.3,0.3-0.6,0.4-0.8c0.1-0.2,0.1-0.4,0.1-0.6c0-0.2,0-0.4-0.1-0.5c-0.1-0.2-0.1-0.3-0.3-0.4     c-0.1-0.1-0.3-0.2-0.5-0.3s-0.4-0.1-0.6-0.1c-0.2,0-0.5,0-0.8,0.1c-0.3,0-0.7,0.1-1.1,0.2c-0.4,0.1-0.8,0.3-1.3,0.5     c-0.2,0.1-0.3,0.1-0.4,0.1c-0.1,0-0.2,0-0.3,0c0,0-0.1-0.1,0-0.3c0-0.2,0.1-0.4,0.1-0.6c0.1-0.3,0.2-0.6,0.5-0.8     c0.2-0.2,0.5-0.4,0.8-0.6c0.3-0.2,0.6-0.3,1-0.4c0.4-0.1,0.7-0.2,1.1-0.2c0.4,0,0.7,0,1.1,0c0.3,0,0.7,0.1,0.9,0.2     c0.4,0.1,0.8,0.3,1.1,0.5s0.6,0.5,0.8,0.8s0.3,0.7,0.4,1.1c0,0.4,0,0.9-0.2,1.5c-0.1,0.3-0.2,0.6-0.4,0.9     c-0.2,0.4-0.4,0.7-0.6,1.2c-0.2,0.4-0.5,0.9-0.8,1.3c-0.3,0.5-0.6,0.9-0.9,1.4c0.6,0.1,1.3,0.3,2,0.5c0.8,0.2,1.5,0.4,2.3,0.6     c0.6-0.9,1.2-1.8,1.9-2.7s1.3-1.8,2-2.7c0.2-0.3,0.5-0.5,0.8-0.6s0.6-0.2,0.9-0.1c0.1,0,0.2,0.1,0.3,0.2c0.1,0.1,0.2,0.2,0.2,0.3     c0.1,0.1,0.1,0.2,0.1,0.3s0,0.3,0,0.4c0,0.1-0.1,0.3-0.2,0.5c-0.1,0.2-0.2,0.3-0.3,0.5c-0.2,0.3-0.5,0.7-0.8,1     c-0.3,0.4-0.6,0.7-0.8,1.1c-0.3,0.4-0.6,0.8-0.9,1.2c-0.3,0.4-0.6,0.8-0.8,1.2c0.4,0.1,0.7,0.2,1,0.2c0.3,0.1,0.5,0.1,0.6,0.1     s0.1,0,0.2,0c0.1,0,0.1,0,0.2,0c0.2,0.1,0.3,0.1,0.4,0.2c0.1,0.1,0.2,0.1,0.2,0.2c0,0.1,0.1,0.2,0.1,0.3s0,0.2-0.1,0.3     c0,0.1-0.1,0.2-0.2,0.3c-0.1,0.1-0.2,0.1-0.3,0.1s-0.2,0-0.3,0s-0.2,0-0.3,0c-0.2,0-0.3-0.1-0.4-0.1s-0.1,0-0.2,0c0,0,0,0-0.1,0     c0,0,0,0-0.1,0c0,0-0.1,0-0.2,0c-0.1,0-0.2,0-0.4-0.1c-0.2,0-0.4-0.1-0.6-0.1C540.1,786.9,539.9,786.9,539.7,786.8z"
           id="path469" /><path
           class="st7"
           d="M550.5,794.5c-0.4,0-0.8,0-1.1,0.1c-0.4,0-0.8,0.1-1.1,0.1c-0.4,0-0.7,0-1,0s-0.6,0-0.9-0.1     c-0.3-0.1-0.5-0.2-0.6-0.4s-0.2-0.4-0.1-0.5c0.1-0.2,0.1-0.3,0.2-0.5c0.1-0.1,0.2-0.3,0.3-0.3c0.1-0.1,0.2-0.2,0.3-0.2     c0.1-0.1,0.2-0.1,0.3-0.1l6.6-0.4l-5.7-3.7c-0.2-0.1-0.3-0.3-0.4-0.4c-0.1-0.1-0.1-0.3,0-0.5c0,0,0,0,0-0.1s0.1-0.2,0.1-0.2     c0.1-0.1,0.1-0.2,0.2-0.3c0.1-0.1,0.2-0.2,0.3-0.3s0.2-0.1,0.3-0.2c0.1,0,0.3,0,0.4,0c0.1,0,0.2,0.1,0.4,0.2     c0.2,0.1,0.4,0.3,0.7,0.5s0.6,0.4,0.9,0.7c0.3,0.2,0.6,0.5,0.9,0.7c0.3,0.2,0.6,0.5,0.8,0.7c0.3,0.2,0.5,0.4,0.6,0.5     s0.2,0.2,0.3,0.2c0.3,0.2,0.6,0.5,0.8,0.7c0.3,0.2,0.5,0.4,0.7,0.6c0.2,0.2,0.3,0.4,0.4,0.7c0.1,0.2,0.1,0.5,0,0.8     s-0.3,0.6-0.4,0.9c-0.2,0.2-0.5,0.4-0.8,0.6c-0.3,0.1-0.8,0.3-1.3,0.3C552,794.4,551.4,794.5,550.5,794.5z"
           id="path471" /></g></g><ellipse
       style="fill:#ffffff;fill-opacity:1;stroke-width:1.16329741"
       id="path165"
       cx="365.00674"
       cy="268.59839"
       rx="23.677713"
       ry="23.107164" /><path
       id="pupill_7_"
       class="st7"
       d="m 373.36754,271.42775 c -1.1,4.10001 -5.6,6.4 -10.1,5.2 -3.3,-0.89999 -5.6,-3.5 -6.1,-6.39999 0.4,0.39999 0.9,0.69999 1.5,0.89999 1.8,0.5 3.7,-0.5 4.2,-2.1 0.5,-1.69999 -0.6,-3.5 -2.5,-4 -0.7,-0.19999 -1.5,-0.19999 -2.2,0.1 1.8,-2.7 5.5,-4.1 9.1,-3.1 4.5,1 7.2,5.30001 6.1,9.4 z"
       inkscape:connector-curvature="0"
       style="fill:#333333" /><ellipse
       ry="23.107164"
       rx="23.677713"
       cy="269.16895"
       cx="465.42307"
       id="ellipse4708"
       style="fill:#ffffff;fill-opacity:1;stroke-width:1.16329741" /><path
       id="path4706"
       class="st7"
       d="m 473.78386,271.42775 c -1.1,4.1 -5.6,6.4 -10.1,5.2 -3.3,-0.9 -5.6,-3.5 -6.1,-6.4 0.4,0.4 0.9,0.7 1.5,0.9 1.8,0.5 3.7,-0.5 4.2,-2.1 0.5,-1.7 -0.6,-3.5 -2.5,-4 -0.7,-0.2 -1.5,-0.2 -2.2,0.1 1.8,-2.7 5.5,-4.1 9.1,-3.1 4.5,1 7.2,5.3 6.1,9.4 z"
       inkscape:connector-curvature="0"
       style="fill:#333333" /></g></svg>